<svg width="14" height="24" viewBox="0 0 14 24" fill="none" xmlns="http://www.w3.org/2000/svg">
<g clip-path="url(#clip0_331_6039)">
<path d="M7.00047 0C3.56046 0 0.762049 2.7785 0.762049 6.19426C0.762049 9.60974 3.56046 12.387 7.00047 12.387C10.4404 12.387 13.2374 9.60974 13.2374 6.19426C13.2374 2.7785 10.4404 0 7.00047 0ZM7.00047 3.62926C8.4242 3.62926 9.58195 4.78046 9.58195 6.19426C9.58195 7.60745 8.42422 8.75777 7.00047 8.75777C5.57646 8.75777 4.41749 7.60747 4.41749 6.19426C4.41749 4.78046 5.57646 3.62926 7.00047 3.62926ZM1.85718 12.5977C1.23998 12.5882 0.633039 12.8903 0.280956 13.4475C-0.257101 14.2963 0.000653283 15.4164 0.853453 15.9502C1.98148 16.653 3.20553 17.1516 4.47492 17.439L0.98865 20.9025C0.274963 21.6115 0.275567 22.7599 0.989399 23.469C1.34719 23.8229 1.81383 24 2.28165 24C2.74899 24 3.2172 23.8226 3.5739 23.4683L6.999 20.0655L10.4271 23.4683C11.1402 24.1771 12.2965 24.1771 13.0108 23.4683C13.7248 22.7597 13.7248 21.6101 13.0108 20.9025L9.52305 17.4398C10.7928 17.1524 12.0173 16.6535 13.1445 15.9503C13.999 15.4164 14.2571 14.2951 13.7193 13.4475C13.1808 12.5985 12.0533 12.3428 11.1982 12.8775C8.6443 14.4728 5.3536 14.4717 2.80049 12.8775C2.50661 12.6937 2.18048 12.6028 1.85718 12.5978V12.5977Z" fill="#563200"/>
</g>
<defs>
<clipPath id="clip0_331_6039">
<rect width="14" height="24" fill="white"/>
</clipPath>
</defs>
</svg>
