<svg width="306" height="167" viewBox="0 0 306 167" fill="none" xmlns="http://www.w3.org/2000/svg">
<path fill-rule="evenodd" clip-rule="evenodd" d="M-268 -214H573.89V381.276H-268V-214Z" fill="#8DC521"/>
<path fill-rule="evenodd" clip-rule="evenodd" d="M-3.32501 99.0341C-3.23701 99.3441 -3.14002 99.574 -3.02602 99.744L-3.02301 99.748C-2.98601 99.808 -2.94001 99.8649 -2.88501 99.9189C-2.83101 99.9739 -2.77402 100.019 -2.71402 100.057L-2.71002 100.06C-2.53902 100.173 -2.30901 100.271 -1.99901 100.359C-1.87301 100.365 -1.74902 100.371 -1.62502 100.376C-1.61802 100.665 -1.65902 101.372 -1.53902 101.936C-1.03802 104.302 0.256989 107.202 1.85599 109.296C2.72399 110.432 3.16598 110.812 4.47998 110.483C4.93698 110.368 5.47299 110.054 5.90599 109.842C7.66499 113.586 8.89898 115.827 11.286 117.837C11.979 118.42 12.45 118.759 12.941 118.794C13.432 118.759 13.902 118.42 14.595 117.837C16.983 115.827 18.216 113.586 19.975 109.842C20.408 110.053 20.944 110.368 21.401 110.483C22.715 110.812 23.157 110.432 24.025 109.296C25.624 107.202 26.919 104.301 27.42 101.936C27.539 101.371 27.499 100.665 27.506 100.376C27.63 100.371 27.755 100.366 27.88 100.359C28.19 100.271 28.42 100.173 28.591 100.06L28.595 100.057C28.656 100.019 28.712 99.9739 28.766 99.9189C28.821 99.8649 28.866 99.808 28.904 99.748L28.907 99.744C29.02 99.573 29.118 99.3441 29.205 99.0341C29.212 98.9081 29.217 98.784 29.222 98.66C29.511 98.654 30.218 98.694 30.782 98.574C33.148 98.073 36.048 96.778 38.142 95.179C39.278 94.311 39.658 93.8691 39.329 92.5551C39.214 92.0981 38.9 91.562 38.689 91.129C42.433 89.37 44.673 88.136 46.684 85.749C47.267 85.056 47.606 84.585 47.641 84.095C47.606 83.604 47.267 83.134 46.684 82.441C44.674 80.053 42.433 78.82 38.689 77.061C38.9 76.628 39.215 76.092 39.329 75.635C39.659 74.321 39.279 73.879 38.142 73.011C36.048 71.412 33.147 70.117 30.782 69.616C30.217 69.497 29.511 69.537 29.222 69.53C29.217 69.406 29.212 69.281 29.205 69.156C29.117 68.846 29.019 68.6159 28.907 68.4449L28.904 68.441C28.867 68.38 28.821 68.324 28.766 68.269C28.712 68.214 28.655 68.169 28.595 68.132L28.591 68.129C28.42 68.016 28.19 67.9181 27.88 67.8311C27.754 67.8241 27.63 67.819 27.506 67.814C27.499 67.524 27.54 66.8181 27.42 66.2531C26.919 63.8881 25.624 60.9869 24.025 58.8929C23.157 57.7569 22.716 57.3771 21.401 57.7061C20.944 57.8211 20.408 58.1349 19.975 58.3459C18.216 54.6019 16.983 52.361 14.595 50.351C13.902 49.768 13.431 49.429 12.941 49.394C12.45 49.429 11.979 49.768 11.286 50.351C8.89798 52.361 7.66499 54.6019 5.90599 58.3459C5.47299 58.1349 4.93698 57.8201 4.47998 57.7061C3.16598 57.3761 2.72399 57.7559 1.85599 58.8929C0.256989 60.9869 -1.03802 63.8881 -1.53902 66.2531C-1.65802 66.8181 -1.61802 67.524 -1.62502 67.814C-1.74902 67.819 -1.87401 67.8241 -1.99901 67.8311C-2.30901 67.9181 -2.53902 68.016 -2.71002 68.129L-2.71402 68.132C-2.77402 68.17 -2.83101 68.215 -2.88501 68.269C-2.94001 68.323 -2.98501 68.38 -3.02301 68.441L-3.02602 68.4449C-3.13902 68.6159 -3.23701 68.846 -3.32501 69.156C-3.33201 69.281 -3.33701 69.406 -3.34201 69.53C-3.63101 69.537 -4.33801 69.497 -4.90201 69.616C-7.26801 70.116 -10.168 71.411 -12.262 73.011C-13.398 73.879 -13.778 74.32 -13.449 75.635C-13.334 76.092 -13.02 76.628 -12.808 77.061C-16.552 78.82 -18.793 80.054 -20.803 82.441C-21.386 83.134 -21.725 83.605 -21.76 84.095C-21.725 84.586 -21.386 85.056 -20.803 85.749C-18.793 88.137 -16.552 89.37 -12.808 91.129C-13.019 91.562 -13.334 92.0981 -13.449 92.5551C-13.779 93.8691 -13.399 94.311 -12.262 95.179C-10.168 96.778 -7.26701 98.073 -4.90201 98.574C-4.33701 98.693 -3.63101 98.653 -3.34201 98.66C-3.33701 98.783 -3.33201 98.9081 -3.32501 99.0341ZM25.07 67.822C24.113 67.869 23.201 67.97 22.336 68.129C21.252 68.237 20.282 68.421 18.987 68.868C18.541 67.826 16.254 64.559 16.036 64.377C16.821 63.252 19.969 60.691 21.733 60.109C23.46 61.74 25.384 66.011 25.07 67.822ZM3.53998 68.129C2.67498 67.97 1.76299 67.869 0.805984 67.822C0.491985 66.011 2.41599 61.74 4.14299 60.108C5.90699 60.69 9.05498 63.251 9.83998 64.376C9.62298 64.559 7.33499 67.8259 6.88899 68.8669C5.59399 68.4209 4.62398 68.237 3.53998 68.129ZM29.211 71.963C29.164 72.92 29.062 73.832 28.904 74.697C28.796 75.782 28.612 76.751 28.165 78.046C29.207 78.492 32.474 80.7789 32.656 80.9969C33.781 80.2119 36.342 77.064 36.924 75.3C35.293 73.572 31.021 71.649 29.211 71.963ZM-3.02802 74.696C-3.18602 73.831 -3.28802 72.919 -3.33502 71.962C-5.14602 71.648 -9.41701 73.5709 -11.049 75.299C-10.467 77.063 -7.90602 80.211 -6.78102 80.996C-6.59802 80.779 -3.33102 78.491 -2.28902 78.045C-2.73602 76.75 -2.92002 75.781 -3.02802 74.696ZM12.938 52.282C10.646 53.336 7.97698 58.13 7.93298 59.946L11.323 62.994C12.025 62.439 12.502 62.112 12.938 62.012C13.375 62.112 13.852 62.439 14.553 62.994L17.943 59.946C17.898 58.13 15.229 53.337 12.938 52.282ZM12.938 64.448C12.407 64.402 9.38299 67.753 8.83199 69.686C11.122 71.887 12.178 73.086 12.938 74.803C13.697 73.086 14.754 71.888 17.043 69.686C16.493 67.753 13.469 64.403 12.938 64.448ZM14.019 81.475C13.998 81.319 13.981 81.16 13.968 81C14.093 77.144 15.118 74.421 17.265 72.532C19.084 70.932 22.597 69.852 25.212 69.876C26.19 69.886 26.685 69.87 26.941 70.09C27.161 70.345 27.146 70.841 27.155 71.819C27.18 74.434 26.099 77.947 24.5 79.766C22.612 81.912 19.889 82.938 16.032 83.063C15.872 83.05 15.713 83.033 15.557 83.012L22.771 74.351L22.277 74.754L22.68 74.26L14.019 81.475ZM11.857 81.475C11.878 81.319 11.895 81.16 11.908 81C11.783 77.144 10.758 74.421 8.61098 72.532C6.79198 70.932 3.27899 69.852 0.663986 69.876C-0.314014 69.886 -0.809017 69.87 -1.06502 70.09C-1.28502 70.345 -1.27002 70.841 -1.27902 71.819C-1.30402 74.434 -0.223017 77.947 1.37698 79.766C3.26498 81.912 5.98799 82.938 9.84499 83.063C10.005 83.05 10.164 83.033 10.32 83.012L3.10599 74.351L3.59999 74.754L3.19699 74.26L11.857 81.475ZM29.211 96.2271C29.164 95.2701 29.062 94.358 28.904 93.493C28.796 92.408 28.612 91.439 28.165 90.144C29.207 89.698 32.474 87.411 32.656 87.194C33.781 87.979 36.342 91.127 36.924 92.891C35.293 94.617 31.021 96.541 29.211 96.2271ZM25.07 100.367C24.113 100.32 23.201 100.219 22.336 100.061C21.252 99.953 20.282 99.769 18.987 99.322C18.541 100.364 16.254 103.631 16.036 103.813C16.821 104.938 19.969 107.499 21.733 108.081C23.46 106.45 25.384 102.178 25.07 100.367ZM44.75 84.095C43.696 81.803 38.902 79.135 37.086 79.09L34.038 82.479C34.592 83.181 34.92 83.658 35.02 84.095C34.919 84.532 34.592 85.009 34.038 85.71L37.086 89.1C38.902 89.055 43.696 86.386 44.75 84.095ZM32.584 84.095C32.629 83.564 29.279 80.54 27.346 79.989C25.144 82.279 23.946 83.335 22.229 84.095C23.946 84.854 25.144 85.911 27.346 88.201C29.279 87.6501 32.63 84.625 32.584 84.095ZM15.558 85.176C15.714 85.155 15.873 85.138 16.033 85.125C19.889 85.25 22.612 86.275 24.501 88.422C26.1 90.241 27.181 93.754 27.156 96.369C27.147 97.347 27.162 97.842 26.942 98.098C26.687 98.318 26.191 98.303 25.213 98.312C22.598 98.337 19.085 97.256 17.266 95.656C15.119 93.768 14.094 91.044 13.969 87.188C13.982 87.028 13.999 86.869 14.02 86.713L22.681 93.927L22.278 93.433L22.772 93.8361L15.558 85.176ZM-3.02802 93.493C-3.18602 94.358 -3.28802 95.2701 -3.33502 96.2271C-5.14602 96.541 -9.41701 94.617 -11.049 92.891C-10.467 91.127 -7.90602 87.979 -6.78102 87.194C-6.59802 87.411 -3.33102 89.699 -2.28902 90.144C-2.73602 91.439 -2.92002 92.408 -3.02802 93.493ZM0.805984 100.367C1.76299 100.32 2.67498 100.219 3.53998 100.061C4.62398 99.953 5.59399 99.769 6.88899 99.322C7.33499 100.364 9.62198 103.631 9.83998 103.813C9.05498 104.938 5.90699 107.499 4.14299 108.081C2.41599 106.45 0.491985 102.178 0.805984 100.367ZM-18.874 84.095C-17.82 81.803 -13.026 79.135 -11.21 79.09L-8.16202 82.479C-8.71602 83.181 -9.04301 83.658 -9.14401 84.095C-9.04301 84.532 -8.71602 85.009 -8.16202 85.71L-11.21 89.1C-13.026 89.055 -17.82 86.386 -18.874 84.095ZM-6.70801 84.095C-6.75301 83.564 -3.40302 80.54 -1.47002 79.989C0.730984 82.279 1.92898 83.335 3.64598 84.095C1.92898 84.854 0.730984 85.911 -1.47002 88.201C-3.40302 87.6501 -6.75401 84.625 -6.70801 84.095ZM10.318 85.176C10.162 85.155 10.003 85.138 9.84299 85.125C5.98699 85.25 3.26398 86.275 1.37498 88.422C-0.225016 90.241 -1.30502 93.754 -1.28102 96.369C-1.27202 97.347 -1.28702 97.842 -1.06702 98.098C-0.812017 98.318 -0.316013 98.303 0.661987 98.312C3.27699 98.337 6.78998 97.256 8.60898 95.656C10.756 93.768 11.781 91.044 11.906 87.188C11.893 87.028 11.876 86.869 11.855 86.713L3.19398 93.927L3.59698 93.433L3.10298 93.8361L10.318 85.176ZM12.938 115.907C10.646 114.853 7.97698 110.059 7.93298 108.243L11.323 105.195C12.025 105.749 12.502 106.077 12.938 106.177C13.375 106.076 13.852 105.749 14.553 105.195L17.943 108.243C17.898 110.059 15.229 114.853 12.938 115.907ZM12.938 103.741C12.407 103.786 9.38299 100.436 8.83199 98.5031C11.122 96.3021 12.178 95.104 12.938 93.386C13.697 95.103 14.754 96.3011 17.043 98.5031C16.493 100.436 13.469 103.787 12.938 103.741Z" fill="#9CD22F"/>
<path fill-rule="evenodd" clip-rule="evenodd" d="M108.924 99.0341C109.012 99.3441 109.11 99.574 109.223 99.744L109.226 99.748C109.264 99.808 109.309 99.8649 109.364 99.9189C109.418 99.9739 109.475 100.019 109.535 100.057L109.539 100.06C109.71 100.173 109.94 100.271 110.25 100.359C110.375 100.365 110.5 100.371 110.624 100.376C110.63 100.665 110.59 101.372 110.71 101.936C111.211 104.302 112.506 107.202 114.105 109.296C114.973 110.432 115.414 110.812 116.729 110.483C117.186 110.368 117.722 110.054 118.155 109.842C119.914 113.586 121.148 115.827 123.535 117.837C124.228 118.42 124.698 118.759 125.189 118.794C125.68 118.759 126.151 118.42 126.843 117.837C129.231 115.827 130.464 113.586 132.223 109.842C132.656 110.053 133.192 110.368 133.649 110.483C134.963 110.812 135.405 110.432 136.273 109.296C137.872 107.202 139.167 104.301 139.668 101.936C139.788 101.371 139.747 100.665 139.754 100.376C139.878 100.371 140.003 100.366 140.128 100.359C140.438 100.271 140.668 100.173 140.839 100.06L140.843 100.057C140.904 100.019 140.96 99.9739 141.015 99.9189C141.07 99.8649 141.115 99.808 141.153 99.748L141.156 99.744C141.269 99.573 141.367 99.3441 141.454 99.0341C141.461 98.9081 141.466 98.784 141.471 98.66C141.761 98.654 142.467 98.694 143.032 98.574C145.398 98.073 148.298 96.778 150.392 95.179C151.528 94.311 151.908 93.8691 151.579 92.5551C151.464 92.0981 151.15 91.562 150.938 91.129C154.682 89.37 156.923 88.136 158.933 85.749C159.516 85.056 159.855 84.585 159.89 84.095C159.855 83.604 159.516 83.134 158.933 82.441C156.923 80.053 154.682 78.82 150.938 77.061C151.149 76.628 151.464 76.092 151.579 75.635C151.908 74.321 151.529 73.879 150.392 73.011C148.298 71.412 145.397 70.117 143.032 69.616C142.467 69.497 141.761 69.537 141.471 69.53C141.466 69.406 141.461 69.281 141.454 69.156C141.367 68.846 141.269 68.6159 141.156 68.4449L141.153 68.441C141.115 68.38 141.07 68.324 141.015 68.269C140.961 68.214 140.904 68.169 140.843 68.132L140.839 68.129C140.668 68.016 140.438 67.9181 140.128 67.8311C140.003 67.8241 139.878 67.819 139.754 67.814C139.747 67.524 139.788 66.8181 139.668 66.2531C139.167 63.8881 137.873 60.9869 136.273 58.8929C135.405 57.7569 134.964 57.3771 133.649 57.7061C133.192 57.8211 132.656 58.1349 132.223 58.3459C130.463 54.6019 129.23 52.361 126.843 50.351C126.15 49.768 125.68 49.429 125.189 49.394C124.698 49.429 124.228 49.768 123.535 50.351C121.147 52.361 119.914 54.6019 118.155 58.3459C117.722 58.1349 117.186 57.8201 116.729 57.7061C115.415 57.3761 114.973 57.7559 114.105 58.8929C112.506 60.9869 111.211 63.8881 110.71 66.2531C110.591 66.8181 110.631 67.524 110.624 67.814C110.5 67.819 110.375 67.8241 110.25 67.8311C109.94 67.9181 109.71 68.016 109.539 68.129L109.535 68.132C109.474 68.17 109.417 68.215 109.364 68.269C109.309 68.323 109.264 68.38 109.226 68.441L109.223 68.4449C109.11 68.6159 109.012 68.846 108.924 69.156C108.918 69.281 108.912 69.406 108.908 69.53C108.618 69.537 107.912 69.497 107.347 69.616C104.982 70.116 102.081 71.411 99.987 73.011C98.851 73.879 98.471 74.32 98.8 75.635C98.915 76.092 99.229 76.628 99.441 77.061C95.697 78.82 93.456 80.054 91.446 82.441C90.863 83.134 90.524 83.605 90.489 84.095C90.524 84.586 90.863 85.056 91.446 85.749C93.456 88.137 95.697 89.37 99.441 91.129C99.229 91.562 98.915 92.0981 98.8 92.5551C98.471 93.8691 98.85 94.311 99.987 95.179C102.081 96.778 104.982 98.073 107.347 98.574C107.912 98.693 108.618 98.653 108.908 98.66C108.912 98.783 108.917 98.9081 108.924 99.0341ZM137.319 67.822C136.362 67.869 135.45 67.97 134.585 68.129C133.5 68.237 132.531 68.421 131.236 68.868C130.79 67.826 128.503 64.559 128.285 64.377C129.07 63.252 132.218 60.691 133.982 60.109C135.71 61.74 137.633 66.011 137.319 67.822ZM115.789 68.129C114.924 67.97 114.013 67.869 113.055 67.822C112.741 66.011 114.664 61.74 116.392 60.108C118.156 60.69 121.304 63.251 122.089 64.376C121.872 64.559 119.584 67.8259 119.138 68.8669C117.843 68.4209 116.874 68.237 115.789 68.129ZM141.46 71.963C141.413 72.92 141.312 73.832 141.153 74.697C141.045 75.782 140.861 76.751 140.414 78.046C141.456 78.492 144.723 80.7789 144.905 80.9969C146.031 80.2119 148.591 77.064 149.173 75.3C147.542 73.572 143.271 71.649 141.46 71.963ZM109.221 74.696C109.063 73.831 108.961 72.919 108.914 71.962C107.103 71.648 102.831 73.5709 101.199 75.299C101.781 77.063 104.342 80.211 105.467 80.996C105.65 80.779 108.917 78.491 109.958 78.045C109.513 76.75 109.329 75.781 109.221 74.696ZM125.187 52.282C122.895 53.336 120.226 58.13 120.182 59.946L123.572 62.994C124.274 62.439 124.751 62.112 125.187 62.012C125.624 62.112 126.101 62.439 126.802 62.994L130.192 59.946C130.148 58.13 127.479 53.337 125.187 52.282ZM125.187 64.448C124.656 64.402 121.632 67.753 121.081 69.686C123.371 71.887 124.427 73.086 125.187 74.803C125.946 73.086 127.003 71.888 129.293 69.686C128.742 67.753 125.718 64.403 125.187 64.448ZM126.268 81.475C126.247 81.319 126.23 81.16 126.217 81C126.342 77.144 127.368 74.421 129.514 72.532C131.333 70.932 134.846 69.852 137.461 69.876C138.439 69.886 138.935 69.87 139.19 70.09C139.41 70.345 139.395 70.841 139.404 71.819C139.429 74.434 138.348 77.947 136.749 79.766C134.861 81.912 132.137 82.938 128.281 83.063C128.121 83.05 127.962 83.033 127.806 83.012L135.02 74.351L134.526 74.754L134.929 74.26L126.268 81.475ZM124.106 81.475C124.127 81.319 124.144 81.16 124.157 81C124.032 77.144 123.006 74.421 120.86 72.532C119.041 70.932 115.528 69.852 112.913 69.876C111.935 69.886 111.44 69.87 111.184 70.09C110.964 70.345 110.979 70.841 110.97 71.819C110.945 74.434 112.026 77.947 113.625 79.766C115.513 81.912 118.237 82.938 122.093 83.063C122.253 83.05 122.412 83.033 122.568 83.012L115.354 74.351L115.848 74.754L115.445 74.26L124.106 81.475ZM141.46 96.2271C141.413 95.2701 141.312 94.358 141.153 93.493C141.045 92.408 140.861 91.439 140.414 90.144C141.456 89.698 144.723 87.411 144.905 87.194C146.031 87.979 148.591 91.127 149.173 92.891C147.542 94.617 143.271 96.541 141.46 96.2271ZM137.319 100.367C136.362 100.32 135.45 100.219 134.585 100.061C133.5 99.953 132.531 99.769 131.236 99.322C130.79 100.364 128.503 103.631 128.285 103.813C129.07 104.938 132.218 107.499 133.982 108.081C135.71 106.45 137.633 102.178 137.319 100.367ZM157 84.095C155.946 81.803 151.152 79.135 149.335 79.09L146.287 82.479C146.841 83.181 147.168 83.658 147.269 84.095C147.169 84.532 146.842 85.009 146.287 85.71L149.335 89.1C151.152 89.055 155.945 86.386 157 84.095ZM144.834 84.095C144.879 83.564 141.529 80.54 139.596 79.989C137.395 82.279 136.196 83.335 134.48 84.095C136.197 84.854 137.395 85.911 139.596 88.201C141.529 87.6501 144.879 84.625 144.834 84.095ZM127.807 85.176C127.963 85.155 128.122 85.138 128.282 85.125C132.138 85.25 134.862 86.275 136.75 88.422C138.35 90.241 139.43 93.754 139.405 96.369C139.395 97.347 139.411 97.842 139.191 98.098C138.936 98.318 138.44 98.303 137.462 98.312C134.847 98.337 131.334 97.256 129.515 95.656C127.368 93.768 126.343 91.044 126.218 87.188C126.231 87.028 126.248 86.869 126.269 86.713L134.93 93.927L134.527 93.433L135.021 93.8361L127.807 85.176ZM109.221 93.493C109.063 94.358 108.961 95.2701 108.914 96.2271C107.103 96.541 102.831 94.617 101.199 92.891C101.781 91.127 104.342 87.979 105.467 87.194C105.65 87.411 108.917 89.699 109.958 90.144C109.513 91.439 109.329 92.408 109.221 93.493ZM113.055 100.367C114.012 100.32 114.924 100.219 115.789 100.061C116.874 99.953 117.843 99.769 119.138 99.322C119.584 100.364 121.871 103.631 122.089 103.813C121.304 104.938 118.156 107.499 116.392 108.081C114.665 106.45 112.741 102.178 113.055 100.367ZM93.375 84.095C94.43 81.803 99.223 79.135 101.039 79.09L104.087 82.479C103.533 83.181 103.206 83.658 103.105 84.095C103.206 84.532 103.533 85.009 104.087 85.71L101.039 89.1C99.223 89.055 94.429 86.386 93.375 84.095ZM105.541 84.095C105.496 83.564 108.846 80.54 110.779 79.989C112.98 82.279 114.178 83.335 115.896 84.095C114.179 84.854 112.981 85.911 110.779 88.201C108.846 87.6501 105.495 84.625 105.541 84.095ZM122.568 85.176C122.412 85.155 122.253 85.138 122.093 85.125C118.237 85.25 115.514 86.275 113.625 88.422C112.025 90.241 110.945 93.754 110.97 96.369C110.979 97.347 110.964 97.842 111.184 98.098C111.439 98.318 111.935 98.303 112.913 98.312C115.528 98.337 119.041 97.256 120.86 95.656C123.007 93.768 124.032 91.044 124.157 87.188C124.144 87.028 124.127 86.869 124.106 86.713L115.444 93.927L115.847 93.433L115.353 93.8361L122.568 85.176ZM125.187 115.907C122.895 114.853 120.226 110.059 120.182 108.243L123.572 105.195C124.274 105.749 124.751 106.077 125.187 106.177C125.624 106.076 126.101 105.749 126.802 105.195L130.192 108.243C130.148 110.059 127.479 114.853 125.187 115.907ZM125.187 103.741C124.656 103.786 121.632 100.436 121.081 98.5031C123.371 96.3021 124.427 95.104 125.187 93.386C125.946 95.103 127.003 96.3011 129.293 98.5031C128.742 100.436 125.718 103.787 125.187 103.741Z" fill="#9CD22F"/>
<mask id="mask0_76_1719" style="mask-type:luminance" maskUnits="userSpaceOnUse" x="-268" y="-214" width="842" height="596">
<path d="M-268 -214H573.89V381.276H-268V-214Z" fill="white"/>
</mask>
<g mask="url(#mask0_76_1719)">
<path fill-rule="evenodd" clip-rule="evenodd" d="M221.173 99.0341C221.261 99.3441 221.358 99.574 221.471 99.744L221.474 99.748C221.511 99.808 221.557 99.8649 221.611 99.9189C221.665 99.9739 221.722 100.019 221.783 100.057L221.787 100.06C221.958 100.173 222.188 100.271 222.498 100.359C222.623 100.365 222.748 100.371 222.872 100.376C222.879 100.665 222.839 101.372 222.958 101.936C223.459 104.302 224.753 107.202 226.353 109.296C227.221 110.432 227.662 110.812 228.977 110.483C229.434 110.368 229.97 110.054 230.402 109.842C232.162 113.586 233.395 115.827 235.782 117.837C236.475 118.42 236.946 118.759 237.436 118.794C237.927 118.759 238.398 118.42 239.091 117.837C241.479 115.827 242.712 113.586 244.471 109.842C244.904 110.053 245.44 110.368 245.897 110.483C247.211 110.812 247.653 110.432 248.521 109.296C250.12 107.202 251.415 104.301 251.916 101.936C252.035 101.371 251.995 100.665 252.002 100.376C252.126 100.371 252.251 100.366 252.376 100.359C252.686 100.271 252.916 100.173 253.086 100.06L253.09 100.057C253.15 100.019 253.207 99.9739 253.261 99.9189C253.316 99.8649 253.361 99.808 253.399 99.748L253.402 99.744C253.515 99.573 253.613 99.3441 253.701 99.0341C253.707 98.9081 253.713 98.784 253.718 98.66C254.007 98.654 254.714 98.694 255.278 98.574C257.644 98.073 260.544 96.778 262.638 95.179C263.774 94.311 264.154 93.8691 263.825 92.5551C263.71 92.0981 263.396 91.562 263.184 91.129C266.928 89.37 269.169 88.136 271.179 85.749C271.762 85.056 272.101 84.585 272.136 84.095C272.101 83.604 271.762 83.134 271.179 82.441C269.169 80.053 266.928 78.82 263.184 77.061C263.395 76.628 263.71 76.092 263.825 75.635C264.154 74.321 263.775 73.879 262.638 73.011C260.544 71.412 257.643 70.117 255.278 69.616C254.713 69.497 254.007 69.537 253.718 69.53C253.713 69.406 253.708 69.281 253.701 69.156C253.613 68.846 253.515 68.6159 253.402 68.4449L253.399 68.441C253.361 68.38 253.316 68.324 253.261 68.269C253.207 68.214 253.15 68.169 253.09 68.132L253.086 68.129C252.915 68.016 252.685 67.9181 252.376 67.8311C252.25 67.8241 252.126 67.819 252.002 67.814C251.995 67.524 252.036 66.8181 251.916 66.2531C251.415 63.8881 250.12 60.9869 248.521 58.8929C247.653 57.7569 247.211 57.3771 245.897 57.7061C245.44 57.8211 244.904 58.1349 244.471 58.3459C242.712 54.6019 241.479 52.361 239.091 50.351C238.398 49.768 237.927 49.429 237.436 49.394C236.945 49.429 236.475 49.768 235.782 50.351C233.394 52.361 232.161 54.6019 230.402 58.3459C229.969 58.1349 229.433 57.8201 228.977 57.7061C227.662 57.3761 227.221 57.7559 226.353 58.8929C224.754 60.9869 223.459 63.8881 222.958 66.2531C222.839 66.8181 222.879 67.524 222.872 67.814C222.748 67.819 222.623 67.8241 222.498 67.8311C222.188 67.9181 221.958 68.016 221.787 68.129L221.783 68.132C221.723 68.17 221.666 68.215 221.611 68.269C221.556 68.323 221.511 68.38 221.474 68.441L221.471 68.4449C221.358 68.6159 221.26 68.846 221.173 69.156C221.166 69.281 221.161 69.406 221.156 69.53C220.866 69.537 220.16 69.497 219.595 69.616C217.229 70.116 214.329 71.411 212.235 73.011C211.099 73.879 210.719 74.32 211.048 75.635C211.163 76.092 211.477 76.628 211.688 77.061C207.944 78.82 205.703 80.054 203.693 82.441C203.11 83.134 202.771 83.605 202.736 84.095C202.771 84.586 203.11 85.056 203.693 85.749C205.703 88.137 207.944 89.37 211.688 91.129C211.477 91.562 211.162 92.0981 211.048 92.5551C210.718 93.8691 211.098 94.311 212.235 95.179C214.329 96.778 217.23 98.073 219.595 98.574C220.16 98.693 220.866 98.653 221.156 98.66C221.161 98.783 221.167 98.9081 221.173 99.0341ZM249.568 67.822C248.611 67.869 247.699 67.97 246.834 68.129C245.75 68.237 244.78 68.421 243.485 68.868C243.039 67.826 240.752 64.559 240.535 64.377C241.32 63.252 244.468 60.691 246.232 60.109C247.959 61.74 249.883 66.011 249.568 67.822ZM228.038 68.129C227.173 67.97 226.262 67.869 225.304 67.822C224.99 66.011 226.914 61.74 228.641 60.108C230.405 60.69 233.553 63.251 234.338 64.376C234.12 64.559 231.833 67.8259 231.387 68.8669C230.092 68.4209 229.123 68.237 228.038 68.129ZM253.709 71.963C253.662 72.92 253.561 73.832 253.403 74.697C253.295 75.782 253.111 76.751 252.664 78.046C253.706 78.492 256.973 80.7789 257.156 80.9969C258.281 80.2119 260.842 77.064 261.424 75.3C259.792 73.572 255.52 71.649 253.709 71.963ZM221.471 74.696C221.312 73.831 221.211 72.919 221.164 71.962C219.353 71.648 215.082 73.5709 213.45 75.299C214.032 77.063 216.593 80.211 217.718 80.996C217.901 80.779 221.167 78.491 222.209 78.045C221.762 76.75 221.579 75.781 221.471 74.696ZM237.436 52.282C235.145 53.336 232.476 58.13 232.431 59.946L235.82 62.994C236.522 62.439 236.999 62.112 237.435 62.012C237.872 62.112 238.349 62.439 239.051 62.994L242.441 59.946C242.397 58.13 239.728 53.337 237.436 52.282ZM237.436 64.448C236.905 64.402 233.881 67.753 233.331 69.686C235.621 71.887 236.677 73.086 237.436 74.803C238.195 73.086 239.252 71.888 241.542 69.686C240.992 67.753 237.967 64.403 237.436 64.448ZM238.518 81.475C238.497 81.319 238.48 81.16 238.467 81C238.592 77.144 239.617 74.421 241.764 72.532C243.583 70.932 247.096 69.852 249.711 69.876C250.689 69.886 251.184 69.87 251.44 70.09C251.66 70.345 251.645 70.841 251.654 71.819C251.679 74.434 250.598 77.947 248.998 79.766C247.11 81.912 244.386 82.938 240.53 83.063C240.37 83.05 240.211 83.033 240.055 83.012L247.269 74.351L246.775 74.754L247.178 74.26L238.518 81.475ZM236.355 81.475C236.376 81.319 236.393 81.16 236.406 81C236.281 77.144 235.255 74.421 233.109 72.532C231.29 70.932 227.777 69.852 225.162 69.876C224.184 69.886 223.688 69.87 223.433 70.09C223.213 70.345 223.228 70.841 223.219 71.819C223.194 74.434 224.275 77.947 225.874 79.766C227.762 81.912 230.485 82.938 234.342 83.063C234.502 83.05 234.661 83.033 234.817 83.012L227.603 74.351L228.097 74.754L227.694 74.26L236.355 81.475ZM253.709 96.2271C253.662 95.2701 253.561 94.358 253.403 93.493C253.295 92.408 253.111 91.439 252.664 90.144C253.706 89.698 256.973 87.411 257.156 87.194C258.281 87.979 260.842 91.127 261.424 92.891C259.792 94.617 255.52 96.541 253.709 96.2271ZM249.568 100.367C248.611 100.32 247.699 100.219 246.834 100.061C245.75 99.953 244.78 99.769 243.485 99.322C243.039 100.364 240.752 103.631 240.535 103.813C241.32 104.938 244.468 107.499 246.232 108.081C247.959 106.45 249.883 102.178 249.568 100.367ZM269.249 84.095C268.195 81.803 263.401 79.135 261.585 79.09L258.537 82.479C259.092 83.181 259.419 83.658 259.519 84.095C259.418 84.532 259.091 85.009 258.537 85.71L261.585 89.1C263.401 89.055 268.195 86.386 269.249 84.095ZM257.083 84.095C257.128 83.564 253.778 80.54 251.845 79.989C249.644 82.279 248.446 83.335 246.728 84.095C248.445 84.854 249.643 85.911 251.845 88.201C253.778 87.6501 257.128 84.625 257.083 84.095ZM240.056 85.176C240.212 85.155 240.371 85.138 240.531 85.125C244.387 85.25 247.11 86.275 248.999 88.422C250.599 90.241 251.679 93.754 251.655 96.369C251.646 97.347 251.661 97.842 251.441 98.098C251.186 98.318 250.69 98.303 249.712 98.312C247.097 98.337 243.584 97.256 241.765 95.656C239.618 93.768 238.593 91.044 238.468 87.188C238.481 87.028 238.498 86.869 238.519 86.713L247.18 93.927L246.777 93.433L247.271 93.8361L240.056 85.176ZM221.471 93.493C221.312 94.358 221.211 95.2701 221.164 96.2271C219.353 96.541 215.082 94.617 213.45 92.891C214.032 91.127 216.593 87.979 217.718 87.194C217.901 87.411 221.167 89.699 222.209 90.144C221.762 91.439 221.579 92.408 221.471 93.493ZM225.304 100.367C226.261 100.32 227.173 100.219 228.038 100.061C229.123 99.953 230.092 99.769 231.387 99.322C231.833 100.364 234.12 103.631 234.338 103.813C233.553 104.938 230.405 107.499 228.641 108.081C226.914 106.45 224.99 102.178 225.304 100.367ZM205.624 84.095C206.678 81.803 211.472 79.135 213.288 79.09L216.336 82.479C215.782 83.181 215.454 83.658 215.354 84.095C215.454 84.532 215.782 85.009 216.336 85.71L213.288 89.1C211.472 89.055 206.678 86.386 205.624 84.095ZM217.79 84.095C217.745 83.564 221.095 80.54 223.028 79.989C225.229 82.279 226.428 83.335 228.145 84.095C226.428 84.854 225.23 85.911 223.028 88.201C221.095 87.6501 217.745 84.625 217.79 84.095ZM234.817 85.176C234.661 85.155 234.502 85.138 234.342 85.125C230.486 85.25 227.763 86.275 225.874 88.422C224.274 90.241 223.194 93.754 223.219 96.369C223.228 97.347 223.213 97.842 223.433 98.098C223.688 98.318 224.184 98.303 225.162 98.312C227.777 98.337 231.29 97.256 233.109 95.656C235.256 93.768 236.281 91.044 236.406 87.188C236.393 87.028 236.376 86.869 236.355 86.713L227.694 93.927L228.097 93.433L227.603 93.8361L234.817 85.176ZM237.436 115.907C235.145 114.853 232.476 110.059 232.431 108.243L235.82 105.195C236.522 105.749 236.999 106.077 237.435 106.177C237.872 106.076 238.349 105.749 239.051 105.195L242.441 108.243C242.397 110.059 239.728 114.853 237.436 115.907ZM237.436 103.741C236.905 103.786 233.881 100.436 233.331 98.5031C235.621 96.3021 236.677 95.104 237.436 93.386C238.195 95.103 239.252 96.3011 241.542 98.5031C240.992 100.436 237.967 103.787 237.436 103.741Z" fill="#9CD22F"/>
</g>
<path fill-rule="evenodd" clip-rule="evenodd" d="M52.9551 172.184C53.0431 172.494 53.1401 172.724 53.2531 172.895L53.2561 172.899C53.2931 172.959 53.3391 173.016 53.3941 173.071C53.4481 173.126 53.5051 173.171 53.5661 173.209L53.5701 173.212C53.7411 173.325 53.9711 173.423 54.2811 173.51C54.4061 173.517 54.5311 173.522 54.6551 173.527C54.6621 173.817 54.6221 174.523 54.7411 175.088C55.2421 177.453 56.5361 180.354 58.1361 182.448C59.0041 183.584 59.4451 183.964 60.7601 183.635C61.2171 183.52 61.7531 183.206 62.1861 182.995C63.9461 186.739 65.1791 188.98 67.5661 190.99C68.2591 191.573 68.7301 191.912 69.2201 191.947C69.7111 191.912 70.1821 191.573 70.8751 190.99C73.2631 188.98 74.4961 186.739 76.2551 182.995C76.6881 183.206 77.2241 183.521 77.6811 183.635C78.9951 183.965 79.4371 183.585 80.3051 182.448C81.9041 180.354 83.1991 177.453 83.7001 175.088C83.8191 174.523 83.7791 173.817 83.7861 173.527C83.9101 173.522 84.0351 173.517 84.1601 173.51C84.4701 173.423 84.7001 173.324 84.8701 173.212L84.8741 173.209C84.9341 173.172 84.9911 173.126 85.0451 173.071C85.1001 173.017 85.1451 172.96 85.1831 172.899L85.1861 172.895C85.2991 172.724 85.3971 172.494 85.4851 172.184C85.4911 172.059 85.4971 171.934 85.5021 171.81C85.7911 171.803 86.4981 171.843 87.0621 171.724C89.4281 171.223 92.3281 169.929 94.4221 168.329C95.5581 167.461 95.9381 167.02 95.6091 165.705C95.4941 165.248 95.1801 164.712 94.9681 164.279C98.7121 162.519 100.953 161.286 102.963 158.899C103.546 158.206 103.885 157.735 103.92 157.245C103.885 156.754 103.546 156.284 102.963 155.59C100.953 153.202 98.7121 151.969 94.9681 150.21C95.1791 149.777 95.4941 149.241 95.6091 148.784C95.9381 147.47 95.5591 147.028 94.4221 146.16C92.3281 144.561 89.4271 143.266 87.0621 142.765C86.4971 142.646 85.7911 142.686 85.5021 142.679C85.4971 142.555 85.4921 142.43 85.4851 142.305C85.3971 141.995 85.2991 141.765 85.1861 141.595L85.1831 141.591C85.1451 141.531 85.1001 141.474 85.0451 141.42C84.9911 141.365 84.9341 141.32 84.8741 141.282L84.8701 141.279C84.6991 141.166 84.4691 141.068 84.1601 140.98C84.0351 140.974 83.9101 140.968 83.7861 140.963C83.7801 140.673 83.8201 139.967 83.7001 139.402C83.1991 137.037 81.9041 134.136 80.3051 132.042C79.4371 130.906 78.9951 130.526 77.6811 130.855C77.2241 130.97 76.6881 131.284 76.2551 131.496C74.4961 127.752 73.2621 125.511 70.8751 123.501C70.1821 122.918 69.7111 122.579 69.2201 122.544C68.7291 122.579 68.2591 122.918 67.5661 123.501C65.1781 125.511 63.9451 127.752 62.1861 131.496C61.7531 131.285 61.2171 130.97 60.7601 130.855C59.4461 130.526 59.0041 130.905 58.1361 132.042C56.5371 134.136 55.2421 137.037 54.7411 139.402C54.6221 139.967 54.6621 140.673 54.6551 140.963C54.5311 140.968 54.4061 140.973 54.2811 140.98C53.9711 141.068 53.7411 141.166 53.5701 141.279L53.5661 141.282C53.5061 141.32 53.4491 141.365 53.3941 141.42C53.3391 141.474 53.2941 141.531 53.2561 141.591L53.2531 141.595C53.1401 141.766 53.0421 141.996 52.9551 142.305C52.9481 142.43 52.9431 142.555 52.9381 142.679C52.6481 142.686 51.9421 142.645 51.3771 142.765C49.0121 143.266 46.1111 144.561 44.0171 146.16C42.8811 147.028 42.5011 147.47 42.8301 148.784C42.9451 149.241 43.2591 149.777 43.4701 150.21C39.7261 151.969 37.4851 153.203 35.4751 155.59C34.8921 156.283 34.5531 156.754 34.5181 157.245C34.5531 157.736 34.8921 158.206 35.4751 158.899C37.4851 161.287 39.7261 162.52 43.4701 164.279C43.2591 164.712 42.9441 165.248 42.8301 165.705C42.5001 167.019 42.8801 167.461 44.0171 168.329C46.1111 169.928 49.0121 171.223 51.3771 171.724C51.9421 171.843 52.6481 171.803 52.9381 171.81C52.9431 171.934 52.9481 172.059 52.9551 172.184ZM81.3501 140.973C80.3931 141.02 79.4811 141.121 78.6161 141.279C77.5311 141.387 76.5621 141.571 75.2671 142.018C74.8211 140.976 72.5341 137.709 72.3171 137.527C73.1021 136.402 76.2501 133.841 78.0141 133.259C79.7411 134.89 81.6641 139.162 81.3501 140.973ZM59.8201 141.279C58.9551 141.121 58.0441 141.019 57.0861 140.973C56.7721 139.162 58.6951 134.89 60.4231 133.259C62.1871 133.841 65.3351 136.402 66.1201 137.527C65.9031 137.71 63.6151 140.977 63.1691 142.018C61.8741 141.571 60.9041 141.388 59.8201 141.279ZM85.4911 145.114C85.4441 146.071 85.3431 146.983 85.1851 147.848C85.0771 148.933 84.8931 149.902 84.4461 151.197C85.4881 151.643 88.7551 153.93 88.9381 154.147C90.0631 153.362 92.6241 150.214 93.2061 148.45C91.5731 146.723 87.3011 144.799 85.4911 145.114ZM53.2521 147.847C53.0941 146.982 52.9921 146.07 52.9451 145.113C51.1341 144.799 46.8631 146.722 45.2311 148.449C45.8131 150.213 48.3741 153.361 49.4991 154.146C49.6821 153.929 52.9481 151.641 53.9901 151.196C53.5441 149.901 53.3601 148.932 53.2521 147.847ZM69.2181 125.433C66.9261 126.487 64.2581 131.281 64.2131 133.097L67.6021 136.145C68.3041 135.59 68.7811 135.263 69.2171 135.163C69.6541 135.264 70.1311 135.591 70.8321 136.145L74.2221 133.097C74.1791 131.281 71.5101 126.487 69.2181 125.433ZM69.2181 137.599C68.6871 137.554 65.6631 140.904 65.1131 142.837C67.4031 145.038 68.4591 146.236 69.2181 147.954C69.9771 146.237 71.0341 145.039 73.3241 142.837C72.7731 140.904 69.7491 137.554 69.2181 137.599ZM70.2991 154.626C70.2781 154.47 70.2611 154.311 70.2481 154.151C70.3731 150.295 71.3981 147.572 73.5451 145.683C75.3641 144.083 78.8771 143.002 81.4921 143.027C82.4701 143.036 82.9651 143.021 83.2211 143.241C83.4411 143.496 83.4261 143.992 83.4351 144.97C83.4601 147.585 82.3791 151.098 80.7791 152.917C78.8911 155.064 76.1671 156.089 72.3111 156.214C72.1511 156.201 71.9921 156.184 71.8361 156.163L79.0501 147.502L78.5561 147.905L78.9591 147.411L70.2991 154.626ZM68.1371 154.626C68.1581 154.47 68.1751 154.311 68.1881 154.151C68.0631 150.295 67.0371 147.572 64.8911 145.683C63.0721 144.083 59.5591 143.002 56.9441 143.027C55.9661 143.036 55.4701 143.021 55.2151 143.241C54.9951 143.496 55.0101 143.992 55.0011 144.97C54.9761 147.585 56.0571 151.098 57.6571 152.917C59.5451 155.064 62.2681 156.089 66.1251 156.214C66.2851 156.201 66.4441 156.184 66.6001 156.163L59.3861 147.502L59.8801 147.905L59.4771 147.411L68.1371 154.626ZM85.4911 169.377C85.4441 168.42 85.3431 167.508 85.1851 166.643C85.0771 165.559 84.8931 164.589 84.4461 163.294C85.4881 162.848 88.7551 160.561 88.9381 160.343C90.0631 161.128 92.6241 164.276 93.2061 166.04C91.5731 167.768 87.3011 169.692 85.4911 169.377ZM81.3501 173.518C80.3931 173.471 79.4811 173.37 78.6161 173.211C77.5311 173.103 76.5621 172.919 75.2671 172.472C74.8211 173.514 72.5341 176.781 72.3171 176.963C73.1021 178.088 76.2501 180.649 78.0141 181.231C79.7411 179.6 81.6641 175.329 81.3501 173.518ZM101.03 157.245C99.9761 154.953 95.1821 152.284 93.3661 152.24L90.3181 155.63C90.8731 156.332 91.2001 156.809 91.3001 157.245C91.1991 157.682 90.8721 158.159 90.3181 158.86L93.3661 162.249C95.1821 162.206 99.9761 159.537 101.03 157.245ZM88.8651 157.245C88.9101 156.714 85.5601 153.69 83.6271 153.139C81.4261 155.429 80.2281 156.485 78.5101 157.245C80.2271 158.004 81.4251 159.061 83.6271 161.35C85.5591 160.801 88.9101 157.776 88.8651 157.245ZM71.8381 158.327C71.9941 158.306 72.1531 158.289 72.3131 158.276C76.1691 158.401 78.8921 159.427 80.7811 161.573C82.3811 163.392 83.4611 166.905 83.4371 169.52C83.4281 170.498 83.4431 170.994 83.2231 171.249C82.9681 171.469 82.4721 171.454 81.4941 171.463C78.8791 171.488 75.3661 170.407 73.5471 168.807C71.4001 166.919 70.3751 164.196 70.2501 160.339C70.2631 160.179 70.2801 160.021 70.3011 159.864L78.9621 167.078L78.5591 166.584L79.0531 166.987L71.8381 158.327ZM53.2521 166.644C53.0941 167.509 52.9921 168.42 52.9451 169.378C51.1341 169.692 46.8631 167.769 45.2311 166.041C45.8131 164.277 48.3741 161.129 49.4991 160.344C49.6821 160.562 52.9481 162.849 53.9901 163.295C53.5441 164.59 53.3601 165.559 53.2521 166.644ZM57.0861 173.518C58.0431 173.471 58.9551 173.37 59.8201 173.211C60.9051 173.103 61.8741 172.919 63.1691 172.472C63.6151 173.514 65.9021 176.781 66.1201 176.963C65.3351 178.088 62.1871 180.649 60.4231 181.231C58.6961 179.6 56.7721 175.329 57.0861 173.518ZM37.4061 157.245C38.4601 154.953 43.2541 152.284 45.0701 152.24L48.1181 155.63C47.5641 156.332 47.2361 156.809 47.1361 157.245C47.2361 157.682 47.5631 158.159 48.1181 158.86L45.0701 162.249C43.2541 162.206 38.4601 159.537 37.4061 157.245ZM49.5721 157.245C49.5271 156.714 52.8771 153.69 54.8101 153.139C57.0111 155.429 58.2101 156.485 59.9271 157.245C58.2101 158.004 57.0111 159.061 54.8101 161.35C52.8771 160.801 49.5261 157.776 49.5721 157.245ZM66.5991 158.327C66.4431 158.306 66.2841 158.289 66.1241 158.276C62.2681 158.401 59.5441 159.427 57.6561 161.573C56.0561 163.392 54.9761 166.905 55.0001 169.52C55.0101 170.498 54.9941 170.994 55.2141 171.249C55.4691 171.469 55.9651 171.454 56.9431 171.463C59.5581 171.488 63.0711 170.407 64.8901 168.807C67.0371 166.919 68.0621 164.196 68.1871 160.339C68.1741 160.179 68.1571 160.021 68.1361 159.864L59.4751 167.078L59.8781 166.584L59.3841 166.987L66.5991 158.327ZM69.2181 189.058C66.9261 188.004 64.2581 183.21 64.2131 181.394L67.6021 178.346C68.3041 178.9 68.7811 179.228 69.2171 179.328C69.6541 179.228 70.1311 178.901 70.8321 178.346L74.2221 181.394C74.1791 183.21 71.5101 188.003 69.2181 189.058ZM69.2181 176.892C68.6871 176.937 65.6631 173.587 65.1131 171.654C67.4031 169.453 68.4591 168.254 69.2181 166.537C69.9771 168.254 71.0341 169.453 73.3241 171.654C72.7731 173.587 69.7491 176.937 69.2181 176.892Z" fill="#9CD22F"/>
<path fill-rule="evenodd" clip-rule="evenodd" d="M165.204 172.184C165.292 172.494 165.389 172.724 165.502 172.895L165.505 172.899C165.542 172.959 165.588 173.016 165.643 173.071C165.697 173.126 165.754 173.171 165.814 173.209L165.818 173.212C165.989 173.325 166.219 173.423 166.529 173.51C166.655 173.517 166.779 173.522 166.903 173.527C166.91 173.817 166.869 174.523 166.989 175.088C167.49 177.453 168.785 180.354 170.384 182.448C171.252 183.584 171.694 183.964 173.008 183.635C173.465 183.52 174.001 183.206 174.434 182.995C176.193 186.739 177.427 188.98 179.814 190.99C180.507 191.573 180.978 191.912 181.469 191.947C181.96 191.912 182.43 191.573 183.123 190.99C185.511 188.98 186.744 186.739 188.503 182.995C188.936 183.206 189.472 183.521 189.929 183.635C191.243 183.965 191.685 183.585 192.553 182.448C194.152 180.354 195.447 177.453 195.948 175.088C196.067 174.523 196.027 173.817 196.034 173.527C196.158 173.522 196.283 173.517 196.408 173.51C196.718 173.423 196.948 173.324 197.119 173.212L197.123 173.209C197.184 173.172 197.24 173.126 197.295 173.071C197.35 173.017 197.395 172.96 197.432 172.899L197.435 172.895C197.548 172.724 197.646 172.494 197.733 172.184C197.74 172.059 197.745 171.934 197.75 171.81C198.039 171.803 198.746 171.843 199.311 171.724C201.676 171.223 204.577 169.929 206.671 168.329C207.807 167.461 208.187 167.02 207.858 165.705C207.743 165.248 207.429 164.712 207.218 164.279C210.962 162.519 213.202 161.286 215.213 158.899C215.796 158.206 216.135 157.735 216.17 157.245C216.135 156.754 215.796 156.284 215.213 155.59C213.203 153.202 210.962 151.969 207.218 150.21C207.429 149.777 207.744 149.241 207.858 148.784C208.188 147.47 207.808 147.028 206.671 146.16C204.577 144.561 201.676 143.266 199.311 142.765C198.746 142.646 198.04 142.686 197.75 142.679C197.745 142.555 197.74 142.43 197.733 142.305C197.645 141.995 197.547 141.765 197.435 141.595L197.432 141.591C197.395 141.531 197.349 141.474 197.295 141.42C197.241 141.365 197.184 141.32 197.123 141.282L197.119 141.279C196.948 141.166 196.718 141.068 196.408 140.98C196.283 140.974 196.158 140.968 196.034 140.963C196.027 140.673 196.068 139.967 195.948 139.402C195.447 137.037 194.153 134.136 192.553 132.042C191.685 130.906 191.244 130.526 189.929 130.855C189.472 130.97 188.936 131.284 188.503 131.496C186.744 127.752 185.511 125.511 183.123 123.501C182.43 122.918 181.959 122.579 181.469 122.544C180.978 122.579 180.508 122.918 179.814 123.501C177.426 125.511 176.193 127.752 174.434 131.496C174.001 131.285 173.465 130.97 173.008 130.855C171.693 130.526 171.252 130.905 170.384 132.042C168.785 134.136 167.49 137.037 166.989 139.402C166.87 139.967 166.91 140.673 166.903 140.963C166.779 140.968 166.654 140.973 166.529 140.98C166.219 141.068 165.989 141.166 165.818 141.279L165.814 141.282C165.754 141.32 165.697 141.365 165.643 141.42C165.588 141.474 165.543 141.531 165.505 141.591L165.502 141.595C165.389 141.766 165.291 141.996 165.204 142.305C165.197 142.43 165.192 142.555 165.187 142.679C164.898 142.686 164.191 142.645 163.626 142.765C161.261 143.266 158.36 144.561 156.266 146.16C155.13 147.028 154.75 147.47 155.079 148.784C155.194 149.241 155.508 149.777 155.72 150.21C151.976 151.969 149.735 153.203 147.725 155.59C147.142 156.283 146.803 156.754 146.768 157.245C146.803 157.736 147.142 158.206 147.725 158.899C149.735 161.287 151.976 162.52 155.72 164.279C155.509 164.712 155.194 165.248 155.079 165.705C154.749 167.019 155.129 167.461 156.266 168.329C158.36 169.928 161.261 171.223 163.626 171.724C164.191 171.843 164.897 171.803 165.187 171.81C165.192 171.934 165.197 172.059 165.204 172.184ZM193.599 140.973C192.642 141.02 191.73 141.121 190.865 141.279C189.78 141.387 188.811 141.571 187.516 142.018C187.07 140.976 184.783 137.709 184.565 137.527C185.35 136.402 188.498 133.841 190.262 133.259C191.99 134.89 193.914 139.162 193.599 140.973ZM172.069 141.279C171.204 141.121 170.292 141.019 169.335 140.973C169.021 139.162 170.945 134.89 172.672 133.259C174.436 133.841 177.584 136.402 178.369 137.527C178.152 137.71 175.864 140.977 175.419 142.018C174.123 141.571 173.153 141.388 172.069 141.279ZM197.74 145.114C197.693 146.071 197.592 146.983 197.433 147.848C197.325 148.933 197.141 149.902 196.694 151.197C197.736 151.643 201.003 153.93 201.185 154.147C202.31 153.362 204.871 150.214 205.453 148.45C203.822 146.723 199.551 144.799 197.74 145.114ZM165.501 147.847C165.343 146.982 165.241 146.07 165.194 145.113C163.383 144.799 159.111 146.722 157.48 148.449C158.062 150.213 160.623 153.361 161.748 154.146C161.931 153.929 165.198 151.641 166.239 151.196C165.793 149.901 165.61 148.932 165.501 147.847ZM181.467 125.433C179.175 126.487 176.506 131.281 176.462 133.097L179.852 136.145C180.554 135.59 181.031 135.263 181.467 135.163C181.904 135.264 182.381 135.591 183.082 136.145L186.471 133.097C186.428 131.281 183.759 126.487 181.467 125.433ZM181.467 137.599C180.936 137.554 177.912 140.904 177.361 142.837C179.651 145.038 180.707 146.236 181.467 147.954C182.226 146.237 183.283 145.039 185.572 142.837C185.023 140.904 181.998 137.554 181.467 137.599ZM182.549 154.626C182.528 154.47 182.511 154.311 182.498 154.151C182.623 150.295 183.649 147.572 185.795 145.683C187.614 144.083 191.127 143.002 193.742 143.027C194.72 143.036 195.216 143.021 195.471 143.241C195.691 143.496 195.676 143.992 195.685 144.97C195.71 147.585 194.629 151.098 193.029 152.917C191.141 155.064 188.418 156.089 184.561 156.214C184.401 156.201 184.242 156.184 184.086 156.163L191.3 147.502L190.806 147.905L191.209 147.411L182.549 154.626ZM180.386 154.626C180.407 154.47 180.424 154.311 180.437 154.151C180.312 150.295 179.287 147.572 177.14 145.683C175.321 144.083 171.808 143.002 169.193 143.027C168.215 143.036 167.72 143.021 167.464 143.241C167.244 143.496 167.259 143.992 167.25 144.97C167.225 147.585 168.306 151.098 169.905 152.917C171.794 155.064 174.516 156.089 178.373 156.214C178.533 156.201 178.692 156.184 178.848 156.163L171.634 147.502L172.128 147.905L171.725 147.411L180.386 154.626ZM197.74 169.377C197.693 168.42 197.592 167.508 197.433 166.643C197.325 165.559 197.141 164.589 196.694 163.294C197.736 162.848 201.003 160.561 201.185 160.343C202.31 161.128 204.871 164.276 205.453 166.04C203.822 167.768 199.551 169.692 197.74 169.377ZM193.599 173.518C192.642 173.471 191.73 173.37 190.865 173.211C189.78 173.103 188.811 172.919 187.516 172.472C187.07 173.514 184.783 176.781 184.565 176.963C185.35 178.088 188.498 180.649 190.262 181.231C191.99 179.6 193.914 175.329 193.599 173.518ZM213.279 157.245C212.225 154.953 207.431 152.284 205.615 152.24L202.567 155.63C203.122 156.332 203.449 156.809 203.549 157.245C203.448 157.682 203.122 158.159 202.567 158.86L205.615 162.249C207.432 162.206 212.225 159.537 213.279 157.245ZM201.114 157.245C201.159 156.714 197.809 153.69 195.876 153.139C193.675 155.429 192.476 156.485 190.759 157.245C192.476 158.004 193.674 159.061 195.876 161.35C197.809 160.801 201.159 157.776 201.114 157.245ZM184.087 158.327C184.243 158.306 184.402 158.289 184.562 158.276C188.418 158.401 191.141 159.427 193.03 161.573C194.63 163.392 195.71 166.905 195.686 169.52C195.677 170.498 195.692 170.994 195.472 171.249C195.217 171.469 194.721 171.454 193.743 171.463C191.128 171.488 187.615 170.407 185.796 168.807C183.649 166.919 182.624 164.196 182.499 160.339C182.512 160.179 182.529 160.021 182.55 159.864L191.211 167.078L190.808 166.584L191.302 166.987L184.087 158.327ZM165.501 166.644C165.343 167.509 165.241 168.42 165.194 169.378C163.383 169.692 159.111 167.769 157.48 166.041C158.062 164.277 160.623 161.129 161.748 160.344C161.931 160.562 165.198 162.849 166.239 163.295C165.793 164.59 165.61 165.559 165.501 166.644ZM169.335 173.518C170.292 173.471 171.204 173.37 172.069 173.211C173.153 173.103 174.123 172.919 175.418 172.472C175.864 173.514 178.151 176.781 178.368 176.963C177.583 178.088 174.435 180.649 172.671 181.231C170.945 179.6 169.021 175.329 169.335 173.518ZM149.655 157.245C150.709 154.953 155.503 152.284 157.319 152.24L160.367 155.63C159.813 156.332 159.485 156.809 159.385 157.245C159.486 157.682 159.813 158.159 160.367 158.86L157.319 162.249C155.503 162.206 150.709 159.537 149.655 157.245ZM161.821 157.245C161.776 156.714 165.126 153.69 167.059 153.139C169.26 155.429 170.458 156.485 172.175 157.245C170.458 158.004 169.26 159.061 167.059 161.35C165.126 160.801 161.775 157.776 161.821 157.245ZM178.848 158.327C178.692 158.306 178.533 158.289 178.373 158.276C174.517 158.401 171.794 159.427 169.905 161.573C168.306 163.392 167.225 166.905 167.25 169.52C167.259 170.498 167.244 170.994 167.464 171.249C167.719 171.469 168.215 171.454 169.193 171.463C171.808 171.488 175.321 170.407 177.14 168.807C179.287 166.919 180.312 164.196 180.437 160.339C180.424 160.179 180.407 160.021 180.386 159.864L171.725 167.078L172.128 166.584L171.634 166.987L178.848 158.327ZM181.467 189.058C179.175 188.004 176.506 183.21 176.462 181.394L179.852 178.346C180.554 178.9 181.031 179.228 181.467 179.328C181.904 179.228 182.381 178.901 183.082 178.346L186.471 181.394C186.428 183.21 183.759 188.003 181.467 189.058ZM181.467 176.892C180.936 176.937 177.912 173.587 177.361 171.654C179.651 169.453 180.707 168.254 181.467 166.537C182.226 168.254 183.283 169.453 185.572 171.654C185.023 173.587 181.998 176.937 181.467 176.892Z" fill="#9CD22F"/>
<path fill-rule="evenodd" clip-rule="evenodd" d="M277.349 172.184C277.437 172.494 277.535 172.724 277.648 172.895L277.651 172.899C277.689 172.959 277.734 173.016 277.789 173.071C277.843 173.126 277.9 173.171 277.961 173.209L277.965 173.212C278.136 173.325 278.366 173.423 278.675 173.51C278.801 173.517 278.925 173.522 279.049 173.527C279.055 173.817 279.015 174.523 279.135 175.088C279.636 177.453 280.931 180.354 282.53 182.448C283.398 183.584 283.839 183.964 285.154 183.635C285.611 183.52 286.147 183.206 286.58 182.995C288.339 186.739 289.573 188.98 291.96 190.99C292.653 191.573 293.123 191.912 293.614 191.947C294.105 191.912 294.575 191.573 295.268 190.99C297.656 188.98 298.889 186.739 300.648 182.995C301.081 183.206 301.617 183.521 302.074 183.635C303.388 183.965 303.83 183.585 304.698 182.448C306.297 180.354 307.592 177.453 308.093 175.088C308.213 174.523 308.172 173.817 308.179 173.527C308.303 173.522 308.428 173.517 308.553 173.51C308.863 173.423 309.093 173.324 309.264 173.212L309.268 173.209C309.329 173.172 309.385 173.126 309.44 173.071C309.495 173.017 309.54 172.96 309.578 172.899L309.581 172.895C309.694 172.724 309.792 172.494 309.879 172.184C309.886 172.059 309.891 171.934 309.896 171.81C310.186 171.803 310.892 171.843 311.457 171.724C313.822 171.223 316.723 169.929 318.817 168.329C319.953 167.461 320.333 167.02 320.004 165.705C319.889 165.248 319.575 164.712 319.363 164.279C323.107 162.519 325.348 161.286 327.358 158.899C327.941 158.206 328.28 157.735 328.315 157.245C328.28 156.754 327.941 156.284 327.358 155.59C325.348 153.202 323.107 151.969 319.363 150.21C319.574 149.777 319.889 149.241 320.004 148.784C320.333 147.47 319.953 147.028 318.817 146.16C316.723 144.561 313.822 143.266 311.457 142.765C310.892 142.646 310.186 142.686 309.896 142.679C309.891 142.555 309.886 142.43 309.879 142.305C309.792 141.995 309.694 141.765 309.581 141.595L309.578 141.591C309.541 141.531 309.495 141.474 309.44 141.42C309.386 141.365 309.329 141.32 309.268 141.282L309.264 141.279C309.093 141.166 308.863 141.068 308.553 140.98C308.428 140.974 308.303 140.968 308.179 140.963C308.172 140.673 308.213 139.967 308.093 139.402C307.592 137.037 306.298 134.136 304.698 132.042C303.83 130.906 303.389 130.526 302.074 130.855C301.617 130.97 301.081 131.284 300.648 131.496C298.889 127.752 297.655 125.511 295.268 123.501C294.575 122.918 294.104 122.579 293.614 122.544C293.123 122.579 292.652 122.918 291.96 123.501C289.572 125.511 288.339 127.752 286.58 131.496C286.147 131.285 285.611 130.97 285.154 130.855C283.84 130.526 283.398 130.905 282.53 132.042C280.931 134.136 279.636 137.037 279.135 139.402C279.016 139.967 279.056 140.673 279.049 140.963C278.925 140.968 278.8 140.973 278.675 140.98C278.365 141.068 278.135 141.166 277.965 141.279L277.961 141.282C277.9 141.32 277.843 141.365 277.789 141.42C277.734 141.474 277.689 141.531 277.651 141.591L277.648 141.595C277.535 141.766 277.437 141.996 277.349 142.305C277.343 142.43 277.337 142.555 277.333 142.679C277.043 142.686 276.337 142.645 275.772 142.765C273.407 143.266 270.506 144.561 268.412 146.16C267.276 147.028 266.896 147.47 267.225 148.784C267.34 149.241 267.654 149.777 267.866 150.21C264.122 151.969 261.881 153.203 259.871 155.59C259.288 156.283 258.949 156.754 258.914 157.245C258.949 157.736 259.288 158.206 259.871 158.899C261.881 161.287 264.122 162.52 267.866 164.279C267.655 164.712 267.34 165.248 267.225 165.705C266.896 167.019 267.275 167.461 268.412 168.329C270.506 169.928 273.407 171.223 275.772 171.724C276.337 171.843 277.043 171.803 277.333 171.81C277.337 171.934 277.343 172.059 277.349 172.184ZM305.745 140.973C304.788 141.02 303.876 141.121 303.011 141.279C301.926 141.387 300.957 141.571 299.662 142.018C299.216 140.976 296.929 137.709 296.711 137.527C297.496 136.402 300.644 133.841 302.408 133.259C304.135 134.89 306.059 139.162 305.745 140.973ZM284.214 141.279C283.349 141.121 282.438 141.019 281.48 140.973C281.166 139.162 283.089 134.89 284.817 133.259C286.581 133.841 289.729 136.402 290.514 137.527C290.297 137.71 288.009 140.977 287.563 142.018C286.268 141.571 285.299 141.388 284.214 141.279ZM309.885 145.114C309.838 146.071 309.737 146.983 309.578 147.848C309.47 148.933 309.286 149.902 308.839 151.197C309.881 151.643 313.148 153.93 313.33 154.147C314.455 153.362 317.017 150.214 317.598 148.45C315.968 146.723 311.696 144.799 309.885 145.114ZM277.647 147.847C277.489 146.982 277.387 146.07 277.34 145.113C275.529 144.799 271.257 146.722 269.626 148.449C270.208 150.213 272.769 153.361 273.894 154.146C274.077 153.929 277.344 151.641 278.386 151.196C277.938 149.901 277.755 148.932 277.647 147.847ZM293.613 125.433C291.321 126.487 288.652 131.281 288.608 133.097L291.998 136.145C292.7 135.59 293.177 135.263 293.613 135.163C294.05 135.264 294.527 135.591 295.228 136.145L298.618 133.097C298.573 131.281 295.904 126.487 293.613 125.433ZM293.613 137.599C293.082 137.554 290.057 140.904 289.507 142.837C291.797 145.038 292.853 146.236 293.613 147.954C294.372 146.237 295.429 145.039 297.719 142.837C297.168 140.904 294.143 137.554 293.613 137.599ZM294.694 154.626C294.673 154.47 294.656 154.311 294.643 154.151C294.768 150.295 295.794 147.572 297.94 145.683C299.759 144.083 303.272 143.002 305.887 143.027C306.865 143.036 307.361 143.021 307.616 143.241C307.836 143.496 307.821 143.992 307.83 144.97C307.855 147.585 306.774 151.098 305.174 152.917C303.286 155.064 300.563 156.089 296.706 156.214C296.546 156.201 296.387 156.184 296.231 156.163L303.445 147.502L302.951 147.905L303.354 147.411L294.694 154.626ZM292.531 154.626C292.552 154.47 292.569 154.311 292.582 154.151C292.457 150.295 291.431 147.572 289.284 145.683C287.465 144.083 283.952 143.002 281.337 143.027C280.359 143.036 279.864 143.021 279.608 143.241C279.388 143.496 279.403 143.992 279.394 144.97C279.369 147.585 280.45 151.098 282.05 152.917C283.938 155.064 286.662 156.089 290.518 156.214C290.678 156.201 290.837 156.184 290.993 156.163L283.779 147.502L284.273 147.905L283.87 147.411L292.531 154.626ZM309.885 169.377C309.838 168.42 309.737 167.508 309.578 166.643C309.47 165.559 309.286 164.589 308.839 163.294C309.881 162.848 313.148 160.561 313.33 160.343C314.455 161.128 317.017 164.276 317.598 166.04C315.968 167.768 311.696 169.692 309.885 169.377ZM305.745 173.518C304.788 173.471 303.876 173.37 303.011 173.211C301.926 173.103 300.957 172.919 299.662 172.472C299.216 173.514 296.929 176.781 296.711 176.963C297.496 178.088 300.644 180.649 302.408 181.231C304.135 179.6 306.059 175.329 305.745 173.518ZM325.425 157.245C324.37 154.953 319.577 152.284 317.76 152.24L314.712 155.63C315.266 156.332 315.594 156.809 315.694 157.245C315.594 157.682 315.267 158.159 314.712 158.86L317.76 162.249C319.577 162.206 324.37 159.537 325.425 157.245ZM313.259 157.245C313.304 156.714 309.954 153.69 308.021 153.139C305.82 155.429 304.621 156.485 302.904 157.245C304.621 158.004 305.819 159.061 308.021 161.35C309.954 160.801 313.305 157.776 313.259 157.245ZM296.232 158.327C296.388 158.306 296.547 158.289 296.707 158.276C300.563 158.401 303.287 159.427 305.175 161.573C306.775 163.392 307.855 166.905 307.831 169.52C307.821 170.498 307.837 170.994 307.617 171.249C307.362 171.469 306.866 171.454 305.888 171.463C303.273 171.488 299.76 170.407 297.941 168.807C295.794 166.919 294.769 164.196 294.644 160.339C294.657 160.179 294.674 160.021 294.695 159.864L303.356 167.078L302.953 166.584L303.447 166.987L296.232 158.327ZM277.647 166.644C277.489 167.509 277.387 168.42 277.34 169.378C275.529 169.692 271.257 167.769 269.626 166.041C270.208 164.277 272.769 161.129 273.894 160.344C274.077 160.562 277.344 162.849 278.386 163.295C277.938 164.59 277.755 165.559 277.647 166.644ZM281.481 173.518C282.438 173.471 283.35 173.37 284.215 173.211C285.3 173.103 286.269 172.919 287.564 172.472C288.01 173.514 290.297 176.781 290.515 176.963C289.73 178.088 286.582 180.649 284.818 181.231C283.09 179.6 281.166 175.329 281.481 173.518ZM261.8 157.245C262.855 154.953 267.648 152.284 269.464 152.24L272.512 155.63C271.957 156.332 271.63 156.809 271.53 157.245C271.631 157.682 271.958 158.159 272.512 158.86L269.464 162.249C267.648 162.206 262.855 159.537 261.8 157.245ZM273.966 157.245C273.921 156.714 277.271 153.69 279.204 153.139C281.405 155.429 282.603 156.485 284.321 157.245C282.604 158.004 281.406 159.061 279.204 161.35C277.271 160.801 273.921 157.776 273.966 157.245ZM290.993 158.327C290.837 158.306 290.678 158.289 290.518 158.276C286.662 158.401 283.939 159.427 282.05 161.573C280.45 163.392 279.37 166.905 279.394 169.52C279.403 170.498 279.388 170.994 279.608 171.249C279.863 171.469 280.359 171.454 281.337 171.463C283.952 171.488 287.465 170.407 289.284 168.807C291.431 166.919 292.456 164.196 292.582 160.339C292.569 160.179 292.552 160.021 292.531 159.864L283.87 167.078L284.273 166.584L283.779 166.987L290.993 158.327ZM293.613 189.058C291.321 188.004 288.652 183.21 288.608 181.394L291.998 178.346C292.7 178.9 293.177 179.228 293.613 179.328C294.05 179.228 294.527 178.901 295.228 178.346L298.618 181.394C298.573 183.21 295.904 188.003 293.613 189.058ZM293.613 176.892C293.082 176.937 290.057 173.587 289.507 171.654C291.797 169.453 292.853 168.254 293.613 166.537C294.372 168.254 295.429 169.453 297.719 171.654C297.168 173.587 294.143 176.937 293.613 176.892Z" fill="#9CD22F"/>
<path fill-rule="evenodd" clip-rule="evenodd" d="M52.9551 27.801C53.0431 28.111 53.1401 28.341 53.2531 28.511L53.2561 28.515C53.2931 28.575 53.3391 28.632 53.3941 28.686C53.4481 28.741 53.5051 28.786 53.5661 28.824L53.5701 28.826C53.7411 28.939 53.9711 29.037 54.2811 29.125C54.4061 29.131 54.5311 29.137 54.6551 29.141C54.6621 29.431 54.6221 30.137 54.7411 30.702C55.2421 33.068 56.5361 35.968 58.1361 38.063C59.0041 39.199 59.4451 39.579 60.7601 39.25C61.2171 39.135 61.7531 38.821 62.1861 38.609C63.9461 42.353 65.1791 44.594 67.5661 46.604C68.2591 47.187 68.7301 47.526 69.2201 47.561C69.7111 47.526 70.1821 47.187 70.8751 46.604C73.2631 44.594 74.4961 42.353 76.2551 38.609C76.6881 38.821 77.2241 39.135 77.6811 39.25C78.9951 39.579 79.4371 39.2 80.3051 38.063C81.9041 35.969 83.1991 33.068 83.7001 30.702C83.8191 30.137 83.7791 29.431 83.7861 29.141C83.9101 29.136 84.0351 29.131 84.1601 29.125C84.4701 29.037 84.7001 28.939 84.8701 28.826L84.8741 28.824C84.9341 28.786 84.9911 28.741 85.0451 28.686C85.1001 28.632 85.1451 28.575 85.1831 28.515L85.1861 28.511C85.2991 28.34 85.3971 28.11 85.4851 27.801C85.4911 27.676 85.4971 27.551 85.5021 27.427C85.7911 27.421 86.4981 27.4609 87.0621 27.3409C89.4281 26.8399 92.3281 25.545 94.4221 23.946C95.5581 23.078 95.9381 22.637 95.6091 21.322C95.4941 20.865 95.1801 20.329 94.9681 19.896C98.7121 18.136 100.953 16.903 102.963 14.516C103.546 13.823 103.885 13.3531 103.92 12.8621C103.885 12.3711 103.546 11.9 102.963 11.208C100.953 8.82001 98.7121 7.587 94.9681 5.828C95.1791 5.395 95.4941 4.85898 95.6091 4.40198C95.9381 3.08798 95.5591 2.64595 94.4221 1.77795C92.3281 0.178955 89.4271 -1.11594 87.0621 -1.61694C86.4971 -1.73694 85.7911 -1.696 85.5021 -1.703C85.4971 -1.827 85.4921 -1.95203 85.4851 -2.07703C85.3971 -2.38703 85.2991 -2.61696 85.1861 -2.78796L85.1831 -2.79199C85.1451 -2.85299 85.1001 -2.90899 85.0451 -2.96399C84.9911 -3.01899 84.9341 -3.06395 84.8741 -3.10095L84.8701 -3.104C84.6991 -3.217 84.4691 -3.31498 84.1601 -3.40198C84.0351 -3.40898 83.9101 -3.41401 83.7861 -3.41901C83.7801 -3.70901 83.8201 -4.41498 83.7001 -4.97998C83.1991 -7.34498 81.9041 -10.246 80.3051 -12.34C79.4371 -13.476 78.9951 -13.856 77.6811 -13.527C77.2241 -13.412 76.6881 -13.098 76.2551 -12.886C74.4961 -16.63 73.2621 -18.871 70.8751 -20.881C70.1821 -21.464 69.7111 -21.803 69.2201 -21.838C68.7291 -21.803 68.2591 -21.464 67.5661 -20.881C65.1781 -18.871 63.9451 -16.63 62.1861 -12.886C61.7531 -13.097 61.2171 -13.412 60.7601 -13.527C59.4461 -13.856 59.0041 -13.477 58.1361 -12.34C56.5371 -10.245 55.2421 -7.34498 54.7411 -4.97998C54.6221 -4.41498 54.6621 -3.70901 54.6551 -3.41901C54.5311 -3.41401 54.4061 -3.40898 54.2811 -3.40198C53.9711 -3.31498 53.7411 -3.217 53.5701 -3.104L53.5661 -3.10095C53.5061 -3.06295 53.4491 -3.01799 53.3941 -2.96399C53.3391 -2.90999 53.2941 -2.85299 53.2561 -2.79199L53.2531 -2.78796C53.1401 -2.61696 53.0421 -2.38703 52.9551 -2.07703C52.9481 -1.95203 52.9431 -1.827 52.9381 -1.703C52.6481 -1.696 51.9421 -1.73694 51.3771 -1.61694C49.0121 -1.11594 46.1111 0.177954 44.0171 1.77795C42.8811 2.64595 42.5011 3.08698 42.8301 4.40198C42.9451 4.85898 43.2591 5.395 43.4701 5.828C39.7261 7.587 37.4851 8.82001 35.4751 11.208C34.8921 11.901 34.5531 12.3721 34.5181 12.8621C34.5531 13.3531 34.8921 13.823 35.4751 14.516C37.4851 16.904 39.7261 18.137 43.4701 19.896C43.2591 20.329 42.9441 20.865 42.8301 21.322C42.5001 22.636 42.8801 23.078 44.0171 23.946C46.1111 25.545 49.0121 26.8399 51.3771 27.3409C51.9421 27.4599 52.6481 27.42 52.9381 27.427C52.9431 27.551 52.9481 27.676 52.9551 27.801ZM81.3501 -3.40997C80.3931 -3.36297 79.4811 -3.26203 78.6161 -3.10303C77.5311 -2.99503 76.5621 -2.81101 75.2671 -2.36401C74.8211 -3.40601 72.5341 -6.67198 72.3171 -6.85498C73.1021 -7.97998 76.2501 -10.541 78.0141 -11.123C79.7411 -9.49299 81.6641 -5.22097 81.3501 -3.40997ZM59.8201 -3.104C58.9551 -3.262 58.0441 -3.36401 57.0861 -3.41101C56.7721 -5.22201 58.6951 -9.494 60.4231 -11.125C62.1871 -10.543 65.3351 -7.98199 66.1201 -6.85699C65.9031 -6.674 63.6151 -3.40697 63.1691 -2.36597C61.8741 -2.81197 60.9041 -2.996 59.8201 -3.104ZM85.4911 0.72998C85.4441 1.68698 85.3431 2.59799 85.1851 3.46399C85.0771 4.54799 84.8931 5.51799 84.4461 6.81299C85.4881 7.25899 88.7551 9.54604 88.9381 9.76404C90.0631 8.97904 92.6241 5.83102 93.2061 4.06702C91.5731 2.34002 87.3011 0.415981 85.4911 0.72998ZM53.2521 3.46399C53.0941 2.59899 52.9921 1.68698 52.9451 0.72998C51.1341 0.415981 46.8631 2.33902 45.2311 4.06702C45.8131 5.83102 48.3741 8.97804 49.4991 9.76404C49.6821 9.54704 52.9481 7.25899 53.9901 6.81299C53.5441 5.51799 53.3601 4.54799 53.2521 3.46399ZM69.2181 -18.95C66.9261 -17.895 64.2581 -13.102 64.2131 -11.285L67.6021 -8.237C68.3041 -8.792 68.7811 -9.11899 69.2171 -9.21899C69.6541 -9.11899 70.1311 -8.792 70.8321 -8.237L74.2221 -11.285C74.1791 -13.102 71.5101 -17.896 69.2181 -18.95ZM69.2181 -6.784C68.6871 -6.829 65.6631 -3.47902 65.1131 -1.54602C67.4031 0.65498 68.4591 1.85295 69.2181 3.56995C69.9771 1.85295 71.0341 0.65498 73.3241 -1.54602C72.7731 -3.47902 69.7491 -6.829 69.2181 -6.784ZM70.2991 10.243C70.2781 10.087 70.2611 9.92794 70.2481 9.76794C70.3731 5.91195 71.3981 3.18805 73.5451 1.30005C75.3641 -0.299952 78.8771 -1.38096 81.4921 -1.35596C82.4701 -1.34596 82.9651 -1.36197 83.2211 -1.14197C83.4411 -0.886969 83.4261 -0.390965 83.4351 0.587036C83.4601 3.20204 82.3791 6.71506 80.7791 8.53406C78.8911 10.6811 76.1671 11.7061 72.3111 11.8311C72.1511 11.8181 71.9921 11.801 71.8361 11.78L79.0501 3.11804L78.5561 3.521L78.9591 3.02698L70.2991 10.243ZM68.1371 10.243C68.1581 10.087 68.1751 9.92794 68.1881 9.76794C68.0631 5.91195 67.0371 3.18805 64.8911 1.30005C63.0721 -0.299952 59.5591 -1.38096 56.9441 -1.35596C55.9661 -1.34596 55.4701 -1.36197 55.2151 -1.14197C54.9951 -0.886969 55.0101 -0.390965 55.0011 0.587036C54.9761 3.20204 56.0571 6.71506 57.6571 8.53406C59.5451 10.6811 62.2681 11.7061 66.1251 11.8311C66.2851 11.8181 66.4441 11.801 66.6001 11.78L59.3861 3.11804L59.8801 3.521L59.4771 3.02698L68.1371 10.243ZM85.4911 24.994C85.4441 24.037 85.3431 23.125 85.1851 22.26C85.0771 21.175 84.8931 20.206 84.4461 18.911C85.4881 18.465 88.7551 16.178 88.9381 15.96C90.0631 16.745 92.6241 19.893 93.2061 21.657C91.5731 23.385 87.3011 25.308 85.4911 24.994ZM81.3501 29.135C80.3931 29.088 79.4811 28.987 78.6161 28.828C77.5311 28.72 76.5621 28.536 75.2671 28.09C74.8211 29.132 72.5341 32.399 72.3171 32.582C73.1021 33.707 76.2501 36.268 78.0141 36.85C79.7411 35.217 81.6641 30.946 81.3501 29.135ZM101.03 12.8621C99.9761 10.5701 95.1821 7.90206 93.3661 7.85706L90.3181 11.2469C90.8731 11.9489 91.2001 12.426 91.3001 12.863C91.1991 13.3 90.8721 13.777 90.3181 14.478L93.3661 17.868C95.1821 17.823 99.9761 15.1541 101.03 12.8621ZM88.8651 12.8621C88.9101 12.3311 85.5601 9.30698 83.6271 8.75598C81.4261 11.046 80.2281 12.1021 78.5101 12.8621C80.2271 13.6211 81.4251 14.678 83.6271 16.968C85.5591 16.418 88.9101 13.3931 88.8651 12.8621ZM71.8381 13.944C71.9941 13.923 72.1531 13.9059 72.3131 13.8929C76.1691 14.0179 78.8921 15.044 80.7811 17.191C82.3811 19.01 83.4611 22.5231 83.4371 25.1381C83.4281 26.1161 83.4431 26.6109 83.2231 26.8669C82.9681 27.0869 82.4721 27.0721 81.4941 27.0811C78.8791 27.1061 75.3661 26.025 73.5471 24.425C71.4001 22.537 70.3751 19.813 70.2501 15.957C70.2631 15.797 70.2801 15.6381 70.3011 15.4821L78.9621 22.696L78.5591 22.202L79.0531 22.605L71.8381 13.944ZM53.2521 22.261C53.0941 23.126 52.9921 24.037 52.9451 24.995C51.1341 25.309 46.8631 23.385 45.2311 21.658C45.8131 19.894 48.3741 16.7461 49.4991 15.9611C49.6821 16.1791 52.9481 18.466 53.9901 18.912C53.5441 20.207 53.3601 21.176 53.2521 22.261ZM57.0861 29.135C58.0431 29.088 58.9551 28.987 59.8201 28.828C60.9051 28.72 61.8741 28.536 63.1691 28.09C63.6151 29.132 65.9021 32.399 66.1201 32.582C65.3351 33.707 62.1871 36.268 60.4231 36.85C58.6961 35.217 56.7721 30.946 57.0861 29.135ZM37.4061 12.8621C38.4601 10.5701 43.2541 7.90206 45.0701 7.85706L48.1181 11.2469C47.5641 11.9489 47.2361 12.426 47.1361 12.863C47.2361 13.3 47.5631 13.777 48.1181 14.478L45.0701 17.868C43.2541 17.823 38.4601 15.1541 37.4061 12.8621ZM49.5721 12.8621C49.5271 12.3311 52.8771 9.30698 54.8101 8.75598C57.0111 11.046 58.2101 12.1021 59.9271 12.8621C58.2101 13.6211 57.0111 14.678 54.8101 16.968C52.8771 16.418 49.5261 13.3931 49.5721 12.8621ZM66.5991 13.944C66.4431 13.923 66.2841 13.9059 66.1241 13.8929C62.2681 14.0179 59.5441 15.044 57.6561 17.191C56.0561 19.01 54.9761 22.5231 55.0001 25.1381C55.0101 26.1161 54.9941 26.6109 55.2141 26.8669C55.4691 27.0869 55.9651 27.0721 56.9431 27.0811C59.5581 27.1061 63.0711 26.025 64.8901 24.425C67.0371 22.537 68.0621 19.813 68.1871 15.957C68.1741 15.797 68.1571 15.6381 68.1361 15.4821L59.4751 22.696L59.8781 22.202L59.3841 22.605L66.5991 13.944ZM69.2181 44.675C66.9261 43.621 64.2581 38.827 64.2131 37.011L67.6021 33.963C68.3041 34.517 68.7811 34.8449 69.2171 34.9449C69.6541 34.8449 70.1311 34.517 70.8321 33.963L74.2221 37.011C74.1791 38.827 71.5101 43.62 69.2181 44.675ZM69.2181 32.509C68.6871 32.554 65.6631 29.204 65.1131 27.271C67.4031 25.07 68.4591 23.8721 69.2181 22.1541C69.9771 23.8711 71.0341 25.069 73.3241 27.271C72.7731 29.204 69.7491 32.554 69.2181 32.509Z" fill="#9CD22F"/>
<mask id="mask1_76_1719" style="mask-type:luminance" maskUnits="userSpaceOnUse" x="-268" y="-214" width="842" height="596">
<path d="M-268 -214H573.89V381.276H-268V-214Z" fill="white"/>
</mask>
<g mask="url(#mask1_76_1719)">
<path fill-rule="evenodd" clip-rule="evenodd" d="M165.204 27.801C165.292 28.111 165.389 28.341 165.502 28.511L165.505 28.515C165.542 28.575 165.588 28.632 165.643 28.686C165.697 28.741 165.754 28.786 165.814 28.824L165.818 28.826C165.989 28.939 166.219 29.037 166.529 29.125C166.655 29.131 166.779 29.137 166.903 29.141C166.91 29.431 166.869 30.137 166.989 30.702C167.49 33.068 168.785 35.968 170.384 38.063C171.252 39.199 171.694 39.579 173.008 39.25C173.465 39.135 174.001 38.821 174.434 38.609C176.193 42.353 177.427 44.594 179.814 46.604C180.507 47.187 180.978 47.526 181.469 47.561C181.96 47.526 182.43 47.187 183.123 46.604C185.511 44.594 186.744 42.353 188.503 38.609C188.936 38.821 189.472 39.135 189.929 39.25C191.243 39.579 191.685 39.2 192.553 38.063C194.152 35.969 195.447 33.068 195.948 30.702C196.067 30.137 196.027 29.431 196.034 29.141C196.158 29.136 196.283 29.131 196.408 29.125C196.718 29.037 196.948 28.939 197.119 28.826L197.123 28.824C197.184 28.786 197.24 28.741 197.295 28.686C197.35 28.632 197.395 28.575 197.432 28.515L197.435 28.511C197.548 28.34 197.646 28.11 197.733 27.801C197.74 27.676 197.745 27.551 197.75 27.427C198.039 27.421 198.746 27.4609 199.311 27.3409C201.676 26.8399 204.577 25.545 206.671 23.946C207.807 23.078 208.187 22.637 207.858 21.322C207.743 20.865 207.429 20.329 207.218 19.896C210.962 18.136 213.202 16.903 215.213 14.516C215.796 13.823 216.135 13.3531 216.17 12.8621C216.135 12.3711 215.796 11.9 215.213 11.208C213.203 8.82001 210.962 7.587 207.218 5.828C207.429 5.395 207.744 4.85898 207.858 4.40198C208.188 3.08798 207.808 2.64595 206.671 1.77795C204.577 0.178955 201.676 -1.11594 199.311 -1.61694C198.746 -1.73694 198.04 -1.696 197.75 -1.703C197.745 -1.827 197.74 -1.95203 197.733 -2.07703C197.645 -2.38703 197.547 -2.61696 197.435 -2.78796L197.432 -2.79199C197.395 -2.85299 197.349 -2.90899 197.295 -2.96399C197.241 -3.01899 197.184 -3.06395 197.123 -3.10095L197.119 -3.104C196.948 -3.217 196.718 -3.31498 196.408 -3.40198C196.283 -3.40898 196.158 -3.41401 196.034 -3.41901C196.027 -3.70901 196.068 -4.41498 195.948 -4.97998C195.447 -7.34498 194.153 -10.246 192.553 -12.34C191.685 -13.476 191.244 -13.856 189.929 -13.527C189.472 -13.412 188.936 -13.098 188.503 -12.886C186.744 -16.63 185.511 -18.871 183.123 -20.881C182.43 -21.464 181.959 -21.803 181.469 -21.838C180.978 -21.803 180.508 -21.464 179.814 -20.881C177.426 -18.871 176.193 -16.63 174.434 -12.886C174.001 -13.097 173.465 -13.412 173.008 -13.527C171.693 -13.856 171.252 -13.477 170.384 -12.34C168.785 -10.245 167.49 -7.34498 166.989 -4.97998C166.87 -4.41498 166.91 -3.70901 166.903 -3.41901C166.779 -3.41401 166.654 -3.40898 166.529 -3.40198C166.219 -3.31498 165.989 -3.217 165.818 -3.104L165.814 -3.10095C165.754 -3.06295 165.697 -3.01799 165.643 -2.96399C165.588 -2.90999 165.543 -2.85299 165.505 -2.79199L165.502 -2.78796C165.389 -2.61696 165.291 -2.38703 165.204 -2.07703C165.197 -1.95203 165.192 -1.827 165.187 -1.703C164.898 -1.696 164.191 -1.73694 163.626 -1.61694C161.261 -1.11594 158.36 0.177954 156.266 1.77795C155.13 2.64595 154.75 3.08698 155.079 4.40198C155.194 4.85898 155.508 5.395 155.72 5.828C151.976 7.587 149.735 8.82001 147.725 11.208C147.142 11.901 146.803 12.3721 146.768 12.8621C146.803 13.3531 147.142 13.823 147.725 14.516C149.735 16.904 151.976 18.137 155.72 19.896C155.509 20.329 155.194 20.865 155.079 21.322C154.749 22.636 155.129 23.078 156.266 23.946C158.36 25.545 161.261 26.8399 163.626 27.3409C164.191 27.4599 164.897 27.42 165.187 27.427C165.192 27.551 165.197 27.676 165.204 27.801ZM193.599 -3.40997C192.642 -3.36297 191.73 -3.26203 190.865 -3.10303C189.78 -2.99503 188.811 -2.81101 187.516 -2.36401C187.07 -3.40601 184.783 -6.67198 184.565 -6.85498C185.35 -7.97998 188.498 -10.541 190.262 -11.123C191.99 -9.49299 193.914 -5.22097 193.599 -3.40997ZM172.069 -3.104C171.204 -3.262 170.292 -3.36401 169.335 -3.41101C169.021 -5.22201 170.945 -9.494 172.672 -11.125C174.436 -10.543 177.584 -7.98199 178.369 -6.85699C178.152 -6.674 175.864 -3.40697 175.419 -2.36597C174.123 -2.81197 173.153 -2.996 172.069 -3.104ZM197.74 0.72998C197.693 1.68698 197.592 2.59799 197.433 3.46399C197.325 4.54799 197.141 5.51799 196.694 6.81299C197.736 7.25899 201.003 9.54604 201.185 9.76404C202.31 8.97904 204.871 5.83102 205.453 4.06702C203.822 2.34002 199.551 0.415981 197.74 0.72998ZM165.501 3.46399C165.343 2.59899 165.241 1.68698 165.194 0.72998C163.383 0.415981 159.111 2.33902 157.48 4.06702C158.062 5.83102 160.623 8.97804 161.748 9.76404C161.931 9.54704 165.198 7.25899 166.239 6.81299C165.793 5.51799 165.61 4.54799 165.501 3.46399ZM181.467 -18.95C179.175 -17.895 176.506 -13.102 176.462 -11.285L179.852 -8.237C180.554 -8.792 181.031 -9.11899 181.467 -9.21899C181.904 -9.11899 182.381 -8.792 183.082 -8.237L186.471 -11.285C186.428 -13.102 183.759 -17.896 181.467 -18.95ZM181.467 -6.784C180.936 -6.829 177.912 -3.47902 177.361 -1.54602C179.651 0.65498 180.707 1.85295 181.467 3.56995C182.226 1.85295 183.283 0.65498 185.572 -1.54602C185.023 -3.47902 181.998 -6.829 181.467 -6.784ZM182.549 10.243C182.528 10.087 182.511 9.92794 182.498 9.76794C182.623 5.91195 183.649 3.18805 185.795 1.30005C187.614 -0.299952 191.127 -1.38096 193.742 -1.35596C194.72 -1.34596 195.216 -1.36197 195.471 -1.14197C195.691 -0.886969 195.676 -0.390965 195.685 0.587036C195.71 3.20204 194.629 6.71506 193.029 8.53406C191.141 10.6811 188.418 11.7061 184.561 11.8311C184.401 11.8181 184.242 11.801 184.086 11.78L191.3 3.11804L190.806 3.521L191.209 3.02698L182.549 10.243ZM180.386 10.243C180.407 10.087 180.424 9.92794 180.437 9.76794C180.312 5.91195 179.287 3.18805 177.14 1.30005C175.321 -0.299952 171.808 -1.38096 169.193 -1.35596C168.215 -1.34596 167.72 -1.36197 167.464 -1.14197C167.244 -0.886969 167.259 -0.390965 167.25 0.587036C167.225 3.20204 168.306 6.71506 169.905 8.53406C171.794 10.6811 174.516 11.7061 178.373 11.8311C178.533 11.8181 178.692 11.801 178.848 11.78L171.634 3.11804L172.128 3.521L171.725 3.02698L180.386 10.243ZM197.74 24.994C197.693 24.037 197.592 23.125 197.433 22.26C197.325 21.175 197.141 20.206 196.694 18.911C197.736 18.465 201.003 16.178 201.185 15.96C202.31 16.745 204.871 19.893 205.453 21.657C203.822 23.385 199.551 25.308 197.74 24.994ZM193.599 29.135C192.642 29.088 191.73 28.987 190.865 28.828C189.78 28.72 188.811 28.536 187.516 28.09C187.07 29.132 184.783 32.399 184.565 32.582C185.35 33.707 188.498 36.268 190.262 36.85C191.99 35.217 193.914 30.946 193.599 29.135ZM213.279 12.8621C212.225 10.5701 207.431 7.90206 205.615 7.85706L202.567 11.2469C203.122 11.9489 203.449 12.426 203.549 12.863C203.448 13.3 203.122 13.777 202.567 14.478L205.615 17.868C207.432 17.823 212.225 15.1541 213.279 12.8621ZM201.114 12.8621C201.159 12.3311 197.809 9.30698 195.876 8.75598C193.675 11.046 192.476 12.1021 190.759 12.8621C192.476 13.6211 193.674 14.678 195.876 16.968C197.809 16.418 201.159 13.3931 201.114 12.8621ZM184.087 13.944C184.243 13.923 184.402 13.9059 184.562 13.8929C188.418 14.0179 191.141 15.044 193.03 17.191C194.63 19.01 195.71 22.5231 195.686 25.1381C195.677 26.1161 195.692 26.6109 195.472 26.8669C195.217 27.0869 194.721 27.0721 193.743 27.0811C191.128 27.1061 187.615 26.025 185.796 24.425C183.649 22.537 182.624 19.813 182.499 15.957C182.512 15.797 182.529 15.6381 182.55 15.4821L191.211 22.696L190.808 22.202L191.302 22.605L184.087 13.944ZM165.501 22.261C165.343 23.126 165.241 24.037 165.194 24.995C163.383 25.309 159.111 23.385 157.48 21.658C158.062 19.894 160.623 16.7461 161.748 15.9611C161.931 16.1791 165.198 18.466 166.239 18.912C165.793 20.207 165.61 21.176 165.501 22.261ZM169.335 29.135C170.292 29.088 171.204 28.987 172.069 28.828C173.153 28.72 174.123 28.536 175.418 28.09C175.864 29.132 178.151 32.399 178.368 32.582C177.583 33.707 174.435 36.268 172.671 36.85C170.945 35.217 169.021 30.946 169.335 29.135ZM149.655 12.8621C150.709 10.5701 155.503 7.90206 157.319 7.85706L160.367 11.2469C159.813 11.9489 159.485 12.426 159.385 12.863C159.486 13.3 159.813 13.777 160.367 14.478L157.319 17.868C155.503 17.823 150.709 15.1541 149.655 12.8621ZM161.821 12.8621C161.776 12.3311 165.126 9.30698 167.059 8.75598C169.26 11.046 170.458 12.1021 172.175 12.8621C170.458 13.6211 169.26 14.678 167.059 16.968C165.126 16.418 161.775 13.3931 161.821 12.8621ZM178.848 13.944C178.692 13.923 178.533 13.9059 178.373 13.8929C174.517 14.0179 171.794 15.044 169.905 17.191C168.306 19.01 167.225 22.5231 167.25 25.1381C167.259 26.1161 167.244 26.6109 167.464 26.8669C167.719 27.0869 168.215 27.0721 169.193 27.0811C171.808 27.1061 175.321 26.025 177.14 24.425C179.287 22.537 180.312 19.813 180.437 15.957C180.424 15.797 180.407 15.6381 180.386 15.4821L171.725 22.696L172.128 22.202L171.634 22.605L178.848 13.944ZM181.467 44.675C179.175 43.621 176.506 38.827 176.462 37.011L179.852 33.963C180.554 34.517 181.031 34.8449 181.467 34.9449C181.904 34.8449 182.381 34.517 183.082 33.963L186.471 37.011C186.428 38.827 183.759 43.62 181.467 44.675ZM181.467 32.509C180.936 32.554 177.912 29.204 177.361 27.271C179.651 25.07 180.707 23.8721 181.467 22.1541C182.226 23.8711 183.283 25.069 185.572 27.271C185.023 29.204 181.998 32.554 181.467 32.509Z" fill="#9CD22F"/>
</g>
<path fill-rule="evenodd" clip-rule="evenodd" d="M277.349 27.801C277.437 28.111 277.535 28.341 277.648 28.511L277.651 28.515C277.689 28.575 277.734 28.632 277.789 28.686C277.843 28.741 277.9 28.786 277.961 28.824L277.965 28.826C278.136 28.939 278.366 29.037 278.675 29.125C278.801 29.131 278.925 29.137 279.049 29.141C279.055 29.431 279.015 30.137 279.135 30.702C279.636 33.068 280.931 35.968 282.53 38.063C283.398 39.199 283.839 39.579 285.154 39.25C285.611 39.135 286.147 38.821 286.58 38.609C288.339 42.353 289.573 44.594 291.96 46.604C292.653 47.187 293.123 47.526 293.614 47.561C294.105 47.526 294.575 47.187 295.268 46.604C297.656 44.594 298.889 42.353 300.648 38.609C301.081 38.821 301.617 39.135 302.074 39.25C303.388 39.579 303.83 39.2 304.698 38.063C306.297 35.969 307.592 33.068 308.093 30.702C308.213 30.137 308.172 29.431 308.179 29.141C308.303 29.136 308.428 29.131 308.553 29.125C308.863 29.037 309.093 28.939 309.264 28.826L309.268 28.824C309.329 28.786 309.385 28.741 309.44 28.686C309.495 28.632 309.54 28.575 309.578 28.515L309.581 28.511C309.694 28.34 309.792 28.11 309.879 27.801C309.886 27.676 309.891 27.551 309.896 27.427C310.186 27.421 310.892 27.4609 311.457 27.3409C313.822 26.8399 316.723 25.545 318.817 23.946C319.953 23.078 320.333 22.637 320.004 21.322C319.889 20.865 319.575 20.329 319.363 19.896C323.107 18.136 325.348 16.903 327.358 14.516C327.941 13.823 328.28 13.3531 328.315 12.8621C328.28 12.3711 327.941 11.9 327.358 11.208C325.348 8.82001 323.107 7.587 319.363 5.828C319.574 5.395 319.889 4.85898 320.004 4.40198C320.333 3.08798 319.953 2.64595 318.817 1.77795C316.723 0.178955 313.822 -1.11594 311.457 -1.61694C310.892 -1.73694 310.186 -1.696 309.896 -1.703C309.891 -1.827 309.886 -1.95203 309.879 -2.07703C309.792 -2.38703 309.694 -2.61696 309.581 -2.78796L309.578 -2.79199C309.541 -2.85299 309.495 -2.90899 309.44 -2.96399C309.386 -3.01899 309.329 -3.06395 309.268 -3.10095L309.264 -3.104C309.093 -3.217 308.863 -3.31498 308.553 -3.40198C308.428 -3.40898 308.303 -3.41401 308.179 -3.41901C308.172 -3.70901 308.213 -4.41498 308.093 -4.97998C307.592 -7.34498 306.298 -10.246 304.698 -12.34C303.83 -13.476 303.389 -13.856 302.074 -13.527C301.617 -13.412 301.081 -13.098 300.648 -12.886C298.889 -16.63 297.655 -18.871 295.268 -20.881C294.575 -21.464 294.104 -21.803 293.614 -21.838C293.123 -21.803 292.652 -21.464 291.96 -20.881C289.572 -18.871 288.339 -16.63 286.58 -12.886C286.147 -13.097 285.611 -13.412 285.154 -13.527C283.84 -13.856 283.398 -13.477 282.53 -12.34C280.931 -10.245 279.636 -7.34498 279.135 -4.97998C279.016 -4.41498 279.056 -3.70901 279.049 -3.41901C278.925 -3.41401 278.8 -3.40898 278.675 -3.40198C278.365 -3.31498 278.135 -3.217 277.965 -3.104L277.961 -3.10095C277.9 -3.06295 277.843 -3.01799 277.789 -2.96399C277.734 -2.90999 277.689 -2.85299 277.651 -2.79199L277.648 -2.78796C277.535 -2.61696 277.437 -2.38703 277.349 -2.07703C277.343 -1.95203 277.337 -1.827 277.333 -1.703C277.043 -1.696 276.337 -1.73694 275.772 -1.61694C273.407 -1.11594 270.506 0.177954 268.412 1.77795C267.276 2.64595 266.896 3.08698 267.225 4.40198C267.34 4.85898 267.654 5.395 267.866 5.828C264.122 7.587 261.881 8.82001 259.871 11.208C259.288 11.901 258.949 12.3721 258.914 12.8621C258.949 13.3531 259.288 13.823 259.871 14.516C261.881 16.904 264.122 18.137 267.866 19.896C267.655 20.329 267.34 20.865 267.225 21.322C266.896 22.636 267.275 23.078 268.412 23.946C270.506 25.545 273.407 26.8399 275.772 27.3409C276.337 27.4599 277.043 27.42 277.333 27.427C277.337 27.551 277.343 27.676 277.349 27.801ZM305.745 -3.40997C304.788 -3.36297 303.876 -3.26203 303.011 -3.10303C301.926 -2.99503 300.957 -2.81101 299.662 -2.36401C299.216 -3.40601 296.929 -6.67198 296.711 -6.85498C297.496 -7.97998 300.644 -10.541 302.408 -11.123C304.135 -9.49299 306.059 -5.22097 305.745 -3.40997ZM284.214 -3.104C283.349 -3.262 282.438 -3.36401 281.48 -3.41101C281.166 -5.22201 283.089 -9.494 284.817 -11.125C286.581 -10.543 289.729 -7.98199 290.514 -6.85699C290.297 -6.674 288.009 -3.40697 287.563 -2.36597C286.268 -2.81197 285.299 -2.996 284.214 -3.104ZM309.885 0.72998C309.838 1.68698 309.737 2.59799 309.578 3.46399C309.47 4.54799 309.286 5.51799 308.839 6.81299C309.881 7.25899 313.148 9.54604 313.33 9.76404C314.455 8.97904 317.017 5.83102 317.598 4.06702C315.968 2.34002 311.696 0.415981 309.885 0.72998ZM277.647 3.46399C277.489 2.59899 277.387 1.68698 277.34 0.72998C275.529 0.415981 271.257 2.33902 269.626 4.06702C270.208 5.83102 272.769 8.97804 273.894 9.76404C274.077 9.54704 277.344 7.25899 278.386 6.81299C277.938 5.51799 277.755 4.54799 277.647 3.46399ZM293.613 -18.95C291.321 -17.895 288.652 -13.102 288.608 -11.285L291.998 -8.237C292.7 -8.792 293.177 -9.11899 293.613 -9.21899C294.05 -9.11899 294.527 -8.792 295.228 -8.237L298.618 -11.285C298.573 -13.102 295.904 -17.896 293.613 -18.95ZM293.613 -6.784C293.082 -6.829 290.057 -3.47902 289.507 -1.54602C291.797 0.65498 292.853 1.85295 293.613 3.56995C294.372 1.85295 295.429 0.65498 297.719 -1.54602C297.168 -3.47902 294.143 -6.829 293.613 -6.784ZM294.694 10.243C294.673 10.087 294.656 9.92794 294.643 9.76794C294.768 5.91195 295.794 3.18805 297.94 1.30005C299.759 -0.299952 303.272 -1.38096 305.887 -1.35596C306.865 -1.34596 307.361 -1.36197 307.616 -1.14197C307.836 -0.886969 307.821 -0.390965 307.83 0.587036C307.855 3.20204 306.774 6.71506 305.174 8.53406C303.286 10.6811 300.563 11.7061 296.706 11.8311C296.546 11.8181 296.387 11.801 296.231 11.78L303.445 3.11804L302.951 3.521L303.354 3.02698L294.694 10.243ZM292.531 10.243C292.552 10.087 292.569 9.92794 292.582 9.76794C292.457 5.91195 291.431 3.18805 289.284 1.30005C287.465 -0.299952 283.952 -1.38096 281.337 -1.35596C280.359 -1.34596 279.864 -1.36197 279.608 -1.14197C279.388 -0.886969 279.403 -0.390965 279.394 0.587036C279.369 3.20204 280.45 6.71506 282.05 8.53406C283.938 10.6811 286.662 11.7061 290.518 11.8311C290.678 11.8181 290.837 11.801 290.993 11.78L283.779 3.11804L284.273 3.521L283.87 3.02698L292.531 10.243ZM309.885 24.994C309.838 24.037 309.737 23.125 309.578 22.26C309.47 21.175 309.286 20.206 308.839 18.911C309.881 18.465 313.148 16.178 313.33 15.96C314.455 16.745 317.017 19.893 317.598 21.657C315.968 23.385 311.696 25.308 309.885 24.994ZM305.745 29.135C304.788 29.088 303.876 28.987 303.011 28.828C301.926 28.72 300.957 28.536 299.662 28.09C299.216 29.132 296.929 32.399 296.711 32.582C297.496 33.707 300.644 36.268 302.408 36.85C304.135 35.217 306.059 30.946 305.745 29.135ZM325.425 12.8621C324.37 10.5701 319.577 7.90206 317.76 7.85706L314.712 11.2469C315.266 11.9489 315.594 12.426 315.694 12.863C315.594 13.3 315.267 13.777 314.712 14.478L317.76 17.868C319.577 17.823 324.37 15.1541 325.425 12.8621ZM313.259 12.8621C313.304 12.3311 309.954 9.30698 308.021 8.75598C305.82 11.046 304.621 12.1021 302.904 12.8621C304.621 13.6211 305.819 14.678 308.021 16.968C309.954 16.418 313.305 13.3931 313.259 12.8621ZM296.232 13.944C296.388 13.923 296.547 13.9059 296.707 13.8929C300.563 14.0179 303.287 15.044 305.175 17.191C306.775 19.01 307.855 22.5231 307.831 25.1381C307.821 26.1161 307.837 26.6109 307.617 26.8669C307.362 27.0869 306.866 27.0721 305.888 27.0811C303.273 27.1061 299.76 26.025 297.941 24.425C295.794 22.537 294.769 19.813 294.644 15.957C294.657 15.797 294.674 15.6381 294.695 15.4821L303.356 22.696L302.953 22.202L303.447 22.605L296.232 13.944ZM277.647 22.261C277.489 23.126 277.387 24.037 277.34 24.995C275.529 25.309 271.257 23.385 269.626 21.658C270.208 19.894 272.769 16.7461 273.894 15.9611C274.077 16.1791 277.344 18.466 278.386 18.912C277.938 20.207 277.755 21.176 277.647 22.261ZM281.481 29.135C282.438 29.088 283.35 28.987 284.215 28.828C285.3 28.72 286.269 28.536 287.564 28.09C288.01 29.132 290.297 32.399 290.515 32.582C289.73 33.707 286.582 36.268 284.818 36.85C283.09 35.217 281.166 30.946 281.481 29.135ZM261.8 12.8621C262.855 10.5701 267.648 7.90206 269.464 7.85706L272.512 11.2469C271.957 11.9489 271.63 12.426 271.53 12.863C271.631 13.3 271.958 13.777 272.512 14.478L269.464 17.868C267.648 17.823 262.855 15.1541 261.8 12.8621ZM273.966 12.8621C273.921 12.3311 277.271 9.30698 279.204 8.75598C281.405 11.046 282.603 12.1021 284.321 12.8621C282.604 13.6211 281.406 14.678 279.204 16.968C277.271 16.418 273.921 13.3931 273.966 12.8621ZM290.993 13.944C290.837 13.923 290.678 13.9059 290.518 13.8929C286.662 14.0179 283.939 15.044 282.05 17.191C280.45 19.01 279.37 22.5231 279.394 25.1381C279.403 26.1161 279.388 26.6109 279.608 26.8669C279.863 27.0869 280.359 27.0721 281.337 27.0811C283.952 27.1061 287.465 26.025 289.284 24.425C291.431 22.537 292.456 19.813 292.582 15.957C292.569 15.797 292.552 15.6381 292.531 15.4821L283.87 22.696L284.273 22.202L283.779 22.605L290.993 13.944ZM293.613 44.675C291.321 43.621 288.652 38.827 288.608 37.011L291.998 33.963C292.7 34.517 293.177 34.8449 293.613 34.9449C294.05 34.8449 294.527 34.517 295.228 33.963L298.618 37.011C298.573 38.827 295.904 43.62 293.613 44.675ZM293.613 32.509C293.082 32.554 290.057 29.204 289.507 27.271C291.797 25.07 292.853 23.8721 293.613 22.1541C294.372 23.8711 295.429 25.069 297.719 27.271C297.168 29.204 294.143 32.554 293.613 32.509Z" fill="#9CD22F"/>
</svg>
