<svg width="48" height="48" viewBox="0 0 48 48" fill="none" xmlns="http://www.w3.org/2000/svg">
<path fill-rule="evenodd" clip-rule="evenodd" d="M-174.5 -200H253.148V100H-174.5V-200Z" fill="#F6690C"/>
<path fill-rule="evenodd" clip-rule="evenodd" d="M16.963 30.7958C17.0077 30.9521 17.0575 31.068 17.1149 31.1541L17.1159 31.1562C17.1352 31.1864 17.1581 31.2151 17.186 31.2423C17.2134 31.2701 17.2424 31.2927 17.2734 31.3119L17.2754 31.3134C17.3623 31.3703 17.4791 31.4197 17.6366 31.4636C17.7001 31.4666 17.7636 31.4696 17.8265 31.4721C17.8296 31.6178 17.8093 31.9741 17.8702 32.2583C18.1247 33.4507 18.7825 34.9123 19.5948 35.9676C20.0357 36.5401 20.2597 36.7316 20.9277 36.5658C21.1598 36.5078 21.4321 36.3496 21.652 36.2427C22.546 38.1296 23.1718 39.259 24.3848 40.2719C24.7369 40.5658 24.9756 40.7366 25.225 40.7543C25.4744 40.7366 25.7137 40.5658 26.0652 40.2719C27.2782 39.259 27.9045 38.1296 28.798 36.2427C29.018 36.349 29.2902 36.5078 29.5224 36.5658C30.1898 36.7321 30.4144 36.5401 30.8553 35.9676C31.6675 34.9123 32.3253 33.4502 32.5798 32.2583C32.6407 31.9736 32.6199 31.6178 32.6235 31.4721C32.6865 31.4696 32.75 31.4671 32.8135 31.4636C32.9709 31.4192 33.0878 31.3698 33.1746 31.3134L33.1766 31.3119C33.2076 31.2927 33.2361 31.2701 33.264 31.2423C33.292 31.2151 33.3148 31.1864 33.3341 31.1562L33.3357 31.1541C33.3931 31.068 33.4428 30.9521 33.487 30.7958C33.4906 30.7328 33.4931 30.6698 33.4957 30.6073C33.643 30.6038 34.0016 30.6245 34.2886 30.564C35.4899 30.312 36.9635 29.6589 38.0272 28.853C38.6042 28.4156 38.7973 28.1928 38.6301 27.5306C38.5717 27.3003 38.4122 27.0302 38.3045 26.812C40.2063 25.9255 41.3447 25.3036 42.3657 24.1006C42.6618 23.7514 42.834 23.514 42.8518 23.2665C42.834 23.0191 42.6618 22.7822 42.3657 22.433C41.3447 21.2295 40.2069 20.6081 38.3045 19.7216C38.4117 19.5034 38.5717 19.2333 38.6301 19.0029C38.7973 18.3407 38.6047 18.118 38.0272 17.6806C36.9635 16.8747 35.4899 16.2221 34.2886 15.9696C34.0016 15.9096 33.643 15.9298 33.4957 15.9262C33.4931 15.8637 33.4906 15.8007 33.487 15.7377C33.4428 15.5815 33.3931 15.4656 33.3357 15.3794L33.3341 15.3774C33.3148 15.3467 33.292 15.3184 33.264 15.2912C33.2366 15.2635 33.2076 15.2408 33.1766 15.2217L33.1746 15.2202C33.0878 15.1632 32.9709 15.1138 32.8135 15.07C32.75 15.067 32.6865 15.0639 32.6235 15.0614C32.6199 14.9158 32.6407 14.5595 32.5798 14.2752C32.3258 13.0828 31.668 11.6213 30.8553 10.5655C30.4144 9.99302 30.1903 9.80151 29.5224 9.96731C29.2902 10.0253 29.018 10.1835 28.798 10.2898C27.9045 8.40297 27.2782 7.27358 26.0652 6.2606C25.7132 5.96679 25.4744 5.79596 25.225 5.77832C24.9756 5.79596 24.7369 5.96679 24.3848 6.2606C23.1718 7.27358 22.5455 8.40297 21.652 10.2898C21.4321 10.1835 21.1598 10.0248 20.9277 9.96731C20.2602 9.801 20.0357 9.99252 19.5948 10.5655C18.7825 11.6208 18.1247 13.0828 17.8702 14.2752C17.8098 14.56 17.8301 14.9158 17.8265 15.0614C17.7636 15.0639 17.7001 15.0665 17.6366 15.07C17.4791 15.1143 17.3623 15.1632 17.2754 15.2202L17.2734 15.2217C17.2424 15.2408 17.2134 15.2635 17.186 15.2912C17.1581 15.3184 17.1352 15.3472 17.1159 15.3774L17.1149 15.3794C17.0575 15.4656 17.0077 15.5815 16.963 15.7377C16.96 15.8007 16.9569 15.8637 16.9549 15.9262C16.8076 15.9293 16.449 15.9091 16.162 15.9696C14.9606 16.2221 13.487 16.8747 12.4228 17.6806C11.8458 18.118 11.6528 18.3402 11.8199 19.0029C11.8783 19.2333 12.0378 19.5034 12.1455 19.7216C10.2437 20.6081 9.10536 21.2295 8.08436 22.433C7.78821 22.7822 7.616 23.0196 7.59822 23.2665C7.616 23.514 7.78821 23.7514 8.08436 24.1006C9.10536 25.3041 10.2437 25.9255 12.1455 26.812C12.0378 27.0302 11.8783 27.3003 11.8199 27.5306C11.6528 28.1933 11.8458 28.4156 12.4228 28.853C13.4865 29.6589 14.9601 30.3115 16.162 30.564C16.449 30.624 16.8076 30.6038 16.9549 30.6073C16.9569 30.6698 16.9595 30.7328 16.963 30.7958ZM31.3866 15.0665C30.9005 15.0901 30.4372 15.1411 29.9978 15.2212C29.4467 15.2756 28.9545 15.3683 28.2967 15.5936C28.0701 15.0685 26.9084 13.422 26.7977 13.3298C27.1964 12.7628 28.7955 11.4722 29.6915 11.1789C30.5693 12.0008 31.5461 14.1538 31.3866 15.0665ZM20.4502 15.2212C20.0108 15.1416 19.548 15.0901 19.0614 15.0665C18.9019 14.1538 19.8787 12.0008 20.7565 11.1789C21.6525 11.4722 23.2511 12.7628 23.6503 13.3298C23.5396 13.422 22.3779 15.068 22.1513 15.5936C21.4935 15.3678 21.0008 15.2756 20.4502 15.2212ZM33.4901 17.1529C33.4662 17.6352 33.4149 18.0948 33.3341 18.5308C33.2793 19.0771 33.1858 19.5659 32.9587 20.2185C33.488 20.4433 35.1475 21.5959 35.24 21.7057C35.812 21.3101 37.1128 19.7236 37.408 18.8346C36.5795 17.9643 34.4095 16.9947 33.4901 17.1529ZM17.1139 18.5308C17.0336 18.0948 16.9818 17.6352 16.9579 17.1529C16.038 16.9947 13.868 17.9643 13.039 18.8346C13.3346 19.7236 14.6355 21.3101 15.207 21.7057C15.2999 21.5959 16.9595 20.4433 17.4888 20.2185C17.2622 19.5659 17.1688 19.0776 17.1139 18.5308ZM25.224 7.2348C24.0603 7.76598 22.704 10.182 22.6817 11.0972L24.4036 12.6333C24.7602 12.3541 25.0025 12.1888 25.224 12.1384C25.446 12.1893 25.6883 12.3541 26.0444 12.6333L27.7663 11.0972C27.7435 10.182 26.3883 7.76648 25.224 7.2348ZM25.224 13.3661C24.9543 13.3434 23.4182 15.0317 23.1383 16.0059C24.3015 17.1156 24.838 17.7194 25.224 18.5847C25.6101 17.7194 26.1465 17.1156 27.3097 16.0059C27.0298 15.0317 25.4937 13.3434 25.224 13.3661ZM25.7731 21.9472C25.7625 21.8685 25.7538 21.7884 25.7472 21.7077C25.8107 19.7644 26.3314 18.3922 27.422 17.4402C28.3459 16.6338 30.1304 16.089 31.4587 16.1016C31.9555 16.1067 32.2075 16.0986 32.337 16.2095C32.4488 16.3385 32.4411 16.5879 32.4457 17.0808C32.4584 18.3987 31.9093 20.1692 31.097 21.0859C30.1375 22.1679 28.7543 22.6845 26.7956 22.7475C26.7144 22.7409 26.6336 22.7323 26.5543 22.7217L30.2188 18.3569L29.9679 18.56L30.1726 18.311L25.7731 21.9472ZM24.6749 21.9472C24.6855 21.8685 24.6942 21.7884 24.7008 21.7077C24.6373 19.7644 24.1161 18.3922 23.0256 17.4402C22.1016 16.6338 20.3171 16.089 18.9888 16.1016C18.492 16.1067 18.2405 16.0986 18.1105 16.2095C17.9987 16.3385 18.0064 16.5879 18.0018 17.0808C17.9891 18.3987 18.5382 20.1692 19.351 21.0859C20.31 22.1679 21.6937 22.6845 23.6524 22.7475C23.7336 22.7409 23.8144 22.7323 23.8937 22.7217L20.2292 18.3569L20.4801 18.56L20.2754 18.311L24.6749 21.9472ZM33.4901 29.3817C33.4662 28.8994 33.4149 28.4398 33.3341 28.0039C33.2793 27.4575 33.1858 26.9687 32.9587 26.3161C33.488 26.0913 35.1475 24.9387 35.24 24.8288C35.812 25.2244 37.1128 26.8109 37.408 27.6999C36.5795 28.5703 34.4095 29.54 33.4901 29.3817ZM31.3866 31.4681C30.9005 31.4444 30.4372 31.3935 29.9978 31.3134C29.4467 31.259 28.9545 31.1663 28.2967 30.941C28.0701 31.4661 26.9084 33.1126 26.7977 33.2043C27.1964 33.7713 28.7955 35.0619 29.6915 35.3552C30.5693 34.5338 31.5461 32.3808 31.3866 31.4681ZM41.3838 23.267C40.8484 22.1119 38.4132 20.7674 37.4903 20.7447L35.942 22.4531C36.2234 22.8064 36.3895 23.0473 36.4408 23.267C36.39 23.4873 36.2239 23.7277 35.942 24.081L37.4903 25.7894C38.4132 25.7672 40.8479 24.4221 41.3838 23.267ZM35.2039 23.267C35.2268 22.9994 33.5251 21.4754 32.5432 21.1982C31.4252 22.3523 30.8167 22.8845 29.9445 23.267C30.8167 23.65 31.4252 24.1822 32.5432 25.3363C33.5251 25.0591 35.2268 23.5351 35.2039 23.267ZM26.5549 23.8123C26.6341 23.8018 26.7149 23.7932 26.7961 23.7866C28.7548 23.8496 30.1385 24.3662 31.0976 25.4482C31.9103 26.3649 32.4589 28.1354 32.4462 29.4533C32.4411 29.9461 32.4493 30.1961 32.3375 30.3246C32.208 30.4355 31.956 30.4279 31.4592 30.4325C30.1309 30.4451 28.3465 29.9003 27.4225 29.0944C26.3319 28.1424 25.8112 26.7706 25.7477 24.8268C25.7543 24.7462 25.7629 24.6661 25.7736 24.5875L30.1731 28.2231L29.9684 27.9741L30.2193 28.1772L26.5549 23.8123ZM17.1139 28.0039C17.0336 28.4398 16.9818 28.8994 16.9579 29.3817C16.038 29.54 13.868 28.5703 13.039 27.6999C13.3346 26.8109 14.6355 25.2244 15.207 24.8288C15.2999 24.9382 16.9595 26.0913 17.4888 26.3161C17.2622 26.9687 17.1688 27.457 17.1139 28.0039ZM19.0614 31.4681C19.5475 31.4444 20.0108 31.3935 20.4502 31.3134C21.0008 31.259 21.4935 31.1663 22.1513 30.941C22.3779 31.4661 23.5396 33.1126 23.6503 33.2043C23.2516 33.7713 21.6525 35.0619 20.7565 35.3552C19.8792 34.5338 18.9019 32.3808 19.0614 31.4681ZM9.06472 23.267C9.60011 22.1119 12.0353 20.7674 12.9577 20.7447L14.506 22.4531C14.2246 22.8064 14.058 23.0473 14.0072 23.267C14.0585 23.4873 14.2246 23.7277 14.506 24.081L12.9577 25.7894C12.0353 25.7672 9.60011 24.4221 9.06472 23.267ZM15.2446 23.267C15.2212 22.9994 16.9234 21.4754 17.9053 21.1982C19.0233 22.3523 19.6318 22.8845 20.504 23.267C19.6318 23.65 19.0233 24.1822 17.9053 25.3363C16.9234 25.0591 15.2212 23.5351 15.2446 23.267ZM23.8931 23.8123C23.8139 23.8018 23.7331 23.7932 23.6519 23.7866C21.6932 23.8496 20.31 24.3662 19.3504 25.4482C18.5377 26.3649 17.9891 28.1354 18.0013 29.4533C18.0064 29.9461 17.9983 30.1961 18.11 30.3246C18.2395 30.4355 18.4915 30.4279 18.9883 30.4325C20.3166 30.4451 22.101 29.9003 23.025 29.0944C24.1156 28.1424 24.6363 26.7706 24.7003 24.8268C24.6937 24.7462 24.6851 24.6661 24.6744 24.5875L20.2749 28.2231L20.4796 27.9741L20.2287 28.1772L23.8931 23.8123ZM25.224 39.2998C24.0603 38.7686 22.704 36.3526 22.6817 35.4374L24.4036 33.9013C24.7602 34.181 25.0025 34.3458 25.224 34.3962C25.446 34.3453 25.6883 34.1805 26.0444 33.9013L27.7663 35.4374C27.7435 36.3526 26.3883 38.7686 25.224 39.2998ZM25.224 33.1685C24.9543 33.1912 23.4182 31.5029 23.1383 30.5287C24.3015 29.4195 24.838 28.8157 25.224 27.9504C25.6101 28.8157 26.1465 29.4195 27.3097 30.5287C27.0298 31.5029 25.4937 33.1912 25.224 33.1685Z" fill="#FE7514"/>
<path fill-rule="evenodd" clip-rule="evenodd" d="M-11.4671 67.6615C-11.4224 67.8177 -11.3731 67.9336 -11.3157 68.0198L-11.3142 68.0219C-11.2954 68.0526 -11.272 68.0808 -11.2446 68.1085C-11.2172 68.1363 -11.1882 68.1589 -11.1572 68.1781L-11.1552 68.1796C-11.0684 68.2365 -10.9515 68.2859 -10.7941 68.3298C-10.7306 68.3333 -10.6671 68.3358 -10.6041 68.3383C-10.6005 68.4845 -10.6208 68.8403 -10.5604 69.125C-10.3059 70.3169 -9.64859 71.7789 -8.83585 72.8342C-8.39494 73.4067 -8.17095 73.5983 -7.50298 73.4324C-7.27084 73.3745 -6.99856 73.2162 -6.77861 73.1094C-5.8846 74.9963 -5.25879 76.1257 -4.04578 77.1386C-3.69376 77.4324 -3.45451 77.6033 -3.20561 77.6209C-2.9562 77.6033 -2.71697 77.4324 -2.36495 77.1386C-1.15194 76.1257 -0.525616 74.9968 0.36789 73.1094C0.587837 73.2157 0.860118 73.3745 1.09226 73.4324C1.75972 73.5983 1.98422 73.4067 2.42513 72.8342C3.23736 71.7789 3.89518 70.3169 4.14967 69.125C4.21012 68.8403 4.18981 68.4845 4.19286 68.3383C4.25585 68.3358 4.31932 68.3333 4.38282 68.3298C4.54029 68.2859 4.65713 68.2365 4.74348 68.1796L4.74553 68.1781C4.77601 68.1594 4.80494 68.1363 4.83237 68.1085C4.86031 68.0813 4.88317 68.0526 4.90247 68.0219L4.90399 68.0198C4.96139 67.9336 5.01117 67.8177 5.05587 67.6615C5.05892 67.5985 5.06198 67.5355 5.06452 67.473C5.21133 67.4695 5.57045 67.4901 5.85694 67.4297C7.05878 67.1772 8.53185 66.5246 9.59603 65.7187C10.1731 65.2813 10.3661 65.059 10.199 64.3963C10.1406 64.166 9.98108 63.8958 9.87339 63.6776C11.7752 62.7911 12.9135 62.1698 13.9345 60.9663C14.2307 60.617 14.4029 60.3802 14.4207 60.1327C14.4029 59.8853 14.2307 59.6484 13.9345 59.2991C12.9135 58.0957 11.7752 57.4743 9.87339 56.5878C9.98057 56.3696 10.1406 56.0995 10.199 55.8691C10.3661 55.2069 10.1736 54.9842 9.59603 54.5467C8.53236 53.7409 7.05878 53.0883 5.85694 52.8358C5.56995 52.7753 5.21133 52.7959 5.06452 52.7924C5.06198 52.7299 5.05892 52.6669 5.05587 52.6039C5.01117 52.4477 4.96139 52.3318 4.90399 52.2461L4.90247 52.2441C4.88367 52.2134 4.86031 52.1846 4.83237 52.1579C4.80494 52.1302 4.77601 52.1075 4.74553 52.0884L4.74348 52.0869C4.65713 52.0299 4.54029 51.9805 4.38282 51.9367C4.31932 51.9336 4.25585 51.9306 4.19286 51.9281C4.18981 51.782 4.21012 51.4261 4.14967 51.1414C3.89518 49.9495 3.23736 48.4875 2.42513 47.4322C1.98422 46.8597 1.75972 46.6682 1.09226 46.834C0.860118 46.8919 0.587837 47.0502 0.36789 47.157C-0.525616 45.2702 -1.15244 44.1408 -2.36495 43.1278C-2.71697 42.834 -2.9562 42.6631 -3.20561 42.6455C-3.45502 42.6631 -3.69376 42.834 -4.04578 43.1278C-5.25879 44.1408 -5.88511 45.2702 -6.77861 47.157C-6.99856 47.0507 -7.27084 46.8919 -7.50298 46.834C-8.17044 46.6682 -8.39494 46.8597 -8.83585 47.4322C-9.64809 48.4875 -10.3059 49.9495 -10.5604 51.1414C-10.6214 51.4261 -10.6005 51.782 -10.6041 51.9281C-10.6671 51.9306 -10.7306 51.9331 -10.7941 51.9367C-10.9515 51.981 -11.0684 52.0304 -11.1552 52.0869L-11.1572 52.0884C-11.1882 52.1075 -11.2167 52.1302 -11.2446 52.1579C-11.2726 52.1851 -11.2954 52.2139 -11.3142 52.2441L-11.3157 52.2461C-11.3731 52.3323 -11.4229 52.4477 -11.4671 52.6039C-11.4707 52.6674 -11.4732 52.7299 -11.4757 52.7924C-11.6231 52.7959 -11.9817 52.7753 -12.2687 52.8358C-13.47 53.0883 -14.9436 53.7409 -16.0073 54.5467C-16.5843 54.9842 -16.7774 55.2064 -16.6102 55.8691C-16.5518 56.0995 -16.3923 56.3696 -16.2851 56.5878C-18.1869 57.4743 -19.3253 58.0957 -20.3463 59.2991C-20.6424 59.6484 -20.8146 59.8853 -20.8324 60.1327C-20.8146 60.3802 -20.6424 60.6175 -20.3463 60.9663C-19.3253 62.1698 -18.1869 62.7911 -16.2851 63.6776C-16.3923 63.8958 -16.5523 64.166 -16.6102 64.3963C-16.7779 65.059 -16.5848 65.2813 -16.0073 65.7187C-14.9436 66.5246 -13.47 67.1772 -12.2687 67.4297C-11.9817 67.4901 -11.6231 67.4695 -11.4757 67.473C-11.4732 67.5355 -11.4707 67.5985 -11.4671 67.6615ZM2.95647 51.9321C2.47035 51.9558 2.00708 52.0067 1.5677 52.0869C1.01656 52.1413 0.524342 52.234 -0.133469 52.4588C-0.36002 51.9336 -1.52174 50.2877 -1.63196 50.1955C-1.23321 49.6285 0.365863 48.3378 1.26191 48.0445C2.13865 48.8665 3.11597 51.0195 2.95647 51.9321ZM-7.97994 52.0863C-8.41933 52.0067 -8.88208 51.9553 -9.36871 51.9316C-9.52821 51.019 -8.55141 48.866 -7.67366 48.0435C-6.77761 48.3368 -5.17853 49.6275 -4.77978 50.1945C-4.89052 50.2867 -6.05222 51.9332 -6.27877 52.4578C-6.93659 52.2335 -7.42931 52.1408 -7.97994 52.0863ZM5.05944 54.0186C5.03557 54.5009 4.98425 54.9605 4.90399 55.3964C4.84913 55.9427 4.75569 56.4316 4.52863 57.0842C5.05792 57.309 6.71744 58.4616 6.8104 58.5714C7.38185 58.1758 8.68272 56.5893 8.97835 55.7003C8.14936 54.83 5.97936 53.8603 5.05944 54.0186ZM-11.3162 55.3964C-11.3965 54.9605 -11.4483 54.5014 -11.4722 54.0186C-12.3921 53.8603 -14.5616 54.8295 -15.3906 55.7003C-15.095 56.5893 -13.7941 58.1758 -13.2226 58.5714C-13.1297 58.4621 -11.4707 57.309 -10.9414 57.0842C-11.1679 56.4316 -11.2614 55.9427 -11.3162 55.3964ZM-3.20614 44.1005C-4.37039 44.6322 -5.7256 47.0477 -5.74846 47.9629L-4.02699 49.499C-3.6704 49.2198 -3.42812 49.0545 -3.20614 49.0041C-2.98416 49.0545 -2.74183 49.2198 -2.38575 49.499L-0.663784 47.9629C-0.686643 47.0477 -2.0424 44.6317 -3.20614 44.1005ZM-3.20614 50.2317C-3.47587 50.2091 -5.01193 51.8974 -5.29131 52.8715C-4.12859 53.9808 -3.59168 54.5845 -3.20614 55.4504C-2.82059 54.585 -2.28367 53.9813 -1.12044 52.8715C-1.40032 51.8974 -2.93641 50.2086 -3.20614 50.2317ZM-2.657 58.8123C-2.66767 58.7337 -2.67632 58.6541 -2.68292 58.5729C-2.61943 56.6296 -2.09877 55.2573 -1.00817 54.3053C-0.0841886 53.499 1.70029 52.9542 3.02861 52.9668C3.5254 52.9713 3.77684 52.9638 3.90688 53.0747C4.01863 53.2032 4.01101 53.4531 4.01558 53.946C4.02828 55.2639 3.47917 57.0343 2.66643 57.951C1.7074 59.0331 0.3237 59.5496 -1.635 59.6126C-1.71628 59.6061 -1.79703 59.5975 -1.87627 59.5869L1.78816 55.2221L1.53722 55.4251L1.74194 55.1762L-2.657 58.8123ZM-3.75524 58.8123C-3.74457 58.7337 -3.73593 58.6541 -3.72932 58.5729C-3.79282 56.6296 -4.31398 55.2573 -5.40407 54.3053C-6.32805 53.499 -8.11254 52.9542 -9.44086 52.9668C-9.93764 52.9713 -10.1896 52.9638 -10.3191 53.0747C-10.4309 53.2032 -10.4233 53.4531 -10.4278 53.946C-10.4405 55.2639 -9.89141 57.0343 -9.07867 57.951C-8.11964 59.0331 -6.73594 59.5496 -4.77724 59.6126C-4.69597 59.6061 -4.61572 59.5975 -4.53597 59.5869L-8.20041 55.2221L-7.94946 55.4251L-8.15418 55.1762L-3.75524 58.8123ZM5.05944 66.2469C5.03557 65.7646 4.98425 65.3049 4.90399 64.869C4.84913 64.3227 4.75569 63.8339 4.52863 63.1812C5.05792 62.957 6.71744 61.8039 6.8104 61.6945C7.38185 62.0901 8.68272 63.6766 8.97835 64.5656C8.14936 65.436 5.97936 66.4051 5.05944 66.2469ZM2.95647 68.3338C2.47035 68.3101 2.00708 68.2592 1.5677 68.1791C1.01656 68.1246 0.524342 68.0319 -0.133469 67.8067C-0.36002 68.3318 -1.52174 69.9783 -1.63196 70.0705C-1.23321 70.6375 0.365863 71.9281 1.26191 72.2214C2.13865 71.3994 3.11597 69.2465 2.95647 68.3338ZM12.9532 60.1327C12.4178 58.9781 9.9826 57.6325 9.06014 57.6104L7.51188 59.3188C7.79329 59.6721 7.9599 59.9125 8.0107 60.1327C7.95939 60.3529 7.79329 60.5933 7.51188 60.9471L9.06014 62.6556C9.9826 62.6329 12.4178 61.2878 12.9532 60.1327ZM6.77381 60.1327C6.79667 59.8651 5.09501 58.3411 4.11312 58.0634C2.99509 59.2175 2.38654 59.7497 1.51437 60.1327C2.38654 60.5152 2.99509 61.0479 4.11312 62.202C5.0945 61.9248 6.79667 60.4003 6.77381 60.1327ZM-1.87525 60.6775C-1.79601 60.6669 -1.71525 60.6584 -1.63398 60.6518C0.324724 60.7148 1.70791 61.2319 2.66745 62.3134C3.48019 63.2301 4.0288 65.0006 4.0166 66.3184C4.01203 66.8113 4.01963 67.0613 3.90787 67.1898C3.77834 67.3007 3.52639 67.2931 3.02961 67.2976C1.70129 67.3102 -0.0831655 66.7655 -1.00715 65.9591C-2.09774 65.0076 -2.6184 63.6353 -2.6819 61.6915C-2.67529 61.6109 -2.66668 61.5312 -2.65601 61.4521L1.74346 65.0877L1.53874 64.8388L1.78968 65.0419L-1.87525 60.6775ZM-11.3162 64.8695C-11.3965 65.3055 -11.4483 65.7646 -11.4722 66.2474C-12.3921 66.4056 -14.5616 65.4365 -15.3906 64.5656C-15.095 63.6766 -13.7941 62.0906 -13.2226 61.6945C-13.1297 61.8039 -11.4707 62.957 -10.9414 63.1812C-11.1679 63.8344 -11.2614 64.3227 -11.3162 64.8695ZM-9.36871 68.3338C-8.88259 68.3101 -8.41933 68.2592 -7.97994 68.1791C-7.42931 68.1246 -6.93659 68.0319 -6.27877 67.8067C-6.05222 68.3318 -4.89052 69.9783 -4.77978 70.0705C-5.17853 70.6375 -6.77761 71.9281 -7.67366 72.2214C-8.55141 71.3994 -9.52821 69.2465 -9.36871 68.3338ZM-19.3654 60.1327C-18.83 58.9781 -16.3948 57.6325 -15.4724 57.6104L-13.9241 59.3188C-14.2055 59.6721 -14.3716 59.9125 -14.4229 60.1327C-14.3721 60.3529 -14.206 60.5933 -13.9241 60.9471L-15.4724 62.6556C-16.3948 62.6329 -18.83 61.2878 -19.3654 60.1327ZM-13.1856 60.1327C-13.2089 59.8651 -11.5067 58.3411 -10.5248 58.0634C-9.40681 59.2175 -8.79776 59.7497 -7.92559 60.1327C-8.79776 60.5152 -9.40681 61.0479 -10.5248 62.202C-11.5072 61.9248 -13.2089 60.4003 -13.1856 60.1327ZM-4.537 60.6775C-4.61624 60.6669 -4.69699 60.6584 -4.77826 60.6518C-6.73697 60.7148 -8.12066 61.2319 -9.0797 62.3134C-9.89193 63.2301 -10.441 65.0006 -10.4288 66.3184C-10.4238 66.8113 -10.4319 67.0613 -10.3201 67.1898C-10.1906 67.3007 -9.93867 67.2931 -9.44188 67.2976C-8.11356 67.3102 -6.32908 66.7655 -5.40509 65.9591C-4.3145 65.0076 -3.79384 63.6353 -3.73035 61.6915C-3.73695 61.6109 -3.74557 61.5312 -3.75623 61.4521L-8.1557 65.0877L-7.95098 64.8388L-8.20192 65.0419L-4.537 60.6775ZM-3.20614 76.1655C-4.37039 75.6343 -5.7256 73.2183 -5.74846 72.3025L-4.02699 70.7665C-3.6704 71.0457 -3.42812 71.211 -3.20614 71.2614C-2.98416 71.211 -2.74183 71.0462 -2.38575 70.7665L-0.663784 72.3025C-0.686643 73.2183 -2.0424 75.6338 -3.20614 76.1655ZM-3.20614 70.0342C-3.47587 70.0569 -5.01193 68.3686 -5.29131 67.3944C-4.12859 66.2852 -3.59168 65.6809 -3.20614 64.8161C-2.82059 65.6814 -2.28367 66.2852 -1.12044 67.3944C-1.40032 68.3686 -2.93641 70.0569 -3.20614 70.0342Z" fill="#FE7514"/>
<path fill-rule="evenodd" clip-rule="evenodd" d="M45.5511 67.6615C45.5958 67.8177 45.6451 67.9336 45.7025 68.0198L45.704 68.0219C45.7228 68.0526 45.7462 68.0808 45.7741 68.1085C45.8016 68.1363 45.8305 68.1589 45.861 68.1781L45.863 68.1796C45.9499 68.2365 46.0667 68.2859 46.2242 68.3298C46.2882 68.3333 46.3512 68.3358 46.4142 68.3383C46.4177 68.4845 46.3969 68.8403 46.4579 69.125C46.7118 70.3169 47.3701 71.7789 48.1824 72.8342C48.6233 73.4067 48.8478 73.5983 49.5153 73.4324C49.7474 73.3745 50.0197 73.2162 50.2396 73.1094C51.1331 74.9963 51.7599 76.1257 52.9724 77.1386C53.3245 77.4324 53.5637 77.6033 53.8131 77.6209C54.0625 77.6033 54.3013 77.4324 54.6533 77.1386C55.8663 76.1257 56.4926 74.9968 57.3861 73.1094C57.6061 73.2157 57.8783 73.3745 58.1105 73.4324C58.7784 73.5983 59.0025 73.4067 59.4434 72.8342C60.2556 71.7789 60.9134 70.3169 61.1679 69.125C61.2284 68.8403 61.208 68.4845 61.2116 68.3383C61.2746 68.3358 61.3381 68.3333 61.4016 68.3298C61.559 68.2859 61.6759 68.2365 61.7627 68.1796L61.7648 68.1781C61.7958 68.1594 61.8242 68.1363 61.8521 68.1085C61.8801 68.0813 61.9029 68.0526 61.9217 68.0219L61.9233 68.0198C61.9807 67.9336 62.0304 67.8177 62.0746 67.6615C62.0782 67.5985 62.0807 67.5355 62.0833 67.473C62.2306 67.4695 62.5892 67.4901 62.8762 67.4297C64.0775 67.1772 65.5511 66.5246 66.6148 65.7187C67.1918 65.2813 67.3849 65.059 67.2177 64.3963C67.1593 64.166 66.9998 63.8958 66.8926 63.6776C68.7944 62.7911 69.9323 62.1698 70.9538 60.9663C71.25 60.617 71.4221 60.3802 71.4399 60.1327C71.4221 59.8853 71.25 59.6484 70.9538 59.2991C69.9328 58.0957 68.7944 57.4743 66.8926 56.5878C66.9998 56.3696 67.1598 56.0995 67.2177 55.8691C67.3854 55.2069 67.1923 54.9842 66.6148 54.5467C65.5511 53.7409 64.0775 53.0883 62.8762 52.8358C62.5892 52.7753 62.2306 52.7959 62.0833 52.7924C62.0807 52.7299 62.0782 52.6669 62.0746 52.6039C62.0299 52.4477 61.9802 52.3318 61.9233 52.2461L61.9217 52.2441C61.9029 52.2134 61.8796 52.1846 61.8521 52.1579C61.8247 52.1302 61.7958 52.1075 61.7648 52.0884L61.7627 52.0869C61.6759 52.0299 61.559 51.9805 61.4016 51.9367C61.3381 51.9336 61.2746 51.9306 61.2116 51.9281C61.208 51.782 61.2289 51.4261 61.1679 51.1414C60.9139 49.9495 60.2561 48.4875 59.4434 47.4322C59.0025 46.8597 58.7784 46.6682 58.1105 46.834C57.8783 46.8919 57.6061 47.0502 57.3861 47.157C56.4926 45.2702 55.8663 44.1408 54.6533 43.1278C54.3013 42.834 54.062 42.6631 53.8131 42.6455C53.5637 42.6631 53.325 42.834 52.9724 43.1278C51.7594 44.1408 51.1331 45.2702 50.2396 47.157C50.0197 47.0507 49.7474 46.8919 49.5153 46.834C48.8478 46.6682 48.6233 46.8597 48.1824 47.4322C47.3701 48.4875 46.7123 49.9495 46.4579 51.1414C46.3974 51.4261 46.4177 51.782 46.4142 51.9281C46.3512 51.9306 46.2877 51.9331 46.2242 51.9367C46.0667 51.981 45.9499 52.0304 45.863 52.0869L45.861 52.0884C45.8305 52.1075 45.8016 52.1302 45.7741 52.1579C45.7462 52.1851 45.7233 52.2139 45.704 52.2441L45.7025 52.2461C45.6451 52.3323 45.5953 52.4477 45.5511 52.6039C45.5476 52.6674 45.545 52.7299 45.5425 52.7924C45.3957 52.7959 45.0366 52.7753 44.7501 52.8358C43.5482 53.0883 42.0751 53.7409 41.0115 54.5467C40.4344 54.9842 40.2414 55.2064 40.4085 55.8691C40.4669 56.0995 40.6264 56.3696 40.7341 56.5878C38.8323 57.4743 37.694 58.0957 36.673 59.2991C36.3768 59.6484 36.2046 59.8853 36.1868 60.1327C36.2046 60.3802 36.3768 60.6175 36.673 60.9663C37.694 62.1698 38.8323 62.7911 40.7341 63.6776C40.627 63.8958 40.4669 64.166 40.4085 64.3963C40.2409 65.059 40.4339 65.2813 41.0115 65.7187C42.0751 66.5246 43.5488 67.1772 44.7501 67.4297C45.0371 67.4901 45.3957 67.4695 45.5425 67.473C45.545 67.5355 45.5476 67.5985 45.5511 67.6615ZM59.9747 51.9321C59.4886 51.9558 59.0253 52.0067 58.5859 52.0869C58.0353 52.1413 57.5426 52.234 56.8848 52.4588C56.6582 51.9336 55.4965 50.2877 55.3863 50.1955C55.785 49.6285 57.3841 48.3378 58.2802 48.0445C59.1574 48.8665 60.1342 51.0195 59.9747 51.9321ZM49.0383 52.0863C48.5989 52.0067 48.1356 51.9553 47.6495 51.9316C47.49 51.019 48.4673 48.866 49.3446 48.0435C50.2406 48.3368 51.8397 49.6275 52.2384 50.1945C52.1282 50.2867 50.966 51.9332 50.74 52.4578C50.0817 52.2335 49.5889 52.1408 49.0383 52.0863ZM62.0782 54.0186C62.0543 54.5009 62.003 54.9605 61.9222 55.3964C61.8674 55.9427 61.7739 56.4316 61.5468 57.0842C62.0761 57.309 63.7357 58.4616 63.8281 58.5714C64.3996 58.1758 65.7005 56.5893 65.9961 55.7003C65.1676 54.83 62.9976 53.8603 62.0782 54.0186ZM45.702 55.3964C45.6217 54.9605 45.5699 54.5014 45.546 54.0186C44.6261 53.8603 42.4561 54.8295 41.6276 55.7003C41.9233 56.5893 43.2242 58.1758 43.7956 58.5714C43.8886 58.4621 45.5481 57.309 46.0769 57.0842C45.8503 56.4316 45.7574 55.9427 45.702 55.3964ZM53.8121 44.1005C52.6479 44.6322 51.2921 47.0477 51.2698 47.9629L52.9918 49.499C53.3483 49.2198 53.5906 49.0545 53.8121 49.0041C54.0341 49.0545 54.2764 49.2198 54.6325 49.499L56.354 47.9629C56.3321 47.0477 54.9764 44.6317 53.8121 44.1005ZM53.8121 50.2317C53.5424 50.2091 52.0063 51.8974 51.7264 52.8715C52.8896 53.9808 53.4261 54.5845 53.8121 55.4504C54.1977 54.585 54.7346 53.9813 55.8973 52.8715C55.6184 51.8974 54.0818 50.2086 53.8121 50.2317ZM54.3612 58.8123C54.3505 58.7337 54.3419 58.6541 54.3353 58.5729C54.3988 56.6296 54.92 55.2573 56.0101 54.3053C56.9341 53.499 58.7185 52.9542 60.0468 52.9668C60.5436 52.9713 60.7956 52.9638 60.9251 53.0747C61.0369 53.2032 61.0292 53.4531 61.0338 53.946C61.0465 55.2639 60.4974 57.0343 59.6847 57.951C58.7256 59.0331 57.3425 59.5496 55.3832 59.6126C55.302 59.6061 55.2217 59.5975 55.1419 59.5869L58.8064 55.2221L58.5555 55.4251L58.7602 55.1762L54.3612 58.8123ZM53.263 58.8123C53.2737 58.7337 53.2823 58.6541 53.2889 58.5729C53.2254 56.6296 52.7048 55.2573 51.6142 54.3053C50.6902 53.499 48.9057 52.9542 47.5774 52.9668C47.0806 52.9713 46.8287 52.9638 46.6991 53.0747C46.5874 53.2032 46.595 53.4531 46.5904 53.946C46.5777 55.2639 47.1268 57.0343 47.9396 57.951C48.8986 59.0331 50.2818 59.5496 52.241 59.6126C52.3223 59.6061 52.403 59.5975 52.4823 59.5869L48.8178 55.2221L49.0688 55.4251L48.8641 55.1762L53.263 58.8123ZM62.0782 66.2469C62.0543 65.7646 62.003 65.3049 61.9222 64.869C61.8674 64.3227 61.7739 63.8339 61.5468 63.1812C62.0761 62.957 63.7357 61.8039 63.8281 61.6945C64.3996 62.0901 65.7005 63.6766 65.9961 64.5656C65.1676 65.436 62.9976 66.4051 62.0782 66.2469ZM59.9747 68.3338C59.4886 68.3101 59.0253 68.2592 58.5859 68.1791C58.0353 68.1246 57.5426 68.0319 56.8848 67.8067C56.6582 68.3318 55.4965 69.9783 55.3863 70.0705C55.785 70.6375 57.3841 71.9281 58.2802 72.2214C59.1574 71.3994 60.1342 69.2465 59.9747 68.3338ZM69.9714 60.1327C69.436 58.9781 67.0008 57.6325 66.0784 57.6104L64.5301 59.3188C64.812 59.6721 64.9782 59.9125 65.0289 60.1327C64.9776 60.3529 64.812 60.5933 64.5301 60.9471L66.0784 62.6556C67.0014 62.6329 69.436 61.2878 69.9714 60.1327ZM63.7921 60.1327C63.8154 59.8651 62.1132 58.3411 61.1313 58.0634C60.0133 59.2175 59.4043 59.7497 58.5321 60.1327C59.4043 60.5152 60.0128 61.0479 61.1313 62.202C62.1132 61.9248 63.8149 60.4003 63.7921 60.1327ZM55.143 60.6775C55.2222 60.6669 55.303 60.6584 55.3843 60.6518C57.343 60.7148 58.7266 61.2319 59.6857 62.3134C60.4984 63.2301 61.047 65.0006 61.0348 66.3184C61.0297 66.8113 61.0379 67.0613 60.9261 67.1898C60.7966 67.3007 60.5446 67.2931 60.0479 67.2976C58.7195 67.3102 56.9351 66.7655 56.0111 65.9591C54.921 65.0076 54.3998 63.6353 54.3363 61.6915C54.3429 61.6109 54.3516 61.5312 54.3622 61.4521L58.7617 65.0877L58.557 64.8388L58.8079 65.0419L55.143 60.6775ZM45.702 64.8695C45.6217 65.3055 45.5699 65.7646 45.546 66.2474C44.6261 66.4056 42.4561 65.4365 41.6276 64.5656C41.9233 63.6766 43.2242 62.0906 43.7956 61.6945C43.8886 61.8039 45.5481 62.957 46.0769 63.1812C45.8503 63.8344 45.7574 64.3227 45.702 64.8695ZM47.6495 68.3338C48.1356 68.3101 48.5989 68.2592 49.0383 68.1791C49.5889 68.1246 50.0816 68.0319 50.7394 67.8067C50.966 68.3318 52.1277 69.9783 52.2379 70.0705C51.8392 70.6375 50.2401 71.9281 49.3441 72.2214C48.4673 71.3994 47.49 69.2465 47.6495 68.3338ZM37.6528 60.1327C38.1882 58.9781 40.6234 57.6325 41.5458 57.6104L43.0941 59.3188C42.8122 59.6721 42.6461 59.9125 42.5953 60.1327C42.6466 60.3529 42.8127 60.5933 43.0941 60.9471L41.5458 62.6556C40.6234 62.6329 38.1882 61.2878 37.6528 60.1327ZM43.8327 60.1327C43.8098 59.8651 45.5115 58.3411 46.4934 58.0634C47.6114 59.2175 48.22 59.7497 49.0921 60.1327C48.22 60.5152 47.6114 61.0479 46.4934 62.202C45.5115 61.9248 43.8093 60.4003 43.8327 60.1327ZM52.4813 60.6775C52.402 60.6669 52.3213 60.6584 52.24 60.6518C50.2813 60.7148 48.8981 61.2319 47.9386 62.3134C47.1263 63.2301 46.5772 65.0006 46.5894 66.3184C46.594 66.8113 46.5863 67.0613 46.6981 67.1898C46.8276 67.3007 47.0796 67.2931 47.5764 67.2976C48.9047 67.3102 50.6892 66.7655 51.6132 65.9591C52.7037 65.0076 53.2244 63.6353 53.2879 61.6915C53.2813 61.6109 53.2727 61.5312 53.262 61.4521L48.8625 65.0877L49.0672 64.8388L48.8163 65.0419L52.4813 60.6775ZM53.8121 76.1655C52.6479 75.6343 51.2921 73.2183 51.2698 72.3025L52.9918 70.7665C53.3483 71.0457 53.5906 71.211 53.8121 71.2614C54.0341 71.211 54.2764 71.0462 54.6325 70.7665L56.354 72.3025C56.3321 73.2183 54.9764 75.6338 53.8121 76.1655ZM53.8121 70.0342C53.5424 70.0569 52.0063 68.3686 51.7264 67.3944C52.8896 66.2852 53.4261 65.6809 53.8121 64.8161C54.1977 65.6814 54.7346 66.2852 55.8973 67.3944C55.6184 68.3686 54.0818 70.0569 53.8121 70.0342Z" fill="#FE7514"/>
<path fill-rule="evenodd" clip-rule="evenodd" d="M-11.4671 -5.3756C-11.4224 -5.21937 -11.3731 -5.10346 -11.3157 -5.01728L-11.3142 -5.01525C-11.2954 -4.98501 -11.272 -4.9563 -11.2446 -4.92909C-11.2172 -4.90137 -11.1882 -4.87868 -11.1572 -4.86003L-11.1552 -4.85853C-11.0684 -4.80158 -10.9515 -4.75217 -10.7941 -4.70833C-10.7306 -4.7053 -10.6671 -4.70229 -10.6041 -4.69977C-10.6005 -4.55362 -10.6208 -4.1978 -10.5604 -3.91306C-10.3059 -2.72067 -9.64859 -1.25917 -8.83585 -0.203859C-8.39494 0.368649 -8.17095 0.560163 -7.50298 0.394357C-7.27084 0.336401 -6.99856 0.178129 -6.77861 0.0712872C-5.8846 1.95815 -5.25879 3.08757 -4.04578 4.10055C-3.69376 4.39436 -3.45451 4.56519 -3.20561 4.58283C-2.9562 4.56519 -2.71697 4.39436 -2.36495 4.10055C-1.15194 3.08757 -0.525616 1.95815 0.36789 0.0712872C0.587837 0.177625 0.860118 0.336401 1.09226 0.394357C1.75972 0.560667 1.98422 0.369153 2.42513 -0.203859C3.23736 -1.25917 3.89518 -2.72118 4.14967 -3.91306C4.21012 -4.1978 4.18981 -4.55362 4.19286 -4.69977C4.25585 -4.70229 4.31932 -4.7048 4.38282 -4.70833C4.54029 -4.75217 4.65713 -4.80208 4.74348 -4.85853L4.74553 -4.86003C4.77601 -4.87868 4.80494 -4.90187 4.83237 -4.92909C4.86031 -4.9563 4.88317 -4.98501 4.90247 -5.01525L4.90399 -5.01728C4.96139 -5.10346 5.01117 -5.21937 5.05587 -5.3756C5.05892 -5.43859 5.06198 -5.50157 5.06452 -5.56406C5.21133 -5.56759 5.57045 -5.54693 5.85694 -5.6074C7.05878 -5.85939 8.53185 -6.51204 9.59603 -7.31839C10.1731 -7.75583 10.3661 -7.97809 10.199 -8.64081C10.1406 -8.87113 9.98108 -9.14124 9.87339 -9.35946C11.7752 -10.2464 12.9135 -10.8678 13.9345 -12.0708C14.2307 -12.4201 14.4029 -12.6574 14.4207 -12.9044C14.4029 -13.1518 14.2307 -13.3887 13.9345 -13.7385C12.9135 -14.9419 11.7752 -15.5633 9.87339 -16.4498C9.98057 -16.668 10.1406 -16.9381 10.199 -17.1684C10.3661 -17.8312 10.1736 -18.0534 9.59603 -18.4909C8.53236 -19.2967 7.05878 -19.9494 5.85694 -20.2019C5.56995 -20.2618 5.21133 -20.2417 5.06452 -20.2452C5.06198 -20.3077 5.05892 -20.3707 5.05587 -20.4337C5.01117 -20.5899 4.96139 -20.7058 4.90399 -20.7915L4.90247 -20.7935C4.88367 -20.8242 4.86031 -20.8525 4.83237 -20.8797C4.80494 -20.9074 4.77601 -20.9301 4.74553 -20.9492L4.74348 -20.9508C4.65713 -21.0077 4.54029 -21.0571 4.38282 -21.1009C4.31932 -21.104 4.25585 -21.107 4.19286 -21.1095C4.18981 -21.2551 4.21012 -21.6114 4.14967 -21.8962C3.89518 -23.0881 3.23736 -24.5501 2.42513 -25.6054C1.98422 -26.1779 1.75972 -26.3694 1.09226 -26.2036C0.860118 -26.1457 0.587837 -25.9874 0.36789 -25.8806C-0.525616 -27.7674 -1.15244 -28.8968 -2.36495 -29.9098C-2.71697 -30.2036 -2.9562 -30.3745 -3.20561 -30.3921C-3.45502 -30.3745 -3.69376 -30.2036 -4.04578 -29.9098C-5.25879 -28.8968 -5.88511 -27.7674 -6.77861 -25.8806C-6.99856 -25.9869 -7.27084 -26.1457 -7.50298 -26.2036C-8.17044 -26.3694 -8.39494 -26.1784 -8.83585 -25.6054C-9.64809 -24.5501 -10.3059 -23.0881 -10.5604 -21.8962C-10.6214 -21.6114 -10.6005 -21.2557 -10.6041 -21.1095C-10.6671 -21.107 -10.7306 -21.1045 -10.7941 -21.1009C-10.9515 -21.0566 -11.0684 -21.0077 -11.1552 -20.9508L-11.1572 -20.9492C-11.1882 -20.9301 -11.2167 -20.9074 -11.2446 -20.8797C-11.2726 -20.8525 -11.2954 -20.8237 -11.3142 -20.7935L-11.3157 -20.7915C-11.3731 -20.7053 -11.4229 -20.5894 -11.4671 -20.4337C-11.4707 -20.3707 -11.4732 -20.3077 -11.4757 -20.2452C-11.6231 -20.2417 -11.9817 -20.2623 -12.2687 -20.2019C-13.47 -19.9494 -14.9436 -19.2967 -16.0073 -18.4909C-16.5843 -18.0534 -16.7774 -17.8307 -16.6102 -17.1684C-16.5518 -16.9381 -16.3923 -16.668 -16.2851 -16.4498C-18.1869 -15.5633 -19.3253 -14.9419 -20.3463 -13.7385C-20.6424 -13.3892 -20.8146 -13.1523 -20.8324 -12.9044C-20.8146 -12.6569 -20.6424 -12.4201 -20.3463 -12.0708C-19.3253 -10.8673 -18.1869 -10.2459 -16.2851 -9.35946C-16.3923 -9.14124 -16.5523 -8.87113 -16.6102 -8.64081C-16.7779 -7.9786 -16.5848 -7.75583 -16.0073 -7.31839C-14.9436 -6.51254 -13.47 -5.85989 -12.2687 -5.6074C-11.9817 -5.54743 -11.6231 -5.56759 -11.4757 -5.56406C-11.4732 -5.50157 -11.4707 -5.4391 -11.4671 -5.3756ZM2.95647 -21.105C2.47035 -21.0813 2.00708 -21.0304 1.5677 -20.9502C1.01656 -20.8958 0.524342 -20.8031 -0.133469 -20.5778C-0.36002 -21.1029 -1.52174 -22.7494 -1.63196 -22.8411C-1.23321 -23.4081 0.365863 -24.6988 1.26191 -24.9921C2.13865 -24.1706 3.11597 -22.0177 2.95647 -21.105ZM-7.97994 -20.9508C-8.41933 -21.0304 -8.88208 -21.0818 -9.36871 -21.1055C-9.52821 -22.0181 -8.55141 -24.1711 -7.67366 -24.9931C-6.77761 -24.6998 -5.17853 -23.4091 -4.77978 -22.8421C-4.89052 -22.7499 -6.05222 -21.1035 -6.27877 -20.5788C-6.93659 -20.8036 -7.42931 -20.8963 -7.97994 -20.9508ZM5.05944 -19.0185C5.03557 -18.5362 4.98425 -18.0771 4.90399 -17.6407C4.84913 -17.0944 4.75569 -16.6055 4.52863 -15.9529C5.05792 -15.7286 6.71744 -14.5755 6.8104 -14.4662C7.38185 -14.8618 8.68272 -16.4483 8.97835 -17.3373C8.14936 -18.2071 5.97936 -19.1768 5.05944 -19.0185ZM-11.3162 -17.6407C-11.3965 -18.0766 -11.4483 -18.5362 -11.4722 -19.0185C-12.3921 -19.1768 -14.5616 -18.2076 -15.3906 -17.3373C-15.095 -16.4483 -13.7941 -14.8618 -13.2226 -14.4662C-13.1297 -14.5755 -11.4707 -15.7286 -10.9414 -15.9529C-11.1679 -16.6055 -11.2614 -17.0939 -11.3162 -17.6407ZM-3.20614 -28.9366C-4.37039 -28.4054 -5.7256 -25.9894 -5.74846 -25.0742L-4.02699 -23.5376C-3.6704 -23.8173 -3.42812 -23.9821 -3.20614 -24.0325C-2.98416 -23.9816 -2.74183 -23.8168 -2.38575 -23.5376L-0.663784 -25.0742C-0.686643 -25.9894 -2.0424 -28.4054 -3.20614 -28.9366ZM-3.20614 -22.8054C-3.47587 -22.8285 -5.01193 -21.1397 -5.29131 -20.1656C-4.12859 -19.0563 -3.59168 -18.4526 -3.20614 -17.5873C-2.82059 -18.4526 -2.28367 -19.0563 -1.12044 -20.1656C-1.40032 -21.1397 -2.93641 -22.8285 -3.20614 -22.8054ZM-2.657 -14.2243C-2.66767 -14.3029 -2.67632 -14.383 -2.68292 -14.4636C-2.61943 -16.4069 -2.09877 -17.7793 -1.00817 -18.7313C-0.0841886 -19.5371 1.70029 -20.0819 3.02861 -20.0693C3.5254 -20.0648 3.77684 -20.0723 3.90688 -19.9615C4.01863 -19.833 4.01101 -19.583 4.01558 -19.0901C4.02828 -17.7722 3.47917 -16.0018 2.66643 -15.0851C1.7074 -14.003 0.3237 -13.4865 -1.635 -13.4235C-1.71628 -13.43 -1.79703 -13.4386 -1.87627 -13.4492L1.78816 -17.814L1.53722 -17.611L1.74194 -17.8599L-2.657 -14.2243ZM-3.75524 -14.2243C-3.74457 -14.3029 -3.73593 -14.383 -3.72932 -14.4636C-3.79282 -16.4069 -4.31398 -17.7793 -5.40407 -18.7313C-6.32805 -19.5371 -8.11254 -20.0819 -9.44086 -20.0693C-9.93764 -20.0648 -10.1896 -20.0723 -10.3191 -19.9615C-10.4309 -19.833 -10.4233 -19.583 -10.4278 -19.0901C-10.4405 -17.7722 -9.89141 -16.0018 -9.07867 -15.0851C-8.11964 -14.003 -6.73594 -13.4865 -4.77724 -13.4235C-4.69597 -13.43 -4.61572 -13.4386 -4.53597 -13.4492L-8.20041 -17.814L-7.94946 -17.611L-8.15418 -17.8599L-3.75524 -14.2243ZM5.05944 -6.79024C5.03557 -7.27254 4.98425 -7.73216 4.90399 -8.1681C4.84913 -8.7149 4.75569 -9.20325 4.52863 -9.85589C5.05792 -10.0807 6.71744 -11.2332 6.8104 -11.3431C7.38185 -10.9475 8.68272 -9.36097 8.97835 -8.47197C8.14936 -7.60112 5.97936 -6.632 5.05944 -6.79024ZM2.95647 -4.70331C2.47035 -4.727 2.00708 -4.77787 1.5677 -4.858C1.01656 -4.91243 0.524342 -5.00517 -0.133469 -5.23044C-0.36002 -4.70531 -1.52174 -3.05886 -1.63196 -2.96714C-1.23321 -2.40017 0.365863 -1.1095 1.26191 -0.816195C2.13865 -1.63817 3.11597 -3.79062 2.95647 -4.70331ZM12.9532 -12.9044C12.4178 -14.0595 9.9826 -15.4046 9.06014 -15.4267L7.51188 -13.7183C7.79329 -13.3645 7.9599 -13.1241 8.0107 -12.9039C7.95939 -12.6836 7.79329 -12.4433 7.51188 -12.09L9.06014 -10.382C9.9826 -10.4047 12.4178 -11.7493 12.9532 -12.9044ZM6.77381 -12.9044C6.79667 -13.172 5.09501 -14.6965 4.11312 -14.9737C2.99509 -13.8196 2.38654 -13.2874 1.51437 -12.9044C2.38654 -12.5219 2.99509 -11.9892 4.11312 -10.8356C5.0945 -11.1128 6.79667 -12.6368 6.77381 -12.9044ZM-1.87525 -12.3596C-1.79601 -12.3702 -1.71525 -12.3787 -1.63398 -12.3853C0.324724 -12.3223 1.70791 -11.8052 2.66745 -10.7237C3.48019 -9.807 4.0288 -8.03654 4.0166 -6.71866C4.01203 -6.22578 4.01963 -5.97581 3.90787 -5.8473C3.77834 -5.73643 3.52639 -5.74399 3.02961 -5.73946C1.70129 -5.72686 -0.0831655 -6.27165 -1.00715 -7.078C-2.09774 -8.02949 -2.6184 -9.40181 -2.6819 -11.3456C-2.67529 -11.4263 -2.66668 -11.5064 -2.65601 -11.585L1.74346 -7.94936L1.53874 -8.19833L1.78968 -7.99523L-1.87525 -12.3596ZM-11.3162 -8.16757C-11.3965 -7.73164 -11.4483 -7.27252 -11.4722 -6.78972C-12.3921 -6.63147 -14.5616 -7.60113 -15.3906 -8.47148C-15.095 -9.36048 -13.7941 -10.947 -13.2226 -11.3426C-13.1297 -11.2327 -11.4707 -10.0801 -10.9414 -9.85536C-11.1679 -9.20273 -11.2614 -8.71438 -11.3162 -8.16757ZM-9.36871 -4.70331C-8.88259 -4.727 -8.41933 -4.77787 -7.97994 -4.858C-7.42931 -4.91243 -6.93659 -5.00517 -6.27877 -5.23044C-6.05222 -4.70531 -4.89052 -3.05886 -4.77978 -2.96714C-5.17853 -2.40017 -6.77761 -1.1095 -7.67366 -0.816195C-8.55141 -1.63817 -9.52821 -3.79062 -9.36871 -4.70331ZM-19.3654 -12.9044C-18.83 -14.0595 -16.3948 -15.4046 -15.4724 -15.4267L-13.9241 -13.7183C-14.2055 -13.3645 -14.3716 -13.1241 -14.4229 -12.9039C-14.3721 -12.6836 -14.206 -12.4433 -13.9241 -12.09L-15.4724 -10.382C-16.3948 -10.4047 -18.83 -11.7493 -19.3654 -12.9044ZM-13.1856 -12.9044C-13.2089 -13.172 -11.5067 -14.6965 -10.5248 -14.9737C-9.40681 -13.8196 -8.79776 -13.2874 -7.92559 -12.9044C-8.79776 -12.5219 -9.40681 -11.9892 -10.5248 -10.8356C-11.5072 -11.1128 -13.2089 -12.6368 -13.1856 -12.9044ZM-4.537 -12.3596C-4.61624 -12.3702 -4.69699 -12.3787 -4.77826 -12.3853C-6.73697 -12.3223 -8.12066 -11.8052 -9.0797 -10.7237C-9.89193 -9.807 -10.441 -8.03654 -10.4288 -6.71866C-10.4238 -6.22578 -10.4319 -5.97581 -10.3201 -5.8473C-10.1906 -5.73643 -9.93867 -5.74399 -9.44188 -5.73946C-8.11356 -5.72686 -6.32908 -6.27165 -5.40509 -7.078C-4.3145 -8.02949 -3.79384 -9.40181 -3.73035 -11.3456C-3.73695 -11.4263 -3.74557 -11.5064 -3.75623 -11.585L-8.1557 -7.94936L-7.95098 -8.19833L-8.20192 -7.99523L-4.537 -12.3596ZM-3.20614 3.12786C-4.37039 2.59668 -5.7256 0.180649 -5.74846 -0.734558L-4.02699 -2.27064C-3.6704 -1.99144 -3.42812 -1.82614 -3.20614 -1.77575C-2.98416 -1.82614 -2.74183 -1.99094 -2.38575 -2.27064L-0.663784 -0.734558C-0.686643 0.180649 -2.0424 2.59668 -3.20614 3.12786ZM-3.20614 -3.00291C-3.47587 -2.98023 -5.01193 -4.66851 -5.29131 -5.64269C-4.12859 -6.75192 -3.59168 -7.35618 -3.20614 -8.2215C-2.82059 -7.35618 -2.28367 -6.75242 -1.12044 -5.64269C-1.40032 -4.66851 -2.93641 -2.98023 -3.20614 -3.00291Z" fill="#FE7514"/>
<path fill-rule="evenodd" clip-rule="evenodd" d="M45.5511 -5.3756C45.5958 -5.21937 45.6451 -5.10346 45.7025 -5.01728L45.704 -5.01525C45.7228 -4.98501 45.7462 -4.9563 45.7741 -4.92909C45.8016 -4.90137 45.8305 -4.87868 45.861 -4.86003L45.863 -4.85853C45.9499 -4.80158 46.0667 -4.75217 46.2242 -4.70833C46.2882 -4.7053 46.3512 -4.70229 46.4142 -4.69977C46.4177 -4.55362 46.3969 -4.1978 46.4579 -3.91306C46.7118 -2.72067 47.3701 -1.25917 48.1824 -0.203859C48.6233 0.368649 48.8478 0.560163 49.5153 0.394357C49.7474 0.336401 50.0197 0.178129 50.2396 0.0712872C51.1331 1.95815 51.7599 3.08757 52.9724 4.10055C53.3245 4.39436 53.5637 4.56519 53.8131 4.58283C54.0625 4.56519 54.3013 4.39436 54.6533 4.10055C55.8663 3.08757 56.4926 1.95815 57.3861 0.0712872C57.6061 0.177625 57.8783 0.336401 58.1105 0.394357C58.7784 0.560667 59.0025 0.369153 59.4434 -0.203859C60.2556 -1.25917 60.9134 -2.72118 61.1679 -3.91306C61.2284 -4.1978 61.208 -4.55362 61.2116 -4.69977C61.2746 -4.70229 61.3381 -4.7048 61.4016 -4.70833C61.559 -4.75217 61.6759 -4.80208 61.7627 -4.85853L61.7648 -4.86003C61.7958 -4.87868 61.8242 -4.90187 61.8521 -4.92909C61.8801 -4.9563 61.9029 -4.98501 61.9217 -5.01525L61.9233 -5.01728C61.9807 -5.10346 62.0304 -5.21937 62.0746 -5.3756C62.0782 -5.43859 62.0807 -5.50157 62.0833 -5.56406C62.2306 -5.56759 62.5892 -5.54693 62.8762 -5.6074C64.0775 -5.85939 65.5511 -6.51204 66.6148 -7.31839C67.1918 -7.75583 67.3849 -7.97809 67.2177 -8.64081C67.1593 -8.87113 66.9998 -9.14124 66.8926 -9.35946C68.7944 -10.2464 69.9323 -10.8678 70.9538 -12.0708C71.25 -12.4201 71.4221 -12.6574 71.4399 -12.9044C71.4221 -13.1518 71.25 -13.3887 70.9538 -13.7385C69.9328 -14.9419 68.7944 -15.5633 66.8926 -16.4498C66.9998 -16.668 67.1598 -16.9381 67.2177 -17.1684C67.3854 -17.8312 67.1923 -18.0534 66.6148 -18.4909C65.5511 -19.2967 64.0775 -19.9494 62.8762 -20.2019C62.5892 -20.2618 62.2306 -20.2417 62.0833 -20.2452C62.0807 -20.3077 62.0782 -20.3707 62.0746 -20.4337C62.0299 -20.5899 61.9802 -20.7058 61.9233 -20.7915L61.9217 -20.7935C61.9029 -20.8242 61.8796 -20.8525 61.8521 -20.8797C61.8247 -20.9074 61.7958 -20.9301 61.7648 -20.9492L61.7627 -20.9508C61.6759 -21.0077 61.559 -21.0571 61.4016 -21.1009C61.3381 -21.104 61.2746 -21.107 61.2116 -21.1095C61.208 -21.2551 61.2289 -21.6114 61.1679 -21.8962C60.9139 -23.0881 60.2561 -24.5501 59.4434 -25.6054C59.0025 -26.1779 58.7784 -26.3694 58.1105 -26.2036C57.8783 -26.1457 57.6061 -25.9874 57.3861 -25.8806C56.4926 -27.7674 55.8663 -28.8968 54.6533 -29.9098C54.3013 -30.2036 54.062 -30.3745 53.8131 -30.3921C53.5637 -30.3745 53.325 -30.2036 52.9724 -29.9098C51.7594 -28.8968 51.1331 -27.7674 50.2396 -25.8806C50.0197 -25.9869 49.7474 -26.1457 49.5153 -26.2036C48.8478 -26.3694 48.6233 -26.1784 48.1824 -25.6054C47.3701 -24.5501 46.7123 -23.0881 46.4579 -21.8962C46.3974 -21.6114 46.4177 -21.2557 46.4142 -21.1095C46.3512 -21.107 46.2877 -21.1045 46.2242 -21.1009C46.0667 -21.0566 45.9499 -21.0077 45.863 -20.9508L45.861 -20.9492C45.8305 -20.9301 45.8016 -20.9074 45.7741 -20.8797C45.7462 -20.8525 45.7233 -20.8237 45.704 -20.7935L45.7025 -20.7915C45.6451 -20.7053 45.5953 -20.5894 45.5511 -20.4337C45.5476 -20.3707 45.545 -20.3077 45.5425 -20.2452C45.3957 -20.2417 45.0366 -20.2623 44.7501 -20.2019C43.5482 -19.9494 42.0751 -19.2967 41.0115 -18.4909C40.4344 -18.0534 40.2414 -17.8307 40.4085 -17.1684C40.4669 -16.9381 40.6264 -16.668 40.7341 -16.4498C38.8323 -15.5633 37.694 -14.9419 36.673 -13.7385C36.3768 -13.3892 36.2046 -13.1523 36.1868 -12.9044C36.2046 -12.6569 36.3768 -12.4201 36.673 -12.0708C37.694 -10.8673 38.8323 -10.2459 40.7341 -9.35946C40.627 -9.14124 40.4669 -8.87113 40.4085 -8.64081C40.2409 -7.9786 40.4339 -7.75583 41.0115 -7.31839C42.0751 -6.51254 43.5488 -5.85989 44.7501 -5.6074C45.0371 -5.54743 45.3957 -5.56759 45.5425 -5.56406C45.545 -5.50157 45.5476 -5.4391 45.5511 -5.3756ZM59.9747 -21.105C59.4886 -21.0813 59.0253 -21.0304 58.5859 -20.9502C58.0353 -20.8958 57.5426 -20.8031 56.8848 -20.5778C56.6582 -21.1029 55.4965 -22.7494 55.3863 -22.8411C55.785 -23.4081 57.3841 -24.6988 58.2802 -24.9921C59.1574 -24.1706 60.1342 -22.0177 59.9747 -21.105ZM49.0383 -20.9508C48.5989 -21.0304 48.1356 -21.0818 47.6495 -21.1055C47.49 -22.0181 48.4673 -24.1711 49.3446 -24.9931C50.2406 -24.6998 51.8397 -23.4091 52.2384 -22.8421C52.1282 -22.7499 50.966 -21.1035 50.74 -20.5788C50.0817 -20.8036 49.5889 -20.8963 49.0383 -20.9508ZM62.0782 -19.0185C62.0543 -18.5362 62.003 -18.0771 61.9222 -17.6407C61.8674 -17.0944 61.7739 -16.6055 61.5468 -15.9529C62.0761 -15.7286 63.7357 -14.5755 63.8281 -14.4662C64.3996 -14.8618 65.7005 -16.4483 65.9961 -17.3373C65.1676 -18.2071 62.9976 -19.1768 62.0782 -19.0185ZM45.702 -17.6407C45.6217 -18.0766 45.5699 -18.5362 45.546 -19.0185C44.6261 -19.1768 42.4561 -18.2076 41.6276 -17.3373C41.9233 -16.4483 43.2242 -14.8618 43.7956 -14.4662C43.8886 -14.5755 45.5481 -15.7286 46.0769 -15.9529C45.8503 -16.6055 45.7574 -17.0939 45.702 -17.6407ZM53.8121 -28.9366C52.6479 -28.4054 51.2921 -25.9894 51.2698 -25.0742L52.9918 -23.5376C53.3483 -23.8173 53.5906 -23.9821 53.8121 -24.0325C54.0341 -23.9816 54.2764 -23.8168 54.6325 -23.5376L56.354 -25.0742C56.3321 -25.9894 54.9764 -28.4054 53.8121 -28.9366ZM53.8121 -22.8054C53.5424 -22.8285 52.0063 -21.1397 51.7264 -20.1656C52.8896 -19.0563 53.4261 -18.4526 53.8121 -17.5873C54.1977 -18.4526 54.7346 -19.0563 55.8973 -20.1656C55.6184 -21.1397 54.0818 -22.8285 53.8121 -22.8054ZM54.3612 -14.2243C54.3505 -14.3029 54.3419 -14.383 54.3353 -14.4636C54.3988 -16.4069 54.92 -17.7793 56.0101 -18.7313C56.9341 -19.5371 58.7185 -20.0819 60.0468 -20.0693C60.5436 -20.0648 60.7956 -20.0723 60.9251 -19.9615C61.0369 -19.833 61.0292 -19.583 61.0338 -19.0901C61.0465 -17.7722 60.4974 -16.0018 59.6847 -15.0851C58.7256 -14.003 57.3425 -13.4865 55.3832 -13.4235C55.302 -13.43 55.2217 -13.4386 55.1419 -13.4492L58.8064 -17.814L58.5555 -17.611L58.7602 -17.8599L54.3612 -14.2243ZM53.263 -14.2243C53.2737 -14.3029 53.2823 -14.383 53.2889 -14.4636C53.2254 -16.4069 52.7048 -17.7793 51.6142 -18.7313C50.6902 -19.5371 48.9057 -20.0819 47.5774 -20.0693C47.0806 -20.0648 46.8287 -20.0723 46.6991 -19.9615C46.5874 -19.833 46.595 -19.583 46.5904 -19.0901C46.5777 -17.7722 47.1268 -16.0018 47.9396 -15.0851C48.8986 -14.003 50.2818 -13.4865 52.241 -13.4235C52.3223 -13.43 52.403 -13.4386 52.4823 -13.4492L48.8178 -17.814L49.0688 -17.611L48.8641 -17.8599L53.263 -14.2243ZM62.0782 -6.79024C62.0543 -7.27254 62.003 -7.73216 61.9222 -8.1681C61.8674 -8.7149 61.7739 -9.20325 61.5468 -9.85589C62.0761 -10.0807 63.7357 -11.2332 63.8281 -11.3431C64.3996 -10.9475 65.7005 -9.36097 65.9961 -8.47197C65.1676 -7.60112 62.9976 -6.632 62.0782 -6.79024ZM59.9747 -4.70331C59.4886 -4.727 59.0253 -4.77787 58.5859 -4.858C58.0353 -4.91243 57.5426 -5.00517 56.8848 -5.23044C56.6582 -4.70531 55.4965 -3.05886 55.3863 -2.96714C55.785 -2.40017 57.3841 -1.1095 58.2802 -0.816195C59.1574 -1.63817 60.1342 -3.79062 59.9747 -4.70331ZM69.9714 -12.9044C69.436 -14.0595 67.0008 -15.4046 66.0784 -15.4267L64.5301 -13.7183C64.812 -13.3645 64.9782 -13.1241 65.0289 -12.9039C64.9776 -12.6836 64.812 -12.4433 64.5301 -12.09L66.0784 -10.382C67.0014 -10.4047 69.436 -11.7493 69.9714 -12.9044ZM63.7921 -12.9044C63.8154 -13.172 62.1132 -14.6965 61.1313 -14.9737C60.0133 -13.8196 59.4043 -13.2874 58.5321 -12.9044C59.4043 -12.5219 60.0128 -11.9892 61.1313 -10.8356C62.1132 -11.1128 63.8149 -12.6368 63.7921 -12.9044ZM55.143 -12.3596C55.2222 -12.3702 55.303 -12.3787 55.3843 -12.3853C57.343 -12.3223 58.7266 -11.8052 59.6857 -10.7237C60.4984 -9.807 61.047 -8.03654 61.0348 -6.71866C61.0297 -6.22578 61.0379 -5.97581 60.9261 -5.8473C60.7966 -5.73643 60.5446 -5.74399 60.0479 -5.73946C58.7195 -5.72686 56.9351 -6.27165 56.0111 -7.078C54.921 -8.02949 54.3998 -9.40181 54.3363 -11.3456C54.3429 -11.4263 54.3516 -11.5064 54.3622 -11.585L58.7617 -7.94936L58.557 -8.19833L58.8079 -7.99523L55.143 -12.3596ZM45.702 -8.16757C45.6217 -7.73164 45.5699 -7.27252 45.546 -6.78972C44.6261 -6.63147 42.4561 -7.60113 41.6276 -8.47148C41.9233 -9.36048 43.2242 -10.947 43.7956 -11.3426C43.8886 -11.2327 45.5481 -10.0801 46.0769 -9.85536C45.8503 -9.20273 45.7574 -8.71438 45.702 -8.16757ZM47.6495 -4.70331C48.1356 -4.727 48.5989 -4.77787 49.0383 -4.858C49.5889 -4.91243 50.0816 -5.00517 50.7394 -5.23044C50.966 -4.70531 52.1277 -3.05886 52.2379 -2.96714C51.8392 -2.40017 50.2401 -1.1095 49.3441 -0.816195C48.4673 -1.63817 47.49 -3.79062 47.6495 -4.70331ZM37.6528 -12.9044C38.1882 -14.0595 40.6234 -15.4046 41.5458 -15.4267L43.0941 -13.7183C42.8122 -13.3645 42.6461 -13.1241 42.5953 -12.9039C42.6466 -12.6836 42.8127 -12.4433 43.0941 -12.09L41.5458 -10.382C40.6234 -10.4047 38.1882 -11.7493 37.6528 -12.9044ZM43.8327 -12.9044C43.8098 -13.172 45.5115 -14.6965 46.4934 -14.9737C47.6114 -13.8196 48.22 -13.2874 49.0921 -12.9044C48.22 -12.5219 47.6114 -11.9892 46.4934 -10.8356C45.5115 -11.1128 43.8093 -12.6368 43.8327 -12.9044ZM52.4813 -12.3596C52.402 -12.3702 52.3213 -12.3787 52.24 -12.3853C50.2813 -12.3223 48.8981 -11.8052 47.9386 -10.7237C47.1263 -9.807 46.5772 -8.03654 46.5894 -6.71866C46.594 -6.22578 46.5863 -5.97581 46.6981 -5.8473C46.8276 -5.73643 47.0796 -5.74399 47.5764 -5.73946C48.9047 -5.72686 50.6892 -6.27165 51.6132 -7.078C52.7037 -8.02949 53.2244 -9.40181 53.2879 -11.3456C53.2813 -11.4263 53.2727 -11.5064 53.262 -11.585L48.8625 -7.94936L49.0672 -8.19833L48.8163 -7.99523L52.4813 -12.3596ZM53.8121 3.12786C52.6479 2.59668 51.2921 0.180649 51.2698 -0.734558L52.9918 -2.27064C53.3483 -1.99144 53.5906 -1.82614 53.8121 -1.77575C54.0341 -1.82614 54.2764 -1.99094 54.6325 -2.27064L56.354 -0.734558C56.3321 0.180649 54.9764 2.59668 53.8121 3.12786ZM53.8121 -3.00291C53.5424 -2.98023 52.0063 -4.66851 51.7264 -5.64269C52.8896 -6.75192 53.4261 -7.35618 53.8121 -8.2215C54.1977 -7.35618 54.7346 -6.75242 55.8973 -5.64269C55.6184 -4.66851 54.0818 -2.98023 53.8121 -3.00291Z" fill="#FE7514"/>
</svg>
