<svg width="257" height="384" viewBox="0 0 257 384" fill="none" xmlns="http://www.w3.org/2000/svg">
<mask id="mask0_307_29916" style="mask-type:luminance" maskUnits="userSpaceOnUse" x="0" y="-64" width="277" height="448">
<path d="M0 -64H276.95V384H0V-64Z" fill="white"/>
</mask>
<g mask="url(#mask0_307_29916)">
<path fill-rule="evenodd" clip-rule="evenodd" d="M460.35 121.525L486.847 150.988C502.636 150.6 544.302 127.402 553.466 107.485C544.302 87.5677 502.636 64.3668 486.847 63.9788L460.35 93.4415C465.171 99.5416 468.014 103.69 468.887 107.485C468.014 111.28 465.171 115.428 460.35 121.525ZM254.182 116.884L191.478 192.169L268.096 129.657C267.711 165.69 258.859 190.808 239.336 207.982C223.525 221.888 192.987 231.28 170.259 231.066C153.223 230.901 153.023 231.598 152.749 214.967C152.25 184.599 157.838 163.4 174.807 143.468C191.79 123.519 226.894 113.229 254.182 116.884ZM267.552 84.7132L192.269 22.0101L254.781 98.6273C218.745 98.2451 193.627 89.3934 176.453 69.8672C162.548 54.0598 153.155 23.5182 153.37 0.790558C153.534 -16.2427 152.838 -16.4455 169.468 -16.7189C199.836 -17.2157 221.035 -11.6301 240.967 5.33844C260.917 22.3217 271.209 57.4289 267.552 84.7132ZM286.349 84.7132L361.634 22.0101L299.122 98.6273C335.156 98.2451 360.276 89.3934 377.451 69.8672C391.353 54.0598 400.749 23.5182 400.534 0.790558C400.369 -16.2427 401.066 -16.4455 384.436 -16.7189C354.067 -17.2157 332.865 -11.6301 312.934 5.33844C292.987 22.3217 282.695 57.4289 286.349 84.7132ZM299.722 116.884L362.425 192.169L285.808 129.657C286.19 165.69 295.042 190.808 314.568 207.982C330.378 221.888 360.917 231.28 383.645 231.066C400.678 230.901 400.881 231.598 401.154 214.967C401.651 184.599 396.065 163.4 379.097 143.468C362.114 123.519 327.006 113.229 299.722 116.884ZM224.372 239.841C204.949 246.544 193.957 246.432 171.708 247.899C168.013 262.986 185.152 301.48 200.501 315.982C215.835 310.922 243.195 288.662 250.019 278.882C248.128 277.291 228.247 248.898 224.372 239.841ZM144.594 54.9036C137.895 35.4832 138.003 24.4883 136.539 2.23988C121.449 -1.45251 82.9584 15.6866 68.4563 31.0353C73.5128 46.3664 95.773 73.7272 105.554 80.5504C107.144 78.6631 135.54 58.7782 144.594 54.9036ZM276.95 188.25C283.553 203.176 292.734 213.588 312.637 232.724C307.854 249.525 281.566 278.646 276.95 278.252C272.335 278.646 246.047 249.525 241.264 232.724C261.167 213.588 270.35 203.176 276.95 188.25ZM196.185 107.485C181.26 114.085 170.847 123.269 151.712 143.171C134.911 138.388 105.789 112.1 106.183 107.485C105.789 102.869 134.911 76.5817 151.712 71.7986C170.847 91.7011 181.26 100.885 196.185 107.485ZM329.532 239.841C348.955 246.544 359.947 246.432 382.195 247.899C385.888 262.986 368.749 301.48 353.403 315.982C338.069 310.922 310.708 288.662 303.885 278.882C305.775 277.291 325.657 248.898 329.532 239.841ZM144.594 160.063C137.895 179.487 138.003 190.479 136.539 212.727C121.449 216.422 82.9584 199.283 68.4563 183.935C73.5128 168.604 95.773 141.243 105.554 134.417C107.144 136.307 135.54 156.189 144.594 160.063ZM290.994 290.885L320.457 317.378C320.068 333.168 296.87 374.834 276.95 384C257.033 374.834 233.835 333.168 233.447 317.378L262.91 290.885C269.007 295.703 273.155 298.546 276.95 299.419C280.746 298.546 284.894 295.703 290.994 290.885ZM93.5535 121.525L67.057 150.988C51.2673 150.6 9.60141 127.402 0.438034 107.485C9.60141 87.5677 51.2673 64.3668 67.057 63.9788L93.5535 93.4415C88.7322 99.5416 85.8894 103.69 85.0163 107.485C85.8894 111.28 88.7322 115.428 93.5535 121.525ZM224.372 -24.871C204.949 -31.5738 193.957 -31.465 171.708 -32.929C168.013 -48.0161 185.152 -86.5099 200.501 -101.012C215.835 -95.9526 243.195 -73.6953 250.019 -63.9116C248.128 -62.3241 228.247 -33.9285 224.372 -24.871ZM409.309 54.9036C416.009 35.4832 415.9 24.4883 417.364 2.23988C432.451 -1.45251 470.945 15.6866 485.447 31.0353C480.388 46.3664 458.131 73.7272 448.35 80.5504C446.759 78.6631 418.364 58.7782 409.309 54.9036ZM276.95 26.7197C283.553 11.7943 292.734 1.37852 312.637 -17.7567C307.854 -34.5577 281.566 -63.6794 276.95 -63.2854C272.335 -63.6794 246.047 -34.5577 241.264 -17.7567C261.167 1.37852 270.35 11.7943 276.95 26.7197ZM357.719 107.485C372.644 114.085 383.057 123.269 402.192 143.171C418.993 138.388 448.115 112.1 447.721 107.485C448.115 102.869 418.993 76.5817 402.192 71.7986C383.057 91.7011 372.644 100.885 357.719 107.485ZM329.532 -24.871C348.955 -31.5738 359.947 -31.465 382.195 -32.929C385.888 -48.0161 368.749 -86.5099 353.403 -101.012C338.069 -95.9526 310.708 -73.6953 303.885 -63.9116C305.775 -62.3241 325.657 -33.9285 329.532 -24.871ZM409.309 160.063C416.009 179.487 415.9 190.479 417.364 212.727C432.451 216.422 470.945 199.283 485.447 183.935C480.388 168.604 458.131 141.243 448.35 134.417C446.759 136.307 418.364 156.189 409.309 160.063ZM290.994 -75.9149L320.457 -102.411C320.068 -118.201 296.87 -159.867 276.95 -169.03C257.033 -159.867 233.835 -118.201 233.447 -102.411L262.91 -75.9149C269.007 -80.7332 273.155 -83.5789 276.95 -84.452C280.746 -83.5789 284.894 -80.7332 290.994 -75.9149Z" fill="#E0BF77" fill-opacity="0.4"/>
</g>
</svg>
