<svg width="48" height="48" viewBox="0 0 48 48" fill="none" xmlns="http://www.w3.org/2000/svg">
<path fill-rule="evenodd" clip-rule="evenodd" d="M-166.143 -102H258.143V198H-166.143V-102Z" fill="#945A2B"/>
<path fill-rule="evenodd" clip-rule="evenodd" d="M35.0125 -0.83803L36.6499 0.982798C37.6256 0.95911 40.2009 -0.474676 40.7668 -1.70587C40.2004 -2.93656 37.6256 -4.37035 36.6499 -4.39403L35.0125 -2.57321C35.3103 -2.19624 35.4862 -1.93971 35.5402 -1.70536C35.4862 -1.47102 35.3103 -1.21449 35.0125 -0.83803ZM22.2717 -1.12479L18.3967 3.52785L23.1314 -0.335075C23.1078 1.89146 22.5609 3.44419 21.3539 4.50504C20.3773 5.36431 18.4899 5.94488 17.0853 5.93177C16.0325 5.92169 16.0199 5.96453 16.0033 4.93694C15.9726 3.06016 16.3178 1.75034 17.3665 0.518139C18.4158 -0.714567 20.5854 -1.35057 22.2717 -1.12479ZM23.0982 -3.11295L18.4455 -6.98796L22.3085 -2.25267C20.0814 -2.27636 18.5292 -2.82367 17.4678 -4.03018C16.6086 -5.00687 16.028 -6.89423 16.0416 -8.29879C16.0517 -9.35158 16.0088 -9.36418 17.0364 -9.38081C18.9132 -9.41156 20.2235 -9.06633 21.4552 -8.01757C22.6874 -6.96881 23.3235 -4.79923 23.0982 -3.11295ZM24.2598 -3.11295L28.9125 -6.98796L25.049 -2.25267C27.2761 -2.27636 28.8283 -2.82367 29.8897 -4.03018C30.7489 -5.00687 31.3295 -6.89423 31.3159 -8.29879C31.3058 -9.35158 31.3492 -9.36418 30.3211 -9.38081C28.4443 -9.41156 27.1345 -9.06633 25.9023 -8.01757C24.6696 -6.96881 24.0335 -4.79923 24.2598 -3.11295ZM25.0858 -1.12479L28.9608 3.52785L24.2261 -0.335075C24.2497 1.89146 24.7971 3.44419 26.0036 4.50504C26.9808 5.36431 28.8676 5.94488 30.2722 5.93177C31.325 5.92169 31.3376 5.96453 31.3542 4.93694C31.3849 3.06016 31.0397 1.75034 29.991 0.518139C28.9417 -0.714567 26.7721 -1.35057 25.0858 -1.12479ZM20.4292 6.47404C19.2287 6.8883 18.5494 6.88125 17.1745 6.97196C16.9462 7.9043 18.0056 10.283 18.954 11.1796C19.9015 10.8671 21.5923 9.49131 22.0141 8.88705C21.8977 8.78827 20.6685 7.03344 20.4292 6.47404ZM15.4993 -4.95495C15.0851 -6.15541 15.0921 -6.83476 15.0014 -8.20959C14.0691 -8.43789 11.6903 -7.37854 10.7938 -6.43007C11.1067 -5.48261 12.4821 -3.7918 13.0863 -3.36998C13.1846 -3.4869 14.9394 -4.71557 15.4993 -4.95495ZM23.6787 3.28543C24.0865 4.20769 24.6539 4.85126 25.8841 6.03357C25.5888 7.07175 23.964 8.87143 23.6787 8.84723C23.3935 8.87143 21.7692 7.07175 21.4734 6.03357C22.7031 4.85177 23.271 4.2082 23.6787 3.28543ZM18.6874 -1.70587C17.7652 -1.29766 17.1216 -0.730185 15.9388 0.499498C14.9006 0.203669 13.101 -1.42063 13.1251 -1.70587C13.101 -1.99112 14.9006 -3.61541 15.9388 -3.91124C17.1216 -2.68106 17.7652 -2.11358 18.6874 -1.70587ZM26.9283 6.47404C28.1288 6.8883 28.8081 6.88125 30.183 6.97196C30.4113 7.9043 29.3519 10.283 28.4035 11.1796C27.456 10.8671 25.7652 9.49131 25.3434 8.88705C25.4598 8.78827 26.6885 7.03344 26.9283 6.47404ZM15.4993 1.54372C15.0851 2.74417 15.0921 3.42302 15.0014 4.79835C14.0691 5.02665 11.6903 3.9673 10.7938 3.01884C11.1067 2.07137 12.4821 0.380564 13.0863 -0.0412579C13.1846 0.0756626 14.9394 1.30433 15.4993 1.54372ZM24.5466 9.62838L26.3674 11.2658C26.3432 12.242 24.9099 14.8162 23.6787 15.3827C22.4481 14.8162 21.0143 12.2415 20.9901 11.2658L22.8109 9.62838C23.1879 9.92623 23.4439 10.1016 23.6787 10.156C23.9131 10.1016 24.1696 9.92623 24.5466 9.62838ZM12.345 -0.83803L10.7076 0.982798C9.73192 0.95911 7.15714 -0.474676 6.59068 -1.70587C7.15714 -2.93656 9.73192 -4.37035 10.7076 -4.39403L12.345 -2.57321C12.0472 -2.19624 11.8713 -1.93971 11.8173 -1.70536C11.8713 -1.47102 12.0472 -1.21449 12.345 -0.83803ZM20.4292 -9.88529C19.2287 -10.2996 18.5494 -10.2925 17.1745 -10.3832C16.9462 -11.3155 18.0056 -13.6943 18.954 -14.5903C19.9015 -14.2779 21.5923 -12.902 22.0141 -12.2978C21.8977 -12.1995 20.6685 -10.4447 20.4292 -9.88529ZM31.8582 -4.95495C32.2724 -6.15541 32.2654 -6.83476 32.3561 -8.20959C33.2884 -8.43789 35.6672 -7.37854 36.5637 -6.43007C36.2513 -5.48261 34.8754 -3.7918 34.2712 -3.36998C34.1729 -3.4869 32.4181 -4.71557 31.8582 -4.95495ZM23.6787 -6.69717C24.0865 -7.61944 24.6539 -8.26301 25.8841 -9.44532C25.5888 -10.484 23.964 -12.2832 23.6787 -12.259C23.3935 -12.2832 21.7692 -10.4835 21.4734 -9.44532C22.7031 -8.26301 23.271 -7.61944 23.6787 -6.69717ZM28.6701 -1.70587C29.5923 -1.29766 30.2359 -0.730185 31.4187 0.499498C32.4569 0.203669 34.2565 -1.42063 34.2324 -1.70587C34.2565 -1.99112 32.4569 -3.61541 31.4187 -3.91124C30.2359 -2.68106 29.5923 -2.11358 28.6701 -1.70587ZM26.9283 -9.88529C28.1288 -10.2996 28.8081 -10.2925 30.183 -10.3832C30.4113 -11.3155 29.3519 -13.6943 28.4035 -14.5903C27.456 -14.2779 25.7652 -12.902 25.3434 -12.2978C25.4598 -12.1995 26.6885 -10.4447 26.9283 -9.88529ZM31.8582 1.54372C32.2724 2.74417 32.2654 3.42302 32.3561 4.79835C33.2884 5.02665 35.6672 3.9673 36.5637 3.01884C36.2513 2.07137 34.8754 0.380564 34.2712 -0.0412579C34.1729 0.0756626 32.4181 1.30433 31.8582 1.54372ZM24.5466 -13.0396L26.3674 -14.677C26.3432 -15.6527 24.9099 -18.2275 23.6787 -18.7939C22.4481 -18.2275 21.0143 -15.6527 20.9901 -14.677L22.8109 -13.0396C23.1879 -13.3375 23.4439 -13.5134 23.6787 -13.5673C23.9131 -13.5134 24.1696 -13.3375 24.5466 -13.0396Z" fill="#885022"/>
<path fill-rule="evenodd" clip-rule="evenodd" d="M12.1524 24.0404L13.7898 25.8612C14.7655 25.8375 17.3403 24.4037 17.9068 23.173C17.3403 21.9418 14.7655 20.5086 13.7898 20.4844L12.1524 22.3052C12.4503 22.6822 12.6262 22.9387 12.6801 23.173C12.6262 23.4074 12.4503 23.6634 12.1524 24.0404ZM-0.588393 23.7536L-4.46341 28.4063L0.271378 24.5433C0.247692 26.7699 -0.299619 28.3226 -1.50612 29.384C-2.48331 30.2432 -4.37017 30.8238 -5.77474 30.8102C-6.82753 30.8001 -6.84012 30.8429 -6.85675 29.8153C-6.8875 27.9386 -6.54228 26.6288 -5.49352 25.3971C-4.44426 24.1638 -2.27467 23.5278 -0.588393 23.7536ZM0.237612 21.7655L-4.41503 17.8904L-0.551604 22.6252C-2.77814 22.6015 -4.33086 22.0542 -5.39222 20.8477C-6.25149 19.871 -6.83206 17.9832 -6.81896 16.5786C-6.80888 15.5258 -6.85172 15.5132 -5.82412 15.4966C-3.94734 15.4658 -2.63703 15.8111 -1.40533 16.8598C-0.172115 17.9101 0.46339 20.0792 0.237612 21.7655ZM1.39926 21.7655L6.0519 17.8904L2.18848 22.6252C4.41551 22.6015 5.96774 22.0542 7.02909 20.8477C7.88836 19.871 8.46893 17.9832 8.45533 16.5786C8.44525 15.5258 8.48859 15.5132 7.46049 15.4966C5.58371 15.4658 4.2739 15.8111 3.04169 16.8598C1.80949 17.9101 1.17348 20.0792 1.39926 21.7655ZM2.22577 23.7536L6.10078 28.4063L1.366 24.5433C1.38968 26.7699 1.93649 28.3226 3.1435 29.384C4.12019 30.2432 6.00755 30.8238 7.41211 30.8102C8.4649 30.8001 8.4775 30.8429 8.49413 29.8153C8.52488 27.9386 8.17966 26.6288 7.1309 25.3971C6.08163 24.1638 3.91205 23.5278 2.22577 23.7536ZM-2.4309 31.3519C-3.63136 31.7662 -4.31071 31.7597 -5.68553 31.8499C-5.91383 32.7822 -4.85449 35.1609 -3.90602 36.0575C-2.95856 35.7445 -1.26774 34.3692 -0.845922 33.7649C-0.962843 33.6667 -2.19152 31.9119 -2.4309 31.3519ZM-7.36072 19.9234C-7.77499 18.723 -7.76793 18.0441 -7.85865 16.6688C-8.79099 16.4405 -11.1697 17.4999 -12.0663 18.4483C-11.7538 19.3958 -10.378 21.0866 -9.77373 21.5084C-9.67545 21.3915 -7.92063 20.1628 -7.36072 19.9234ZM0.818687 28.1638C1.2264 29.0861 1.79387 29.7297 3.02405 30.9125C2.72873 31.9507 1.10393 33.7503 0.818687 33.7261C0.533442 33.7503 -1.09135 31.9507 -1.38668 30.9125C-0.156996 29.7297 0.410473 29.0861 0.818687 28.1638ZM-4.17262 23.173C-5.09488 23.5807 -5.73845 24.1482 -6.92076 25.3784C-7.95894 25.0831 -9.75861 23.4583 -9.73442 23.173C-9.75861 22.8878 -7.95894 21.263 -6.92076 20.9677C-5.73845 22.1974 -5.09488 22.7648 -4.17262 23.173ZM4.06777 31.3519C5.26823 31.7662 5.94758 31.7597 7.3224 31.8499C7.5507 32.7822 6.49136 35.1609 5.54289 36.0575C4.59543 35.7445 2.90462 34.3692 2.48279 33.7649C2.59971 33.6667 3.82839 31.9119 4.06777 31.3519ZM-7.36072 26.4221C-7.77499 27.6226 -7.76793 28.3019 -7.85865 29.6768C-8.79099 29.9051 -11.1697 28.8462 -12.0663 27.8972C-11.7538 26.9498 -10.378 25.259 -9.77373 24.8371C-9.67545 24.9541 -7.92063 26.1827 -7.36072 26.4221ZM1.68652 34.5068L3.50736 36.1442C3.48367 37.1199 2.04988 39.6951 0.819191 40.2611C-0.412004 39.6946 -1.84529 37.1199 -1.86948 36.1442L-0.0486431 34.5068C0.328325 34.8046 0.584846 34.98 0.819191 35.0345C1.05303 34.98 1.30955 34.8046 1.68652 34.5068ZM-10.5156 24.0404L-12.153 25.8612C-13.1286 25.8375 -15.7034 24.4037 -16.2699 23.173C-15.7034 21.9418 -13.1286 20.5086 -12.153 20.4844L-10.5156 22.3052C-10.8134 22.6822 -10.9888 22.9387 -11.0432 23.173C-10.9888 23.4074 -10.8129 23.6634 -10.5156 24.0404ZM-2.4309 14.9931C-3.63136 14.5789 -4.31071 14.5859 -5.68553 14.4952C-5.91383 13.5629 -4.85449 11.1841 -3.90602 10.2876C-2.95856 10.6 -1.26774 11.9759 -0.845922 12.5801C-0.962843 12.6789 -2.19152 14.4337 -2.4309 14.9931ZM8.9981 19.9234C9.41236 18.723 9.40531 18.0441 9.49602 16.6688C10.4284 16.4405 12.8071 17.4999 13.7037 18.4483C13.3912 19.3958 12.0154 21.0866 11.4111 21.5084C11.3123 21.3915 9.55801 20.1628 8.9981 19.9234ZM0.818687 18.1817C1.2264 17.259 1.79387 16.6159 3.02405 15.4331C2.72873 14.3944 1.10393 12.5952 0.818687 12.6194C0.533442 12.5952 -1.09135 14.3949 -1.38668 15.4331C-0.156996 16.6154 0.410473 17.259 0.818687 18.1817ZM5.80999 23.173C6.73226 23.5807 7.37583 24.1482 8.55814 25.3784C9.59631 25.0831 11.3965 23.4583 11.3718 23.173C11.396 22.8878 9.59631 21.263 8.55814 20.9677C7.37583 22.1974 6.73226 22.7648 5.80999 23.173ZM4.06777 14.9931C5.26823 14.5789 5.94758 14.5859 7.3224 14.4952C7.5507 13.5629 6.49136 11.1841 5.54289 10.2876C4.59543 10.6 2.90462 11.9759 2.48279 12.5801C2.59971 12.6789 3.82839 14.4337 4.06777 14.9931ZM8.9981 26.4221C9.41236 27.6226 9.40531 28.3019 9.49602 29.6768C10.4284 29.9051 12.8071 28.8462 13.7037 27.8972C13.3912 26.9498 12.0154 25.259 11.4111 24.8371C11.3123 24.9541 9.55801 26.1827 8.9981 26.4221ZM1.68652 11.8388L3.50736 10.2014C3.48367 9.22571 2.04988 6.65093 0.819191 6.08447C-0.412004 6.65093 -1.84529 9.22571 -1.86948 10.2014L-0.0486431 11.8388C0.328325 11.5409 0.584846 11.3651 0.819191 11.3111C1.05303 11.3651 1.30955 11.5409 1.68652 11.8388Z" fill="#885022"/>
<path fill-rule="evenodd" clip-rule="evenodd" d="M58.1471 24.0404L59.7845 25.8612C60.7602 25.8375 63.3349 24.4037 63.9014 23.173C63.3349 21.9418 60.7602 20.5086 59.7845 20.4844L58.1471 22.3052C58.4449 22.6822 58.6208 22.9387 58.6747 23.173C58.6208 23.4074 58.4449 23.6634 58.1471 24.0404ZM45.4063 23.7536L41.5312 28.4063L46.266 24.5433C46.2423 26.7699 45.695 28.3226 44.4885 29.384C43.5113 30.2432 41.624 30.8238 40.2194 30.8102C39.1666 30.8001 39.154 30.8429 39.1374 29.8153C39.1066 27.9386 39.4519 26.6288 40.5006 25.3971C41.5504 24.1638 43.72 23.5278 45.4063 23.7536ZM46.2323 21.7655L41.5796 17.8904L45.4425 22.6252C43.216 22.6015 41.6633 22.0542 40.6019 20.8477C39.7427 19.871 39.1621 17.9832 39.1752 16.5786C39.1853 15.5258 39.1424 15.5132 40.17 15.4966C42.0468 15.4658 43.3566 15.8111 44.5888 16.8598C45.8225 17.9101 46.4585 20.0792 46.2323 21.7655ZM47.3939 21.7655L52.0465 17.8904L48.1836 22.6252C50.4107 22.6015 51.9629 22.0542 53.0242 20.8477C53.8835 19.871 54.4641 17.9832 54.4505 16.5786C54.4404 15.5258 54.4832 15.5132 53.4556 15.4966C51.5789 15.4658 50.2685 15.8111 49.0368 16.8598C47.8041 17.9101 47.1681 20.0792 47.3939 21.7655ZM48.2204 23.7536L52.0954 28.4063L47.3606 24.5433C47.3843 26.7699 47.9311 28.3226 49.1381 29.384C50.1148 30.2432 52.0022 30.8238 53.4068 30.8102C54.4595 30.8001 54.4721 30.8429 54.4888 29.8153C54.5195 27.9386 54.1743 26.6288 53.1255 25.3971C52.0763 24.1638 49.9067 23.5278 48.2204 23.7536ZM43.5637 31.3519C42.3633 31.7662 41.6839 31.7597 40.3091 31.8499C40.0808 32.7822 41.1402 35.1609 42.0886 36.0575C43.0361 35.7445 44.7269 34.3692 45.1487 33.7649C45.0318 33.6667 43.8031 31.9119 43.5637 31.3519ZM38.6339 19.9234C38.2197 18.723 38.2267 18.0441 38.136 16.6688C37.2037 16.4405 34.8249 17.4999 33.9284 18.4483C34.2408 19.3958 35.6167 21.0866 36.2209 21.5084C36.3192 21.3915 38.074 20.1628 38.6339 19.9234ZM46.8133 28.1638C47.221 29.0861 47.7885 29.7297 49.0187 30.9125C48.7234 31.9507 47.0986 33.7503 46.8133 33.7261C46.5281 33.7503 44.9033 31.9507 44.608 30.9125C45.8377 29.7297 46.4051 29.0861 46.8133 28.1638ZM41.822 23.173C40.8998 23.5807 40.2562 24.1482 39.0734 25.3784C38.0352 25.0831 36.2355 23.4583 36.2597 23.173C36.2355 22.8878 38.0352 21.263 39.0734 20.9677C40.2562 22.1974 40.8998 22.7648 41.822 23.173ZM50.0624 31.3519C51.2629 31.7662 51.9422 31.7597 53.3171 31.8499C53.5453 32.7822 52.486 35.1609 51.5375 36.0575C50.5901 35.7445 48.8993 34.3692 48.4774 33.7649C48.5944 33.6667 49.823 31.9119 50.0624 31.3519ZM38.6339 26.4221C38.2197 27.6226 38.2267 28.3019 38.136 29.6768C37.2037 29.9051 34.8249 28.8462 33.9284 27.8972C34.2408 26.9498 35.6167 25.259 36.2209 24.8371C36.3192 24.9541 38.074 26.1827 38.6339 26.4221ZM47.6812 34.5068L49.502 36.1442C49.4783 37.1199 48.0445 39.6951 46.8138 40.2611C45.5826 39.6946 44.1494 37.1199 44.1252 36.1442L45.946 34.5068C46.323 34.8046 46.5795 34.98 46.8138 35.0345C47.0477 34.98 47.3042 34.8046 47.6812 34.5068ZM35.4791 24.0404L33.8417 25.8612C32.866 25.8375 30.2907 24.4037 29.7248 23.173C30.2912 21.9418 32.866 20.5086 33.8417 20.4844L35.4791 22.3052C35.1812 22.6822 35.0059 22.9387 34.9514 23.173C35.0059 23.4074 35.1817 23.6634 35.4791 24.0404ZM43.5637 14.9931C42.3633 14.5789 41.6839 14.5859 40.3091 14.4952C40.0808 13.5629 41.1402 11.1841 42.0886 10.2876C43.0361 10.6 44.7269 11.9759 45.1487 12.5801C45.0318 12.6789 43.8031 14.4337 43.5637 14.9931ZM54.9927 19.9234C55.407 18.723 55.4 18.0441 55.4907 16.6688C56.423 16.4405 58.8017 17.4999 59.6983 18.4483C59.3858 19.3958 58.01 21.0866 57.4057 21.5084C57.307 21.3915 55.5527 20.1628 54.9927 19.9234ZM46.8133 18.1817C47.221 17.259 47.7885 16.6159 49.0187 15.4331C48.7234 14.3944 47.0986 12.5952 46.8133 12.6194C46.5281 12.5952 44.9033 14.3949 44.608 15.4331C45.8377 16.6154 46.4051 17.259 46.8133 18.1817ZM51.8046 23.173C52.7269 23.5807 53.3705 24.1482 54.5533 25.3784C55.5915 25.0831 57.3916 23.4583 57.3669 23.173C57.3911 22.8878 55.5915 21.263 54.5533 20.9677C53.3705 22.1974 52.7269 22.7648 51.8046 23.173ZM50.0624 14.9931C51.2629 14.5789 51.9422 14.5859 53.3171 14.4952C53.5453 13.5629 52.486 11.1841 51.5375 10.2876C50.5901 10.6 48.8993 11.9759 48.4774 12.5801C48.5944 12.6789 49.823 14.4337 50.0624 14.9931ZM54.9927 26.4221C55.407 27.6226 55.4 28.3019 55.4907 29.6768C56.423 29.9051 58.8017 28.8462 59.6983 27.8972C59.3858 26.9498 58.01 25.259 57.4057 24.8371C57.307 24.9541 55.5527 26.1827 54.9927 26.4221ZM47.6812 11.8388L49.502 10.2014C49.4783 9.22571 48.0445 6.65093 46.8138 6.08447C45.5826 6.65093 44.1494 9.22571 44.1252 10.2014L45.946 11.8388C46.323 11.5409 46.5795 11.3651 46.8138 11.3111C47.0477 11.3651 47.3042 11.5409 47.6812 11.8388Z" fill="#885022"/>
<path fill-rule="evenodd" clip-rule="evenodd" d="M35.0125 48.5287L36.6499 50.3495C37.6256 50.3258 40.2009 48.892 40.7668 47.6608C40.2004 46.4301 37.6256 44.9963 36.6499 44.9721L35.0125 46.793C35.3103 47.17 35.4862 47.426 35.5402 47.6603C35.4862 47.8957 35.3103 48.1517 35.0125 48.5287ZM22.2717 48.2419L18.3967 52.8945L23.1314 49.0311C23.1078 51.2581 22.5609 52.8104 21.3539 53.8717C20.3773 54.731 18.4899 55.3116 17.0853 55.298C16.0325 55.2879 16.0199 55.3307 16.0033 54.3031C15.9726 52.4263 16.3178 51.1165 17.3665 49.8843C18.4158 48.6516 20.5854 48.0156 22.2717 48.2419ZM23.0982 46.2537L18.4455 42.3787L22.3085 47.1135C20.0814 47.0898 18.5292 46.543 17.4678 45.336C16.6086 44.3588 16.028 42.472 16.0416 41.0674C16.0517 40.0146 16.0088 40.0025 17.0364 39.9854C18.9132 39.9546 20.2235 40.2999 21.4552 41.3486C22.6874 42.3979 23.3235 44.5675 23.0982 46.2537ZM24.2598 46.2537L28.9125 42.3787L25.049 47.1135C27.2761 47.0898 28.8283 46.543 29.8897 45.336C30.7489 44.3588 31.3295 42.472 31.3159 41.0674C31.3058 40.0146 31.3492 40.0025 30.3211 39.9854C28.4443 39.9546 27.1345 40.2999 25.9023 41.3486C24.6696 42.3979 24.0335 44.5675 24.2598 46.2537ZM25.0858 48.2419L28.9608 52.8945L24.2261 49.0311C24.2497 51.2581 24.7971 52.8104 26.0036 53.8717C26.9808 54.731 28.8676 55.3116 30.2722 55.298C31.325 55.2879 31.3376 55.3307 31.3542 54.3031C31.3849 52.4263 31.0397 51.1165 29.991 49.8843C28.9417 48.6516 26.7721 48.0156 25.0858 48.2419ZM20.4292 55.8402C19.2287 56.2545 18.5494 56.2479 17.1745 56.3382C16.9462 57.2705 18.0056 59.6492 18.954 60.5458C19.9015 60.2333 21.5923 58.8575 22.0141 58.2532C21.8977 58.155 20.6685 56.4001 20.4292 55.8402ZM15.4993 44.4112C15.0851 43.2108 15.0921 42.5319 15.0014 41.1571C14.0691 40.9283 11.6903 41.9876 10.7938 42.9361C11.1067 43.8836 12.4821 45.5744 13.0863 45.9962C13.1846 45.8798 14.9394 44.6506 15.4993 44.4112ZM23.6787 52.6521C24.0865 53.5744 24.6539 54.218 25.8841 55.4008C25.5888 56.4389 23.964 58.2386 23.6787 58.2144C23.3935 58.2391 21.7692 56.4389 21.4734 55.4008C22.7031 54.218 23.271 53.5744 23.6787 52.6521ZM18.6874 47.6608C17.7652 48.069 17.1216 48.6365 15.9388 49.8662C14.9006 49.5704 13.101 47.9461 13.1251 47.6608C13.101 47.3756 14.9006 45.7513 15.9388 45.4554C17.1216 46.6856 17.7652 47.2531 18.6874 47.6608ZM26.9283 55.8402C28.1288 56.2545 28.8081 56.2479 30.183 56.3382C30.4113 57.2705 29.3519 59.6492 28.4035 60.5458C27.456 60.2333 25.7652 58.8575 25.3434 58.2532C25.4598 58.155 26.6885 56.4001 26.9283 55.8402ZM15.4993 50.9104C15.0851 52.1109 15.0921 52.7897 15.0014 54.165C14.0691 54.3933 11.6903 53.3345 10.7938 52.3855C11.1067 51.4381 12.4821 49.7472 13.0863 49.3254C13.1846 49.4423 14.9394 50.671 15.4993 50.9104ZM24.5466 58.9951L26.3674 60.6325C26.3432 61.6082 24.9099 64.1834 23.6787 64.7494C22.4481 64.1834 21.0143 61.6082 20.9901 60.6325L22.8109 58.9951C23.1879 59.2929 23.4439 59.4683 23.6787 59.5227C23.9131 59.4683 24.1696 59.2924 24.5466 58.9951ZM12.345 48.5287L10.7076 50.3495C9.73192 50.3258 7.15714 48.892 6.59068 47.6608C7.15714 46.4301 9.73192 44.9963 10.7076 44.9721L12.345 46.793C12.0472 47.17 11.8713 47.426 11.8173 47.6603C11.8713 47.8957 12.0472 48.1517 12.345 48.5287ZM20.4292 39.4814C19.2287 39.0671 18.5494 39.0737 17.1745 38.9835C16.9462 38.0511 18.0056 35.6724 18.954 34.7759C19.9015 35.0883 21.5923 36.4641 22.0141 37.0689C21.8977 37.1672 20.6685 38.922 20.4292 39.4814ZM31.8582 44.4112C32.2724 43.2108 32.2654 42.5319 32.3561 41.1571C33.2884 40.9283 35.6672 41.9876 36.5637 42.9361C36.2513 43.8836 34.8754 45.5744 34.2712 45.9962C34.1729 45.8798 32.4181 44.6506 31.8582 44.4112ZM23.6787 42.6695C24.0865 41.7472 24.6539 41.1037 25.8841 39.9214C25.5888 38.8832 23.964 37.0835 23.6787 37.1077C23.3935 37.083 21.7692 38.8827 21.4734 39.9214C22.7031 41.1037 23.271 41.7472 23.6787 42.6695ZM28.6701 47.6608C29.5923 48.069 30.2359 48.6365 31.4187 49.8662C32.4569 49.5704 34.2565 47.9461 34.2324 47.6608C34.2565 47.3756 32.4569 45.7513 31.4187 45.4554C30.2359 46.6856 29.5923 47.2531 28.6701 47.6608ZM26.9283 39.4814C28.1288 39.0671 28.8081 39.0737 30.183 38.9835C30.4113 38.0511 29.3519 35.6724 28.4035 34.7759C27.456 35.0883 25.7652 36.4641 25.3434 37.0689C25.4598 37.1672 26.6885 38.922 26.9283 39.4814ZM31.8582 50.9104C32.2724 52.1109 32.2654 52.7897 32.3561 54.165C33.2884 54.3933 35.6672 53.3345 36.5637 52.3855C36.2513 51.4381 34.8754 49.7472 34.2712 49.3254C34.1729 49.4423 32.4181 50.671 31.8582 50.9104ZM24.5466 36.3271L26.3674 34.6897C26.3432 33.714 24.9099 31.1387 23.6787 30.5728C22.4481 31.1392 21.0143 33.714 20.9901 34.6897L22.8109 36.3271C23.1879 36.0292 23.4439 35.8533 23.6787 35.7994C23.9131 35.8533 24.1696 36.0292 24.5466 36.3271Z" fill="#885022"/>
</svg>
