<svg width="1440" height="793" viewBox="0 0 1440 793" fill="none" xmlns="http://www.w3.org/2000/svg">
<mask id="mask0_223_6202" style="mask-type:luminance" maskUnits="userSpaceOnUse" x="953" y="-7" width="487" height="788">
<path d="M953 -7H1439.92V780.643H953V-7Z" fill="white"/>
</mask>
<g mask="url(#mask0_223_6202)">
<path fill-rule="evenodd" clip-rule="evenodd" d="M1762.36 319.18L1808.94 370.98C1836.71 370.297 1909.96 329.512 1926.07 294.489C1909.96 259.472 1836.71 218.687 1808.94 218.005L1762.36 269.804C1770.84 280.524 1775.83 287.817 1777.37 294.489C1775.83 301.162 1770.84 308.455 1762.36 319.18ZM1399.89 311.013L1289.65 443.376L1424.35 333.471C1423.67 396.822 1408.11 440.988 1373.79 471.183C1345.99 495.625 1292.3 512.144 1252.34 511.762C1222.39 511.478 1222.04 512.702 1221.55 483.464C1220.68 430.072 1230.5 392.796 1260.33 357.753C1290.19 322.684 1351.91 304.589 1399.89 311.013ZM1423.39 254.459L1291.04 144.218L1400.94 278.922C1337.58 278.245 1293.42 262.682 1263.23 228.352C1238.78 200.561 1222.27 146.869 1222.65 106.911C1222.93 76.9587 1221.71 76.6072 1250.95 76.1266C1304.34 75.2479 1341.61 85.0734 1376.65 114.907C1411.73 144.766 1429.82 206.484 1423.39 254.459ZM1456.44 254.459L1588.8 144.218L1478.9 278.922C1542.25 278.245 1586.42 262.682 1616.61 228.352C1641.05 200.561 1657.57 146.869 1657.19 106.911C1656.91 76.9587 1658.13 76.6072 1628.89 76.1266C1575.5 75.2479 1538.22 85.0734 1503.18 114.907C1468.11 144.766 1450.02 206.484 1456.44 254.459ZM1479.95 311.013L1590.19 443.376L1455.49 333.471C1456.16 396.822 1471.72 440.988 1506.05 471.183C1533.85 495.625 1587.54 512.144 1627.5 511.762C1657.45 511.478 1657.8 512.702 1658.29 483.464C1659.16 430.072 1649.34 392.796 1619.51 357.753C1589.65 322.684 1527.92 304.589 1479.95 311.013ZM1347.48 527.19C1313.33 538.974 1294 538.783 1254.89 541.357C1248.39 567.882 1278.52 635.56 1305.51 661.057C1332.47 652.162 1380.57 613.03 1392.57 595.829C1389.24 593.038 1354.29 543.114 1347.48 527.19ZM1207.22 202.049C1195.44 167.9 1195.63 148.575 1193.05 109.459C1166.52 102.962 1098.85 133.095 1073.36 160.08C1082.25 187.034 1121.38 235.144 1138.58 247.14C1141.37 243.816 1191.3 208.861 1207.22 202.049ZM1439.92 436.486C1451.53 462.732 1467.67 481.04 1502.66 514.682C1494.25 544.221 1448.03 595.421 1439.92 594.728C1431.8 595.421 1385.59 544.221 1377.18 514.682C1412.17 481.04 1428.31 462.732 1439.92 436.486ZM1297.92 294.489C1271.68 306.098 1253.37 322.24 1219.73 357.231C1190.19 348.822 1138.99 302.604 1139.68 294.489C1138.99 286.375 1190.19 240.157 1219.73 231.748C1253.37 266.739 1271.68 282.886 1297.92 294.489ZM1532.36 527.19C1566.51 538.974 1585.84 538.783 1624.95 541.357C1631.45 567.882 1601.31 635.56 1574.33 661.057C1547.37 652.162 1499.27 613.03 1487.27 595.829C1490.6 593.038 1525.55 543.114 1532.36 527.19ZM1207.22 386.935C1195.44 421.084 1195.63 440.409 1193.05 479.525C1166.52 486.017 1098.85 455.884 1073.36 428.904C1082.25 401.945 1121.38 353.84 1138.58 341.844C1141.37 345.168 1191.3 380.123 1207.22 386.935ZM1464.61 616.932L1516.41 663.517C1515.73 691.277 1474.94 764.532 1439.92 780.643C1404.9 764.532 1364.11 691.277 1363.43 663.517L1415.23 616.932C1425.95 625.409 1433.24 630.407 1439.92 631.942C1446.59 630.407 1453.88 625.409 1464.61 616.932ZM1117.48 319.18L1070.9 370.98C1043.13 370.297 969.88 329.512 953.77 294.489C969.88 259.472 1043.13 218.687 1070.9 218.005L1117.48 269.804C1109 280.524 1104.01 287.817 1102.47 294.489C1104.01 301.162 1109 308.455 1117.48 319.18ZM1347.48 61.7888C1313.33 50.0096 1294 50.2009 1254.89 47.6269C1248.39 21.0965 1278.52 -46.576 1305.51 -72.0726C1332.47 -63.1827 1380.57 -24.046 1392.57 -6.85011C1389.24 -4.05391 1354.29 45.8696 1347.48 61.7888ZM1672.62 202.049C1684.4 167.9 1684.21 148.575 1686.79 109.459C1713.31 102.962 1780.99 133.095 1806.48 160.08C1797.59 187.034 1758.46 235.144 1741.26 247.14C1738.47 243.816 1688.54 208.861 1672.62 202.049ZM1439.92 152.493C1451.53 126.252 1467.67 107.944 1502.66 74.302C1494.25 44.7635 1448.03 -6.43663 1439.92 -5.74403C1431.8 -6.43663 1385.59 44.7635 1377.18 74.302C1412.17 107.944 1428.31 126.252 1439.92 152.493ZM1581.92 294.489C1608.16 306.098 1626.47 322.24 1660.11 357.231C1689.65 348.822 1740.85 302.604 1740.16 294.489C1740.85 286.375 1689.65 240.157 1660.11 231.748C1626.47 266.739 1608.16 282.886 1581.92 294.489ZM1532.36 61.7888C1566.51 50.0096 1585.84 50.2009 1624.95 47.6269C1631.45 21.0965 1601.31 -46.576 1574.33 -72.0726C1547.37 -63.1827 1499.27 -24.046 1487.27 -6.85011C1490.6 -4.05391 1525.55 45.8696 1532.36 61.7888ZM1672.62 386.935C1684.4 421.084 1684.21 440.409 1686.79 479.525C1713.31 486.017 1780.99 455.884 1806.48 428.904C1797.59 401.945 1758.46 353.84 1741.26 341.844C1738.47 345.168 1688.54 380.123 1672.62 386.935ZM1464.61 -27.9535L1516.41 -74.5329C1515.73 -102.293 1474.94 -175.548 1439.92 -191.658C1404.9 -175.548 1364.11 -102.293 1363.43 -74.5329L1415.23 -27.9535C1425.95 -36.4248 1433.24 -41.4229 1439.92 -42.9579C1446.59 -41.4229 1453.88 -36.4248 1464.61 -27.9535Z" fill="#4D2909" fill-opacity="0.03"/>
</g>
<mask id="mask1_223_6202" style="mask-type:luminance" maskUnits="userSpaceOnUse" x="0" y="-7" width="487" height="788">
<path d="M487 -7H0.0819092V780.643H487V-7Z" fill="white"/>
</mask>
<g mask="url(#mask1_223_6202)">
<path fill-rule="evenodd" clip-rule="evenodd" d="M-322.36 319.18L-368.945 370.98C-396.706 370.297 -469.96 329.512 -486.071 294.489C-469.96 259.472 -396.706 218.687 -368.945 218.005L-322.36 269.804C-330.837 280.524 -335.835 287.817 -337.37 294.489C-335.835 301.162 -330.837 308.455 -322.36 319.18ZM40.1133 311.013L150.354 443.376L15.6504 333.471C16.3275 396.822 31.8901 440.988 66.2148 471.183C94.0115 495.625 147.703 512.144 187.661 511.762C217.613 511.478 217.965 512.702 218.445 483.464C219.324 430.072 209.499 392.796 179.665 357.753C149.806 322.684 88.0883 304.589 40.1133 311.013ZM16.6066 254.459L148.964 144.218L39.0589 278.922C102.416 278.245 146.576 262.682 176.771 228.352C201.219 200.561 217.732 146.869 217.355 106.911C217.065 76.9587 218.29 76.6072 189.052 76.1266C135.66 75.2479 98.3893 85.0734 63.3462 114.907C28.2721 144.766 10.1768 206.484 16.6066 254.459ZM-16.4415 254.459L-148.804 144.218L-38.899 278.922C-102.25 278.245 -146.416 262.682 -176.611 228.352C-201.053 200.561 -217.572 146.869 -217.195 106.911C-216.906 76.9587 -218.13 76.6072 -188.892 76.1266C-135.5 75.2479 -98.2242 85.0734 -63.1811 114.907C-28.1121 144.766 -10.0169 206.484 -16.4415 254.459ZM-39.9534 311.013L-150.194 443.376L-15.4904 333.471C-16.1624 396.822 -31.725 440.988 -66.0548 471.183C-93.8516 495.625 -147.543 512.144 -187.501 511.762C-217.448 511.478 -217.805 512.702 -218.286 483.464C-219.159 430.072 -209.339 392.796 -179.506 357.753C-149.647 322.684 -87.9232 304.589 -39.9534 311.013ZM92.5229 527.19C126.672 538.974 145.997 538.783 185.113 541.357C191.61 567.882 161.477 635.56 134.492 661.057C107.533 652.162 59.4284 613.03 47.4321 595.829C50.7555 593.038 85.7107 543.114 92.5229 527.19ZM232.783 202.049C244.562 167.9 244.371 148.575 246.945 109.459C273.475 102.962 341.148 133.095 366.645 160.08C357.755 187.034 318.618 235.144 301.422 247.14C298.626 243.816 248.702 208.861 232.783 202.049ZM0.08255 436.486C-11.5261 462.732 -27.6677 481.04 -62.6591 514.682C-54.2498 544.221 -8.03214 595.421 0.08255 594.728C8.19724 595.421 54.4149 544.221 62.8242 514.682C27.8328 481.04 11.6861 462.732 0.08255 436.486ZM142.079 294.489C168.32 306.098 186.628 322.24 220.27 357.231C249.809 348.822 301.009 302.604 300.316 294.489C301.009 286.375 249.809 240.157 220.27 231.748C186.628 266.739 168.32 282.886 142.079 294.489ZM-92.363 527.19C-126.512 538.974 -145.837 538.783 -184.953 541.357C-191.445 567.882 -161.312 635.56 -134.332 661.057C-107.373 652.162 -59.2684 613.03 -47.2722 595.829C-50.5955 593.038 -85.5508 543.114 -92.363 527.19ZM232.783 386.935C244.562 421.084 244.371 440.409 246.945 479.525C273.475 486.017 341.148 455.884 366.645 428.904C357.755 401.945 318.618 353.84 301.422 341.844C298.626 345.168 248.702 380.123 232.783 386.935ZM-24.6078 616.932L-76.4075 663.517C-75.7253 691.277 -34.9399 764.532 0.08255 780.643C35.0998 764.532 75.8852 691.277 76.5674 663.517L24.7678 616.932C14.0481 625.409 6.75522 630.407 0.08255 631.942C-6.59012 630.407 -13.883 625.409 -24.6078 616.932ZM322.52 319.18L369.105 370.98C396.865 370.297 470.12 329.512 486.23 294.489C470.12 259.472 396.865 218.687 369.105 218.005L322.52 269.804C330.997 280.524 335.995 287.817 337.53 294.489C335.995 301.162 330.997 308.455 322.52 319.18ZM92.5229 61.7888C126.672 50.0096 145.997 50.2009 185.113 47.6269C191.61 21.0965 161.477 -46.576 134.492 -72.0726C107.533 -63.1827 59.4284 -24.046 47.4321 -6.85011C50.7555 -4.05391 85.7107 45.8696 92.5229 61.7888ZM-232.623 202.049C-244.402 167.9 -244.211 148.575 -246.785 109.459C-273.31 102.962 -340.988 133.095 -366.485 160.08C-357.59 187.034 -318.458 235.144 -301.262 247.14C-298.466 243.816 -248.542 208.861 -232.623 202.049ZM0.08255 152.493C-11.5261 126.252 -27.6677 107.944 -62.6591 74.302C-54.2498 44.7635 -8.03214 -6.43663 0.08255 -5.74403C8.19724 -6.43663 54.4149 44.7635 62.8242 74.302C27.8328 107.944 11.6861 126.252 0.08255 152.493ZM-141.919 294.489C-168.16 306.098 -186.468 322.24 -220.11 357.231C-249.649 348.822 -300.849 302.604 -300.156 294.489C-300.849 286.375 -249.649 240.157 -220.11 231.748C-186.468 266.739 -168.16 282.886 -141.919 294.489ZM-92.363 61.7888C-126.512 50.0096 -145.837 50.2009 -184.953 47.6269C-191.445 21.0965 -161.312 -46.576 -134.332 -72.0726C-107.373 -63.1827 -59.2684 -24.046 -47.2722 -6.85011C-50.5955 -4.05391 -85.5508 45.8696 -92.363 61.7888ZM-232.623 386.935C-244.402 421.084 -244.211 440.409 -246.785 479.525C-273.31 486.017 -340.988 455.884 -366.485 428.904C-357.59 401.945 -318.458 353.84 -301.262 341.844C-298.466 345.168 -248.542 380.123 -232.623 386.935ZM-24.6078 -27.9535L-76.4075 -74.5329C-75.7253 -102.293 -34.9399 -175.548 0.08255 -191.658C35.0998 -175.548 75.8852 -102.293 76.5674 -74.5329L24.7678 -27.9535C14.0481 -36.4248 6.75522 -41.4229 0.08255 -42.9579C-6.59012 -41.4229 -13.883 -36.4248 -24.6078 -27.9535Z" fill="#4D2909" fill-opacity="0.03"/>
</g>
</svg>
