<svg width="146" height="46" viewBox="0 0 146 46" fill="none" xmlns="http://www.w3.org/2000/svg">
<g clip-path="url(#clip0_128_2328)">
<path d="M6.62923 40.4892H2.97658V39.0191H6.62923C7.3366 39.0191 7.9094 38.9066 8.34759 38.6819C8.78578 38.4573 9.10504 38.1451 9.30535 37.7455C9.51192 37.346 9.61522 36.8902 9.61522 36.3783C9.61522 35.9101 9.51192 35.47 9.30535 35.058C9.10504 34.6459 8.78578 34.3152 8.34759 34.0654C7.9094 33.8095 7.3366 33.6814 6.62923 33.6814H3.39913V45.8361H1.58688V32.2019H6.62923C7.66212 32.2019 8.53539 32.38 9.24901 32.7356C9.96264 33.0915 10.5041 33.5847 10.8735 34.2153C11.2428 34.8396 11.4275 35.5542 11.4275 36.3596C11.4275 37.2336 11.2428 37.9797 10.8735 38.5977C10.5041 39.2157 9.96264 39.687 9.24901 40.0117C8.53539 40.3301 7.66212 40.4892 6.62923 40.4892ZM17.5403 46.0235C16.8329 46.0235 16.1912 45.9047 15.6153 45.6676C15.0457 45.424 14.5543 45.084 14.1411 44.647C13.7342 44.21 13.4212 43.6918 13.2022 43.0924C12.983 42.4931 12.8735 41.8377 12.8735 41.1259V40.7326C12.8735 39.9087 12.9956 39.1751 13.2397 38.5322C13.4838 37.8828 13.8156 37.3335 14.235 36.884C14.6544 36.4345 15.1302 36.0944 15.6623 35.8633C16.1944 35.6324 16.7453 35.5168 17.3149 35.5168C18.041 35.5168 18.667 35.6418 19.1929 35.8914C19.725 36.1412 20.16 36.4907 20.4981 36.9401C20.8361 37.3834 21.0866 37.9078 21.2493 38.5135C21.4119 39.1127 21.4935 39.7681 21.4935 40.4799V41.257H13.9064V39.843H19.7563V39.712C19.7312 39.2625 19.6373 38.8255 19.4746 38.4009C19.3181 37.9766 19.0677 37.627 18.7234 37.3522C18.3791 37.0776 17.9096 36.9401 17.3149 36.9401C16.9205 36.9401 16.5575 37.0244 16.2257 37.1931C15.8939 37.3553 15.6091 37.5989 15.3712 37.9234C15.1333 38.2481 14.9487 38.6445 14.8172 39.1127C14.6857 39.5809 14.62 40.1209 14.62 40.7326V41.1259C14.62 41.6066 14.6857 42.0592 14.8172 42.4838C14.9549 42.902 15.1521 43.2704 15.4088 43.5887C15.6717 43.9071 15.9878 44.1569 16.3571 44.3379C16.7327 44.5188 17.1584 44.6095 17.6342 44.6095C18.2476 44.6095 18.7672 44.4845 19.1929 44.2349C19.6186 43.9851 19.991 43.6513 20.3103 43.233L21.3619 44.0662C21.1429 44.3972 20.8642 44.7125 20.5262 45.012C20.1882 45.3117 19.7719 45.5553 19.2774 45.7425C18.7891 45.9297 18.2101 46.0235 17.5403 46.0235ZM23.6718 35.7042H25.409V44.4128H29.1274V35.7042H30.8738V44.4128H34.5828V35.7042H36.32V45.8361H23.6718V35.7042ZM45.0806 44.1039V38.8879C45.0806 38.4885 44.9993 38.142 44.8366 37.8485C44.6802 37.549 44.4422 37.3179 44.1229 37.1556C43.8037 36.9932 43.4093 36.9121 42.9398 36.9121C42.5016 36.9121 42.1166 36.9869 41.785 37.1369C41.4594 37.2867 41.2027 37.4832 41.0149 37.7268C40.8335 37.9704 40.7425 38.2324 40.7425 38.5135H39.0056C39.0056 38.1513 39.0994 37.7923 39.2871 37.4364C39.4751 37.0808 39.7441 36.7592 40.0947 36.4719C40.4516 36.1787 40.8773 35.9476 41.3718 35.7791C41.8726 35.6042 42.4297 35.5168 43.0431 35.5168C43.7818 35.5168 44.4328 35.6418 44.9962 35.8914C45.566 36.1412 46.0102 36.5187 46.3295 37.0244C46.6551 37.524 46.8178 38.1513 46.8178 38.9066V43.6263C46.8178 43.9633 46.846 44.3223 46.9023 44.7031C46.9649 45.084 47.0558 45.4116 47.1747 45.6863V45.8361H45.3624C45.2748 45.6364 45.206 45.371 45.1559 45.0403C45.1059 44.7031 45.0806 44.3909 45.0806 44.1039ZM45.3812 39.6932L45.3999 40.9107H43.644C43.1495 40.9107 42.7081 40.9512 42.3202 41.0323C41.932 41.1072 41.6064 41.2227 41.3436 41.3789C41.0806 41.5349 40.8804 41.7314 40.7425 41.9688C40.6049 42.1996 40.5361 42.4713 40.5361 42.7835C40.5361 43.1017 40.608 43.3921 40.7519 43.6544C40.8961 43.9165 41.1119 44.1257 41.4 44.2817C41.694 44.4315 42.054 44.5064 42.4797 44.5064C43.0118 44.5064 43.4813 44.394 43.8882 44.1694C44.2951 43.9445 44.6176 43.67 44.8554 43.3453C45.0996 43.0206 45.231 42.7055 45.2498 42.3995L45.9915 43.233C45.9477 43.4951 45.8288 43.7854 45.6348 44.1039C45.4406 44.4221 45.1809 44.7281 44.8554 45.0214C44.536 45.3086 44.1544 45.5491 43.7099 45.7425C43.2717 45.9297 42.7772 46.0235 42.2261 46.0235C41.5376 46.0235 40.9336 45.8891 40.414 45.6208C39.9008 45.3523 39.5001 44.9933 39.2121 44.5438C38.9303 44.0881 38.7895 43.5793 38.7895 43.0175C38.7895 42.4744 38.8959 41.9968 39.1088 41.5848C39.3215 41.1665 39.6284 40.8202 40.029 40.5454C40.4297 40.2644 40.9117 40.0522 41.475 39.9087C42.0384 39.765 42.6674 39.6932 43.3624 39.6932H45.3812ZM53.7664 46.0235C53.0589 46.0235 52.4173 45.9047 51.8415 45.6676C51.2719 45.424 50.7805 45.084 50.3673 44.647C49.9604 44.21 49.6473 43.6918 49.4283 43.0924C49.2091 42.4931 49.0996 41.8377 49.0996 41.1259V40.7326C49.0996 39.9087 49.2216 39.1751 49.4658 38.5322C49.7099 37.8828 50.0417 37.3335 50.4611 36.884C50.8806 36.4345 51.3563 36.0944 51.8884 35.8633C52.4205 35.6324 52.9713 35.5168 53.5409 35.5168C54.2672 35.5168 54.8931 35.6418 55.4189 35.8914C55.9512 36.1412 56.386 36.4907 56.7241 36.9401C57.0622 37.3834 57.3125 37.9078 57.4754 38.5135C57.6381 39.1127 57.7194 39.7681 57.7194 40.4799V41.257H50.1324V39.843H55.9824V39.712C55.9574 39.2625 55.8633 38.8255 55.7007 38.4009C55.5442 37.9766 55.2937 37.627 54.9494 37.3522C54.6052 37.0776 54.1357 36.9401 53.5409 36.9401C53.1467 36.9401 52.7836 37.0244 52.4517 37.1931C52.1199 37.3553 51.8352 37.5989 51.5972 37.9234C51.3595 38.2481 51.1747 38.6445 51.0433 39.1127C50.9119 39.5809 50.8462 40.1209 50.8462 40.7326V41.1259C50.8462 41.6066 50.9119 42.0592 51.0433 42.4838C51.1809 42.902 51.3782 43.2704 51.6348 43.5887C51.8978 43.9071 52.214 44.1569 52.5831 44.3379C52.9588 44.5188 53.3845 44.6095 53.8602 44.6095C54.4736 44.6095 54.9932 44.4845 55.4189 44.2349C55.8446 43.9851 56.2171 43.6513 56.5364 43.233L57.588 44.0662C57.369 44.3972 57.0904 44.7125 56.7523 45.012C56.4142 45.3117 55.9981 45.5553 55.5036 45.7425C55.0153 45.9297 54.4361 46.0235 53.7664 46.0235ZM65.5882 43.5325L69.0436 35.7042H70.7151L66.1891 45.8361H64.9873L60.4801 35.7042H62.1516L65.5882 43.5325ZM61.6445 35.7042V45.8361H59.9073V35.7042H61.6445ZM69.4755 45.8361V35.7042H71.2221V45.8361H69.4755ZM83.5604 41.3789H80.227L80.2082 39.993H82.9313C83.4697 39.993 83.9172 39.9399 84.2741 39.8336C84.637 39.7276 84.9094 39.5684 85.0909 39.3561C85.2725 39.1439 85.3633 38.8816 85.3633 38.5696C85.3633 38.326 85.3101 38.1139 85.2035 37.9327C85.1034 37.7455 84.9501 37.5926 84.7436 37.4739C84.5369 37.3491 84.2804 37.2586 83.9736 37.2024C83.673 37.14 83.3195 37.1088 82.9126 37.1088H80.6871V45.8361H78.9499V35.7042H82.9126C83.5573 35.7042 84.1362 35.7604 84.6495 35.8727C85.1691 35.985 85.6104 36.1568 85.9735 36.3877C86.3429 36.6125 86.6247 36.8996 86.8187 37.2492C87.0126 37.5989 87.1098 38.0109 87.1098 38.4854C87.1098 38.7911 87.0471 39.0815 86.9219 39.3561C86.7968 39.6308 86.612 39.8744 86.368 40.0866C86.1237 40.2987 85.8234 40.4736 85.4665 40.6109C85.1096 40.742 84.6996 40.8264 84.2364 40.8639L83.5604 41.3789ZM83.5604 45.8361H79.5979L80.4616 44.4315H83.5604C84.0424 44.4315 84.443 44.3722 84.7624 44.2536C85.0815 44.1288 85.3195 43.9539 85.4759 43.7293C85.6386 43.4982 85.7201 43.2236 85.7201 42.9052C85.7201 42.5867 85.6386 42.3153 85.4759 42.0904C85.3195 41.8596 85.0815 41.6846 84.7624 41.5661C84.443 41.4413 84.0424 41.3789 83.5604 41.3789H80.9217L80.9405 39.993H84.2364L84.8656 40.5173C85.4227 40.561 85.8953 40.6983 86.2835 40.9294C86.6716 41.1603 86.9657 41.4537 87.1662 41.8096C87.3664 42.1591 87.4665 42.5399 87.4665 42.952C87.4665 43.4264 87.3758 43.8447 87.1943 44.2068C87.0189 44.569 86.7624 44.8716 86.4243 45.1152C86.0862 45.3523 85.6761 45.5335 85.1941 45.6583C84.7121 45.7768 84.1675 45.8361 83.5604 45.8361ZM95.6358 43.5325L99.0912 35.7042H100.763L96.2367 45.8361H95.0347L90.5277 35.7042H92.199L95.6358 43.5325ZM91.6919 35.7042V45.8361H89.955V35.7042H91.6919ZM99.5232 45.8361V35.7042H101.27V45.8361H99.5232ZM108.284 46.0235C107.577 46.0235 106.935 45.9047 106.359 45.6676C105.789 45.424 105.298 45.084 104.885 44.647C104.478 44.21 104.165 43.6918 103.946 43.0924C103.727 42.4931 103.617 41.8377 103.617 41.1259V40.7326C103.617 39.9087 103.739 39.1751 103.983 38.5322C104.228 37.8828 104.559 37.3335 104.979 36.884C105.398 36.4345 105.874 36.0944 106.406 35.8633C106.938 35.6324 107.489 35.5168 108.059 35.5168C108.785 35.5168 109.411 35.6418 109.937 35.8914C110.469 36.1412 110.904 36.4907 111.242 36.9401C111.58 37.3834 111.83 37.9078 111.993 38.5135C112.156 39.1127 112.237 39.7681 112.237 40.4799V41.257H104.65V39.843H110.5V39.712C110.475 39.2625 110.381 38.8255 110.218 38.4009C110.062 37.9766 109.811 37.627 109.467 37.3522C109.123 37.0776 108.653 36.9401 108.059 36.9401C107.664 36.9401 107.301 37.0244 106.969 37.1931C106.638 37.3553 106.353 37.5989 106.115 37.9234C105.877 38.2481 105.692 38.6445 105.561 39.1127C105.429 39.5809 105.364 40.1209 105.364 40.7326V41.1259C105.364 41.6066 105.429 42.0592 105.561 42.4838C105.699 42.902 105.896 43.2704 106.152 43.5887C106.415 43.9071 106.731 44.1569 107.101 44.3379C107.476 44.5188 107.902 44.6095 108.378 44.6095C108.991 44.6095 109.511 44.4845 109.937 44.2349C110.362 43.9851 110.735 43.6513 111.054 43.233L112.105 44.0662C111.886 44.3972 111.608 44.7125 111.27 45.012C110.932 45.3117 110.516 45.5553 110.021 45.7425C109.533 45.9297 108.954 46.0235 108.284 46.0235ZM118.331 44.6002C118.744 44.6002 119.126 44.5157 119.477 44.3472C119.827 44.1788 120.115 43.9477 120.34 43.6544C120.566 43.3547 120.694 43.0144 120.726 42.6335H122.378C122.347 43.233 122.143 43.7917 121.768 44.3098C121.398 44.8217 120.913 45.2368 120.312 45.5553C119.711 45.8673 119.051 46.0235 118.331 46.0235C117.567 46.0235 116.901 45.8891 116.331 45.6208C115.768 45.3523 115.298 44.9839 114.922 44.5157C114.553 44.0475 114.275 43.5107 114.087 42.9052C113.905 42.2934 113.814 41.6472 113.814 40.9668V40.5735C113.814 39.8931 113.905 39.25 114.087 38.6445C114.275 38.0328 114.553 37.4926 114.922 37.0244C115.298 36.5562 115.768 36.188 116.331 35.9195C116.901 35.6512 117.567 35.5168 118.331 35.5168C119.126 35.5168 119.821 35.6792 120.416 36.0037C121.01 36.3222 121.477 36.7592 121.815 37.3148C122.159 37.8641 122.347 38.4885 122.378 39.1876H120.726C120.694 38.7693 120.575 38.3916 120.369 38.0546C120.168 37.7174 119.893 37.4489 119.542 37.2492C119.198 37.0433 118.794 36.9401 118.331 36.9401C117.799 36.9401 117.351 37.0464 116.988 37.2586C116.631 37.4645 116.347 37.7455 116.134 38.1014C115.927 38.4511 115.777 38.8411 115.683 39.2718C115.595 39.6964 115.552 40.1302 115.552 40.5735V40.9668C115.552 41.4101 115.595 41.8471 115.683 42.2778C115.771 42.7086 115.918 43.0986 116.124 43.4483C116.337 43.7979 116.622 44.0787 116.979 44.2911C117.342 44.497 117.793 44.6002 118.331 44.6002ZM128.472 35.7042V45.8361H126.725V35.7042H128.472ZM131.881 35.7042V37.1088H123.383V35.7042H131.881ZM137.054 46.0235C136.347 46.0235 135.705 45.9047 135.129 45.6676C134.56 45.424 134.068 45.084 133.655 44.647C133.248 44.21 132.935 43.6918 132.716 43.0924C132.497 42.4931 132.388 41.8377 132.388 41.1259V40.7326C132.388 39.9087 132.51 39.1751 132.754 38.5322C132.998 37.8828 133.33 37.3335 133.749 36.884C134.169 36.4345 134.644 36.0944 135.176 35.8633C135.708 35.6324 136.259 35.5168 136.829 35.5168C137.555 35.5168 138.181 35.6418 138.707 35.8914C139.239 36.1412 139.674 36.4907 140.012 36.9401C140.35 37.3834 140.601 37.9078 140.763 38.5135C140.926 39.1127 141.008 39.7681 141.008 40.4799V41.257H133.421V39.843H139.27V39.712C139.245 39.2625 139.152 38.8255 138.989 38.4009C138.832 37.9766 138.582 37.627 138.238 37.3522C137.893 37.0776 137.424 36.9401 136.829 36.9401C136.435 36.9401 136.072 37.0244 135.74 37.1931C135.408 37.3553 135.123 37.5989 134.885 37.9234C134.647 38.2481 134.463 38.6445 134.331 39.1127C134.2 39.5809 134.134 40.1209 134.134 40.7326V41.1259C134.134 41.6066 134.2 42.0592 134.331 42.4838C134.469 42.902 134.666 43.2704 134.923 43.5887C135.186 43.9071 135.502 44.1569 135.871 44.3379C136.247 44.5188 136.673 44.6095 137.148 44.6095C137.762 44.6095 138.281 44.4845 138.707 44.2349C139.133 43.9851 139.505 43.6513 139.824 43.233L140.876 44.0662C140.657 44.3972 140.378 44.7125 140.04 45.012C139.702 45.3117 139.286 45.5553 138.792 45.7425C138.303 45.9297 137.724 46.0235 137.054 46.0235Z" fill="black"/>
<mask id="mask0_128_2328" style="mask-type:luminance" maskUnits="userSpaceOnUse" x="0" y="0" width="146" height="23">
<path d="M145.297 0H0V22.8544H145.297V0Z" fill="white"/>
</mask>
<g mask="url(#mask0_128_2328)">
<path d="M94.8389 0.52685H82.951C82.8189 0.52685 82.7528 0.592713 82.7528 0.724437C82.4226 6.05934 81.4319 11.8553 79.979 16.5316V16.7292C80.0451 16.795 80.111 16.795 80.1772 16.795H84.2718C84.338 16.795 84.47 16.7292 84.47 16.6633C85.5927 13.0408 86.5173 8.29868 86.8475 4.28104H90.7442V16.5974C90.7442 16.7292 90.8101 16.795 90.9424 16.795H94.8389C94.9709 16.795 95.037 16.7292 95.037 16.5974V0.7903C95.037 0.658576 94.9709 0.52685 94.8389 0.52685ZM145.098 0.52685H141.202C141.07 0.52685 141.004 0.592713 141.004 0.724437V12.975C140.145 13.2384 139.287 13.3043 138.362 13.3043C135.786 13.3043 135.192 12.5139 135.192 9.08904V0.7903C135.192 0.658576 135.126 0.592713 134.993 0.592713H131.097C130.965 0.592713 130.899 0.658576 130.899 0.7903V9.61595C130.899 15.1484 132.748 17.3219 137.569 17.3219C140.277 17.3219 143.381 16.5974 145.164 15.9388C145.23 15.9388 145.296 15.8071 145.296 15.7412V0.7903C145.296 0.658576 145.23 0.52685 145.098 0.52685ZM62.8737 0.592713H58.911C58.779 0.592713 58.7129 0.658574 58.7129 0.724437C58.1184 3.16138 56.8637 7.24487 55.1465 11.526L51.1839 0.658574C51.1839 0.592713 51.0518 0.52685 50.9857 0.52685H47.0231C46.9569 0.52685 46.891 0.592713 46.8249 0.592713C46.7588 0.658574 46.7588 0.724437 46.8249 0.7903L52.7688 16.9926C52.1746 18.244 51.5801 19.2978 51.0518 20.2857C50.6555 21.0103 50.2593 21.7347 49.863 22.5251C49.7969 22.591 49.863 22.6568 49.863 22.7227C49.9291 22.7884 49.995 22.8544 50.0611 22.8544H54.3539C54.42 22.8544 54.486 22.7884 54.5521 22.7227C55.2785 21.3395 56.2031 19.3637 57.0618 17.3878C59.5713 11.4601 61.6187 5.92761 63.1377 0.856164C63.1377 0.7903 63.1377 0.724437 63.0718 0.658574C63.0057 0.592713 62.9396 0.592713 62.8737 0.592713ZM77.0071 13.0408C77.0071 12.975 76.941 12.9091 76.8748 12.9091H76.6767C75.7521 13.2384 73.969 13.5677 72.7141 13.5677C70.0064 13.5677 68.7516 12.8432 68.7516 8.69386C68.7516 5.4007 69.1477 3.82001 72.7141 3.82001C73.7048 3.82001 74.6955 3.95173 75.8843 4.34689C76.0164 4.34689 76.0825 4.34689 76.1484 4.21519C76.6108 3.35895 77.1391 2.37102 77.7335 1.05375V0.856164C77.7335 0.7903 77.6674 0.724437 77.6015 0.724437C76.0164 0.197534 74.1011 -0.065918 72.45 -0.065918C66.7702 -0.065918 64.2604 2.5686 64.2604 8.56214C64.2604 14.6215 66.7702 17.3219 72.45 17.3219C73.837 17.3219 76.6767 16.9926 77.9976 16.4657C78.1298 16.3998 78.1298 16.334 78.1298 16.2022L77.0071 13.0408ZM113.925 0.592713H109.963C109.897 0.592713 109.765 0.658574 109.765 0.724437C109.17 3.16138 107.915 7.24487 106.199 11.526L102.236 0.658574C102.236 0.592713 102.104 0.52685 102.038 0.52685H98.0751C98.009 0.52685 97.9429 0.592713 97.8769 0.592713C97.8108 0.658574 97.8108 0.724437 97.8769 0.7903L103.821 16.9926C103.226 18.244 102.632 19.2319 102.104 20.2857C101.707 21.0103 101.311 21.7347 100.915 22.5251C100.849 22.591 100.915 22.6568 100.915 22.7227C100.981 22.7884 101.047 22.8544 101.113 22.8544H105.406C105.472 22.8544 105.538 22.7884 105.604 22.7227C106.331 21.3395 107.255 19.3637 108.114 17.3878C110.623 11.4601 112.671 5.92761 114.124 0.856164C114.124 0.7903 114.124 0.724437 114.058 0.658574C114.058 0.592713 113.992 0.592713 113.925 0.592713ZM128.455 0.52685H116.964C116.832 0.52685 116.765 0.592713 116.765 0.724437V16.5974C116.765 16.7292 116.832 16.795 116.964 16.795H120.86C120.992 16.795 121.058 16.7292 121.058 16.5974V4.34689H127.068C127.134 4.34689 127.267 4.28104 127.267 4.21519C127.729 3.16138 128.191 1.97584 128.653 0.856164V0.658574C128.587 0.592713 128.521 0.52685 128.455 0.52685Z" fill="#EE3F58"/>
<path d="M20.6717 13.6995C18.096 13.6995 17.3035 12.975 17.3035 8.69392C17.3035 4.0835 18.1621 3.68832 20.6717 3.68832C23.1815 3.68832 24.1061 4.0835 24.1061 8.69392C24.1061 13.0409 23.2474 13.6995 20.6717 13.6995ZM20.6717 0.065863C15.058 0.065863 12.8786 2.43693 12.8786 8.62805C12.8786 14.885 15.058 17.322 20.6717 17.322C26.2854 17.322 28.5309 14.885 28.5309 8.62805C28.5309 2.5028 26.2854 0.065863 20.6717 0.065863ZM43.9852 13.0409C43.9852 12.975 43.9193 12.9091 43.8532 12.9091H43.655C42.7304 13.2385 40.9472 13.5678 39.6924 13.5678C36.9845 13.5678 35.7297 12.8433 35.7297 8.69392C35.7297 5.40076 36.126 3.82005 39.6924 3.82005C40.6831 3.82005 41.6738 3.95177 42.8625 4.34695C42.9286 4.34695 43.0606 4.34695 43.1267 4.21522C43.5889 3.35901 44.1174 2.37108 44.7117 1.05381V0.85622C44.7117 0.790356 44.6458 0.724493 44.5796 0.724493C43.0606 0.263453 41.1453 0 39.4943 0C33.8144 0 31.3049 2.63453 31.3049 8.62805C31.3049 14.6874 33.8144 17.3878 39.4943 17.3878C40.8813 17.3878 43.7212 17.0585 45.042 16.5316C45.1741 16.4657 45.1741 16.3999 45.1741 16.2682L43.9852 13.0409ZM11.6898 0.526904H0.198132C0.0660439 0.526904 0 0.65863 0 0.790356V16.6633C0 16.7951 0.0660439 16.8609 0.198132 16.8609H4.09472C4.2268 16.8609 4.29286 16.7951 4.29286 16.6633V4.34695H10.3028C10.3689 4.34695 10.4349 4.2811 10.501 4.21522C10.9633 3.16143 11.4256 1.97589 11.8879 0.85622V0.65863C11.8219 0.592767 11.7558 0.526904 11.6898 0.526904Z" fill="#0065B1"/>
</g>
</g>
<defs>
<clipPath id="clip0_128_2328">
<rect width="146" height="46" fill="white"/>
</clipPath>
</defs>
</svg>
