<svg width="24" height="24" viewBox="0 0 24 24" fill="none" xmlns="http://www.w3.org/2000/svg">
<path fill-rule="evenodd" clip-rule="evenodd" d="M9 3C9 2.58579 9.33579 2.25 9.75 2.25H12.879C13.4756 2.25009 14.0476 2.48707 14.4695 2.90883L14.4695 2.90889L21.0912 9.53051C21.5129 9.95237 21.7499 10.5245 21.75 11.121V20.25C21.75 21.0456 21.4339 21.8087 20.8713 22.3713C20.3087 22.9339 19.5456 23.25 18.75 23.25H9C8.20435 23.25 7.44129 22.9339 6.87868 22.3713C6.31607 21.8087 6 21.0456 6 20.25V14.25C6 13.8358 6.33579 13.5 6.75 13.5C7.16421 13.5 7.5 13.8358 7.5 14.25V20.25C7.5 20.6478 7.65804 21.0294 7.93934 21.3107C8.22064 21.592 8.60217 21.75 9 21.75H18.75C19.1478 21.75 19.5294 21.592 19.8107 21.3107C20.092 21.0294 20.25 20.6478 20.25 20.25V11.1212C20.25 11.1212 20.25 11.1211 20.25 11.1211C20.2499 10.9223 20.171 10.7317 20.0305 10.5911C20.0304 10.5911 20.0304 10.5911 20.0304 10.5911L13.4089 3.96961C13.2684 3.82905 13.0777 3.75006 12.8789 3.75C12.8789 3.75 12.8788 3.75 12.8788 3.75H9.75C9.33579 3.75 9 3.41421 9 3Z" fill="#9F7148"/>
<path fill-rule="evenodd" clip-rule="evenodd" d="M13.5 2.625C13.9142 2.625 14.25 2.96079 14.25 3.375V9C14.25 9.19891 14.329 9.38968 14.4697 9.53033C14.6103 9.67098 14.8011 9.75 15 9.75H20.625C21.0392 9.75 21.375 10.0858 21.375 10.5C21.375 10.9142 21.0392 11.25 20.625 11.25H15C14.4033 11.25 13.831 11.0129 13.409 10.591C12.9871 10.169 12.75 9.59674 12.75 9V3.375C12.75 2.96079 13.0858 2.625 13.5 2.625Z" fill="#9F7148"/>
<path fill-rule="evenodd" clip-rule="evenodd" d="M6.41013 2.74085C6.16083 3.05516 6 3.53435 6 4.125V10.875C6 11.0088 6.04856 11.0916 6.10919 11.1473C6.17915 11.2116 6.27828 11.25 6.375 11.25H6.37994L6.38488 11.2501C6.43301 11.2507 6.48078 11.2417 6.52538 11.2236C6.56997 11.2054 6.61048 11.1786 6.64452 11.1445C6.67856 11.1105 6.70543 11.07 6.72356 11.0254C6.74169 10.9808 6.7507 10.933 6.75006 10.8849L6.75 10.8799V3.75C6.75 3.33579 7.08579 3 7.5 3C7.91421 3 8.25 3.33579 8.25 3.75V10.8707C8.25251 11.1172 8.20599 11.3618 8.11313 11.5903C8.01957 11.8204 7.88086 12.0295 7.70518 12.2052C7.5295 12.3809 7.32042 12.5196 7.09026 12.6131C6.86162 12.7061 6.61679 12.7526 6.37003 12.75C5.45536 12.7474 4.5 12.0436 4.5 10.875V4.125C4.5 3.28174 4.72752 2.44843 5.23491 1.80872C5.75796 1.14926 6.53839 0.75 7.5 0.75C8.45504 0.75 9.2356 1.13684 9.76161 1.79002C10.2722 2.42402 10.5 3.25249 10.5 4.09594V10.5998C10.5 12.9413 8.94335 15 6.375 15C3.80671 15 2.25 12.9418 2.25 10.5998V6.75C2.25 6.33579 2.58579 6 3 6C3.41421 6 3.75 6.33579 3.75 6.75V10.5998C3.75 12.2901 4.80141 13.5 6.375 13.5C7.94853 13.5 9 12.2897 9 10.5998V4.09594C9 3.50594 8.83946 3.03645 8.59335 2.73084C8.36268 2.44441 8.01824 2.25 7.5 2.25C6.98833 2.25 6.64376 2.44629 6.41013 2.74085Z" fill="#9F7148"/>
</svg>
