<svg width="16" height="16" viewBox="0 0 16 16" fill="none" xmlns="http://www.w3.org/2000/svg">
<path fill-rule="evenodd" clip-rule="evenodd" d="M11.3788 3.41406C11.5115 3.41399 11.6388 3.46667 11.7326 3.56051L12.4395 4.26738C12.5333 4.36122 12.586 4.48851 12.586 4.62122C12.5859 4.75393 12.533 4.88116 12.4391 4.97489L3.7591 13.6352C3.72225 13.672 3.67989 13.7028 3.63355 13.7264L2.22761 14.4452C2.03452 14.5439 1.79982 14.5069 1.64648 14.3536C1.49313 14.2002 1.4561 13.9655 1.5548 13.7724L2.27355 12.3662C2.29724 12.3198 2.32804 12.2775 2.36482 12.2406L11.0251 3.5609C11.1189 3.46696 11.2461 3.41414 11.3788 3.41406Z" fill="#9F7148"/>
<path fill-rule="evenodd" clip-rule="evenodd" d="M12.7929 1.79291C12.9804 1.60551 13.2347 1.50024 13.4998 1.50024C13.7649 1.50024 14.0191 1.60551 14.2066 1.79291L13.8532 2.14655L14.2069 1.79314C14.3943 1.98065 14.4995 2.23491 14.4995 2.50001C14.4995 2.76512 14.3943 3.01937 14.2069 3.20689L13.5 3.91411C13.4062 4.00793 13.279 4.06064 13.1463 4.06064C13.0137 4.06064 12.8865 4.00793 12.7927 3.91411L12.0858 3.20693C11.8906 3.01165 11.8907 2.69513 12.0859 2.4999L12.7928 1.79302L13.1463 2.14657L12.7929 1.79291Z" fill="#9F7148"/>
</svg>
