<svg width="24" height="24" viewBox="0 0 24 24" fill="none" xmlns="http://www.w3.org/2000/svg">
<path fill-rule="evenodd" clip-rule="evenodd" d="M5.25 6C5.05109 6 4.86032 6.07902 4.71967 6.21967C4.57902 6.36032 4.5 6.55109 4.5 6.75V15C4.5 15.4142 4.16421 15.75 3.75 15.75C3.33579 15.75 3 15.4142 3 15V6.75C3 6.15326 3.23705 5.58097 3.65901 5.15901C4.08097 4.73705 4.65326 4.5 5.25 4.5C5.84674 4.5 6.41903 4.73705 6.84099 5.15901C7.26295 5.58097 7.5 6.15326 7.5 6.75V12C7.5 12.4142 7.16421 12.75 6.75 12.75C6.33579 12.75 6 12.4142 6 12V6.75C6 6.55109 5.92098 6.36032 5.78033 6.21967C5.63968 6.07902 5.44891 6 5.25 6Z" fill="#9F7148"/>
<path fill-rule="evenodd" clip-rule="evenodd" d="M8.25 3C8.05109 3 7.86032 3.07902 7.71967 3.21967C7.57902 3.36032 7.5 3.55109 7.5 3.75V12C7.5 12.4142 7.16421 12.75 6.75 12.75C6.33579 12.75 6 12.4142 6 12V3.75C6 3.15326 6.23705 2.58097 6.65901 2.15901C7.08097 1.73705 7.65326 1.5 8.25 1.5C8.84674 1.5 9.41903 1.73705 9.84099 2.15901C10.2629 2.58097 10.5 3.15326 10.5 3.75V11.25C10.5 11.6642 10.1642 12 9.75 12C9.33579 12 9 11.6642 9 11.25V3.75C9 3.55109 8.92098 3.36032 8.78033 3.21967C8.63968 3.07902 8.44891 3 8.25 3Z" fill="#9F7148"/>
<path fill-rule="evenodd" clip-rule="evenodd" d="M14.25 3.75C14.0511 3.75 13.8603 3.82902 13.7197 3.96967C13.579 4.11032 13.5 4.30109 13.5 4.5V11.2969C13.5 11.7111 13.1642 12.0469 12.75 12.0469C12.3358 12.0469 12 11.7111 12 11.2969V4.5C12 3.90326 12.2371 3.33097 12.659 2.90901C13.081 2.48705 13.6533 2.25 14.25 2.25C14.8467 2.25 15.419 2.48705 15.841 2.90901C16.2629 3.33097 16.5 3.90326 16.5 4.5V15C16.5 15.4142 16.1642 15.75 15.75 15.75C15.3358 15.75 15 15.4142 15 15V4.5C15 4.30109 14.921 4.11032 14.7803 3.96967C14.6397 3.82902 14.4489 3.75 14.25 3.75Z" fill="#9F7148"/>
<path fill-rule="evenodd" clip-rule="evenodd" d="M11.25 1.5C11.0511 1.5 10.8603 1.57902 10.7197 1.71967C10.579 1.86032 10.5 2.05109 10.5 2.25V11.25C10.5 11.6642 10.1642 12 9.75 12C9.33579 12 9 11.6642 9 11.25V2.25C9 1.65326 9.23705 1.08097 9.65901 0.65901C10.081 0.237053 10.6533 0 11.25 0C11.8467 0 12.419 0.237053 12.841 0.65901C13.2629 1.08097 13.5 1.65326 13.5 2.25V11.25C13.5 11.6642 13.1642 12 12.75 12C12.3358 12 12 11.6642 12 11.25V2.25C12 2.05109 11.921 1.86032 11.7803 1.71967C11.6397 1.57902 11.4489 1.5 11.25 1.5Z" fill="#9F7148"/>
<path fill-rule="evenodd" clip-rule="evenodd" d="M16.7987 10.5294C17.4154 9.35758 18.8638 9.08474 19.9098 9.6791C19.9098 9.67913 19.9099 9.67916 19.9099 9.67918C20.4485 9.98513 20.7978 10.4532 20.9354 11.011C21.0681 11.5485 20.9918 12.113 20.7997 12.6339C20.7996 12.6341 20.7995 12.6344 20.7994 12.6346L18.3293 19.3828C18.3253 19.3936 18.3211 19.4043 18.3167 19.415C17.8093 20.6252 17.0809 21.7931 15.8744 22.6498C14.6647 23.5087 13.052 24 10.875 24C8.64122 24 6.64557 23.2517 5.21387 21.6967C3.7876 20.1476 3 17.8843 3 15C3 14.5858 3.33579 14.25 3.75 14.25C4.16421 14.25 4.5 14.5858 4.5 15C4.5 17.6188 5.2124 19.4805 6.31738 20.6807C7.41693 21.8749 8.98378 22.5 10.875 22.5C12.823 22.5 14.1097 22.0631 15.006 21.4267C15.9011 20.7912 16.4838 19.9023 16.9267 18.8507L19.3921 12.1154C19.5121 11.7904 19.5209 11.5397 19.4791 11.3704C19.4423 11.2211 19.3574 11.0904 19.1689 10.9834L19.1688 10.9833C18.77 10.7567 18.3197 10.8964 18.1393 11.2043L16.4426 15.2878C16.2837 15.6703 15.8447 15.8515 15.4622 15.6926C15.0797 15.5337 14.8985 15.0947 15.0574 14.7122L16.7697 10.591C16.7784 10.57 16.7881 10.5495 16.7987 10.5294Z" fill="#9F7148"/>
</svg>
