<svg width="24" height="24" viewBox="0 0 24 24" fill="none" xmlns="http://www.w3.org/2000/svg">
<path fill-rule="evenodd" clip-rule="evenodd" d="M11.2495 2.25001C12.5685 2.24843 13.8739 2.51519 15.0865 3.03408C16.2992 3.55303 17.3936 4.3133 18.3032 5.26863L18.3163 5.28244L19.3188 6.44861C19.5888 6.76273 19.553 7.23625 19.2389 7.50626C18.9248 7.77627 18.4513 7.74052 18.1812 7.4264L17.2039 6.28945C16.4373 5.48783 15.5163 4.84956 14.4963 4.41312C13.4707 3.97423 12.3665 3.74862 11.2509 3.75001L11.2505 3.75001H11.25C6.69546 3.75001 3 7.44547 3 12C3 16.5545 6.69544 20.25 11.2499 20.25M11.2495 2.25001C5.86678 2.25026 1.5 6.6172 1.5 12C1.5 17.383 5.86704 21.75 11.25 21.75H11.2501C13.2665 21.7499 15.2334 21.1248 16.8799 19.9608C18.5265 18.7968 19.7719 17.1511 20.4447 15.2502C20.5829 14.8598 20.3784 14.4312 19.9879 14.293C19.5974 14.1548 19.1688 14.3593 19.0306 14.7498C18.4613 16.3584 17.4075 17.751 16.0141 18.736C14.6207 19.7209 12.9563 20.2499 11.25 20.25" fill="#9F7148"/>
<path d="M21.7497 4.56654V9.74998C21.7497 9.94889 21.6707 10.1397 21.53 10.2803C21.3894 10.421 21.1986 10.5 20.9997 10.5H15.8162C15.1478 10.5 14.8131 9.69232 15.2856 9.21982L20.4695 4.03592C20.942 3.56248 21.7497 3.8981 21.7497 4.56654Z" fill="#9F7148"/>
</svg>
