<svg width="24" height="24" viewBox="0 0 24 24" fill="none" xmlns="http://www.w3.org/2000/svg">
<path fill-rule="evenodd" clip-rule="evenodd" d="M21 10.5C21.4142 10.5 21.75 10.8358 21.75 11.25V21C21.75 21.4142 21.4142 21.75 21 21.75C20.5858 21.75 20.25 21.4142 20.25 21V11.25C20.25 10.8358 20.5858 10.5 21 10.5Z" fill="#9F7148"/>
<path fill-rule="evenodd" clip-rule="evenodd" d="M3 10.5C3.41421 10.5 3.75 10.8358 3.75 11.25V21C3.75 21.4142 3.41421 21.75 3 21.75C2.58579 21.75 2.25 21.4142 2.25 21V11.25C2.25 10.8358 2.58579 10.5 3 10.5Z" fill="#9F7148"/>
<path fill-rule="evenodd" clip-rule="evenodd" d="M3.04862 3.36535C3.57846 2.20923 4.78382 1.5 6.0709 1.5H17.9275C19.2145 1.5 20.4199 2.20923 20.9497 3.36535L20.9498 3.3655L22.9793 7.79671C22.9794 7.79683 22.9794 7.79695 22.9795 7.79707C23.9176 9.84311 22.3284 12.0243 20.1089 12.0934C20.1012 12.0936 20.0934 12.0938 20.0856 12.0938H19.9942C18.9406 12.0938 17.9654 11.6361 17.3293 10.8981C16.6929 11.6362 15.7175 12.0938 14.664 12.0938C13.6125 12.0938 12.649 11.613 12.0155 10.8801C11.3806 11.6285 10.3991 12.0938 9.33668 12.0938C8.27631 12.0938 7.30523 11.6048 6.67188 10.8614C6.03864 11.6052 5.06725 12.0938 4.00652 12.0938H3.91277C3.90512 12.0938 3.89747 12.0936 3.88982 12.0934C1.66951 12.0254 0.0809807 9.84364 1.01886 7.79707C1.01889 7.797 1.01892 7.79694 1.01895 7.79688L3.04862 3.36535ZM7.42137 8.89547C7.42137 9.70454 8.23537 10.5938 9.33668 10.5938C10.4546 10.5938 11.2492 9.77583 11.2492 8.89547C11.2492 8.48126 11.585 8.14547 11.9992 8.14547C12.4134 8.14547 12.7492 8.48126 12.7492 8.89547C12.7492 9.7047 13.5629 10.5938 14.664 10.5938C15.783 10.5938 16.5793 9.77484 16.5793 8.89547C16.5793 8.48126 16.9151 8.14547 17.3293 8.14547C17.7436 8.14547 18.0793 8.48126 18.0793 8.89547C18.0793 9.77501 18.8754 10.5938 19.9942 10.5938H20.073C21.3676 10.5469 22.0432 9.35362 21.6159 8.42204L21.6157 8.42168L19.5861 3.99028C19.5861 3.99023 19.5861 3.99017 19.586 3.99012C19.3227 3.4157 18.6831 3 17.9275 3H6.0709C5.31524 3 4.67565 3.4157 4.41231 3.99012C4.41229 3.99017 4.41226 3.99023 4.41224 3.99028L2.38254 8.42187C1.9549 9.35488 2.63116 10.5478 3.92511 10.5938H4.00652C5.10813 10.5938 5.92137 9.70661 5.92137 8.89547C5.92137 8.48126 6.25715 8.14547 6.67137 8.14547C7.08558 8.14547 7.42137 8.48126 7.42137 8.89547Z" fill="#9F7148"/>
<path fill-rule="evenodd" clip-rule="evenodd" d="M0.75 21.75C0.75 21.3358 1.08579 21 1.5 21H22.5C22.9142 21 23.25 21.3358 23.25 21.75C23.25 22.1642 22.9142 22.5 22.5 22.5H1.5C1.08579 22.5 0.75 22.1642 0.75 21.75Z" fill="#9F7148"/>
<path fill-rule="evenodd" clip-rule="evenodd" d="M6.375 14.25C6.27554 14.25 6.18016 14.2895 6.10983 14.3598C6.03951 14.4302 6 14.5255 6 14.625V18H10.5V14.625C10.5 14.5255 10.4605 14.4302 10.3902 14.3598C10.3198 14.2895 10.2245 14.25 10.125 14.25H6.375ZM5.04917 13.2992C5.4008 12.9475 5.87772 12.75 6.375 12.75H10.125C10.6223 12.75 11.0992 12.9475 11.4508 13.2992C11.8025 13.6508 12 14.1277 12 14.625V18.75C12 19.1642 11.6642 19.5 11.25 19.5H5.25C4.83579 19.5 4.5 19.1642 4.5 18.75V14.625C4.5 14.1277 4.69754 13.6508 5.04917 13.2992Z" fill="#9F7148"/>
<path fill-rule="evenodd" clip-rule="evenodd" d="M14.625 14.25C14.5255 14.25 14.4302 14.2895 14.3598 14.3598C14.2895 14.4302 14.25 14.5255 14.25 14.625V21.75C14.25 22.1642 13.9142 22.5 13.5 22.5C13.0858 22.5 12.75 22.1642 12.75 21.75V14.625C12.75 14.1277 12.9475 13.6508 13.2992 13.2992C13.6508 12.9475 14.1277 12.75 14.625 12.75H17.625C18.1223 12.75 18.5992 12.9475 18.9508 13.2992C19.3025 13.6508 19.5 14.1277 19.5 14.625V21.75C19.5 22.1642 19.1642 22.5 18.75 22.5C18.3358 22.5 18 22.1642 18 21.75V14.625C18 14.5255 17.9605 14.4302 17.8902 14.3598C17.8198 14.2895 17.7245 14.25 17.625 14.25H14.625Z" fill="#9F7148"/>
</svg>
