<svg width="16" height="16" viewBox="0 0 16 16" fill="none" xmlns="http://www.w3.org/2000/svg">
<path fill-rule="evenodd" clip-rule="evenodd" d="M2.44831 4.00266C2.72297 3.97409 2.96879 4.17359 2.99736 4.44825L3.8932 13.0612C3.90807 13.1818 3.96635 13.2928 4.05718 13.3736C4.14871 13.455 4.26694 13.5 4.38943 13.5H11.611C11.7335 13.5 11.8517 13.455 11.9432 13.3736C12.034 13.2928 12.0923 13.1818 12.1072 13.0612L13.0027 4.44827C13.0313 4.17361 13.2771 3.9741 13.5517 4.00266C13.8264 4.03122 14.0259 4.27703 13.9974 4.55169L13.1014 13.1686C13.1012 13.1708 13.1009 13.173 13.1007 13.1753C13.0577 13.5402 12.8823 13.8767 12.6077 14.1209C12.3331 14.3651 11.9784 14.5 11.611 14.5H4.3894C4.02194 14.5 3.66727 14.3651 3.39267 14.1209C3.11808 13.8767 2.94266 13.5402 2.89972 13.1753C2.89951 13.1736 2.89932 13.1718 2.89913 13.1701L2.89897 13.1686L2.00272 4.55171C1.97415 4.27704 2.17365 4.03123 2.44831 4.00266Z" fill="#9F7148"/>
<path fill-rule="evenodd" clip-rule="evenodd" d="M0.5 2.5C0.5 1.94772 0.947715 1.5 1.5 1.5H14.5C15.0523 1.5 15.5 1.94772 15.5 2.5V4C15.5 4.55228 15.0523 5 14.5 5H1.5C0.947715 5 0.5 4.55228 0.5 4V2.5ZM14.5 2.5H1.5V4H14.5V2.5Z" fill="#9F7148"/>
<path fill-rule="evenodd" clip-rule="evenodd" d="M10.1036 7.14645C10.2988 7.34171 10.2988 7.65829 10.1036 7.85355L6.60355 11.3536C6.40829 11.5488 6.09171 11.5488 5.89645 11.3536C5.70118 11.1583 5.70118 10.8417 5.89645 10.6464L9.39645 7.14645C9.59171 6.95118 9.90829 6.95118 10.1036 7.14645Z" fill="#9F7148"/>
<path fill-rule="evenodd" clip-rule="evenodd" d="M5.89645 7.14645C6.09171 6.95118 6.40829 6.95118 6.60355 7.14645L10.1036 10.6464C10.2988 10.8417 10.2988 11.1583 10.1036 11.3536C9.90829 11.5488 9.59171 11.5488 9.39645 11.3536L5.89645 7.85355C5.70118 7.65829 5.70118 7.34171 5.89645 7.14645Z" fill="#9F7148"/>
</svg>
