<svg width="487" height="568" viewBox="0 0 487 568" fill="none" xmlns="http://www.w3.org/2000/svg">
<mask id="mask0_265_14294" style="mask-type:luminance" maskUnits="userSpaceOnUse" x="0" y="-220" width="487" height="788">
<path d="M0 -220H486.918V567.643H0V-220Z" fill="white"/>
</mask>
<g mask="url(#mask0_265_14294)">
<path fill-rule="evenodd" clip-rule="evenodd" d="M809.361 106.18L855.946 157.98C883.706 157.297 956.961 116.512 973.071 81.4895C956.961 46.4722 883.706 5.68683 855.946 5.00458L809.361 56.8043C817.838 67.5239 822.836 74.8168 824.371 81.4895C822.836 88.1621 817.838 95.455 809.361 106.18ZM446.887 98.0135L336.646 230.376L471.35 120.471C470.673 183.823 455.111 227.988 420.786 258.183C392.989 282.625 339.298 299.144 299.339 298.762C269.387 298.478 269.036 299.702 268.555 270.464C267.677 217.072 277.502 179.796 307.335 144.753C337.194 109.684 398.912 91.5889 446.887 98.0135ZM470.394 41.4587L338.037 -68.7823L447.942 65.9217C384.585 65.2446 340.424 49.6819 310.23 15.3521C285.782 -12.4395 269.268 -66.1308 269.646 -106.089C269.935 -136.041 268.71 -136.393 297.949 -136.873C351.341 -137.752 388.611 -127.927 423.654 -98.0934C458.729 -68.2345 476.824 -6.51624 470.394 41.4587ZM503.442 41.4587L635.805 -68.7823L525.9 65.9217C589.251 65.2446 633.417 49.6819 663.612 15.3521C688.054 -12.4395 704.573 -66.1308 704.196 -106.089C703.906 -136.041 705.131 -136.393 675.892 -136.873C622.501 -137.752 585.225 -127.927 550.182 -98.0934C515.113 -68.2345 497.017 -6.51624 503.442 41.4587ZM526.954 98.0135L637.195 230.376L502.491 120.471C503.163 183.823 518.726 227.988 553.055 258.183C580.852 282.625 634.544 299.144 674.502 298.762C704.449 298.478 704.805 299.702 705.286 270.464C706.16 217.072 696.339 179.796 666.506 144.753C636.647 109.684 574.924 91.5889 526.954 98.0135ZM394.478 314.19C360.329 325.974 341.003 325.783 301.887 328.357C295.391 354.882 325.523 422.56 352.509 448.057C379.468 439.162 427.572 400.03 439.569 382.829C436.245 380.038 401.29 330.115 394.478 314.19ZM254.217 -10.9509C242.438 -45.0998 242.629 -64.4252 240.056 -103.541C213.525 -110.038 145.853 -79.9052 120.356 -52.9199C129.246 -25.9657 168.383 22.1436 185.579 34.14C188.375 30.8165 238.298 -4.13867 254.217 -10.9509ZM486.918 223.486C498.527 249.732 514.668 268.04 549.66 301.682C541.25 331.221 495.033 382.421 486.918 381.728C478.803 382.421 432.586 331.221 424.176 301.682C459.168 268.04 475.315 249.732 486.918 223.486ZM344.921 81.4895C318.68 93.0981 300.373 109.24 266.731 144.231C237.192 135.822 185.992 89.6042 186.685 81.4895C185.992 73.3748 237.192 27.1572 266.731 18.7479C300.373 53.7393 318.68 69.886 344.921 81.4895ZM579.364 314.19C613.513 325.974 632.838 325.783 671.954 328.357C678.446 354.882 648.313 422.56 621.333 448.057C594.373 439.162 546.269 400.03 534.273 382.829C537.596 380.038 572.551 330.115 579.364 314.19ZM254.217 173.935C242.438 208.084 242.629 227.409 240.056 266.525C213.525 273.017 145.853 242.884 120.356 215.904C129.246 188.945 168.383 140.84 185.579 128.844C188.375 132.168 238.298 167.123 254.217 173.935ZM511.608 403.932L563.408 450.517C562.726 478.278 521.94 551.532 486.918 567.643C451.901 551.532 411.115 478.278 410.433 450.517L462.233 403.932C472.953 412.409 480.245 417.407 486.918 418.942C493.591 417.407 500.884 412.409 511.608 403.932ZM164.48 106.18L117.896 157.98C90.1352 157.297 16.8807 116.512 0.770142 81.4895C16.8807 46.4722 90.1352 5.68683 117.896 5.00458L164.48 56.8043C156.004 67.5239 151.006 74.8168 149.471 81.4895C151.006 88.1621 156.004 95.455 164.48 106.18ZM394.478 -151.211C360.329 -162.99 341.003 -162.799 301.887 -165.373C295.391 -191.903 325.523 -259.576 352.509 -285.073C379.468 -276.183 427.572 -237.046 439.569 -219.85C436.245 -217.054 401.29 -167.13 394.478 -151.211ZM719.624 -10.9509C731.403 -45.0998 731.212 -64.4252 733.786 -103.541C760.311 -110.038 827.989 -79.9052 853.485 -52.9199C844.59 -25.9657 805.459 22.1436 788.263 34.14C785.467 30.8165 735.543 -4.13867 719.624 -10.9509ZM486.918 -60.5074C498.527 -86.7484 514.668 -105.056 549.66 -138.698C541.25 -168.236 495.033 -219.437 486.918 -218.744C478.803 -219.437 432.586 -168.236 424.176 -138.698C459.168 -105.056 475.315 -86.7484 486.918 -60.5074ZM628.92 81.4895C655.161 93.0981 673.468 109.24 707.111 144.231C736.649 135.822 787.849 89.6042 787.157 81.4895C787.849 73.3748 736.649 27.1572 707.111 18.7479C673.468 53.7393 655.161 69.886 628.92 81.4895ZM579.364 -151.211C613.513 -162.99 632.838 -162.799 671.954 -165.373C678.446 -191.903 648.313 -259.576 621.333 -285.073C594.373 -276.183 546.269 -237.046 534.273 -219.85C537.596 -217.054 572.551 -167.13 579.364 -151.211ZM719.624 173.935C731.403 208.084 731.212 227.409 733.786 266.525C760.311 273.017 827.989 242.884 853.485 215.904C844.59 188.945 805.459 140.84 788.263 128.844C785.467 132.168 735.543 167.123 719.624 173.935ZM511.608 -240.953L563.408 -287.533C562.726 -315.293 521.94 -388.548 486.918 -404.658C451.901 -388.548 411.115 -315.293 410.433 -287.533L462.233 -240.953C472.953 -249.425 480.245 -254.423 486.918 -255.958C493.591 -254.423 500.884 -249.425 511.608 -240.953Z" fill="#4D2909" fill-opacity="0.03"/>
</g>
</svg>
