<svg width="100" height="100" viewBox="0 0 100 100" fill="none" xmlns="http://www.w3.org/2000/svg">
<path fill-rule="evenodd" clip-rule="evenodd" d="M50 0C77.6143 0 100 22.3857 100 50C100 77.6143 77.6143 100 50 100C22.3857 100 0 77.6143 0 50C0 22.3857 22.3857 0 50 0Z" fill="#945A2B"/>
<path fill-rule="evenodd" clip-rule="evenodd" d="M49.9999 2.33105C76.3268 2.33105 97.6688 23.673 97.6688 49.9992C97.6688 76.3261 76.3268 97.6674 49.9999 97.6674C23.6737 97.6674 2.33173 76.3255 2.33173 49.9992C2.33108 23.673 23.673 2.33105 49.9999 2.33105Z" fill="#3C1D02"/>
<path d="M13.107 71.8404L11.3765 72.7766L8.24063 66.9811L9.97118 66.0449L10.5109 67.0427L9.81698 67.4878L10.4616 68.6793L15.0423 66.2004L14.8052 65.441L15.5924 65.0147L17.0437 67.6971L16.2565 68.1234L15.7505 67.5092L11.1698 69.9874L11.8145 71.1795L12.5667 70.8413L13.107 71.8404ZM12.154 63.5161L12.0509 63.5466C11.265 63.7766 10.5562 63.7455 9.92388 63.452C9.29347 63.1578 8.86391 62.6233 8.6365 61.8458C8.40714 61.0632 8.47776 60.379 8.84966 59.7913C9.21961 59.2037 9.80078 58.7929 10.5899 58.5616L10.6929 58.5312C11.4853 58.2992 12.1961 58.331 12.8252 58.6258C13.4524 58.9212 13.88 59.4557 14.1074 60.2313C14.3374 61.0152 14.2661 61.6994 13.8975 62.2864C13.5282 62.8747 12.947 63.2835 12.154 63.5161ZM11.7322 62.0882C12.2116 61.9476 12.5712 61.75 12.8135 61.4966C13.0539 61.2433 13.1193 60.9297 13.0092 60.5533C12.9016 60.1872 12.6768 59.9617 12.3354 59.8775C11.9946 59.7933 11.5851 59.8211 11.1089 59.9604L11.0072 59.9902C10.5413 60.1269 10.185 60.3252 9.94073 60.5831C9.69647 60.8409 9.62714 61.1539 9.73534 61.5238C9.84354 61.8938 10.0703 62.1186 10.4143 62.2002C10.7584 62.2819 11.1646 62.2547 11.6305 62.1186L11.7322 62.0882ZM8.38965 57.1032L7.49684 57.1706L7.33356 55.013L7.96657 54.8938C7.71777 54.7494 7.51951 54.5692 7.37438 54.3541C7.22731 54.139 7.14373 53.8812 7.12105 53.5818C7.06922 52.9022 7.29404 52.354 7.79682 51.9387C8.29765 51.5234 8.98054 51.2837 9.84614 51.2183L9.95174 51.2105C10.7629 51.149 11.4296 51.2863 11.9505 51.6245C12.4721 51.9627 12.7578 52.4681 12.8083 53.1413C12.8297 53.427 12.7954 53.6849 12.7053 53.9149C12.6153 54.1462 12.4721 54.3483 12.2777 54.5213L13.8677 54.4008L13.9674 53.6939L14.8603 53.6259L15.078 56.5013L14.1851 56.5693L13.9804 55.8851L8.4823 56.3017L8.38965 57.1032ZM11.2916 54.5952C11.4406 54.4915 11.5488 54.36 11.6181 54.198C11.6875 54.0341 11.7127 53.8397 11.6952 53.611C11.668 53.2547 11.508 53.0039 11.2152 52.8575C10.9223 52.7123 10.5355 52.6586 10.0561 52.6949L9.95109 52.7026C9.43407 52.7422 9.02135 52.8601 8.71295 53.0557C8.40585 53.2514 8.2646 53.5261 8.29181 53.8792C8.30866 54.1008 8.36762 54.2861 8.47128 54.4364C8.57495 54.5854 8.7136 54.6982 8.89048 54.7772L11.2916 54.5952ZM12.4747 49.8454L11.5819 49.7773L11.4886 48.9875L8.09485 48.731L7.88687 49.4981L6.99406 49.4307L7.35689 44.6349L9.28764 44.7814L9.21767 45.7053L8.42399 45.7059L8.30672 47.2544L11.6007 47.5038L11.8119 46.7367L12.7047 46.8041L12.4747 49.8454ZM10.356 43.3184L10.2511 43.2951C9.45221 43.1149 8.84771 42.7431 8.43824 42.1794C8.03006 41.6157 7.91409 40.9406 8.09291 40.1502C8.27238 39.3545 8.6663 38.7909 9.27727 38.4578C9.8863 38.1242 10.5938 38.0471 11.3959 38.2285L11.5009 38.2518C12.3062 38.4338 12.912 38.807 13.3182 39.3701C13.7232 39.9331 13.8372 40.6076 13.6597 41.3967C13.4796 42.1936 13.0857 42.7573 12.4779 43.0916C11.8682 43.4253 11.1614 43.5005 10.356 43.3184ZM10.6806 41.8658C11.1679 41.9759 11.5786 41.9779 11.9129 41.8736C12.246 41.7692 12.4552 41.5269 12.5421 41.144C12.6263 40.7715 12.5388 40.4657 12.2816 40.2259C12.0244 39.9862 11.6531 39.8119 11.1692 39.7031L11.0655 39.6798C10.5919 39.5729 10.1843 39.5729 9.84549 39.6798C9.50663 39.7867 9.29412 40.0264 9.20925 40.4022C9.12437 40.7773 9.21378 41.0844 9.47424 41.3229C9.73534 41.5613 10.1034 41.7349 10.577 41.8425L10.6806 41.8658ZM14.4929 37.5696L13.6804 37.1938L13.8631 36.4182L10.7817 34.9928L10.3172 35.6381L9.50469 35.2624L9.83771 34.5426L10.8018 32.4576C11.1095 31.7928 11.4685 31.3302 11.8773 31.0704C12.2874 30.8106 12.728 30.7892 13.2003 31.0076C13.4349 31.1164 13.6066 31.2914 13.7167 31.5317C13.8256 31.7715 13.8631 32.0585 13.8256 32.3909C14.0718 32.0442 14.3368 31.8188 14.6244 31.7132C14.9114 31.6088 15.1849 31.6166 15.4479 31.7384C15.9222 31.9574 16.1975 32.2995 16.2766 32.7621C16.3543 33.226 16.2422 33.7858 15.9377 34.4447L14.4929 37.5696ZM14.4067 35.0291L14.8985 33.9659C15.008 33.7301 15.0462 33.5351 15.0119 33.3821C14.9775 33.2286 14.8765 33.1126 14.7061 33.0342C14.5376 32.9565 14.3815 32.9513 14.2396 33.0174C14.0996 33.0848 13.9726 33.2396 13.8592 33.4852L13.3675 34.5484L14.4067 35.0291ZM12.5544 34.1726L12.9314 33.3569C13.0377 33.1197 13.0733 32.9254 13.0416 32.7757C13.0079 32.626 12.9088 32.5133 12.7436 32.4369C12.5531 32.3488 12.384 32.3468 12.2375 32.4323C12.0898 32.5172 11.957 32.687 11.8391 32.9422L11.4957 33.6841L12.5544 34.1726ZM15.1933 29.8608L15.1039 29.8005C14.4236 29.3451 13.9927 28.7814 13.8132 28.1076C13.6351 27.4351 13.7698 26.7632 14.2208 26.09C14.6743 25.4123 15.2445 25.0281 15.9345 24.9367C16.6226 24.8441 17.3106 25.0268 17.9935 25.4842L18.0829 25.5438C18.7691 26.0038 19.2006 26.5694 19.3768 27.2413C19.5517 27.9119 19.4163 28.5831 18.9667 29.255C18.5118 29.934 17.9417 30.3182 17.2549 30.4115C16.5668 30.5048 15.8801 30.3202 15.1933 29.8608ZM16.0187 28.622C16.434 28.9 16.8163 29.0496 17.1661 29.0729C17.5147 29.0956 17.7972 28.9447 18.0155 28.6188C18.2281 28.3013 18.2559 27.9845 18.1024 27.6683C17.9482 27.3528 17.6644 27.056 17.2523 26.78L17.1642 26.7211C16.7606 26.4509 16.3802 26.3051 16.0252 26.2824C15.6708 26.2604 15.3864 26.4075 15.1719 26.7275C14.9574 27.0476 14.9309 27.3657 15.0883 27.6819C15.2458 27.9981 15.527 28.2929 15.9306 28.5631L16.0187 28.622ZM19.1688 24.3543L19.0211 24.215C18.4276 23.6558 18.0914 23.0312 18.0155 22.3425C17.9372 21.6538 18.1594 21.0364 18.6809 20.4882C19.1889 19.9492 19.7467 19.6835 20.3525 19.6913C20.959 19.7004 21.5388 19.9654 22.0928 20.4876L22.6798 21.0409L20.4303 23.4284L20.4458 23.4576C20.7277 23.685 21.0257 23.801 21.3425 23.8042C21.6587 23.8074 21.9444 23.6733 22.1984 23.4044C22.4232 23.166 22.5859 22.9451 22.6869 22.7416C22.7874 22.5388 22.8748 22.2946 22.95 22.0095L23.8901 22.3471C23.8661 22.636 23.7741 22.9535 23.6167 23.3001C23.4586 23.6474 23.2273 23.9817 22.9234 24.3037C22.3798 24.881 21.7611 25.168 21.0665 25.1641C20.3713 25.1603 19.7383 24.8907 19.1688 24.3543ZM19.7571 22.7967L19.7882 22.8045L21.0361 21.4802L20.9337 21.3836C20.6875 21.1517 20.4432 21.0214 20.1951 20.991C19.9476 20.9605 19.7208 21.0545 19.5161 21.2715C19.3282 21.4711 19.2615 21.7063 19.3152 21.9758C19.3703 22.246 19.518 22.5187 19.7571 22.7967ZM29.8378 15.3018L29.7659 15.1689C29.3804 14.4563 29.2644 13.7617 29.4187 13.0866C29.5729 12.4095 30.0212 11.8711 30.763 11.4701C31.1537 11.2588 31.5341 11.1273 31.9085 11.0755C32.2817 11.0256 32.6284 11.0489 32.9471 11.1507L33.6598 12.4238L32.6005 12.9965L31.9811 12.3655C31.8846 12.3447 31.7803 12.3402 31.6636 12.3557C31.549 12.3706 31.4297 12.4115 31.3073 12.4776C30.938 12.6778 30.7501 12.9531 30.7417 13.3023C30.7352 13.6515 30.8453 14.0371 31.0734 14.4588L31.146 14.593C31.3786 15.0232 31.6364 15.3316 31.9196 15.5195C32.2001 15.7067 32.5189 15.7041 32.8694 15.5143C33.1013 15.3886 33.2516 15.2208 33.3197 15.0121C33.3884 14.8035 33.3624 14.5884 33.2419 14.3655L34.4218 13.7274L34.4438 13.7351C34.7211 14.2178 34.7593 14.7264 34.5598 15.2622C34.3596 15.7968 33.9773 16.2166 33.4143 16.5211C32.6925 16.9112 32.0141 16.9844 31.3753 16.7408C30.7365 16.4958 30.2253 16.0177 29.8378 15.3018ZM35.6612 12.5566L35.5971 12.3642C35.3398 11.5899 35.3405 10.8811 35.6003 10.2384C35.8588 9.59502 36.3473 9.15705 37.0659 8.92186C37.7688 8.68862 38.3863 8.71906 38.915 9.01321C39.445 9.3093 39.8292 9.81725 40.0695 10.5403L40.3235 11.3061L37.2103 12.3402V12.3732C37.3503 12.7069 37.5576 12.9512 37.8349 13.1034C38.1122 13.2563 38.4271 13.2745 38.7776 13.1578C39.0886 13.0548 39.3368 12.9376 39.5221 12.806C39.7074 12.6752 39.8998 12.5015 40.1006 12.2864L40.768 13.0302C40.6092 13.2732 40.3786 13.509 40.0747 13.739C39.7709 13.9697 39.408 14.1543 38.9882 14.2943C38.236 14.5437 37.555 14.5029 36.9453 14.1699C36.3363 13.8369 35.9074 13.2991 35.6612 12.5566ZM36.9181 11.4642L36.9415 11.4856L38.6688 10.9122L38.6247 10.7788C38.5178 10.458 38.3649 10.2274 38.1615 10.0829C37.958 9.93842 37.7138 9.91315 37.4306 10.0077C37.1702 10.0939 37.0004 10.2695 36.9194 10.5325C36.8384 10.7962 36.8391 11.1066 36.9181 11.4642ZM41.5085 8.72685L41.3835 7.84051L43.5255 7.53793L43.6855 8.16187C43.8138 7.904 43.9809 7.69473 44.1857 7.53599C44.3904 7.37531 44.6431 7.27553 44.9405 7.23341C45.6156 7.13817 46.1767 7.32737 46.6237 7.80163C47.0708 8.2746 47.3539 8.94064 47.4751 9.79976L47.49 9.90408C47.6034 10.7101 47.5094 11.3839 47.2055 11.9255C46.9017 12.4678 46.4157 12.7853 45.7471 12.8799C45.464 12.9201 45.2035 12.9019 44.969 12.8268C44.7325 12.7516 44.5213 12.622 44.336 12.4393L44.5589 14.0183L45.2709 14.072L45.3959 14.9584L42.5406 15.3614L42.4156 14.475L43.0849 14.2262L42.3145 8.767L41.5085 8.72685ZM44.1986 11.4603C44.3114 11.6022 44.45 11.702 44.6159 11.761C44.7837 11.8193 44.98 11.8322 45.2068 11.8005C45.5605 11.75 45.8002 11.5744 45.9279 11.2731C46.0536 10.9718 46.0827 10.5818 46.0153 10.1062L46.0004 10.0013C45.9279 9.48747 45.7834 9.08384 45.5683 8.7884C45.3538 8.4949 45.0694 8.37178 44.7195 8.42103C44.4999 8.45212 44.3191 8.52339 44.1753 8.63613C44.0334 8.74886 43.9304 8.8953 43.863 9.07607L44.1986 11.4603ZM48.9776 11.1915L49.4512 11.2271C49.8134 10.8999 50.0667 10.5688 50.2099 10.2371C50.3518 9.90538 50.4541 9.42399 50.5163 8.79358L50.5882 7.98498L49.8302 7.79515L49.8982 6.90234L54.7283 7.26841L55.5188 7.32866L55.4514 8.22148L54.6577 8.29339L54.4057 11.6132L55.1942 11.6729L54.9111 14.4439L53.4993 14.3364L53.6237 12.6965L50.3958 12.4516L50.2714 14.0915L48.8596 13.9846L48.9776 11.1915ZM51.1396 11.3606L52.9213 11.4953L53.1637 8.29857L52.0583 8.215L52.002 8.89076C51.9326 9.43889 51.8251 9.91638 51.6793 10.3226C51.5322 10.7269 51.3528 11.0735 51.1396 11.3606ZM56.2956 12.7613L56.5528 11.9042L57.3446 11.9819L58.2931 8.81754L57.6173 8.35429L57.8746 7.49647L58.63 7.72324L60.0412 8.14631L60.6858 8.33938L60.4286 9.19656L59.7185 9.24451L58.7978 12.3156L60.5329 12.8358L61.4536 9.76478L60.877 9.33133L61.1342 8.4735L61.7821 8.66788L63.2081 9.0955L61.957 13.2686L62.7235 13.498L61.832 16.1162L60.5459 15.7307L61.0124 14.1751L56.2956 12.7613ZM62.8796 10.1931L63.2081 9.0955L63.9564 9.32032L63.6992 10.1775L62.8796 10.1931ZM64.6795 12.6356L64.765 12.451C65.1071 11.7111 65.593 11.1941 66.2222 10.9038C66.8506 10.6116 67.507 10.6265 68.1918 10.9472C68.8643 11.2582 69.2932 11.7033 69.4779 12.2799C69.6612 12.8579 69.5938 13.4915 69.2744 14.1835L68.9356 14.9156L65.9578 13.5382L65.9351 13.5621C65.8088 13.9016 65.7932 14.2211 65.8904 14.5223C65.9883 14.8236 66.2053 15.0523 66.5409 15.2072C66.839 15.3452 67.0994 15.4294 67.3242 15.4605C67.5484 15.4916 67.8082 15.4968 68.1017 15.478L68.0797 16.477C67.7979 16.5457 67.4681 16.5593 67.0891 16.5198C66.7094 16.4803 66.3187 16.3663 65.917 16.1803C65.1972 15.8473 64.7287 15.3517 64.5123 14.6914C64.2953 14.0312 64.351 13.3457 64.6795 12.6356ZM66.3433 12.6998L66.3459 12.7315L67.9974 13.4954L68.0564 13.3678C68.1983 13.0607 68.2443 12.7873 68.195 12.5436C68.1458 12.2987 67.9845 12.1134 67.7143 11.9884C67.4655 11.8737 67.2212 11.8847 66.9821 12.0208C66.7431 12.1581 66.5306 12.3849 66.3433 12.6998ZM72.9487 20.1513L73.5629 19.5002L74.2361 19.9246L77.8747 16.0631L77.4108 15.4164L78.025 14.7653L78.5997 15.3063L79.6707 16.3151L80.2454 16.8567L79.6312 17.5085L78.9573 17.0841L76.6113 19.5747L76.6268 19.6032L80.8654 19.447L81.1473 19.1477L80.684 18.5011L81.2976 17.8493L81.8684 18.3871L82.9465 19.403L83.5173 19.9407L82.9031 20.5919L82.2306 20.1675L78.5919 24.0284L79.0552 24.675L78.441 25.3268L76.2213 23.2347L76.8355 22.5829L77.5086 23.0073L79.8003 20.5757L79.7834 20.5478L75.5416 20.7079L75.3194 20.9456L75.7833 21.5923L75.1691 22.2434L72.9487 20.1513ZM82.6601 23.4278L83.3793 22.8945L84.6673 24.6322L84.1956 25.0715C84.4833 25.0611 84.747 25.1078 84.9841 25.2121C85.2232 25.3158 85.4318 25.4894 85.6107 25.7311C86.0169 26.2792 86.1186 26.8617 85.9145 27.4817C85.7124 28.1004 85.2621 28.6673 84.565 29.1837L84.4794 29.2466C83.8257 29.7312 83.1888 29.9703 82.5675 29.9619C81.9461 29.9541 81.4349 29.6781 81.0332 29.1364C80.8628 28.9064 80.754 28.6693 80.708 28.427C80.6613 28.1834 80.6743 27.9359 80.7462 27.6864L79.4653 28.6356L79.7582 29.2868L79.039 29.82L77.322 27.5037L78.0412 26.9705L78.579 27.4402L83.008 24.1566L82.6601 23.4278ZM81.5418 27.0968C81.4712 27.2634 81.4498 27.4331 81.477 27.6067C81.5056 27.7823 81.5885 27.9605 81.7245 28.1445C81.9371 28.4315 82.2066 28.5585 82.5325 28.5261C82.8571 28.4924 83.2134 28.3324 83.5996 28.046L83.6844 27.9832C84.1011 27.6741 84.3874 27.3547 84.5442 27.0243C84.6997 26.6951 84.6725 26.3874 84.4619 26.103C84.3298 25.9248 84.1807 25.7997 84.0129 25.7278C83.8464 25.6572 83.6683 25.6358 83.4771 25.663L81.5418 27.0968ZM83.0067 31.9969L83.8225 31.6283L84.2864 32.2762L87.4287 30.8573L87.2006 30.1031L88.017 29.7351L89.2247 32.4109L88.4083 32.7796L88.041 32.2146L87.0983 32.6397L87.3075 33.1029L88.7251 33.3672C89.0912 33.4281 89.3925 33.5299 89.6283 33.6731C89.8635 33.8143 90.0514 34.0417 90.1907 34.3501C90.26 34.5037 90.3002 34.6527 90.3138 34.7952C90.3274 34.9391 90.3255 35.0868 90.3054 35.241L89.3426 35.4017C89.3251 35.2993 89.3141 35.2332 89.3108 35.2086C89.3063 35.182 89.2901 35.138 89.2623 35.0764C89.2201 34.9831 89.1398 34.9015 89.0206 34.8315C88.9007 34.7602 88.7705 34.7123 88.6267 34.6877L87.3697 34.4752L86.1303 36.4357L86.3234 37.1672L85.5077 37.5359L84.6693 35.679L86.0791 33.7255L85.8452 33.2066L84.8993 33.6335L85.0314 34.3054L84.2157 34.6741L83.0067 31.9969ZM90.2639 37.322L91.1366 37.1205L91.7424 39.7458L90.8703 39.9467L90.6319 39.3694L88.6558 40.5985L88.2859 40.7624L88.2878 40.7942L91.0207 41.0553L90.9805 40.4268L91.8532 40.2259L92.459 42.8513L91.5869 43.0528L91.3971 42.5694L85.7338 41.8004C85.3107 41.7343 84.9401 41.6027 84.62 41.4019C84.3 41.203 84.0797 40.8428 83.9592 40.3206C83.9307 40.1987 83.9145 40.0815 83.9086 39.9707C83.9041 39.8579 83.9021 39.7264 83.9041 39.5729L84.9777 39.5016C84.9822 39.5502 84.9861 39.5994 84.9906 39.65C84.9952 39.7018 85.0023 39.7452 85.0101 39.7808C85.0658 40.0225 85.1675 40.1929 85.3139 40.2966C85.4617 40.3976 85.632 40.4618 85.8219 40.491L86.267 40.5609L90.3002 37.841L90.2639 37.322ZM90.8127 44.7567L92.6812 44.6149L93.1153 50.3339L91.2468 50.4758L91.1613 49.3445L91.883 49.2286L91.8124 48.2923L88.5185 48.5424L88.4252 49.3322L87.533 49.4003L87.3023 46.359L88.1952 46.2916L88.4064 47.0587L91.7003 46.8093L91.6303 45.8893H90.8995L90.8127 44.7567ZM90.2425 51.9763L90.3922 51.9977C91.1943 52.1111 91.8221 52.4305 92.2737 52.9553C92.7272 53.482 92.8938 54.1624 92.7758 54.9975C92.7136 55.4374 92.5931 55.8216 92.413 56.1534C92.2316 56.4831 92.0068 56.7481 91.7353 56.9445L90.2879 56.7611L90.4563 55.5683L91.3323 55.4446C91.4062 55.3798 91.4722 55.2981 91.5286 55.1958C91.585 55.0953 91.6232 54.9742 91.6426 54.8368C91.701 54.4209 91.5915 54.106 91.3155 53.8915C91.0388 53.679 90.663 53.5384 90.1881 53.4717L90.0371 53.4503C89.5532 53.3823 89.1515 53.4062 88.832 53.5222C88.5146 53.6369 88.3273 53.8941 88.2716 54.2893C88.2347 54.5505 88.2807 54.7714 88.4077 54.9502C88.5347 55.129 88.7232 55.2366 88.9739 55.2716L88.7867 56.5998L88.7673 56.6127C88.2139 56.5486 87.7824 56.2778 87.4702 55.799C87.1592 55.3208 87.0484 54.7636 87.1378 54.1293C87.2525 53.3168 87.5965 52.7279 88.1725 52.3586C88.7478 51.9893 89.4365 51.8629 90.2425 51.9763ZM86.797 57.6921L87.6561 57.9442L87.5861 58.7372L90.8943 59.7071L91.2118 58.9866L92.0709 59.2387L91.2448 62.0558L90.3857 61.8037L90.4751 61.1357L89.4825 60.8448L89.3394 61.3327L90.2432 62.4562C90.4816 62.7412 90.6436 63.0147 90.7298 63.2764C90.8159 63.5369 90.8114 63.8317 90.7155 64.1563C90.6682 64.3182 90.6021 64.4575 90.5185 64.5742C90.435 64.6921 90.3378 64.8029 90.2218 64.9065L89.3866 64.4012C89.4398 64.3118 89.4748 64.2554 89.4884 64.2334C89.5026 64.2107 89.5188 64.1666 89.5376 64.1018C89.5661 64.0034 89.5583 63.8893 89.5136 63.7585C89.4696 63.6263 89.4022 63.5051 89.3083 63.393L88.4925 62.4128L86.2754 63.093L85.9456 63.774L85.0865 63.522L85.6599 61.5672L88.0021 61.0029L88.1621 60.4567L87.1663 60.1652L86.8294 60.7606L85.9703 60.5086L86.797 57.6921ZM85.98 65.2402C86.4445 65.4858 86.7076 65.8576 86.7698 66.3572C86.8307 66.8561 86.6745 67.4606 86.3013 68.1674L85.9482 68.8361L86.4037 69.0764C86.6266 69.1937 86.8352 69.2183 87.0302 69.1496C87.2233 69.081 87.3892 68.9158 87.5278 68.6534C87.6062 68.5043 87.6613 68.3631 87.6898 68.2309C87.7209 68.0981 87.7319 67.9841 87.7267 67.8895L87.2952 67.5545L87.7844 66.628L88.856 67.1995C88.8955 67.5143 88.8923 67.8519 88.845 68.2095C88.7984 68.5659 88.6811 68.9216 88.4958 69.2727C88.1783 69.874 87.7721 70.2835 87.2751 70.4999C86.7775 70.7182 86.2521 70.68 85.7001 70.3884L83.6883 69.3272C83.619 69.2909 83.5536 69.2559 83.4914 69.2248C83.4292 69.1937 83.3663 69.1684 83.3061 69.149L83.045 69.5209L82.2532 69.103L83.0514 67.5902C83.1519 67.596 83.2523 67.6102 83.3527 67.6277C83.4531 67.6452 83.5497 67.6711 83.6456 67.7016C83.5477 67.4521 83.5017 67.1865 83.5076 66.9073C83.5128 66.6254 83.5912 66.3429 83.7428 66.0566C83.9954 65.5778 84.3259 65.2681 84.7341 65.1223C85.1429 64.9785 85.5582 65.0173 85.98 65.2402ZM85.347 66.5891C85.2025 66.5133 85.0619 66.5056 84.9245 66.5684C84.7872 66.6313 84.6686 66.7569 84.5695 66.9435C84.4658 67.1398 84.4095 67.3401 84.4017 67.5396C84.3933 67.7411 84.4218 67.9173 84.4917 68.0677L85.1558 68.4182L85.5077 67.7521C85.6534 67.4761 85.7027 67.2332 85.6567 67.0265C85.6107 66.8204 85.5077 66.674 85.347 66.5891Z" fill="#945A2B"/>
<path d="M37.4215 85.6774L37.6386 84.7244L40.6727 84.8572L39.1307 91.6193L40.4122 92.0807L40.1952 93.0331L35.9624 92.0677L36.1795 91.1153L37.5472 91.2585L38.751 85.9807L37.4215 85.6774ZM42.641 91.2488C42.6734 90.8153 42.827 90.4389 43.0965 90.1247C43.366 89.8104 43.7211 89.5778 44.1629 89.4288C43.7988 89.2286 43.5235 88.9649 43.3382 88.6409C43.1516 88.3157 43.0738 87.9522 43.1036 87.5518C43.1574 86.8365 43.4347 86.3007 43.9316 85.9457C44.4312 85.5887 45.0642 85.4397 45.8326 85.4973C46.601 85.5556 47.2068 85.7999 47.6513 86.2275C48.0951 86.6545 48.2894 87.2259 48.2357 87.9412C48.2052 88.3416 48.0717 88.6895 47.834 88.9817C47.5968 89.274 47.2826 89.4923 46.8958 89.6361C47.3105 89.8499 47.6292 90.1344 47.8508 90.4868C48.073 90.8412 48.1683 91.2345 48.1359 91.6647C48.0795 92.4098 47.7821 92.9651 47.2463 93.3272C46.7099 93.6901 46.0315 93.8404 45.2164 93.7788C44.3968 93.7173 43.7496 93.4652 43.2721 93.026C42.7946 92.5873 42.5847 91.9938 42.641 91.2488ZM44.2692 91.2598C44.2413 91.6278 44.3236 91.9271 44.5128 92.1539C44.7026 92.3806 44.9683 92.5083 45.3104 92.5335C45.6447 92.5588 45.9227 92.4714 46.1468 92.2744C46.3704 92.0768 46.4967 91.7956 46.5239 91.4315C46.5511 91.0706 46.4675 90.7739 46.2725 90.5406C46.0775 90.3074 45.8138 90.1791 45.4795 90.1538C45.1439 90.1285 44.8653 90.2154 44.643 90.4168C44.4208 90.6183 44.2964 90.9002 44.2692 91.2598ZM44.7182 87.7468C44.6936 88.0805 44.7558 88.352 44.9074 88.5606C45.0583 88.7699 45.2858 88.8858 45.5857 88.9079C45.876 88.9299 46.1144 88.8496 46.2971 88.6656C46.4798 88.4822 46.5855 88.2237 46.6101 87.89C46.6347 87.5674 46.5673 87.2998 46.4105 87.0905C46.2537 86.8812 46.0283 86.7653 45.738 86.7432C45.4419 86.7212 45.2041 86.7996 45.0253 86.9797C44.8465 87.1605 44.7428 87.4171 44.7182 87.7468ZM50.3964 91.2358L53.3392 85.6729L54.9758 85.5485L55.3594 90.6015L56.2522 90.5335L56.326 91.5079L55.4332 91.5753L55.4993 92.4454L56.352 92.5653L56.4258 93.5397L53.1176 93.7905L53.0438 92.816L53.8796 92.5685L53.8135 91.6977L50.5279 91.9472L50.3964 91.2358ZM51.8873 90.8646L53.7396 90.724L53.5193 87.822L53.4843 87.8136L53.3697 88.0559L51.8873 90.8646ZM58.2814 91.1069C58.1842 90.6838 58.2179 90.2782 58.3812 89.8985C58.5445 89.5182 58.814 89.1904 59.1924 88.9163C58.7848 88.8334 58.4434 88.6636 58.17 88.4103C57.8959 88.1557 57.7113 87.8317 57.6218 87.441C57.4612 86.7426 57.5648 86.1478 57.9341 85.6606C58.3041 85.1714 58.8639 84.8397 59.6148 84.6661C60.3657 84.4931 61.0175 84.5456 61.5689 84.8216C62.1196 85.0969 62.4759 85.5841 62.6366 86.2832C62.7267 86.6739 62.7033 87.0465 62.5634 87.3963C62.4235 87.7462 62.1889 88.0481 61.8624 88.3008C62.3224 88.3811 62.7111 88.558 63.028 88.8288C63.3454 89.101 63.554 89.4482 63.6506 89.8687C63.8184 90.597 63.6998 91.2157 63.2968 91.7204C62.8932 92.2264 62.2906 92.5731 61.4937 92.7564C60.6936 92.9411 60.0003 92.8944 59.4133 92.6171C58.8269 92.3392 58.4479 91.8345 58.2814 91.1069ZM59.839 90.632C59.9213 90.9909 60.0897 91.2533 60.3379 91.4127C60.586 91.5727 60.8789 91.6142 61.2119 91.5377C61.5378 91.4626 61.7781 91.2954 61.933 91.0408C62.0872 90.7855 62.1235 90.479 62.0418 90.1233C61.9609 89.7715 61.7917 89.5124 61.5365 89.3478C61.2812 89.1839 60.9903 89.1398 60.6644 89.215C60.3366 89.2908 60.0962 89.458 59.9446 89.7158C59.793 89.9737 59.7586 90.2808 59.839 90.632ZM59.2202 87.1449C59.2947 87.4708 59.4373 87.7118 59.6433 87.866C59.8493 88.0196 60.1014 88.063 60.3942 87.9956C60.678 87.9308 60.8821 87.7818 61.0013 87.5525C61.1205 87.3231 61.1438 87.0445 61.0693 86.7186C60.9974 86.4037 60.8523 86.1672 60.6411 86.015C60.4292 85.8621 60.1791 85.8193 59.896 85.8841C59.6064 85.9502 59.4023 86.0973 59.2857 86.3221C59.1684 86.5463 59.147 86.8229 59.2202 87.1449Z" fill="#945A2B"/>
<path fill-rule="evenodd" clip-rule="evenodd" d="M18.2644 87.4218C20.0934 85.4807 26.1409 78.6991 27.427 78.1982C27.3583 79.139 20.7717 86.6145 19.3502 88.4319C19.3878 88.4824 19.45 88.5524 19.5323 88.6366L18.2644 87.4218Z" fill="#945A2B"/>
<path fill-rule="evenodd" clip-rule="evenodd" d="M81.7673 87.0224C79.9383 85.0806 74.1694 78.6981 72.8826 78.1973C72.9513 79.138 79.2593 86.2151 80.6808 88.0324C80.6432 88.083 80.581 88.1529 80.4987 88.2372L81.7673 87.0224Z" fill="#945A2B"/>
<path fill-rule="evenodd" clip-rule="evenodd" d="M35.1157 63.6715C35.196 63.9553 35.2854 64.1659 35.3891 64.322L35.3917 64.3259C35.426 64.381 35.4675 64.4335 35.5174 64.4827C35.5666 64.5333 35.6185 64.5747 35.6742 64.6091L35.6781 64.6116C35.8342 64.7147 36.0448 64.8047 36.3286 64.8851C36.4432 64.8909 36.5573 64.8961 36.6707 64.9006C36.6765 65.1656 36.6396 65.8122 36.7491 66.3286C37.2071 68.4939 38.3921 71.1484 39.8558 73.0649C40.6501 74.1047 41.0544 74.4527 42.2569 74.1507C42.6748 74.0458 43.1652 73.7581 43.5618 73.5644C45.1718 76.9912 46.3004 79.0418 48.4858 80.8812C49.1201 81.415 49.5503 81.7254 50 81.7571C50.449 81.7254 50.8798 81.415 51.5141 80.8812C53.6995 79.0418 54.8282 76.9912 56.4382 73.5644C56.8341 73.7575 57.3252 74.0458 57.7431 74.1507C58.9462 74.452 59.3505 74.1047 60.1442 73.0649C61.6078 71.1484 62.7928 68.4939 63.2509 66.3286C63.3604 65.8122 63.3235 65.1656 63.3293 64.9006C63.4427 64.8961 63.5567 64.8916 63.6714 64.8851C63.9552 64.8047 64.1657 64.7153 64.3219 64.6116L64.3258 64.6091C64.3815 64.5747 64.4333 64.5333 64.4826 64.4827C64.5324 64.4335 64.5739 64.381 64.6083 64.3259L64.6108 64.322C64.7145 64.1659 64.8039 63.9553 64.8843 63.6715C64.8901 63.5569 64.8953 63.4428 64.8998 63.3295C65.1648 63.3236 65.8114 63.3606 66.3278 63.2511C68.4924 62.793 71.1475 61.608 73.064 60.1444C74.1039 59.35 74.4518 58.9457 74.1499 57.7432C74.045 57.3253 73.7573 56.8349 73.5636 56.4384C76.9903 54.8283 79.0409 53.6997 80.8803 51.5143C81.4142 50.88 81.7246 50.4491 81.7563 50.0001C81.7246 49.5511 81.4142 49.1203 80.8803 48.486C79.0409 46.3006 76.9903 45.172 73.5636 43.5619C73.7573 43.1661 74.045 42.6749 74.1499 42.257C74.4512 41.0545 74.1039 40.6503 73.064 39.8559C71.1475 38.3923 68.4931 37.2073 66.3278 36.7492C65.8108 36.6404 65.1648 36.6767 64.8998 36.6708C64.8953 36.5574 64.8907 36.4434 64.8843 36.3287C64.8039 36.045 64.7145 35.8344 64.6108 35.6782L64.6083 35.6743C64.5739 35.6186 64.5324 35.5668 64.4826 35.5176C64.4333 35.467 64.3808 35.4256 64.3258 35.3912L64.3219 35.3886C64.1657 35.285 63.9552 35.1955 63.6714 35.1152C63.5567 35.1094 63.4427 35.1042 63.3293 35.0997C63.3235 34.8347 63.3604 34.1881 63.2509 33.6717C62.7928 31.5064 61.6078 28.8519 60.1442 26.9354C59.3499 25.8955 58.9456 25.5476 57.7431 25.8495C57.3252 25.9545 56.8347 26.2422 56.4382 26.4359C54.8282 23.0091 53.6995 20.9585 51.5141 19.1191C50.8798 18.5853 50.449 18.2749 50 18.2432C49.551 18.2749 49.1201 18.5853 48.4858 19.1191C46.3004 20.9585 45.1718 23.0091 43.5618 26.4359C43.1659 26.2428 42.6748 25.9545 42.2569 25.8495C41.0537 25.5483 40.6494 25.8955 39.8558 26.9354C38.3921 28.8519 37.2071 31.5064 36.7491 33.6717C36.6396 34.1881 36.6765 34.8347 36.6707 35.0997C36.5573 35.1042 36.4432 35.1087 36.3286 35.1152C36.0448 35.1955 35.8342 35.285 35.6781 35.3886L35.6742 35.3912C35.6191 35.4256 35.5666 35.467 35.5174 35.5176C35.4675 35.5668 35.426 35.6193 35.3917 35.6743L35.3891 35.6782C35.2854 35.8344 35.196 36.045 35.1157 36.3287C35.1099 36.4434 35.1047 36.5574 35.1001 36.6708C34.8351 36.6767 34.1885 36.6397 33.6722 36.7492C31.5075 37.2073 28.8524 38.393 26.9359 39.8559C25.896 40.6503 25.5481 41.0545 25.85 42.257C25.955 42.6749 26.2427 43.1654 26.4364 43.5619C23.0096 45.172 20.959 46.3006 19.1196 48.486C18.5857 49.1203 18.2754 49.5511 18.2436 50.0001C18.2754 50.4491 18.5857 50.88 19.1196 51.5143C20.959 53.6997 23.0096 54.8283 26.4364 56.4384C26.2433 56.8349 25.955 57.3253 25.85 57.7432C25.5487 58.9457 25.896 59.35 26.9359 60.1444C28.8524 61.608 31.5069 62.793 33.6722 63.2511C34.1892 63.3606 34.8351 63.3236 35.1001 63.3295C35.1053 63.4428 35.1099 63.5569 35.1157 63.6715ZM61.1031 35.1074C60.2271 35.1502 59.3926 35.2429 58.6009 35.388C57.6083 35.4871 56.7213 35.6549 55.5357 36.0637C55.1275 35.11 53.0341 32.1206 52.8352 31.9535C53.5537 30.9233 56.4343 28.5798 58.0489 28.0472C59.6304 29.5406 61.3908 33.4501 61.1031 35.1074ZM41.3991 35.388C40.6073 35.2429 39.7735 35.1502 38.8969 35.1074C38.6092 33.4501 40.3702 29.5406 41.9504 28.0472C43.565 28.5798 46.4456 30.9233 47.1641 31.9535C46.9652 32.1206 44.8718 35.1107 44.4636 36.0637C43.2786 35.6549 42.391 35.4871 41.3991 35.388ZM64.8927 38.897C64.8499 39.773 64.7566 40.6075 64.6121 41.3992C64.513 42.3918 64.3452 43.2788 63.9364 44.4645C64.8901 44.8726 67.8795 46.966 68.0473 47.1649C69.0775 46.4464 71.421 43.5658 71.9535 41.9512C70.4595 40.3697 66.55 38.6093 64.8927 38.897ZM35.3878 41.3986C35.2427 40.6068 35.15 39.7723 35.1073 38.8964C33.4499 38.6093 29.5405 40.3697 28.0471 41.9499C28.5796 43.5645 30.9231 46.4451 31.9533 47.1636C32.1204 46.9647 35.1105 44.8713 36.0636 44.4632C35.6554 43.2781 35.4869 42.3912 35.3878 41.3986ZM50 20.8853C47.9027 21.85 45.4601 26.237 45.4193 27.8995L48.5215 30.6894C49.1635 30.1821 49.6002 29.8827 50 29.7907C50.3997 29.8827 50.8364 30.1821 51.4785 30.6894L54.5807 27.8995C54.5398 26.2376 52.0972 21.85 50 20.8853ZM50 32.0195C49.514 31.9781 46.7462 35.0439 46.2428 36.8134C48.3381 38.8283 49.3054 39.9246 50 41.4964C50.6952 39.9246 51.6618 38.8283 53.7572 36.8134C53.2537 35.0439 50.4859 31.9781 50 32.0195ZM50.9893 47.6022C50.9699 47.4597 50.955 47.3146 50.9427 47.1675C51.0574 43.6384 51.9955 41.1459 53.9606 39.4179C55.6251 37.9537 58.8406 36.965 61.2333 36.9877C62.1281 36.9961 62.5816 36.9825 62.8155 37.1833C63.017 37.4172 63.0028 37.8707 63.0112 38.7655C63.0339 41.1582 62.0445 44.3737 60.5809 46.0382C58.8529 48.0027 56.3604 48.9415 52.8313 49.0561C52.6849 49.0438 52.5398 49.0289 52.3966 49.0095L58.9987 41.0824L58.5465 41.4511L58.9151 40.9988L50.9893 47.6022ZM49.0106 47.6022C49.0294 47.4597 49.045 47.3146 49.0573 47.1675C48.9426 43.6384 48.0044 41.1459 46.0393 39.4179C44.3749 37.9537 41.1593 36.965 38.7666 36.9877C37.8719 36.9961 37.4183 36.9825 37.1844 37.1833C36.9829 37.4172 36.9972 37.8707 36.9888 38.7655C36.9661 41.1582 37.9555 44.3737 39.4191 46.0382C41.147 48.0027 43.6395 48.9415 47.1686 49.0561C47.3151 49.0438 47.4602 49.0289 47.6034 49.0095L41.0012 41.0824L41.4535 41.4511L41.0848 40.9988L49.0106 47.6022ZM64.8927 61.1033C64.8499 60.2273 64.7566 59.3928 64.6121 58.6011C64.513 57.6085 64.3452 56.7215 63.9364 55.5358C64.8901 55.1276 67.8795 53.0343 68.0473 52.8354C69.0775 53.5539 71.421 56.4345 71.9535 58.049C70.4595 59.6299 66.55 61.3903 64.8927 61.1033ZM61.1031 64.8922C60.2271 64.8494 59.3926 64.7568 58.6009 64.6116C57.6083 64.5125 56.7213 64.3447 55.5357 63.9359C55.1275 64.8896 53.0341 67.879 52.8352 68.0462C53.5537 69.0764 56.4343 71.4198 58.0489 71.9524C59.6304 70.459 61.3908 66.5495 61.1031 64.8922ZM79.1148 50.0001C78.1501 47.9029 73.7631 45.4603 72.1006 45.4195L69.3107 48.5216C69.818 49.1637 70.1174 49.6004 70.2094 50.0001C70.1174 50.3999 69.818 50.8366 69.3107 51.4787L72.1006 54.5808C73.7625 54.54 78.1494 52.0967 79.1148 50.0001ZM67.9806 50.0001C68.0221 49.5142 64.9555 46.7464 63.1868 46.243C61.1718 48.3383 60.0755 49.3056 58.5037 50.0001C60.0755 50.6953 61.1718 51.662 63.1868 53.7573C64.9555 53.2539 68.0221 50.4861 67.9806 50.0001ZM52.3972 50.9895C52.5404 50.97 52.6849 50.9552 52.832 50.9428C56.3611 51.0575 58.8536 51.9957 60.5815 53.9608C62.0451 55.6252 63.0345 58.8408 63.0118 61.2341C63.0034 62.1289 63.017 62.5824 62.8162 62.8163C62.5823 63.0178 62.1287 63.0036 61.234 63.012C58.8406 63.0347 55.6257 62.0453 53.9613 60.5817C51.9962 58.8537 51.058 56.3612 50.9433 52.8321C50.955 52.6857 50.9705 52.5406 50.99 52.3974L58.9171 58.9995L58.5484 58.5473L59.0006 58.9159L52.3972 50.9895ZM35.3878 58.6011C35.2427 59.3928 35.15 60.2267 35.1073 61.1033C33.4499 61.3909 29.5405 59.6299 28.0471 58.0497C28.5796 56.4351 30.9231 53.5545 31.9533 52.836C32.1204 53.0349 35.1105 55.1283 36.0636 55.5365C35.6554 56.7215 35.4869 57.6085 35.3878 58.6011ZM38.8969 64.8922C39.7728 64.8494 40.6073 64.7568 41.3991 64.6116C42.3916 64.5125 43.2786 64.3447 44.4643 63.9359C44.8725 64.8896 46.9658 67.879 47.1648 68.0462C46.4462 69.0764 43.5656 71.4198 41.9511 71.9524C40.3702 70.459 38.6092 66.5495 38.8969 64.8922ZM20.8858 50.0001C21.8505 47.9029 26.2375 45.4603 27.9 45.4195L30.6899 48.5216C30.1826 49.1637 29.8832 49.6004 29.7912 50.0001C29.8832 50.3999 30.1826 50.8366 30.6899 51.4787L27.9 54.5808C26.2375 54.54 21.8505 52.0967 20.8858 50.0001ZM32.0194 50.0001C31.9779 49.5142 35.0444 46.7464 36.8132 46.243C38.8282 48.3383 39.9244 49.3056 41.4956 50.0001C39.9238 50.6953 38.8275 51.662 36.8132 53.7573C35.0444 53.2539 31.9779 50.4861 32.0194 50.0001ZM47.6027 50.9895C47.4595 50.97 47.3151 50.9552 47.168 50.9428C43.6389 51.0575 41.1464 51.9957 39.4184 53.9608C37.9548 55.6252 36.9655 58.8408 36.9881 61.2341C36.9966 62.1289 36.9829 62.5824 37.1838 62.8163C37.4177 63.0178 37.8712 63.0036 38.766 63.012C41.1593 63.0347 44.3742 62.0453 46.0387 60.5817C48.0038 58.8537 48.9419 56.3612 49.0566 52.8321C49.045 52.6857 49.0294 52.5406 49.01 52.3974L41.0829 58.9995L41.4515 58.5473L40.9993 58.9159L47.6027 50.9895ZM50 79.1143C47.9027 78.1489 45.4601 73.7626 45.4193 72.1001L48.5215 69.3103C49.1635 69.8176 49.6002 70.1169 50 70.2089C50.3997 70.1169 50.8364 69.8176 51.4785 69.3103L54.5807 72.1001C54.5398 73.7626 52.0972 78.1496 50 79.1143ZM50 67.9801C49.514 68.0216 46.7462 64.955 46.2428 63.1863C48.3381 61.1713 49.3054 60.075 50 58.5032C50.6952 60.075 51.6618 61.1713 53.7572 63.1863C53.2537 64.9557 50.4859 68.0216 50 67.9801Z" fill="#945A2B"/>
<path fill-rule="evenodd" clip-rule="evenodd" d="M69.31 51.4776L72.0999 54.5798C73.7624 54.539 78.1493 52.0964 79.1141 49.9991C78.1493 47.9019 73.7624 45.4593 72.0999 45.4185L69.31 48.5206C69.8173 49.1627 70.1166 49.5994 70.2086 49.9991C70.1173 50.3989 69.818 50.8362 69.31 51.4776Z" fill="#8DC521"/>
<path fill-rule="evenodd" clip-rule="evenodd" d="M51.4784 30.6893L54.5806 27.8994C54.5397 26.2369 52.0971 21.85 49.9999 20.8853C47.9026 21.85 45.46 26.2369 45.4192 27.8994L48.5214 30.6893C49.1634 30.182 49.6001 29.8827 49.9999 29.7907C50.3996 29.8827 50.8363 30.182 51.4784 30.6893Z" fill="#FFFF66"/>
<path fill-rule="evenodd" clip-rule="evenodd" d="M63.9357 55.5354C64.6413 57.5802 64.6296 58.738 64.7838 61.0802C66.3725 61.4689 70.4251 59.6645 71.9522 58.0486C71.4196 56.4341 69.0762 53.5535 68.046 52.835C67.8795 53.0339 64.8894 55.1279 63.9357 55.5354Z" fill="#8DC521"/>
<path fill-rule="evenodd" clip-rule="evenodd" d="M55.5362 36.0634C57.581 35.3578 58.7388 35.3695 61.081 35.2153C61.4697 33.6266 59.6653 29.5733 58.0494 28.0469C56.4349 28.5795 53.5543 30.9229 52.8358 31.9531C53.0347 32.1203 55.128 35.1097 55.5362 36.0634Z" fill="#FFFF66"/>
<path fill-rule="evenodd" clip-rule="evenodd" d="M58.5037 49.9999C60.0755 50.6951 61.1717 51.6617 63.1867 53.7571C64.9555 53.2536 68.022 50.4858 67.9805 49.9999C68.022 49.5139 64.9555 46.7461 63.1867 46.2427C61.1717 48.338 60.0755 49.3047 58.5037 49.9999Z" fill="#8DC521"/>
<path fill-rule="evenodd" clip-rule="evenodd" d="M49.9999 41.4954C50.6951 39.9236 51.6617 38.8273 53.7571 36.8123C53.2536 35.0436 50.4858 31.977 49.9999 32.0185C49.5139 31.977 46.7461 35.0429 46.2427 36.8123C48.338 38.8273 49.3047 39.9242 49.9999 41.4954Z" fill="#FFFF66"/>
<path fill-rule="evenodd" clip-rule="evenodd" d="M63.9357 44.4635C64.6413 42.4187 64.6296 41.2609 64.7838 38.9187C66.3725 38.53 70.4251 40.3344 71.9522 41.9503C71.4196 43.5648 69.0762 46.4454 68.046 47.1639C67.8795 46.965 64.8894 44.871 63.9357 44.4635Z" fill="#8DC521"/>
<path fill-rule="evenodd" clip-rule="evenodd" d="M44.4636 36.0634C42.4188 35.3578 41.261 35.3695 38.9188 35.2153C38.5301 33.6266 40.3345 29.5733 41.9504 28.0469C43.5649 28.5795 46.4455 30.9229 47.164 31.9531C46.9651 32.1203 44.8717 35.1097 44.4636 36.0634Z" fill="#FFFF66"/>
<path fill-rule="evenodd" clip-rule="evenodd" d="M30.6898 51.4776L27.8999 54.5798C26.2374 54.539 21.8504 52.0964 20.8857 49.9991C21.8504 47.9019 26.2374 45.4593 27.8999 45.4185L30.6898 48.5206C30.1825 49.1627 29.8831 49.5994 29.7911 49.9991C29.8831 50.3989 30.1825 50.8362 30.6898 51.4776Z" fill="#F6690C"/>
<path fill-rule="evenodd" clip-rule="evenodd" d="M51.4784 69.3101L54.5806 72.0999C54.5397 73.7624 52.0971 78.1494 49.9999 79.1141C47.9026 78.1487 45.46 73.7624 45.4192 72.0999L48.5214 69.3101C49.1634 69.8174 49.6001 70.1167 49.9999 70.2087C50.3996 70.1167 50.8363 69.8174 51.4784 69.3101Z" fill="#61B690"/>
<path fill-rule="evenodd" clip-rule="evenodd" d="M36.0641 55.5354C35.3585 57.5802 35.3702 58.738 35.216 61.0802C33.6274 61.4689 29.5747 59.6645 28.0476 58.0486C28.5802 56.4341 30.9237 53.5535 31.9538 52.835C32.121 53.0339 35.1104 55.1279 36.0641 55.5354Z" fill="#F6690C"/>
<path fill-rule="evenodd" clip-rule="evenodd" d="M55.5362 63.9355C57.581 64.6411 58.7388 64.6295 61.081 64.7837C61.4697 66.3723 59.6653 70.4256 58.0494 71.9521C56.4349 71.4195 53.5543 69.076 52.8358 68.0459C53.0347 67.8787 55.128 64.8893 55.5362 63.9355Z" fill="#61B690"/>
<path fill-rule="evenodd" clip-rule="evenodd" d="M41.4962 49.9999C39.9243 50.6951 38.8281 51.6617 36.8138 53.7571C35.045 53.2536 31.9785 50.4858 32.0199 49.9999C31.9785 49.5139 35.045 46.7461 36.8138 46.2427C38.8281 48.338 39.9243 49.3047 41.4962 49.9999Z" fill="#F6690C"/>
<path fill-rule="evenodd" clip-rule="evenodd" d="M49.9999 58.5039C50.6951 60.0757 51.6617 61.172 53.7571 63.187C53.2536 64.9557 50.4858 68.0223 49.9999 67.9808C49.5139 68.0223 46.7461 64.9557 46.2427 63.187C48.338 61.172 49.3047 60.0751 49.9999 58.5039Z" fill="#61B690"/>
<path fill-rule="evenodd" clip-rule="evenodd" d="M36.0641 44.4635C35.3585 42.4187 35.3702 41.2609 35.216 38.9187C33.6274 38.53 29.5747 40.3344 28.0476 41.9503C28.5802 43.5648 30.9237 46.4454 31.9538 47.1639C32.121 46.965 35.1104 44.871 36.0641 44.4635Z" fill="#F6690C"/>
<path fill-rule="evenodd" clip-rule="evenodd" d="M44.4636 63.9355C42.4188 64.6411 41.261 64.6295 38.9188 64.7837C38.5301 66.3723 40.3345 70.4256 41.9504 71.9521C43.5649 71.4195 46.4455 69.076 47.164 68.0459C46.9651 67.8787 44.8717 64.8893 44.4636 63.9355Z" fill="#61B690"/>
<path fill-rule="evenodd" clip-rule="evenodd" d="M52.3971 50.9893L58.9993 58.9164L50.9322 52.3343C50.9724 56.1285 51.9047 58.7732 53.9605 60.5815C55.625 62.0451 58.8405 63.0344 61.2333 63.0118C63.0266 62.9943 63.048 63.0681 63.0765 61.3169C63.129 58.1195 62.5407 55.8874 60.7545 53.7882C58.9669 51.6884 55.2706 50.6044 52.3971 50.9893Z" fill="#8DC521"/>
<path fill-rule="evenodd" clip-rule="evenodd" d="M50.9893 47.602L58.9164 40.9999L52.3343 49.0669C56.1284 49.0268 58.7732 48.0944 60.5815 46.0386C62.0451 44.3742 63.0344 41.1586 63.0118 38.7659C62.9943 36.9725 63.0681 36.9511 61.3168 36.9226C58.1194 36.8701 55.8874 37.4584 53.7889 39.2447C51.6884 41.0329 50.6051 44.7292 50.9893 47.602Z" fill="#FFFF66"/>
<path fill-rule="evenodd" clip-rule="evenodd" d="M49.0106 47.602L41.0835 40.9999L47.6656 49.0669C43.8715 49.0268 41.2267 48.0944 39.4184 46.0386C37.9548 44.3742 36.9655 41.1586 36.9881 38.7659C37.0056 36.9725 36.9318 36.9511 38.6831 36.9226C41.8805 36.8701 44.1125 37.4584 46.2117 39.2447C48.3116 41.0329 49.3955 44.7292 49.0106 47.602Z" fill="#F6690C"/>
<path fill-rule="evenodd" clip-rule="evenodd" d="M47.6026 50.9893L41.0005 58.9164L49.0675 52.3343C49.0274 56.1285 48.095 58.7732 46.0392 60.5815C44.3748 62.0451 41.1592 63.0344 38.7665 63.0118C36.9731 62.9943 36.9518 63.0681 36.9232 61.3169C36.8708 58.1195 37.4591 55.8874 39.2453 53.7882C41.0335 51.6884 44.7298 50.6044 47.6026 50.9893Z" fill="#61B690"/>
<path fill-rule="evenodd" clip-rule="evenodd" d="M45.324 18.5029C31.3915 21.2222 20.6052 31.68 18.2786 44.675L18.2753 44.6769C17.8775 36.9073 23.5512 28.5493 26.9255 25.7905C29.1051 23.7121 35.1448 19.1742 45.324 18.5029Z" fill="#945A2B"/>
<path fill-rule="evenodd" clip-rule="evenodd" d="M54.8211 18.5029C68.7536 21.2222 79.5399 31.68 81.8665 44.675L81.8697 44.6769C82.2676 36.9073 76.5939 28.5493 73.2196 25.7905C71.04 23.7121 64.9996 19.1742 54.8211 18.5029Z" fill="#945A2B"/>
<path fill-rule="evenodd" clip-rule="evenodd" d="M45.324 81.3644C31.3915 78.6452 20.6052 68.1874 18.2786 55.1924L18.2753 55.1904C17.8775 62.9601 23.5512 71.318 26.9255 74.0768C29.1051 76.1559 35.1448 80.6939 45.324 81.3644Z" fill="#945A2B"/>
<path fill-rule="evenodd" clip-rule="evenodd" d="M54.8211 81.3644C68.7536 78.6452 79.5399 68.1874 81.8665 55.1924L81.8697 55.1904C82.2676 62.9601 76.5939 71.318 73.2196 74.0768C71.04 76.1559 64.9996 80.6939 54.8211 81.3644Z" fill="#945A2B"/>
</svg>
