<svg width="32" height="32" viewBox="0 0 32 32" fill="none" xmlns="http://www.w3.org/2000/svg">
<path fill-rule="evenodd" clip-rule="evenodd" d="M1.35673 14.886C5.4234 9.05669 10.6963 6 15.9787 6C22.1828 6 27.527 10.0417 30.68 14.9115L30.6815 14.9138C30.8902 15.238 31.0011 15.6154 31.0011 16.0009C31.0011 16.3858 30.8906 16.7625 30.6827 17.0863C27.5324 22.0188 22.2227 26 15.9787 26C9.66834 26 4.46101 22.0271 1.31846 17.109C1.10493 16.7774 0.994178 16.3901 1.00017 15.9957C1.00618 15.6003 1.12924 15.2156 1.35381 14.8902L1.35673 14.886ZM2.99995 16.0261L3.00271 16.0304C5.90529 20.5739 10.5574 24 15.9787 24C21.3393 24 26.0918 20.5594 28.9978 16.0087L28.9997 16.0057C29.0006 16.0043 29.0011 16.0026 29.0011 16.0009C29.0011 16.0002 29.001 15.9995 29.0009 15.9989C29.0007 15.998 29.0003 15.9972 28.9999 15.9964C26.0828 11.4922 21.2914 8 15.9787 8C11.5199 8 6.80027 10.5807 2.99995 16.0261Z" fill="#563200"/>
<path fill-rule="evenodd" clip-rule="evenodd" d="M16 12C13.7909 12 12 13.7909 12 16C12 18.2091 13.7909 20 16 20C18.2091 20 20 18.2091 20 16C20 13.7909 18.2091 12 16 12ZM10 16C10 12.6863 12.6863 10 16 10C19.3137 10 22 12.6863 22 16C22 19.3137 19.3137 22 16 22C12.6863 22 10 19.3137 10 16Z" fill="#563200"/>
</svg>
