<?xml version="1.0" encoding="utf-8"?><svg viewBox="0 0 24 24" xmlns="http://www.w3.org/2000/svg" xmlns:xlink="http://www.w3.org/1999/xlink"><style>:root>svg{display:none}:root>svg:target{display:block}</style><svg viewBox="0 0 24 24" id="document" xmlns="http://www.w3.org/2000/svg"><path fill-rule="evenodd" clip-rule="evenodd" d="M9 3a.75.75 0 01.75-.75h3.129a2.25 2.25 0 011.59.659l6.622 6.622c.422.421.659.993.659 1.59v9.129a3 3 0 01-3 3H9a3 3 0 01-3-3v-6a.75.75 0 011.5 0v6a1.5 1.5 0 001.5 1.5h9.75a1.5 1.5 0 001.5-1.5v-9.129a.75.75 0 00-.22-.53L13.41 3.97a.75.75 0 00-.53-.22H9.75A.75.75 0 019 3z"/><path fill-rule="evenodd" clip-rule="evenodd" d="M13.5 2.625a.75.75 0 01.75.75V9a.75.75 0 00.75.75h5.625a.75.75 0 010 1.5H15A2.25 2.25 0 0112.75 9V3.375a.75.75 0 01.75-.75zM6.41 2.74c-.25.315-.41.794-.41 1.385v6.75c0 .134.049.217.11.272.07.065.168.103.265.103h.01a.362.362 0 00.365-.365V3.75a.75.75 0 011.5 0v7.12a1.861 1.861 0 01-1.88 1.88c-.915-.003-1.87-.706-1.87-1.875v-6.75c0-.843.228-1.677.735-2.316C5.758 1.149 6.538.75 7.5.75c.955 0 1.736.387 2.262 1.04.51.634.738 1.462.738 2.306V10.6c0 2.341-1.557 4.4-4.125 4.4S2.25 12.942 2.25 10.6V6.75a.75.75 0 011.5 0v3.85c0 1.69 1.051 2.9 2.625 2.9S9 12.29 9 10.6V4.096c0-.59-.16-1.06-.407-1.365-.23-.287-.575-.481-1.093-.481-.512 0-.856.196-1.09.49z"/></svg><svg viewBox="0 0 16 16" id="edit" xmlns="http://www.w3.org/2000/svg"><path fill-rule="evenodd" clip-rule="evenodd" d="M11.379 3.414a.5.5 0 01.354.147l.707.706a.5.5 0 010 .708l-8.68 8.66a.497.497 0 01-.126.091l-1.406.72a.5.5 0 01-.673-.674l.719-1.406a.5.5 0 01.09-.125l8.661-8.68a.5.5 0 01.354-.147zM12.793 1.793a1 1 0 011.414 0l-.354.354.354-.354a1 1 0 010 1.414l-.707.707a.5.5 0 01-.707 0l-.707-.707a.5.5 0 010-.707l.707-.707.353.354-.353-.354z"/></svg><svg viewBox="0 0 24 24" id="exit" xmlns="http://www.w3.org/2000/svg"><path fill-rule="evenodd" clip-rule="evenodd" d="M2.269 4.519a2.625 2.625 0 011.856-.769h9a2.625 2.625 0 012.625 2.625V8.25a.75.75 0 01-1.5 0V6.375a1.125 1.125 0 00-1.125-1.125h-9A1.125 1.125 0 003 6.375v11.25a1.125 1.125 0 001.125 1.125h9a1.125 1.125 0 001.125-1.125V15.75a.75.75 0 011.5 0v1.875a2.625 2.625 0 01-2.625 2.625h-9A2.625 2.625 0 011.5 17.625V6.375c0-.696.277-1.364.769-1.856zM17.47 7.72a.75.75 0 011.06 0l3.75 3.75a.75.75 0 010 1.06l-3.75 3.75a.75.75 0 11-1.06-1.06L20.69 12l-3.22-3.22a.75.75 0 010-1.06z"/><path fill-rule="evenodd" clip-rule="evenodd" d="M8.203 12a.75.75 0 01.75-.75H21.75a.75.75 0 010 1.5H8.953a.75.75 0 01-.75-.75z"/></svg><svg viewBox="0 0 16 16" id="eye" xmlns="http://www.w3.org/2000/svg"><path fill-rule="evenodd" clip-rule="evenodd" d="M.678 7.443C2.712 4.528 5.348 3 7.99 3c3.102 0 5.775 2.02 7.351 4.456a1.005 1.005 0 01.001 1.087C13.766 11.01 11.111 13 7.99 13 4.834 13 2.231 11.014.66 8.554a1 1 0 01.018-1.109l.001-.002zm.822.57l.001.002C2.953 10.287 5.28 12 7.99 12c2.68 0 5.057-1.72 6.51-3.996v-.001L14.502 8l-.001-.002C13.041 5.746 10.646 4 7.99 4 5.76 4 3.4 5.29 1.5 8.013z"/><path fill-rule="evenodd" clip-rule="evenodd" d="M8 6a2 2 0 100 4 2 2 0 000-4zM5 8a3 3 0 116 0 3 3 0 01-6 0z"/></svg><svg viewBox="0 0 24 24" id="finance" xmlns="http://www.w3.org/2000/svg"><path fill-rule="evenodd" clip-rule="evenodd" d="M4.5 7.5A1.5 1.5 0 003 9v9a1.5 1.5 0 001.5 1.5h15A1.5 1.5 0 0021 18V9a1.5 1.5 0 00-1.5-1.5h-15zM1.5 9a3 3 0 013-3h15a3 3 0 013 3v9a3 3 0 01-3 3h-15a3 3 0 01-3-3V9z"/><path fill-rule="evenodd" clip-rule="evenodd" d="M16.367 2.304a3.094 3.094 0 013.665 3.04V6.75h-1.5V5.344a1.593 1.593 0 00-1.906-1.563L4.29 5.887A1.594 1.594 0 003 7.453V9.75H1.5V7.453A3.094 3.094 0 014.029 4.41l12.338-2.106z"/><path d="M17.25 15a1.5 1.5 0 110-3 1.5 1.5 0 010 3z"/></svg><svg viewBox="0 0 24 24" id="hand" xmlns="http://www.w3.org/2000/svg"><path fill-rule="evenodd" clip-rule="evenodd" d="M5.25 6a.75.75 0 00-.75.75V15A.75.75 0 013 15V6.75a2.25 2.25 0 114.5 0V12A.75.75 0 016 12V6.75A.75.75 0 005.25 6z"/><path fill-rule="evenodd" clip-rule="evenodd" d="M8.25 3a.75.75 0 00-.75.75V12A.75.75 0 016 12V3.75a2.25 2.25 0 114.5 0v7.5a.75.75 0 01-1.5 0v-7.5A.75.75 0 008.25 3zM14.25 3.75a.75.75 0 00-.75.75v6.797a.75.75 0 01-1.5 0V4.5a2.25 2.25 0 014.5 0V15a.75.75 0 01-1.5 0V4.5a.75.75 0 00-.75-.75z"/><path fill-rule="evenodd" clip-rule="evenodd" d="M11.25 1.5a.75.75 0 00-.75.75v9a.75.75 0 01-1.5 0v-9a2.25 2.25 0 114.5 0v9a.75.75 0 01-1.5 0v-9a.75.75 0 00-.75-.75z"/><path fill-rule="evenodd" clip-rule="evenodd" d="M16.799 10.53c.616-1.172 2.065-1.445 3.11-.85.54.305.889.773 1.026 1.331.133.538.057 1.102-.135 1.623l-2.47 6.749a.975.975 0 01-.013.032c-.508 1.21-1.236 2.378-2.443 3.235-1.21.859-2.822 1.35-4.999 1.35-2.234 0-4.23-.748-5.661-2.303C3.788 20.147 3 17.884 3 15a.75.75 0 011.5 0c0 2.619.712 4.48 1.817 5.68 1.1 1.195 2.667 1.82 4.558 1.82 1.948 0 3.235-.437 4.131-1.073.895-.636 1.478-1.525 1.92-2.576l2.466-6.736c.12-.325.129-.575.087-.745a.589.589 0 00-.31-.387c-.399-.226-.85-.087-1.03.221l-1.696 4.084a.75.75 0 01-1.386-.576l1.713-4.121a.735.735 0 01.029-.062z"/></svg><svg viewBox="0 0 24 24" id="notifications" xmlns="http://www.w3.org/2000/svg"><path fill-rule="evenodd" clip-rule="evenodd" d="M9.223 3.776C9.56 2.649 10.543 1.5 12 1.5s2.44 1.15 2.778 2.274a.146.146 0 00.03.027l.009.006c.848.349 1.847.907 2.628 1.928.787 1.03 1.299 2.46 1.299 4.453 0 1.989.21 3.079.518 3.827.271.657.628 1.088 1.134 1.702.074.09.152.183.232.282.934 1.144.052 2.751-1.386 2.751H4.762c-1.435 0-2.332-1.599-1.39-2.751.08-.099.158-.193.232-.282.506-.614.863-1.046 1.134-1.702.309-.748.52-1.839.52-3.827m3.965-6.412a.145.145 0 01-.026.024l-.011.006c-.85.35-1.848.907-2.629 1.928-.787 1.03-1.299 2.458-1.299 4.454M12 3c-.578 0-1.129.482-1.342 1.216v.002c-.138.468-.52.818-.901.976-.717.295-1.45.72-2.008 1.451-.553.723-.99 1.816-.99 3.543-.002 2.074-.218 3.39-.635 4.4-.363.879-.87 1.49-1.372 2.095l-.219.265a.16.16 0 00-.04.089.162.162 0 00.018.088c.028.054.098.125.252.125h14.479c.148 0 .216-.069.245-.125a.152.152 0 00-.02-.177 46.415 46.415 0 00-.219-.265c-.503-.606-1.01-1.216-1.372-2.095-.417-1.01-.632-2.326-.632-4.4 0-1.725-.438-2.818-.991-3.542-.56-.732-1.292-1.158-2.007-1.452-.386-.16-.763-.514-.9-.975v-.002C13.128 3.48 12.576 3 12 3z"/><path fill-rule="evenodd" clip-rule="evenodd" d="M9 17.25a.75.75 0 01.75.75v.75a2.25 2.25 0 004.5 0V18a.75.75 0 011.5 0v.75a3.75 3.75 0 11-7.5 0V18a.75.75 0 01.75-.75z"/></svg><svg viewBox="0 0 24 24" id="plus" xmlns="http://www.w3.org/2000/svg"><path fill-rule="evenodd" clip-rule="evenodd" d="M12 4.5a.75.75 0 01.75.75v13.5a.75.75 0 01-1.5 0V5.25A.75.75 0 0112 4.5z"/><path fill-rule="evenodd" clip-rule="evenodd" d="M4.5 12a.75.75 0 01.75-.75h13.5a.75.75 0 010 1.5H5.25A.75.75 0 014.5 12z"/></svg><svg viewBox="0 0 24 24" id="profile" xmlns="http://www.w3.org/2000/svg"><path d="M12 2.25c-5.376 0-9.75 4.374-9.75 9.75s4.374 9.75 9.75 9.75 9.75-4.374 9.75-9.75S17.376 2.25 12 2.25zm.094 4.5a3.375 3.375 0 110 6.75 3.375 3.375 0 010-6.75zM12 20.25a8.23 8.23 0 01-6.055-2.653C6.359 15.45 10.08 15 12 15c1.92 0 5.64.45 6.055 2.596A8.228 8.228 0 0112 20.25z"/></svg><svg viewBox="0 0 24 24" id="reset" xmlns="http://www.w3.org/2000/svg"><path fill-rule="evenodd" clip-rule="evenodd" d="M11.25 2.25a9.723 9.723 0 017.053 3.019l.013.013L19.32 6.45a.75.75 0 01-1.138.977l-.977-1.137A8.221 8.221 0 0011.25 3.75h-.001A8.252 8.252 0 003 12a8.252 8.252 0 008.25 8.25m0-18C5.866 2.25 1.5 6.617 1.5 12s4.367 9.75 9.75 9.75a9.754 9.754 0 009.195-6.5.75.75 0 10-1.414-.5 8.254 8.254 0 01-7.781 5.5"/><path d="M21.75 4.567V9.75a.75.75 0 01-.75.75h-5.184a.75.75 0 01-.53-1.28l5.184-5.184a.75.75 0 011.28.53z"/></svg><svg viewBox="0 0 24 24" id="torg" xmlns="http://www.w3.org/2000/svg"><path fill-rule="evenodd" clip-rule="evenodd" d="M21 10.5a.75.75 0 01.75.75V21a.75.75 0 01-1.5 0v-9.75a.75.75 0 01.75-.75zM3 10.5a.75.75 0 01.75.75V21a.75.75 0 01-1.5 0v-9.75A.75.75 0 013 10.5z"/><path fill-rule="evenodd" clip-rule="evenodd" d="M3.049 3.365C3.579 2.21 4.784 1.5 6.07 1.5h11.856c1.288 0 2.493.71 3.023 1.865l2.03 4.432c.938 2.046-.652 4.227-2.871 4.296H19.994c-1.053 0-2.029-.457-2.665-1.195-.636.738-1.612 1.196-2.665 1.196a3.523 3.523 0 01-2.649-1.214c-.634.748-1.616 1.214-2.678 1.214a3.524 3.524 0 01-2.665-1.233 3.523 3.523 0 01-2.665 1.233H3.89C1.67 12.024.08 9.843 1.019 7.796l2.03-4.432zm4.372 5.53c0 .81.814 1.699 1.916 1.699 1.118 0 1.912-.818 1.912-1.699a.75.75 0 011.5 0c0 .81.814 1.699 1.915 1.699 1.119 0 1.915-.82 1.915-1.699a.75.75 0 011.5 0c0 .88.796 1.699 1.915 1.699h.079c1.295-.047 1.97-1.24 1.543-2.172l-2.03-4.432c-.263-.574-.903-.99-1.659-.99H6.071c-.756 0-1.395.416-1.659.99l-2.03 4.432c-.427.933.25 2.126 1.543 2.172h.082c1.101 0 1.914-.887 1.914-1.699a.75.75 0 111.5 0zM.75 21.75A.75.75 0 011.5 21h21a.75.75 0 010 1.5h-21a.75.75 0 01-.75-.75zM6.375 14.25a.375.375 0 00-.375.375V18h4.5v-3.375a.375.375 0 00-.375-.375h-3.75zm-1.326-.95c.352-.353.829-.55 1.326-.55h3.75A1.875 1.875 0 0112 14.625v4.125a.75.75 0 01-.75.75h-6a.75.75 0 01-.75-.75v-4.125c0-.497.198-.974.55-1.326z"/><path fill-rule="evenodd" clip-rule="evenodd" d="M14.625 14.25a.375.375 0 00-.375.375v7.125a.75.75 0 01-1.5 0v-7.125a1.875 1.875 0 011.875-1.875h3a1.875 1.875 0 011.875 1.875v7.125a.75.75 0 01-1.5 0v-7.125a.375.375 0 00-.375-.375h-3z"/></svg><svg viewBox="0 0 16 16" id="trash" xmlns="http://www.w3.org/2000/svg"><path fill-rule="evenodd" clip-rule="evenodd" d="M2.448 4.003a.5.5 0 01.55.445l.895 8.613a.5.5 0 00.496.439h7.222a.5.5 0 00.496-.439l.896-8.613a.5.5 0 01.994.104l-.896 8.617v.006a1.5 1.5 0 01-1.49 1.325H4.389a1.5 1.5 0 01-1.49-1.325v-.006l-.896-8.617a.5.5 0 01.445-.55z"/><path fill-rule="evenodd" clip-rule="evenodd" d="M.5 2.5a1 1 0 011-1h13a1 1 0 011 1V4a1 1 0 01-1 1h-13a1 1 0 01-1-1V2.5zm14 0h-13V4h13V2.5zM10.104 7.146a.5.5 0 010 .708l-3.5 3.5a.5.5 0 01-.708-.708l3.5-3.5a.5.5 0 01.708 0z"/><path fill-rule="evenodd" clip-rule="evenodd" d="M5.896 7.146a.5.5 0 01.708 0l3.5 3.5a.5.5 0 01-.708.708l-3.5-3.5a.5.5 0 010-.708z"/></svg></svg>