<svg width="153" height="160" viewBox="0 0 153 160" fill="none" xmlns="http://www.w3.org/2000/svg">
<path fill-rule="evenodd" clip-rule="evenodd" d="M74.783 0C105.366 0 130.158 24.744 130.158 55.2674C130.158 85.7908 105.366 110.535 74.783 110.535C44.2004 110.535 19.4083 85.7908 19.4083 55.2674C19.4083 24.744 44.2004 0 74.783 0Z" fill="#945A2B"/>
<path fill-rule="evenodd" clip-rule="evenodd" d="M74.7829 2.57676C103.94 2.57676 127.576 26.167 127.576 55.2667C127.576 84.3671 103.94 107.957 74.7829 107.957C45.6268 107.957 21.9907 84.3664 21.9907 55.2667C21.99 26.167 45.626 2.57676 74.7829 2.57676Z" fill="#3C1D02"/>
<path d="M33.9243 79.4084L32.0077 80.4433L28.5348 74.0373L30.4513 73.0024L31.0491 74.1053L30.2806 74.5973L30.9945 75.9143L36.0676 73.1743L35.805 72.3349L36.6768 71.8637L38.2841 74.8286L37.4123 75.2998L36.8519 74.6209L31.7788 77.3602L32.4928 78.678L33.3258 78.3041L33.9243 79.4084ZM32.8688 70.2072L32.7547 70.2409C31.8843 70.4951 31.0993 70.4608 30.399 70.1363C29.7008 69.8112 29.225 69.2204 28.9732 68.361C28.7192 67.4959 28.7974 66.7396 29.2093 66.09C29.619 65.4405 30.2626 64.9864 31.1366 64.7308L31.2507 64.6971C32.1283 64.4407 32.9154 64.4758 33.6121 64.8017C34.3067 65.1282 34.7803 65.7191 35.0322 66.5763C35.2869 67.4429 35.208 68.1991 34.7997 68.848C34.3907 69.4982 33.747 69.9501 32.8688 70.2072ZM32.4016 68.6288C32.9326 68.4734 33.3309 68.255 33.5992 67.975C33.8654 67.695 33.9379 67.3483 33.8159 66.9322C33.6968 66.5276 33.4478 66.2784 33.0697 66.1853C32.6922 66.0922 32.2388 66.123 31.7114 66.277L31.5987 66.3099C31.0828 66.461 30.6881 66.6801 30.4176 66.9652C30.1471 67.2502 30.0703 67.5961 30.1902 68.005C30.31 68.414 30.5611 68.6625 30.9421 68.7527C31.3232 68.843 31.7731 68.8129 32.289 68.6625L32.4016 68.6288ZM28.6998 63.1187L27.711 63.1932L27.5302 60.8083L28.2312 60.6766C27.9557 60.5169 27.7361 60.3178 27.5754 60.08C27.4125 59.8423 27.32 59.5572 27.2948 59.2264C27.2374 58.4751 27.4864 57.8692 28.0432 57.4102C28.5979 56.9511 29.3542 56.6861 30.3129 56.6138L30.4298 56.6052C31.3282 56.5372 32.0665 56.689 32.6435 57.0629C33.2211 57.4367 33.5375 57.9953 33.5935 58.7394C33.6172 59.0552 33.5791 59.3402 33.4794 59.5945C33.3797 59.8501 33.2211 60.0736 33.0058 60.2648L34.7667 60.1316L34.8772 59.3503L35.866 59.2751L36.1071 62.4534L35.1183 62.5286L34.8915 61.7723L28.8024 62.2328L28.6998 63.1187ZM31.9137 60.3464C32.0787 60.2318 32.1986 60.0865 32.2753 59.9074C32.3521 59.7262 32.3801 59.5114 32.3607 59.2586C32.3306 58.8647 32.1534 58.5875 31.829 58.4257C31.5047 58.2653 31.0763 58.2058 30.5453 58.246L30.4291 58.2545C29.8565 58.2982 29.3994 58.4286 29.0579 58.6448C28.7177 58.8611 28.5613 59.1648 28.5915 59.5551C28.6101 59.8 28.6754 60.0048 28.7902 60.171C28.905 60.3357 29.0586 60.4603 29.2545 60.5477L31.9137 60.3464ZM33.224 55.0963L32.2352 55.0211L32.1318 54.1481L28.3733 53.8645L28.143 54.7124L27.1542 54.6379L27.556 49.3369L29.6943 49.4988L29.6168 50.52L28.7378 50.5207L28.608 52.2324L32.256 52.5081L32.4899 51.6601L33.4787 51.7346L33.224 55.0963ZM30.8776 47.8817L30.7613 47.8559C29.8766 47.6568 29.2071 47.2457 28.7536 46.6227C28.3016 45.9996 28.1731 45.2534 28.3712 44.3797C28.5699 43.5002 29.0062 42.8772 29.6828 42.5091C30.3573 42.1403 31.1409 42.055 32.0292 42.2556L32.1455 42.2813C33.0374 42.4826 33.7083 42.8951 34.1582 43.5174C34.6067 44.1398 34.733 44.8853 34.5363 45.7576C34.3369 46.6384 33.9006 47.2615 33.2275 47.631C32.5523 47.9999 31.7695 48.0829 30.8776 47.8817ZM31.2371 46.2761C31.7767 46.3978 32.2316 46.3999 32.6018 46.2846C32.9707 46.1693 33.2024 45.9015 33.2986 45.4783C33.3919 45.0665 33.295 44.7284 33.0101 44.4635C32.7253 44.1985 32.3141 44.0058 31.7781 43.8855L31.6633 43.8597C31.1388 43.7416 30.6874 43.7416 30.3121 43.8597C29.9369 43.9779 29.7015 44.2429 29.6075 44.6582C29.5135 45.0729 29.6125 45.4124 29.901 45.6759C30.1902 45.9395 30.5977 46.1314 31.1222 46.2503L31.2371 46.2761ZM35.4591 41.5272L34.5593 41.1118L34.7617 40.2546L31.349 38.679L30.8345 39.3923L29.9347 38.977L30.3035 38.1813L31.3712 35.8767C31.7121 35.1419 32.1096 34.6306 32.5624 34.3434C33.0166 34.0562 33.5045 34.0326 34.0276 34.2739C34.2874 34.3943 34.4775 34.5876 34.5995 34.8533C34.72 35.1183 34.7617 35.4356 34.72 35.8029C34.9927 35.4198 35.2862 35.1706 35.6048 35.0539C35.9226 34.9386 36.2255 34.9471 36.5168 35.0818C37.042 35.3238 37.347 35.702 37.4345 36.2133C37.5206 36.7261 37.3965 37.3449 37.0592 38.0732L35.4591 41.5272ZM35.3637 38.7191L35.9083 37.5439C36.0296 37.2833 36.0719 37.0677 36.0339 36.8987C35.9958 36.7289 35.8839 36.6008 35.6952 36.5141C35.5086 36.4282 35.3357 36.4224 35.1786 36.4955C35.0236 36.57 34.8829 36.7411 34.7574 37.0125L34.2127 38.1877L35.3637 38.7191ZM33.3122 37.7724L33.7298 36.8707C33.8475 36.6086 33.887 36.3938 33.8518 36.2283C33.8145 36.0629 33.7047 35.9383 33.5217 35.8538C33.3108 35.7564 33.1235 35.7542 32.9613 35.8488C32.7977 35.9426 32.6506 36.1302 32.52 36.4124L32.1397 37.2324L33.3122 37.7724ZM36.2348 33.0063L36.1358 32.9398C35.3823 32.4363 34.9052 31.8132 34.7064 31.0684C34.5091 30.3251 34.6583 29.5824 35.1577 28.8383C35.66 28.0892 36.2915 27.6645 37.0557 27.5635C37.8177 27.4611 38.5797 27.6631 39.336 28.1687L39.4351 28.2346C40.1949 28.7431 40.6728 29.3683 40.868 30.1109C41.0617 30.8521 40.9118 31.5941 40.4138 32.3367C39.9101 33.0873 39.2786 33.512 38.518 33.6151C37.756 33.7182 36.9954 33.5141 36.2348 33.0063ZM37.1489 31.6371C37.6089 31.9443 38.0322 32.1097 38.4197 32.1355C38.8058 32.1606 39.1186 31.9937 39.3604 31.6335C39.5958 31.2826 39.6266 30.9324 39.4566 30.5829C39.2858 30.2341 38.9715 29.9061 38.5152 29.601L38.4176 29.5358C37.9705 29.2372 37.5493 29.0761 37.1561 29.051C36.7636 29.0266 36.4486 29.1892 36.2111 29.543C35.9736 29.8968 35.9442 30.2484 36.1185 30.5979C36.2929 30.9474 36.6043 31.2733 37.0514 31.5719L37.1489 31.6371ZM40.6377 26.9197L40.4741 26.7657C39.8168 26.1477 39.4444 25.4573 39.3604 24.696C39.2736 23.9348 39.5197 23.2523 40.0974 22.6464C40.6599 22.0505 41.2777 21.7569 41.9486 21.7655C42.6203 21.7755 43.2625 22.0684 43.876 22.6457L44.5261 23.2573L42.0347 25.8963L42.052 25.9286C42.3641 26.1799 42.6942 26.3081 43.045 26.3117C43.3952 26.3153 43.7116 26.167 43.9929 25.8698C44.2419 25.6063 44.422 25.3621 44.534 25.1372C44.6452 24.913 44.742 24.643 44.8253 24.3279L45.8664 24.701C45.8399 25.0204 45.738 25.3714 45.5636 25.7545C45.3886 26.1384 45.1324 26.5079 44.7959 26.8639C44.1938 27.502 43.5086 27.8192 42.7394 27.8149C41.9694 27.8106 41.2684 27.5127 40.6377 26.9197ZM41.2892 25.1981L41.3236 25.2067L42.7056 23.7428L42.5923 23.6361C42.3196 23.3797 42.0491 23.2358 41.7743 23.2021C41.5002 23.1685 41.249 23.2723 41.0223 23.5122C40.8142 23.7328 40.7403 23.9928 40.7998 24.2907C40.8608 24.5893 41.0244 24.8908 41.2892 25.1981ZM52.4535 16.9135L52.3739 16.7667C51.947 15.979 51.8185 15.2112 51.9893 14.465C52.1601 13.7166 52.6566 13.1215 53.4782 12.6782C53.9109 12.4447 54.3321 12.2993 54.7468 12.242C55.1601 12.1869 55.544 12.2127 55.8971 12.3251L56.6864 13.7324L55.5132 14.3654L54.8272 13.6679C54.7203 13.645 54.6048 13.64 54.4756 13.6572C54.3486 13.6736 54.2166 13.7188 54.0809 13.7918C53.6719 14.0131 53.4639 14.3175 53.4545 14.7035C53.4473 15.0895 53.5693 15.5156 53.8219 15.9818L53.9023 16.1301C54.1599 16.6056 54.4455 16.9465 54.759 17.1542C55.0697 17.3611 55.4228 17.3583 55.811 17.1484C56.0678 17.0095 56.2343 16.824 56.3096 16.5934C56.3857 16.3628 56.357 16.125 56.2235 15.8787L57.5302 15.1733L57.5546 15.1819C57.8617 15.7154 57.904 16.2776 57.683 16.8698C57.4613 17.4607 57.038 17.9248 56.4144 18.2614C55.6151 18.6925 54.8638 18.7734 54.1563 18.5041C53.4488 18.2334 52.8826 17.7049 52.4535 16.9135ZM58.9029 13.8792L58.8318 13.6665C58.547 12.8107 58.5477 12.0272 58.8354 11.3167C59.1217 10.6056 59.6628 10.1215 60.4585 9.86152C61.2371 9.60371 61.9209 9.63736 62.5064 9.9625C63.0934 10.2898 63.5189 10.8512 63.7851 11.6505L64.0664 12.497L60.6185 13.64V13.6765C60.7735 14.0453 61.0031 14.3153 61.3102 14.4836C61.6174 14.6526 61.9661 14.6727 62.3543 14.5438C62.6987 14.4299 62.9735 14.3003 63.1787 14.1549C63.384 14.0102 63.5971 13.8183 63.8195 13.5805L64.5586 14.4027C64.3828 14.6713 64.1273 14.9319 63.7908 15.1862C63.4543 15.4411 63.0525 15.6452 62.5875 15.7999C61.7544 16.0756 61.0003 16.0305 60.3251 15.6624C59.6506 15.2943 59.1755 14.6999 58.9029 13.8792ZM60.2949 12.6717L60.3207 12.6954L62.2337 12.0616L62.1849 11.914C62.0665 11.5595 61.8972 11.3046 61.6719 11.1449C61.4466 10.9852 61.1761 10.9572 60.8625 11.0618C60.574 11.1571 60.386 11.3511 60.2963 11.6419C60.2067 11.9334 60.2074 12.2764 60.2949 12.6717ZM65.3787 9.64596L65.2403 8.66625L67.6125 8.3318L67.7897 9.02147C67.9318 8.73644 68.1169 8.50511 68.3437 8.32965C68.5704 8.15205 68.8503 8.04175 69.1796 7.9952C69.9273 7.88993 70.5487 8.09905 71.0438 8.62328C71.5389 9.14608 71.8525 9.88228 71.9867 10.8319L72.0032 10.9472C72.1287 11.8381 72.0247 12.5829 71.6882 13.1816C71.3516 13.7811 70.8135 14.132 70.073 14.2365C69.7594 14.2809 69.4709 14.2609 69.2112 14.1778C68.9493 14.0947 68.7154 13.9515 68.5101 13.7495L68.757 15.4948L69.5456 15.5543L69.684 16.534L66.5218 16.9794L66.3833 15.9997L67.1245 15.7247L66.2714 9.69035L65.3787 9.64596ZM68.358 12.6674C68.4829 12.8243 68.6364 12.9346 68.8201 12.9997C69.006 13.0642 69.2234 13.0785 69.4745 13.0434C69.8663 12.9876 70.1318 12.7935 70.2732 12.4605C70.4124 12.1275 70.4446 11.6963 70.37 11.1707L70.3535 11.0546C70.2732 10.4867 70.1131 10.0406 69.8749 9.714C69.6374 9.38958 69.3224 9.2535 68.9349 9.30793C68.6917 9.3423 68.4915 9.42108 68.3322 9.54569C68.175 9.6703 68.0609 9.83217 67.9863 10.032L68.358 12.6674ZM73.6507 12.3702L74.1752 12.4096C74.5763 12.0479 74.8568 11.682 75.0154 11.3153C75.1726 10.9487 75.2859 10.4165 75.3548 9.71973L75.4345 8.82595L74.5949 8.61611L74.6703 7.62925L80.0196 8.03389L80.895 8.10048L80.8204 9.08736L79.9414 9.16685L79.6623 12.8364L80.5355 12.9023L80.222 15.9653L78.6584 15.8465L78.7962 14.0339L75.2214 13.7632L75.0836 15.5758L73.5201 15.4576L73.6507 12.3702ZM76.0451 12.5571L78.0184 12.7061L78.2867 9.17258L77.0626 9.08019L77.0002 9.82715C76.9234 10.433 76.8043 10.9608 76.6428 11.4099C76.4799 11.8567 76.2812 12.2399 76.0451 12.5571ZM81.7554 14.1055L82.0402 13.158L82.9171 13.2439L83.9676 9.74622L83.2192 9.23416L83.504 8.28597L84.3407 8.53663L85.9035 9.00427L86.6175 9.21768L86.3326 10.1652L85.5462 10.2182L84.5265 13.6128L86.4481 14.1878L87.4678 10.7932L86.8292 10.3141L87.114 9.36593L87.8316 9.58079L89.4109 10.0535L88.0253 14.6662L88.8742 14.9197L87.8868 17.8138L86.4625 17.3876L86.9791 15.6681L81.7554 14.1055ZM89.0471 11.2666L89.4109 10.0535L90.2397 10.302L89.9548 11.2494L89.0471 11.2666ZM91.0404 13.9665L91.1352 13.7624C91.514 12.9446 92.0522 12.3731 92.7489 12.0522C93.445 11.7293 94.1718 11.7457 94.9303 12.1002C95.6751 12.444 96.1501 12.936 96.3546 13.5734C96.5577 14.2122 96.4831 14.9126 96.1293 15.6775L95.754 16.4867L92.4562 14.9642L92.4311 14.9906C92.2911 15.3659 92.2739 15.719 92.3815 16.052C92.4899 16.385 92.7303 16.6378 93.102 16.809C93.432 16.9615 93.7205 17.0546 93.9695 17.089C94.2178 17.1234 94.5055 17.1291 94.8305 17.1083L94.8061 18.2126C94.494 18.2886 94.1288 18.3036 93.709 18.2599C93.2885 18.2162 92.8559 18.0902 92.411 17.8847C91.6138 17.5166 91.095 16.9687 90.8553 16.2389C90.6149 15.5092 90.6767 14.7515 91.0404 13.9665ZM92.8831 14.0374L92.886 14.0725L94.715 14.9169L94.7803 14.7758C94.9375 14.4363 94.9884 14.1341 94.9339 13.8649C94.8793 13.5941 94.7007 13.3893 94.4015 13.2511C94.1259 13.1243 93.8554 13.1365 93.5906 13.2869C93.3258 13.4387 93.0905 13.6894 92.8831 14.0374ZM100.199 22.274L100.879 21.5543L101.624 22.0233L105.654 17.755L105.14 17.0403L105.821 16.3206L106.457 16.9186L107.643 18.0336L108.28 18.6323L107.599 19.3528L106.853 18.8837L104.255 21.6366L104.272 21.6681L108.966 21.4955L109.278 21.1647L108.765 20.4499L109.445 19.7295L110.077 20.3239L111.271 21.4468L111.903 22.0412L111.223 22.761L110.478 22.2919L106.448 26.5595L106.961 27.2742L106.281 27.9947L103.823 25.6822L104.503 24.9617L105.249 25.4308L107.787 22.7431L107.768 22.7123L103.07 22.8892L102.824 23.152L103.338 23.8667L102.658 24.5865L100.199 22.274ZM110.954 25.8956L111.75 25.3062L113.177 27.2269L112.654 27.7125C112.973 27.701 113.265 27.7526 113.528 27.8679C113.792 27.9825 114.024 28.1744 114.222 28.4416C114.671 29.0474 114.784 29.6913 114.558 30.3766C114.334 31.0605 113.836 31.6872 113.063 32.258L112.969 32.3274C112.245 32.8631 111.539 33.1274 110.851 33.1181C110.163 33.1095 109.597 32.8044 109.152 32.2057C108.963 31.9514 108.843 31.6893 108.792 31.4215C108.74 31.1522 108.755 30.8787 108.834 30.6029L107.416 31.6521L107.74 32.3718L106.943 32.9612L105.042 30.401L105.838 29.8116L106.434 30.3308L111.339 26.7013L110.954 25.8956ZM109.715 29.9512C109.637 30.1353 109.613 30.3229 109.644 30.5148C109.675 30.7089 109.767 30.9059 109.918 31.1093C110.153 31.4265 110.452 31.5669 110.813 31.5311C111.172 31.4938 111.567 31.3169 111.994 31.0004L112.088 30.9309C112.55 30.5893 112.867 30.2363 113.04 29.871C113.213 29.5072 113.183 29.167 112.949 28.8526C112.803 28.6557 112.638 28.5175 112.452 28.438C112.268 28.3599 112.07 28.3363 111.859 28.3664L109.715 29.9512ZM111.338 35.3675L112.241 34.96L112.755 35.6762L116.235 34.1078L115.982 33.2742L116.887 32.8674L118.224 35.8252L117.32 36.2326L116.913 35.6082L115.869 36.078L116.101 36.59L117.671 36.8822C118.076 36.9495 118.41 37.062 118.671 37.2202C118.932 37.3764 119.14 37.6277 119.294 37.9686C119.371 38.1383 119.415 38.3031 119.43 38.4606C119.445 38.6196 119.443 38.7829 119.421 38.9533L118.355 39.1309C118.335 39.0178 118.323 38.9447 118.32 38.9175C118.314 38.8882 118.297 38.8395 118.266 38.7714C118.219 38.6683 118.13 38.5781 117.998 38.5007C117.865 38.4219 117.721 38.369 117.562 38.3417L116.17 38.1068L114.797 40.2739L115.011 41.0825L114.107 41.49L113.179 39.4375L114.74 37.2782L114.481 36.7046L113.434 37.1765L113.58 37.9192L112.677 38.3267L111.338 35.3675ZM119.375 41.2536L120.342 41.0309L121.012 43.9328L120.047 44.1548L119.783 43.5167L117.594 44.8753L117.184 45.0564L117.186 45.0915L120.213 45.3801L120.169 44.6855L121.135 44.4635L121.806 47.3653L120.84 47.5881L120.63 47.0538L114.358 46.2037C113.889 46.1307 113.479 45.9853 113.124 45.7633C112.77 45.5434 112.526 45.1453 112.393 44.568C112.361 44.4334 112.343 44.3038 112.337 44.1813C112.332 44.0567 112.329 43.9113 112.332 43.7416L113.521 43.6628C113.526 43.7165 113.53 43.7709 113.535 43.8268C113.54 43.8841 113.548 43.9321 113.556 43.9715C113.618 44.2386 113.731 44.4269 113.893 44.5415C114.057 44.6532 114.245 44.7242 114.456 44.7564L114.948 44.8337L119.415 41.8273L119.375 41.2536ZM119.983 49.4716L122.052 49.3147L122.533 55.6363L120.464 55.7931L120.369 54.5427L121.168 54.4145L121.09 53.3796L117.442 53.6561L117.339 54.5291L116.351 54.6043L116.095 51.2426L117.084 51.1681L117.318 52.0161L120.966 51.7404L120.888 50.7234H120.079L119.983 49.4716ZM119.351 57.4517L119.517 57.4754C120.405 57.6007 121.101 57.9537 121.601 58.5338C122.103 59.1161 122.288 59.868 122.157 60.7912C122.088 61.2774 121.955 61.7021 121.755 62.0688C121.554 62.4333 121.305 62.7262 121.005 62.9432L119.402 62.7406L119.588 61.4221L120.558 61.2853C120.64 61.2137 120.713 61.1235 120.776 61.0103C120.838 60.8993 120.88 60.7654 120.902 60.6136C120.967 60.1538 120.845 59.8057 120.54 59.5687C120.233 59.3338 119.817 59.1784 119.291 59.1046L119.124 59.081C118.588 59.0058 118.143 59.0323 117.789 59.1605C117.438 59.2872 117.23 59.5716 117.169 60.0084C117.128 60.297 117.179 60.5412 117.319 60.7389C117.46 60.9366 117.669 61.0554 117.946 61.0941L117.739 62.5622L117.717 62.5766C117.105 62.5057 116.627 62.2063 116.281 61.6771C115.937 61.1485 115.814 60.5326 115.913 59.8315C116.04 58.9335 116.421 58.2825 117.059 57.8743C117.696 57.466 118.459 57.3264 119.351 57.4517ZM115.535 63.7697L116.487 64.0483L116.409 64.9248L120.073 65.9969L120.425 65.2006L121.376 65.4791L120.461 68.593L119.51 68.3144L119.609 67.5761L118.51 67.2545L118.351 67.7938L119.352 69.0356C119.616 69.3507 119.796 69.6529 119.891 69.9423C119.986 70.2302 119.981 70.556 119.875 70.9148C119.823 71.0938 119.75 71.2478 119.657 71.3767C119.564 71.5071 119.457 71.6295 119.328 71.7441L118.403 71.1855C118.462 71.0867 118.501 71.0244 118.516 71C118.532 70.975 118.55 70.9263 118.571 70.8546C118.602 70.7458 118.594 70.6197 118.544 70.4751C118.495 70.329 118.421 70.1951 118.317 70.0712L117.413 68.9876L114.958 69.7396L114.593 70.4923L113.641 70.2137L114.276 68.053L116.87 67.4293L117.047 66.8255L115.944 66.5033L115.571 67.1614L114.62 66.8828L115.535 63.7697ZM114.631 72.1129C115.145 72.3843 115.436 72.7954 115.505 73.3476C115.573 73.899 115.4 74.5672 114.986 75.3485L114.595 76.0876L115.1 76.3533C115.347 76.4829 115.578 76.5101 115.794 76.4342C116.008 76.3583 116.191 76.1757 116.345 75.8857C116.432 75.7209 116.493 75.5648 116.524 75.4187C116.559 75.2719 116.571 75.1459 116.565 75.0413L116.087 74.6711L116.629 73.6469L117.816 74.2786C117.86 74.6267 117.856 74.9998 117.804 75.3951C117.752 75.789 117.622 76.1821 117.417 76.5703C117.065 77.2349 116.615 77.6875 116.065 77.9267C115.514 78.1681 114.932 78.1258 114.321 77.8035L112.093 76.6305C112.016 76.5904 111.943 76.5517 111.874 76.5173C111.806 76.4829 111.736 76.455 111.669 76.4335L111.38 76.8446L110.503 76.3827L111.387 74.7104C111.498 74.7169 111.61 74.7326 111.721 74.752C111.832 74.7713 111.939 74.8 112.045 74.8336C111.937 74.5579 111.886 74.2643 111.892 73.9556C111.898 73.6441 111.985 73.3318 112.153 73.0153C112.433 72.486 112.799 72.1437 113.251 71.9826C113.704 71.8236 114.163 71.8666 114.631 72.1129ZM113.93 73.604C113.77 73.5202 113.614 73.5116 113.462 73.5811C113.31 73.6505 113.178 73.7895 113.068 73.9957C112.954 74.2127 112.891 74.434 112.883 74.6546C112.873 74.8773 112.905 75.0721 112.982 75.2383L113.718 75.6257L114.107 74.8895C114.269 74.5844 114.323 74.3158 114.273 74.0874C114.222 73.8597 114.107 73.6978 113.93 73.604Z" fill="#945A2B"/>
<path d="M60.8524 94.7035L61.0928 93.65L64.4531 93.7968L62.7453 101.271L64.1646 101.781L63.9242 102.834L59.2365 101.767L59.4769 100.714L60.9916 100.872L62.3248 95.0386L60.8524 94.7035ZM66.633 100.862C66.6689 100.383 66.8389 99.9665 67.1374 99.6192C67.4359 99.2718 67.8291 99.0147 68.3185 98.85C67.9152 98.6287 67.6103 98.3373 67.4051 97.9792C67.1984 97.6197 67.1123 97.2179 67.1453 96.7753C67.2049 95.9847 67.512 95.3924 68.0623 94.9999C68.6156 94.6053 69.3166 94.4406 70.1676 94.5044C71.0186 94.5688 71.6896 94.8388 72.1818 95.3115C72.6733 95.7834 72.8886 96.4151 72.829 97.2057C72.7953 97.6483 72.6475 98.0329 72.3841 98.3559C72.1215 98.6789 71.7735 98.9202 71.3451 99.0792C71.8044 99.3155 72.1574 99.6299 72.4028 100.02C72.6489 100.411 72.7544 100.846 72.7185 101.321C72.6561 102.145 72.3267 102.759 71.7333 103.159C71.1392 103.56 70.3879 103.726 69.4852 103.658C68.5775 103.59 67.8607 103.312 67.3319 102.826C66.803 102.341 66.5706 101.685 66.633 100.862ZM68.4362 100.874C68.4053 101.281 68.4965 101.612 68.706 101.862C68.9162 102.113 69.2104 102.254 69.5893 102.282C69.9595 102.31 70.2674 102.213 70.5156 101.995C70.7632 101.777 70.9031 101.466 70.9333 101.064C70.9634 100.665 70.8708 100.337 70.6549 100.079C70.4389 99.8211 70.1468 99.6793 69.7766 99.6514C69.4049 99.6235 69.0963 99.7194 68.8502 99.9422C68.6041 100.165 68.4663 100.476 68.4362 100.874ZM68.9335 96.9909C68.9062 97.3597 68.9751 97.6598 69.143 97.8904C69.3102 98.1217 69.562 98.2499 69.8942 98.2742C70.2157 98.2986 70.4798 98.2098 70.6821 98.0064C70.8845 97.8037 71.0014 97.518 71.0287 97.1491C71.056 96.7925 70.9813 96.4967 70.8077 96.2654C70.634 96.0341 70.3843 95.9059 70.0629 95.8816C69.735 95.8572 69.4716 95.9438 69.2736 96.1429C69.0755 96.3428 68.9607 96.6263 68.9335 96.9909ZM75.222 100.847L78.4812 94.6985L80.2937 94.5609L80.7185 100.146L81.7073 100.071L81.7891 101.148L80.8003 101.223L80.8735 102.184L81.8178 102.317L81.8996 103.394L78.2358 103.671L78.154 102.594L79.0796 102.321L79.0064 101.358L75.3677 101.634L75.222 100.847ZM76.8731 100.437L78.9246 100.282L78.6806 97.0739L78.6419 97.0646L78.5149 97.3325L76.8731 100.437ZM83.9546 100.705C83.847 100.237 83.8843 99.7889 84.0651 99.3692C84.2459 98.9489 84.5444 98.5865 84.9635 98.2835C84.5122 98.1919 84.134 98.0042 83.8312 97.7242C83.5277 97.4428 83.3232 97.0847 83.2242 96.6529C83.0462 95.8808 83.161 95.2234 83.57 94.6848C83.9797 94.1441 84.5997 93.7775 85.4313 93.5855C86.263 93.3943 86.9848 93.4523 87.5955 93.7574C88.2054 94.0618 88.6 94.6003 88.778 95.3731C88.8777 95.8049 88.8519 96.2167 88.6969 96.6034C88.5419 96.9902 88.2822 97.3239 87.9205 97.6032C88.43 97.692 88.8605 97.8875 89.2114 98.1869C89.563 98.4876 89.794 98.8715 89.9009 99.3363C90.0868 100.141 89.9555 100.825 89.5092 101.383C89.0621 101.942 88.3948 102.326 87.5122 102.528C86.6261 102.732 85.8583 102.681 85.2082 102.374C84.5588 102.067 84.139 101.509 83.9546 100.705ZM85.6796 100.18C85.7707 100.577 85.9573 100.867 86.2321 101.043C86.5069 101.22 86.8313 101.266 87.2001 101.181C87.561 101.098 87.8272 100.913 87.9987 100.632C88.1695 100.35 88.2097 100.011 88.1193 99.6177C88.0296 99.2289 87.8423 98.9424 87.5596 98.7605C87.2769 98.5793 86.9547 98.5306 86.5938 98.6137C86.2307 98.6975 85.9645 98.8822 85.7966 99.1673C85.6287 99.4523 85.5906 99.7918 85.6796 100.18ZM84.9943 96.3256C85.0769 96.6858 85.2347 96.9522 85.4629 97.1226C85.6911 97.2924 85.9702 97.3404 86.2945 97.2659C86.6088 97.1943 86.8349 97.0295 86.9669 96.776C87.0989 96.5225 87.1247 96.2145 87.0422 95.8543C86.9626 95.5063 86.8019 95.2449 86.5679 95.0766C86.3333 94.9076 86.0563 94.8603 85.7428 94.9319C85.422 95.005 85.196 95.1675 85.0668 95.416C84.9369 95.6638 84.9133 95.9696 84.9943 96.3256Z" fill="#945A2B"/>
<path fill-rule="evenodd" clip-rule="evenodd" d="M39.636 96.6313C41.6616 94.4857 48.3592 86.9897 49.7836 86.4361C49.7075 87.476 42.4129 95.739 40.8386 97.7478C40.8802 97.8037 40.9491 97.881 41.0402 97.9741L39.636 96.6313Z" fill="#945A2B"/>
<path fill-rule="evenodd" clip-rule="evenodd" d="M109.965 96.1902C107.939 94.0439 101.55 86.989 100.125 86.4354C100.201 87.4752 107.188 95.2979 108.762 97.3067C108.72 97.3625 108.651 97.4399 108.56 97.533L109.965 96.1902Z" fill="#945A2B"/>
<path d="M21.6922 151.769C14.0546 153.459 7.01046 160 7.01046 160C7.01046 160 5.58827 150.535 9.48313 144.451C5.24959 144.113 2.15049 142 0 138.383C2.43823 137.927 5.48638 137.081 8.1284 136.287C8.85671 136.067 9.58502 135.916 10.3126 135.814L12.5141 148.743C12.5141 148.743 14.2921 152.665 19.8804 150.18C23.7753 148.456 28.1279 146.445 33.1235 146.901C33.2247 147.053 33.2756 147.189 33.3101 147.324C34.1051 150.636 27.4663 150.502 21.6922 151.769Z" fill="#3C1D02"/>
<path d="M143.533 144.451C147.411 150.535 146.005 160 146.005 160C146.005 160 138.961 153.459 131.324 151.769C125.533 150.502 118.894 150.636 119.691 147.324C119.724 147.189 119.792 147.037 119.894 146.868C124.805 146.597 129.394 148.524 133.136 150.18C138.724 152.665 140.502 148.743 140.502 148.743L142.687 135.814C143.415 135.916 144.143 136.067 144.872 136.287C147.513 137.081 150.578 137.927 153 138.383C150.866 142 147.75 144.113 143.533 144.451Z" fill="#3C1D02"/>
<path d="M141.249 125.594C123.496 115.213 29.5121 115.213 11.7606 125.594C11.0596 126.002 14.2484 149.188 14.8798 150.176C14.7514 149.937 14.5562 149.181 16.6514 148.544C23.0778 146.588 41.9379 140.499 76.5051 141.471C111.073 140.5 129.933 146.588 136.359 148.544C138.454 149.181 138.259 149.937 138.131 150.176C138.762 149.188 141.95 126.003 141.249 125.594Z" fill="#3C1D02"/>
<path d="M50.2155 149.347L50.9316 149.528V151.482C50.9316 153.087 50.9316 153.656 50.8986 153.805L50.3475 154.085L50.2736 154.389C50.6689 154.389 51.0715 154.381 51.4748 154.381C51.9763 154.381 52.4865 154.389 52.9802 154.389L53.0706 154.077L52.0667 153.781C52.0667 153.65 52.0172 153.351 52.0172 151.449V149.364C52.889 149.364 53.6296 149.626 53.6296 150.603C53.6296 151.367 53.2098 151.868 52.3624 151.901L52.4693 152.238C52.5676 152.262 52.6666 152.278 52.8151 152.278C53.5147 152.278 54.7977 151.925 54.7977 150.579C54.7977 150.078 54.6083 149.602 54.1232 149.29C53.6877 149.011 53.1115 148.92 52.3136 148.92C51.746 148.92 51.1203 148.978 50.3224 149.043L50.2155 149.347ZM62.2193 151.564C62.2193 152.974 62.2028 153.732 62.1698 153.855L61.6266 154.077L61.5283 154.38C62.0959 154.397 62.7051 154.405 63.2232 154.405C64.7042 154.405 66.1357 154.134 66.1357 152.606C66.1357 151.654 65.4447 151.054 64.1696 151.054C63.8073 151.054 63.5195 151.104 63.2892 151.153V149.511L63.8489 149.281L63.9314 148.978C63.5446 148.978 63.1665 148.985 62.7711 148.985C62.4174 148.985 62.0636 148.978 61.702 148.978L61.6195 149.273L62.22 149.503L62.2193 151.564ZM64.9424 152.648C64.9424 153.707 64.1775 153.979 63.3136 153.979C63.2892 153.19 63.2892 152.41 63.2892 151.564C63.4456 151.548 63.5769 151.524 63.7829 151.524C64.3583 151.524 64.9431 151.77 64.9431 152.64L64.9424 152.648ZM66.333 149.273L66.9336 149.503V151.564C66.9336 152.933 66.9171 153.732 66.8841 153.839L66.2756 154.077L66.2017 154.389C66.6208 154.389 67.0491 154.381 67.4689 154.381C67.8887 154.381 68.2998 154.389 68.711 154.389L68.7935 154.077L68.0616 153.839C68.0451 153.732 68.0207 152.933 68.0207 151.564V149.512L68.5718 149.282L68.6622 148.978C68.2754 148.978 67.8808 148.986 67.4854 148.986C67.1317 148.986 66.7858 148.978 66.4242 148.978L66.333 149.273ZM75.5141 149.298L76.1721 149.528V151.531C76.1721 152.535 76.1312 153.649 76.1226 153.83L75.5385 154.076L75.4481 154.388C75.8592 154.388 76.2711 154.38 76.6657 154.38C77.0116 154.38 77.3323 154.388 77.661 154.388L77.7514 154.076L77.2663 153.797C77.2419 153.029 77.2577 152.369 77.2577 151.768H78.7552C79.208 151.768 79.5532 151.744 79.7017 151.736C79.7017 152.42 79.7182 153.104 79.6931 153.813L79.3314 154.059L79.241 154.388C79.5869 154.388 79.9406 154.38 80.2858 154.38C80.6969 154.38 81.1088 154.388 81.5035 154.388L81.5939 154.068L80.8455 153.805C80.8125 153.699 80.7881 152.51 80.7881 151.588V149.543L81.413 149.297L81.5035 148.977C81.0923 148.977 80.6804 148.985 80.2614 148.985C79.965 148.985 79.6694 148.977 79.3644 148.977L79.2905 149.289L79.7017 149.535V151.244H77.2577V149.544L77.628 149.314L77.7263 148.978C77.4055 148.978 77.0762 148.985 76.7389 148.985C76.3687 148.985 75.9984 148.978 75.6282 148.978L75.5141 149.298ZM91.3511 148.83C89.8866 148.83 88.3725 149.922 88.3725 151.737C88.3725 153.651 89.9684 154.537 91.3425 154.537C92.7245 154.537 94.3203 153.642 94.2959 151.605C94.2629 149.643 92.6262 148.83 91.359 148.83H91.3511ZM91.2528 149.24C92.4296 149.24 93.0467 150.595 93.0467 151.712C93.0467 152.821 92.6764 154.135 91.4422 154.135C90.2906 154.135 89.624 152.903 89.624 151.589C89.624 150.267 90.1994 149.24 91.2449 149.24H91.2528ZM101.8 151.564C101.8 152.942 101.784 153.732 101.751 153.831L101.15 154.077L101.06 154.39C101.479 154.39 101.907 154.382 102.335 154.382C102.746 154.382 103.141 154.39 103.536 154.39L103.659 154.077L102.927 153.823C102.911 153.741 102.886 152.976 102.886 151.857C103.075 151.807 103.19 151.857 103.371 152.112C103.906 152.829 104.408 153.519 104.779 153.938C105.157 154.357 105.61 154.504 106.325 154.504L106.448 154.373C106.119 153.963 105.157 152.731 104.383 151.663C104.252 151.474 104.145 151.327 104.079 151.203L104.087 151.187C104.391 150.784 104.967 150.136 105.477 149.594L106.424 149.291L106.522 148.978C106.193 148.978 105.864 148.986 105.527 148.986C105.321 148.986 105.116 148.978 104.918 148.978L104.885 149.462C104.457 150.078 103.905 150.76 103.552 151.146C103.412 151.294 103.313 151.36 102.885 151.483V149.528L103.436 149.282L103.526 148.978C103.132 148.978 102.745 148.986 102.35 148.986C101.996 148.986 101.634 148.978 101.281 148.978L101.174 149.274L101.799 149.52V151.564H101.8Z" fill="#3C1D02"/>
<path d="M23.0318 133.955C23.4294 136.146 23.8233 138.69 23.8785 139.07L23.0555 139.886L23.0146 140.413C23.6905 140.291 24.3622 140.151 25.0381 140.028L30.9988 138.951C31.3927 140.141 31.8254 141.62 32.1863 142.705L32.591 142.372C32.5867 141.371 32.5422 139.617 32.4676 137.85L31.4286 137.927C31.2844 137.434 30.7584 134.765 30.3932 132.753L29.5615 128.173L30.4542 127.362L30.4656 126.822C29.7904 126.944 29.1181 127.085 28.4429 127.207C27.9528 127.296 27.4728 127.364 26.969 127.455L26.931 128L27.6744 128.478L28.5354 133.219C28.9559 135.536 29.2429 137.191 29.3821 138.186C29.0176 138.363 28.4314 138.525 27.6765 138.661C26.9217 138.798 26.3161 138.852 25.9121 138.814C25.6932 137.833 25.3832 136.201 24.9628 133.885L24.1053 129.161L24.6069 128.458L24.6514 127.875C24.0945 127.976 23.542 128.094 22.9723 128.198C22.376 128.306 21.7768 128.395 21.1806 128.503L21.1397 129.03L22.2174 129.466L23.0318 133.955ZM31.7623 127.166L32.9993 127.629L33.663 132.202C34.1065 135.261 34.3296 137.079 34.3182 137.284L33.3387 138.126L33.3036 138.633C33.9831 138.535 34.7774 138.383 35.4167 138.29L37.8148 137.944C38.5876 137.832 39.3066 137.728 40.154 137.661C40.2272 137.226 40.2501 134.76 40.2164 134.434L39.9265 134.31C39.5785 134.914 39.11 136.091 38.7519 136.994L36.3653 137.136C36.112 135.767 35.7942 133.573 35.6392 132.507C36.1745 132.448 38.1377 132.386 38.3113 132.361C38.4979 132.333 38.9507 131.235 38.9593 131.013L38.8488 130.811C37.9848 131.046 36.6466 131.384 35.5014 131.549L34.88 127.268L37.1984 126.749C37.4316 127.136 38.0996 128.272 38.3271 128.624L38.5618 128.46C38.5826 127.95 38.518 126.005 38.4634 125.533L38.4125 125.466C38.0982 125.548 37.1647 125.868 37.024 125.925L33.7204 126.403C33.094 126.493 32.4518 126.568 31.8125 126.66L31.7623 127.166ZM40.7345 125.845L41.7886 126.404L42.2191 130.892C42.4336 133.128 42.6102 135.678 42.6353 136.079L41.7462 136.824L41.6881 137.343C42.3583 137.278 43.04 137.195 43.7102 137.132C44.2864 137.076 44.864 137.04 45.4402 136.985L45.4983 136.466L44.6301 135.87C44.4191 134.094 44.2978 132.547 44.1708 131.22L46.3278 131.014C47.0116 130.949 47.5706 130.859 47.91 130.735C48.0599 132.298 48.24 133.894 48.3563 135.533L47.7873 136.229L47.717 136.768C48.3197 136.711 48.921 136.635 49.5108 136.578C50.181 136.514 50.8656 136.467 51.5358 136.403L51.581 135.885L50.364 135.323C50.2879 135.091 49.9844 132.351 49.7878 130.298L49.3472 125.701L50.3166 124.948L50.3597 124.413C49.6766 124.478 48.9942 124.561 48.3111 124.627C47.8016 124.675 47.2907 124.706 46.782 124.754L46.7389 125.29L47.4414 125.846L47.8196 129.79L44.0675 130.148L43.6929 126.241L44.277 125.562L44.3438 124.987C43.7812 125.041 43.2201 125.113 42.6439 125.167C42.0411 125.225 41.4226 125.266 40.8062 125.324L40.7345 125.845ZM53.0964 124.161C52.8087 124.089 52.0983 123.952 51.8565 123.968L51.7682 124.065C51.7345 124.58 51.8371 126.768 51.8909 127.386L52.127 127.279C52.4025 126.747 52.8647 125.564 53.0928 124.93L54.8623 124.961L55.1881 129.943C55.4328 133.688 55.4758 134.344 55.483 134.871L54.1555 135.616L54.0823 136.152C54.9283 136.097 55.7736 136.024 56.6067 135.969C57.4125 135.917 58.2197 135.883 59.0255 135.83L59.1131 135.313L57.4971 134.741C57.4419 134.309 57.3587 133.857 57.0566 129.237L56.7688 124.838L58.6531 124.569C58.8935 125.356 59.403 126.548 59.5522 126.974L59.7725 126.832C59.8507 126.376 60.0093 124.262 60.0301 123.547L59.9562 123.442C59.6627 123.497 59.0277 123.686 58.6445 123.802L53.0964 124.161ZM61.2808 124.324L62.4145 124.758L62.5745 129.209C62.708 132.911 62.7532 134.17 62.7109 134.483L61.7945 135.228L61.7049 135.724C62.3772 135.7 63.1034 135.656 63.7757 135.632C64.6231 135.601 65.4985 135.588 66.2921 135.56L66.3682 135.046L64.7537 134.355C64.7437 134.081 64.6389 133.41 64.4839 129.104L64.3103 124.27C65.7375 124.256 66.8396 124.946 66.9171 127.099C66.9788 128.814 66.3345 130.006 65.063 130.216L65.2043 130.776C65.355 130.844 65.5717 130.873 65.8135 130.864C67.024 130.82 69.0669 129.944 68.96 126.97C68.9191 125.839 68.5711 124.774 67.6842 124.093C66.9781 123.553 66.0554 123.366 64.6963 123.415C63.7276 123.45 62.7231 123.613 61.3834 123.808L61.2808 124.324ZM72.7408 123.759L72.88 124.36C72.9079 124.524 72.9094 124.67 72.8699 124.835C71.7929 128.621 70.3994 133.231 70.0557 134.109L69.1322 134.864L69.0282 135.376C69.5261 135.373 70.0241 135.351 70.5092 135.348C70.9935 135.344 71.4915 135.359 71.9766 135.356L72.0806 134.843L71.0122 134.121C71.1686 133.408 71.325 132.749 71.7061 131.378C73.5365 131.402 74.1421 131.324 74.5999 131.284C74.9731 132.614 75.3455 133.889 75.4287 134.253L74.9752 134.859L74.8575 135.335C75.3691 135.331 75.8937 135.309 76.4189 135.305C77.1185 135.3 77.8188 135.313 78.5055 135.309L78.6232 134.816C77.623 134.238 77.4608 134.112 77.1982 133.183C75.4739 127.409 74.7571 125.041 74.5633 124.276C74.3976 123.693 74.356 123.529 74.3517 122.963L74.2971 122.854L72.7408 123.759ZM73.1993 125.781C73.4633 126.893 73.8501 128.332 74.3624 130.299C73.9312 130.303 72.4229 130.241 71.9924 130.244C72.2801 129.11 72.4509 128.433 73.172 125.781H73.1993ZM83.0189 123.891L83.1402 124.496C83.1639 124.643 83.1603 124.807 83.1165 124.971C81.9182 128.724 80.3934 133.256 80.0246 134.142L79.0932 134.871L78.9877 135.381C79.4721 135.391 79.9708 135.383 80.4551 135.393C80.9531 135.404 81.4776 135.434 81.9892 135.444L82.1213 134.936L81.0198 134.182C81.21 133.493 82.051 130.681 83.4028 126.055L83.4301 126.055C84.4275 130.404 85.3043 134.074 85.3768 134.44L84.8932 135.033L84.7618 135.504C85.3 135.516 85.8253 135.509 86.3634 135.52C87.063 135.535 87.7763 135.569 88.4759 135.584L88.5806 135.093C87.5976 134.488 87.439 134.339 87.2029 133.421C85.6451 127.6 85.0101 125.213 84.8243 124.461C84.6894 123.855 84.6384 123.708 84.6506 123.124L84.5997 123.013L83.0189 123.891ZM90.7728 129.35C90.6178 132.412 90.4979 134.253 90.4298 134.523L89.4984 135.079L89.3664 135.566C90.3042 135.668 91.4336 135.725 92.3212 135.769C94.9295 135.901 97.207 135.376 97.3735 132.077C97.4826 129.926 96.4177 128.593 94.1861 128.48C93.6078 128.451 93.0244 128.531 92.7231 128.626L92.9154 124.819L93.8884 124.244L93.9946 123.737C93.3495 123.705 92.675 123.707 92.0163 123.674C91.4114 123.644 90.8079 123.577 90.1894 123.545L90.043 124.05L91.006 124.723L90.7728 129.35ZM95.2704 132.098C95.1534 134.414 93.9752 135.049 92.4418 134.99C92.4956 133.128 92.5917 131.233 92.6857 129.373C92.8759 129.346 93.0797 129.32 93.3753 129.334C94.4509 129.389 95.3701 130.129 95.2718 132.08L95.2704 132.098ZM99.3618 124.497L100.29 125.246L99.8598 129.734C99.646 131.97 99.3345 134.507 99.2829 134.905L98.269 135.468L98.1133 135.967C98.7835 136.031 99.468 136.078 100.138 136.142C100.714 136.197 101.289 136.27 101.865 136.325L102.02 135.827L101.281 135.078C101.411 133.293 101.586 131.751 101.713 130.425L103.871 130.631C104.554 130.696 105.121 130.713 105.477 130.656C105.328 132.219 105.201 133.82 105.004 135.452L104.313 136.027L104.142 136.543C104.745 136.6 105.35 136.64 105.94 136.696C106.61 136.76 107.291 136.844 107.961 136.907L108.104 136.408L107.016 135.626C106.985 135.384 107.207 132.637 107.405 130.584L107.845 125.987L108.94 125.431L109.084 124.913C108.401 124.848 107.716 124.801 107.032 124.736C106.523 124.687 106.016 124.62 105.506 124.572L105.362 125.089L105.946 125.769L105.568 129.711L101.816 129.353L102.19 125.447L102.893 124.89L103.067 124.339C102.505 124.285 101.94 124.249 101.364 124.194C100.761 124.136 100.146 124.06 99.5297 124.001L99.3618 124.497ZM110.812 130.992C110.425 134.016 110.164 135.841 110.076 136.105L109.134 136.574L108.935 137.064C109.863 137.238 110.904 137.371 111.799 137.485C114.189 137.79 116.527 137.444 116.947 134.167C117.218 132.048 116.274 130.621 114.191 130.355C113.644 130.285 113.122 130.33 112.789 130.397L113.273 126.613L114.273 126.115L114.429 125.638C113.788 125.556 113.145 125.493 112.49 125.409C111.89 125.332 111.304 125.239 110.703 125.162L110.534 125.638L111.404 126.374L110.812 130.992ZM114.892 133.997C114.589 136.369 113.371 136.876 112.019 136.722C112.216 134.87 112.455 133.005 112.694 131.14C112.898 131.129 113.077 131.115 113.344 131.15C114.265 131.267 115.146 132.023 114.895 133.979L114.892 133.997ZM118.132 126.608L119.015 127.346L118.424 131.963C118.037 134.987 117.776 136.812 117.692 137.041L116.609 137.546L116.45 138.041C117.144 138.13 117.854 138.202 118.535 138.289C119.243 138.379 119.949 138.488 120.643 138.576L120.815 138.083L119.734 137.301C119.736 137.08 119.933 135.228 120.319 132.204L120.911 127.587L121.897 127.087L122.066 126.612C121.412 126.528 120.756 126.463 120.101 126.38C119.513 126.305 118.929 126.212 118.314 126.134L118.132 126.608ZM123.878 132.735C123.433 134.942 122.862 137.44 122.77 137.831L121.703 138.288L121.496 138.767C122.169 138.902 122.836 138.999 123.496 139.131L124.921 139.418L125.079 138.63C126.844 135.663 128.608 132.698 130.356 129.747L130.488 129.773C130.041 131.585 129.715 133.068 129.436 134.449C129.081 136.28 128.82 137.646 128.48 138.995L127.675 139.448L127.461 139.963C128.068 140.085 128.656 140.166 129.25 140.285C129.91 140.417 130.575 140.588 131.235 140.72L131.436 140.202L130.423 139.365C130.41 139.158 130.93 136.37 131.334 134.364L132.255 129.792L133.381 129.384L133.591 128.886C132.918 128.751 132.241 128.634 131.568 128.499L130.156 128.215L130.012 128.932C128.271 131.847 126.531 134.762 124.764 137.672L124.671 137.653C125.059 135.996 125.381 134.606 125.634 133.35L126.577 128.671L127.396 128.221L127.626 127.69C127.072 127.579 126.501 127.483 125.946 127.372C125.353 127.253 124.762 127.115 124.168 126.997L123.949 127.473L124.769 128.309L123.878 132.735ZM130.885 125.217C130.633 125.65 130.229 126.091 129.622 125.969C128.895 125.823 128.729 125.082 128.811 124.54L128.746 124.453C128.469 124.398 127.833 124.623 127.695 124.763C127.667 124.832 127.64 124.901 127.622 124.99C127.442 125.885 127.892 126.85 128.949 127.062C130.097 127.292 130.991 126.671 131.619 125.121L131.478 125L130.885 125.217Z" fill="#FEC161"/>
<path fill-rule="evenodd" clip-rule="evenodd" d="M58.2987 70.3791C58.3877 70.6928 58.4867 70.9255 58.6015 71.0981L58.6044 71.1024C58.6424 71.1633 58.6884 71.2213 58.7436 71.2757C58.7981 71.3316 58.8555 71.3774 58.9173 71.4154L58.9216 71.4182C59.0945 71.5321 59.3277 71.6317 59.642 71.7205C59.769 71.7269 59.8953 71.7326 60.0208 71.7376C60.0273 72.0306 59.9864 72.7453 60.1077 73.3161C60.615 75.7095 61.9274 78.6436 63.5483 80.762C64.428 81.9114 64.8758 82.296 66.2075 81.9623C66.6704 81.8462 67.2136 81.5283 67.6527 81.3141C69.4358 85.1019 70.6858 87.3685 73.1061 89.4017C73.8085 89.9918 74.285 90.3349 74.783 90.37C75.2802 90.3349 75.7574 89.9918 76.4599 89.4017C78.8802 87.3685 80.1301 85.1019 81.9133 81.3141C82.3517 81.5275 82.8956 81.8462 83.3584 81.9623C84.6909 82.2953 85.1386 81.9114 86.0176 80.762C87.6386 78.6436 88.951 75.7095 89.4583 73.3161C89.5795 72.7453 89.5386 72.0306 89.5451 71.7376C89.6707 71.7326 89.797 71.7276 89.924 71.7205C90.2383 71.6317 90.4715 71.5328 90.6444 71.4182L90.6487 71.4154C90.7104 71.3774 90.7678 71.3316 90.8223 71.2757C90.8776 71.2213 90.9235 71.1633 90.9615 71.1024L90.9644 71.0981C91.0792 70.9255 91.1782 70.6928 91.2672 70.3791C91.2737 70.2523 91.2794 70.1263 91.2844 70.001C91.5779 69.9945 92.294 70.0353 92.8659 69.9143C95.2632 69.408 98.2038 68.0981 100.326 66.4803C101.478 65.6023 101.863 65.1554 101.529 63.8262C101.413 63.3643 101.094 62.8222 100.88 62.3839C104.675 60.6042 106.946 59.3567 108.983 56.9411C109.574 56.24 109.918 55.7637 109.953 55.2674C109.918 54.7711 109.574 54.2949 108.983 53.5938C106.946 51.1782 104.675 49.9306 100.88 48.1509C101.094 47.7134 101.413 47.1705 101.529 46.7086C101.863 45.3794 101.478 44.9325 100.326 44.0545C98.2038 42.4367 95.264 41.1268 92.8659 40.6205C92.2933 40.5002 91.5779 40.5403 91.2844 40.5339C91.2794 40.4085 91.2744 40.2825 91.2672 40.1557C91.1782 39.8421 91.0792 39.6093 90.9644 39.4367L90.9615 39.4324C90.9235 39.3708 90.8776 39.3135 90.8223 39.2591C90.7678 39.2032 90.7097 39.1574 90.6487 39.1195L90.6444 39.1166C90.4715 39.002 90.2383 38.9032 89.924 38.8144C89.797 38.8079 89.6707 38.8022 89.5451 38.7972C89.5386 38.5043 89.5795 37.7895 89.4583 37.2188C88.951 34.8254 87.6386 31.8913 86.0176 29.7729C85.1379 28.6234 84.6902 28.2388 83.3584 28.5726C82.8956 28.6886 82.3524 29.0066 81.9133 29.2207C80.1301 25.4329 78.8802 23.1663 76.4599 21.1331C75.7574 20.543 75.2802 20.2 74.783 20.1649C74.2857 20.2 73.8085 20.543 73.1061 21.1331C70.6858 23.1663 69.4358 25.4329 67.6527 29.2207C67.2143 29.0073 66.6704 28.6886 66.2075 28.5726C64.8751 28.2396 64.4273 28.6234 63.5483 29.7729C61.9274 31.8913 60.615 34.8254 60.1077 37.2188C59.9864 37.7895 60.0273 38.5043 60.0208 38.7972C59.8953 38.8022 59.769 38.8072 59.642 38.8144C59.3277 38.9032 59.0945 39.002 58.9216 39.1166L58.9173 39.1195C58.8563 39.1574 58.7981 39.2032 58.7436 39.2591C58.6884 39.3135 58.6424 39.3715 58.6044 39.4324L58.6015 39.4367C58.4867 39.6093 58.3877 39.8421 58.2987 40.1557C58.2923 40.2825 58.2865 40.4085 58.2815 40.5339C57.988 40.5403 57.2719 40.4995 56.7 40.6205C54.3027 41.1268 51.3622 42.4374 49.2397 44.0545C48.088 44.9325 47.7027 45.3794 48.0371 46.7086C48.1533 47.1705 48.4719 47.7127 48.6864 48.1509C44.8913 49.9306 42.6203 51.1782 40.5832 53.5938C39.9919 54.2949 39.6482 54.7711 39.613 55.2674C39.6482 55.7637 39.9919 56.24 40.5832 56.9411C42.6203 59.3567 44.8913 60.6042 48.6864 62.3839C48.4726 62.8222 48.1533 63.3643 48.0371 63.8262C47.7034 65.1554 48.088 65.6023 49.2397 66.4803C51.3622 68.0981 54.302 69.408 56.7 69.9143C57.2726 70.0353 57.988 69.9945 58.2815 70.001C58.2872 70.1263 58.2923 70.2523 58.2987 70.3791ZM87.0796 38.8058C86.1095 38.853 85.1853 38.9555 84.3084 39.1159C83.2091 39.2255 82.2268 39.4109 80.9137 39.8628C80.4617 38.8087 78.1433 35.5043 77.923 35.3195C78.7187 34.1808 81.909 31.5905 83.6971 31.0018C85.4486 32.6525 87.3982 36.9738 87.0796 38.8058ZM65.2575 39.1159C64.3807 38.9555 63.4572 38.853 62.4863 38.8058C62.1677 36.9738 64.118 32.6525 65.8681 31.0018C67.6563 31.5905 70.8465 34.1808 71.6423 35.3195C71.422 35.5043 69.1036 38.8094 68.6515 39.8628C67.3391 39.4109 66.3561 39.2255 65.2575 39.1159ZM91.2766 42.9946C91.2292 43.9628 91.1259 44.8853 90.9659 45.7604C90.8561 46.8576 90.6702 47.838 90.2174 49.1486C91.2737 49.5997 94.5845 51.9137 94.7703 52.1335C95.9112 51.3393 98.5066 48.1552 99.0964 46.3706C97.4417 44.6224 93.112 42.6766 91.2766 42.9946ZM58.6001 45.7597C58.4394 44.8846 58.3368 43.9621 58.2894 42.9939C56.4539 42.6766 52.1242 44.6224 50.4703 46.3691C51.0601 48.1538 53.6555 51.3378 54.7964 52.1321C54.9815 51.9122 58.293 49.5983 59.3485 49.1471C58.8964 47.8373 58.7099 46.8569 58.6001 45.7597ZM74.783 23.0854C72.4603 24.1517 69.7551 29.0008 69.7099 30.8385L73.1455 33.9223C73.8566 33.3615 74.3402 33.0307 74.783 32.929C75.2257 33.0307 75.7093 33.3615 76.4204 33.9223L79.856 30.8385C79.8108 29.0016 77.1057 24.1517 74.783 23.0854ZM74.783 35.3926C74.2448 35.3467 71.1794 38.7356 70.6219 40.6914C72.9425 42.9187 74.0138 44.1304 74.783 45.8678C75.5529 44.1304 76.6235 42.9187 78.944 40.6914C78.3865 38.7356 75.3211 35.3467 74.783 35.3926ZM75.8787 52.6169C75.8571 52.4594 75.8406 52.2989 75.827 52.1364C75.954 48.2355 76.993 45.4804 79.1693 43.5704C81.0127 41.9519 84.5739 40.859 87.2238 40.8841C88.2148 40.8934 88.7171 40.8783 88.9761 41.1004C89.1992 41.3589 89.1835 41.8602 89.1928 42.8492C89.2179 45.494 88.1222 49.0483 86.5013 50.8881C84.5876 53.0595 81.8271 54.0972 77.9187 54.224C77.7565 54.2104 77.5958 54.1939 77.4372 54.1724L84.749 45.4102L84.2482 45.8177L84.6564 45.3178L75.8787 52.6169ZM73.6873 52.6169C73.7081 52.4594 73.7253 52.2989 73.7389 52.1364C73.6119 48.2355 72.5729 45.4804 70.3966 43.5704C68.5532 41.9519 64.992 40.859 62.3421 40.8841C61.3512 40.8934 60.8489 40.8783 60.5899 41.1004C60.3667 41.3589 60.3825 41.8602 60.3732 42.8492C60.348 45.494 61.4437 49.0483 63.0647 50.8881C64.9784 53.0595 67.7388 54.0972 71.6473 54.224C71.8094 54.2104 71.9702 54.1939 72.1288 54.1724L64.8169 45.4102L65.3178 45.8177L64.9095 45.3178L73.6873 52.6169ZM91.2766 67.5402C91.2292 66.572 91.1259 65.6496 90.9659 64.7744C90.8561 63.6773 90.6702 62.6968 90.2174 61.3863C91.2737 60.9351 94.5845 58.6212 94.7703 58.4013C95.9112 59.1955 98.5066 62.3796 99.0964 64.1643C97.4417 65.9117 93.112 67.8575 91.2766 67.5402ZM87.0796 71.7283C86.1095 71.6811 85.1853 71.5786 84.3084 71.4182C83.2091 71.3087 82.2268 71.1232 80.9137 70.6713C80.4617 71.7255 78.1433 75.0298 77.923 75.2146C78.7187 76.3533 81.909 78.9436 83.6971 79.5323C85.4486 77.8816 87.3982 73.5603 87.0796 71.7283ZM107.027 55.2674C105.959 52.9492 101.101 50.2493 99.2593 50.2042L96.1695 53.6331C96.7314 54.3429 97.0629 54.8255 97.1648 55.2674C97.0629 55.7093 96.7314 56.192 96.1695 56.9017L99.2593 60.3307C101.1 60.2855 105.958 57.5849 107.027 55.2674ZM94.6964 55.2674C94.7423 54.7303 91.3461 51.6709 89.3872 51.1144C87.1557 53.4305 85.9416 54.4997 84.2008 55.2674C85.9416 56.0358 87.1557 57.1044 89.3872 59.4204C91.3461 58.864 94.7423 55.8045 94.6964 55.2674ZM77.4379 56.361C77.5965 56.3395 77.7565 56.323 77.9194 56.3094C81.8279 56.4362 84.5883 57.4732 86.502 59.6453C88.1229 61.4851 89.2186 65.0394 89.1935 67.6849C89.1842 68.6739 89.1992 69.1752 88.9768 69.4338C88.7178 69.6565 88.2155 69.6407 87.2245 69.65C84.5739 69.6751 81.0134 68.5815 79.1701 66.9637C76.9937 65.0537 75.9547 62.2987 75.8277 58.3977C75.8406 58.2359 75.8579 58.0755 75.8794 57.9172L84.6586 65.2149L84.2503 64.715L84.7512 65.1225L77.4379 56.361ZM58.6001 64.7744C58.4394 65.6496 58.3368 66.5713 58.2894 67.5402C56.4539 67.8582 52.1242 65.9117 50.4703 64.165C51.0601 62.3803 53.6555 59.1963 54.7964 58.402C54.9815 58.6219 58.293 60.9358 59.3485 61.387C58.8964 62.6968 58.7099 63.6773 58.6001 64.7744ZM62.4863 71.7283C63.4565 71.6811 64.3807 71.5786 65.2575 71.4182C66.3568 71.3087 67.3391 71.1232 68.6522 70.6713C69.1043 71.7255 71.4227 75.0298 71.643 75.2146C70.8472 76.3533 67.657 78.9436 65.8689 79.5323C64.118 77.8816 62.1677 73.5603 62.4863 71.7283ZM42.5392 55.2674C43.6076 52.9492 48.4662 50.2493 50.3074 50.2042L53.3971 53.6331C52.8353 54.3429 52.5038 54.8255 52.4019 55.2674C52.5038 55.7093 52.8353 56.192 53.3971 56.9017L50.3074 60.3307C48.4662 60.2855 43.6076 57.5849 42.5392 55.2674ZM54.8696 55.2674C54.8236 54.7303 58.2198 51.6709 60.1787 51.1144C62.4103 53.4305 63.6244 54.4997 65.3644 55.2674C63.6237 56.0358 62.4096 57.1044 60.1787 59.4204C58.2198 58.864 54.8236 55.8045 54.8696 55.2674ZM72.128 56.361C71.9695 56.3395 71.8094 56.323 71.6466 56.3094C67.7381 56.4362 64.9777 57.4732 63.064 59.6453C61.443 61.4851 60.3473 65.0394 60.3724 67.6849C60.3818 68.6739 60.3667 69.1752 60.5891 69.4338C60.8482 69.6565 61.3505 69.6407 62.3414 69.65C64.992 69.6751 68.5525 68.5815 70.3959 66.9637C72.5722 65.0537 73.6112 62.2987 73.7382 58.3977C73.7253 58.2359 73.7081 58.0755 73.6866 57.9172L64.9073 65.2149L65.3156 64.715L64.8148 65.1225L72.128 56.361ZM74.783 87.4487C72.4603 86.3817 69.7551 81.5333 69.7099 79.6956L73.1455 76.6118C73.8566 77.1726 74.3402 77.5034 74.783 77.6051C75.2257 77.5034 75.7093 77.1726 76.4204 76.6118L79.856 79.6956C79.8108 81.5333 77.1057 86.3824 74.783 87.4487ZM74.783 75.1415C74.2448 75.1874 71.1794 71.7978 70.6219 69.8427C72.9425 67.6154 74.0138 66.4037 74.783 64.6663C75.5529 66.4037 76.6235 67.6154 78.944 69.8427C78.3865 71.7985 75.3211 75.1874 74.783 75.1415Z" fill="#945A2B"/>
<path fill-rule="evenodd" clip-rule="evenodd" d="M96.1687 56.901L99.2585 60.33C101.1 60.2848 105.958 57.5849 107.027 55.2667C105.958 52.9485 101.1 50.2486 99.2585 50.2035L96.1687 53.6324C96.7305 54.3422 97.0621 54.8249 97.1639 55.2667C97.0628 55.7086 96.7313 56.192 96.1687 56.901Z" fill="#8DC521"/>
<path fill-rule="evenodd" clip-rule="evenodd" d="M76.4203 33.9223L79.8559 30.8385C79.8107 29.0008 77.1056 24.1517 74.7829 23.0854C72.4602 24.1517 69.755 29.0008 69.7098 30.8385L73.1454 33.9223C73.8565 33.3615 74.3402 33.0307 74.7829 32.929C75.2256 33.0307 75.7092 33.3615 76.4203 33.9223Z" fill="#FFFF66"/>
<path fill-rule="evenodd" clip-rule="evenodd" d="M90.2167 61.3863C90.9981 63.6465 90.9852 64.9263 91.156 67.5152C92.9154 67.9449 97.4037 65.9504 99.0949 64.1643C98.5051 62.3796 95.9097 59.1955 94.7688 58.4013C94.5844 58.6212 91.2729 60.9358 90.2167 61.3863Z" fill="#8DC521"/>
<path fill-rule="evenodd" clip-rule="evenodd" d="M80.9143 39.8629C83.1789 39.083 84.4612 39.0958 87.0551 38.9254C87.4857 37.1694 85.4873 32.6891 83.6977 31.0018C81.9096 31.5905 78.7194 34.1809 77.9236 35.3196C78.1439 35.5043 80.4623 38.8087 80.9143 39.8629Z" fill="#FFFF66"/>
<path fill-rule="evenodd" clip-rule="evenodd" d="M84.2007 55.2674C85.9415 56.0359 87.1556 57.1044 89.3872 59.4205C91.3461 58.864 94.7423 55.8046 94.6963 55.2674C94.7423 54.7303 91.3461 51.6709 89.3872 51.1145C87.1556 53.4305 85.9415 54.499 84.2007 55.2674Z" fill="#8DC521"/>
<path fill-rule="evenodd" clip-rule="evenodd" d="M74.7829 45.8671C75.5528 44.1297 76.6234 42.918 78.9439 40.6907C78.3864 38.7356 75.321 35.346 74.7829 35.3918C74.2447 35.346 71.1793 38.7349 70.6218 40.6907C72.9423 42.918 74.0129 44.1304 74.7829 45.8671Z" fill="#FFFF66"/>
<path fill-rule="evenodd" clip-rule="evenodd" d="M90.2167 49.1478C90.9981 46.8876 90.9852 45.6079 91.156 43.0189C92.9154 42.5892 97.4037 44.5838 99.0949 46.3699C98.5051 48.1545 95.9097 51.3386 94.7688 52.1328C94.5844 51.9129 91.2729 49.5983 90.2167 49.1478Z" fill="#8DC521"/>
<path fill-rule="evenodd" clip-rule="evenodd" d="M68.6514 39.8629C66.3869 39.083 65.1046 39.0958 62.5107 38.9254C62.0801 37.1694 64.0785 32.6891 65.8681 31.0018C67.6562 31.5905 70.8464 34.1809 71.6422 35.3196C71.4219 35.5043 69.1035 38.8087 68.6514 39.8629Z" fill="#FFFF66"/>
<path fill-rule="evenodd" clip-rule="evenodd" d="M53.3971 56.901L50.3073 60.33C48.4661 60.2848 43.6076 57.5849 42.5391 55.2667C43.6076 52.9485 48.4661 50.2486 50.3073 50.2035L53.3971 53.6324C52.8352 54.3422 52.5037 54.8249 52.4018 55.2667C52.5037 55.7086 52.8352 56.192 53.3971 56.901Z" fill="#F6690C"/>
<path fill-rule="evenodd" clip-rule="evenodd" d="M76.4203 76.6118L79.8559 79.6956C79.8107 81.5333 77.1056 86.3824 74.7829 87.4488C72.4602 86.3817 69.755 81.5333 69.7098 79.6956L73.1454 76.6118C73.8565 77.1726 74.3402 77.5035 74.7829 77.6052C75.2256 77.5035 75.7092 77.1726 76.4203 76.6118Z" fill="#61B690"/>
<path fill-rule="evenodd" clip-rule="evenodd" d="M59.3491 61.3863C58.5677 63.6465 58.5806 64.9263 58.4098 67.5152C56.6504 67.9449 52.1621 65.9504 50.4709 64.1643C51.0607 62.3796 53.6561 59.1955 54.797 58.4013C54.9821 58.6212 58.2929 60.9358 59.3491 61.3863Z" fill="#F6690C"/>
<path fill-rule="evenodd" clip-rule="evenodd" d="M80.9143 70.6713C83.1789 71.4512 84.4612 71.4383 87.0551 71.6088C87.4857 73.3648 85.4873 77.8451 83.6977 79.5324C81.9096 78.9437 78.7194 76.3533 77.9236 75.2146C78.1439 75.0299 80.4623 71.7255 80.9143 70.6713Z" fill="#61B690"/>
<path fill-rule="evenodd" clip-rule="evenodd" d="M65.3651 55.2674C63.6243 56.0359 62.4102 57.1044 60.1793 59.4205C58.2204 58.864 54.8243 55.8046 54.8702 55.2674C54.8243 54.7303 58.2204 51.6709 60.1793 51.1145C62.4102 53.4305 63.6243 54.499 65.3651 55.2674Z" fill="#F6690C"/>
<path fill-rule="evenodd" clip-rule="evenodd" d="M74.7829 64.667C75.5528 66.4044 76.6234 67.6162 78.9439 69.8434C78.3864 71.7986 75.321 75.1881 74.7829 75.1423C74.2447 75.1881 71.1793 71.7986 70.6218 69.8434C72.9423 67.6162 74.0129 66.4037 74.7829 64.667Z" fill="#61B690"/>
<path fill-rule="evenodd" clip-rule="evenodd" d="M59.3491 49.1478C58.5677 46.8876 58.5806 45.6079 58.4098 43.0189C56.6504 42.5892 52.1621 44.5838 50.4709 46.3699C51.0607 48.1545 53.6561 51.3386 54.797 52.1328C54.9821 51.9129 58.2929 49.5983 59.3491 49.1478Z" fill="#F6690C"/>
<path fill-rule="evenodd" clip-rule="evenodd" d="M68.6514 70.6713C66.3869 71.4512 65.1046 71.4383 62.5107 71.6088C62.0801 73.3648 64.0785 77.8451 65.8681 79.5324C67.6562 78.9437 70.8464 76.3533 71.6422 75.2146C71.4219 75.0299 69.1035 71.7255 68.6514 70.6713Z" fill="#61B690"/>
<path fill-rule="evenodd" clip-rule="evenodd" d="M77.4378 56.361L84.7496 65.1233L75.8154 57.8478C75.8599 62.0416 76.8925 64.965 79.1693 66.9638C81.0127 68.5816 84.5738 69.6751 87.2238 69.6501C89.2099 69.6307 89.2336 69.7124 89.2652 67.7766C89.3233 64.2424 88.6718 61.7752 86.6935 59.4548C84.7138 57.1338 80.6202 55.9356 77.4378 56.361Z" fill="#8DC521"/>
<path fill-rule="evenodd" clip-rule="evenodd" d="M75.8786 52.6169L84.6578 45.3193L77.3682 54.2362C81.5702 54.1918 84.4992 53.1612 86.5019 50.8888C88.1229 49.049 89.2186 45.4947 89.1934 42.85C89.1741 40.8676 89.2559 40.844 87.3163 40.8125C83.7752 40.7545 81.3033 41.4048 78.9791 43.3792C76.6528 45.3558 75.4531 49.4415 75.8786 52.6169Z" fill="#FFFF66"/>
<path fill-rule="evenodd" clip-rule="evenodd" d="M73.6873 52.6169L64.9081 45.3193L72.1977 54.2362C67.9957 54.1918 65.0667 53.1612 63.064 50.8888C61.443 49.049 60.3473 45.4947 60.3724 42.85C60.3918 40.8676 60.31 40.844 62.2496 40.8125C65.7907 40.7545 68.2626 41.4048 70.5875 43.3792C72.913 45.3558 74.1135 49.4415 73.6873 52.6169Z" fill="#F6690C"/>
<path fill-rule="evenodd" clip-rule="evenodd" d="M72.1279 56.361L64.8161 65.1233L73.7503 57.8478C73.7058 62.0416 72.6733 64.965 70.3965 66.9638C68.5531 68.5816 64.9919 69.6751 62.342 69.6501C60.3558 69.6307 60.3322 69.7124 60.3006 67.7766C60.2425 64.2424 60.894 61.7752 62.8723 59.4548C64.8527 57.1338 68.9463 55.9356 72.1279 56.361Z" fill="#61B690"/>
<path fill-rule="evenodd" clip-rule="evenodd" d="M69.6044 20.4521C54.1742 23.4578 42.2285 35.0173 39.6518 49.3813L39.6482 49.3835C39.2076 40.7953 45.4912 31.5568 49.2282 28.5074C51.642 26.21 58.331 21.194 69.6044 20.4521Z" fill="#945A2B"/>
<path fill-rule="evenodd" clip-rule="evenodd" d="M80.1223 20.4521C95.5525 23.4578 107.498 35.0173 110.075 49.3813L110.079 49.3835C110.519 40.7953 104.236 31.5568 100.499 28.5074C98.0847 26.21 91.395 21.194 80.1223 20.4521Z" fill="#945A2B"/>
<path fill-rule="evenodd" clip-rule="evenodd" d="M69.6044 89.936C54.1742 86.9303 42.2285 75.3707 39.6518 61.0067L39.6482 61.0046C39.2076 69.5928 45.4912 78.8312 49.2282 81.8806C51.642 84.1788 58.331 89.1947 69.6044 89.936Z" fill="#945A2B"/>
<path fill-rule="evenodd" clip-rule="evenodd" d="M80.1223 89.936C95.5525 86.9303 107.498 75.3707 110.075 61.0067L110.079 61.0046C110.519 69.5928 104.236 78.8312 100.499 81.8806C98.0847 84.1788 91.395 89.1947 80.1223 89.936Z" fill="#945A2B"/>
</svg>
