<svg width="32" height="32" viewBox="0 0 32 32" fill="none" xmlns="http://www.w3.org/2000/svg">
<path d="M16.1812 3C8.86999 2.90125 2.90124 8.87 2.99999 16.1813C3.09749 23.1931 8.80686 28.9025 15.8187 29C23.1312 29.1 29.0987 23.1313 28.9987 15.82C28.9025 8.80687 23.1931 3.0975 16.1812 3ZM24.0825 23.4531C24.0576 23.48 24.0271 23.5012 23.9931 23.515C23.9591 23.5288 23.9225 23.535 23.8859 23.5331C23.8493 23.5311 23.8136 23.5212 23.7812 23.5039C23.7489 23.4867 23.7207 23.4625 23.6987 23.4331C23.1397 22.7017 22.4551 22.0755 21.6769 21.5837C20.0856 20.5625 18.0694 20 16 20C13.9306 20 11.9144 20.5625 10.3231 21.5837C9.54491 22.0753 8.8603 22.7013 8.30124 23.4325C8.27927 23.4619 8.25112 23.486 8.21877 23.5033C8.18642 23.5206 8.15067 23.5305 8.11405 23.5324C8.07743 23.5343 8.04084 23.5282 8.00687 23.5144C7.9729 23.5005 7.94238 23.4794 7.91749 23.4525C6.08353 21.4727 5.04467 18.8858 4.99999 16.1875C4.89811 10.1056 9.88874 5.015 15.9731 5C22.0575 4.985 27 9.92562 27 16C27.0021 18.7634 25.96 21.4255 24.0825 23.4531Z" fill="#563200"/>
<path d="M16 9C14.7675 9 13.6532 9.46188 12.8613 10.3013C12.0694 11.1406 11.6738 12.3012 11.7632 13.5469C11.9444 16 13.845 18 16 18C18.155 18 20.0519 16 20.2369 13.5475C20.3294 12.3137 19.9369 11.1638 19.1319 10.3088C18.3369 9.465 17.2244 9 16 9Z" fill="#563200"/>
</svg>
