<svg width="68" height="68" viewBox="0 0 68 68" fill="none" xmlns="http://www.w3.org/2000/svg">
<g clip-path="url(#clip0_88_6521)">
<path fill-rule="evenodd" clip-rule="evenodd" d="M41.1422 28.234C41.139 27.4102 40.4719 26.7431 39.648 26.7399L29.0825 26.6988C28.2541 26.6956 27.5799 27.3645 27.5767 28.1929C27.5735 29.0214 28.2425 29.6955 29.0709 29.6988L38.148 29.7341L38.1833 38.8112C38.1865 39.6396 38.8607 40.3086 39.6891 40.3054C40.5176 40.3021 41.1865 39.628 41.1833 38.7995L41.1422 28.234Z" fill="white"/>
<path fill-rule="evenodd" clip-rule="evenodd" d="M39.9716 27.9107C39.3858 27.325 38.4361 27.325 37.8503 27.9107L27.1794 38.5816C26.5936 39.1674 26.5936 40.1172 27.1794 40.703C27.7652 41.2887 28.7149 41.2888 29.3007 40.703L39.9716 30.0321C40.5574 29.4463 40.5574 28.4965 39.9716 27.9107Z" fill="white"/>
<path fill-rule="evenodd" clip-rule="evenodd" d="M47.7297 47.7297C55.3423 40.117 55.3423 27.7652 47.7297 20.1525C40.117 12.5399 27.7652 12.5399 20.1525 20.1525C12.5398 27.7652 12.5398 40.117 20.1525 47.7297C27.7652 55.3424 40.117 55.3424 47.7297 47.7297ZM45.6083 22.2739C52.0494 28.715 52.0494 39.1673 45.6083 45.6084C39.1673 52.0495 28.7149 52.0495 22.2738 45.6084C15.8327 39.1673 15.8327 28.715 22.2738 22.2739C28.7149 15.8328 39.1673 15.8328 45.6083 22.2739Z" fill="white"/>
</g>
<defs>
<clipPath id="clip0_88_6521">
<rect width="48" height="48" fill="white" transform="matrix(-0.707107 -0.707107 -0.707107 0.707107 67.8823 33.9411)"/>
</clipPath>
</defs>
</svg>
