<svg width="24" height="24" viewBox="0 0 24 24" fill="none" xmlns="http://www.w3.org/2000/svg">
<path fill-rule="evenodd" clip-rule="evenodd" d="M6.41519 1.83358C6.57243 1.95707 6.74903 2.12322 6.9522 2.32389C7.38749 2.7523 7.89248 3.43869 8.3258 4.09762C8.76398 4.76393 9.17001 5.46537 9.39759 5.95358L9.39773 5.95389L9.39788 5.95421C9.52687 6.2316 9.64314 6.48297 9.72486 6.70329C9.80785 6.92702 9.87682 7.17311 9.87726 7.44167C9.8782 8.00382 9.57308 8.43768 9.27917 8.83785C9.19473 8.95281 9.12299 9.04701 9.06116 9.1282C8.92787 9.30322 8.8405 9.41795 8.77055 9.55065C8.70232 9.68008 8.68241 9.77353 8.7147 9.92397C8.76127 10.1409 8.96372 10.6157 9.35684 11.2369C9.73702 11.8377 10.2576 12.5153 10.8795 13.1352C11.5013 13.755 12.1681 14.2618 12.7569 14.6286C13.3636 15.0065 13.8308 15.2004 14.0539 15.248C14.2093 15.2812 14.3062 15.2604 14.4359 15.1929C14.5727 15.1217 14.6945 15.0288 14.8837 14.8843C14.9581 14.8275 15.0429 14.7627 15.1432 14.6882L15.1434 14.6881L15.1509 14.6825C15.5525 14.3841 15.9986 14.0527 16.5641 14.0533C16.8435 14.0536 17.0942 14.1325 17.315 14.2226C17.526 14.3087 17.7684 14.4308 18.0342 14.5647L18.0565 14.5759C18.5224 14.8109 19.2153 15.209 19.886 15.6429C20.5448 16.0691 21.2401 16.5667 21.6729 17.0029L21.6736 17.0035C21.8748 17.2068 22.0414 17.3834 22.1652 17.5406C22.285 17.6927 22.4166 17.8895 22.472 18.1344C22.5345 18.4101 22.4779 18.6396 22.4198 18.7987C22.3936 18.8705 22.3627 18.9393 22.3406 18.9886C22.3371 18.9963 22.3337 19.0038 22.3304 19.0111C22.3098 19.0568 22.2919 19.0967 22.2728 19.1423L22.2723 19.1434L22.2718 19.1445C22.0759 19.6091 21.8376 20.0547 21.5599 20.4755L21.5591 20.4768L21.5582 20.4781C21.0156 21.2933 20.5052 21.8259 19.7117 22.1955C19.2994 22.3875 18.7102 22.5815 17.7946 22.4673C16.914 22.3575 15.7683 21.9676 14.2046 21.0918L14.2042 21.0916C11.702 19.6883 9.96574 18.4784 7.72604 16.245C5.49291 14.0181 4.39527 12.5647 2.85765 9.77134C1.30971 6.95927 1.31193 5.22515 1.75398 4.28053C2.12514 3.4874 2.66311 2.97929 3.47559 2.4395L3.47719 2.43844L3.4788 2.43739C3.90011 2.16058 4.34589 1.92293 4.81054 1.72743L4.81208 1.72678L4.81361 1.72615C4.85959 1.70704 4.89982 1.68901 4.9458 1.66839C4.95301 1.66516 4.96037 1.66187 4.9679 1.65849C5.01732 1.63638 5.08622 1.60564 5.15792 1.5796C5.31684 1.52187 5.54582 1.46548 5.82109 1.52755C6.06582 1.58274 6.26271 1.71383 6.41519 1.83358ZM5.39086 3.11063C5.01171 3.27025 4.64793 3.46417 4.30405 3.68997C3.61768 4.14617 3.32344 4.46573 3.11258 4.91631C2.97245 5.21576 2.7131 6.3982 4.17172 9.048C5.64067 11.7166 6.65241 13.056 8.78521 15.1828C10.9113 17.303 12.5322 18.4341 14.9376 19.7831C16.4095 20.6075 17.3638 20.902 17.9802 20.9789C18.5617 21.0514 18.8667 20.9343 19.0783 20.8357C19.5324 20.6242 19.8534 20.332 20.3088 19.648C20.5352 19.3047 20.7295 18.9414 20.8894 18.5625C20.9109 18.511 20.9321 18.4633 20.9499 18.4236C20.88 18.3405 20.7729 18.2258 20.608 18.0593C20.2965 17.7455 19.7183 17.3209 19.0712 16.9023C18.4358 16.4913 17.7901 16.1216 17.3814 15.9154C17.0863 15.7668 16.8973 15.6722 16.7481 15.6114C16.603 15.5521 16.5608 15.5533 16.5625 15.5533C16.5761 15.5533 16.5297 15.5268 16.0379 15.8922C15.9877 15.9295 15.9333 15.9712 15.8759 16.0152C15.6567 16.1832 15.3914 16.3866 15.1285 16.5235C14.7356 16.728 14.2847 16.831 13.7411 16.715C13.2653 16.6136 12.6237 16.3128 11.9638 15.9018C11.286 15.4796 10.5286 14.9034 9.82051 14.1976C9.1126 13.4919 8.5236 12.7253 8.08933 12.0391C7.668 11.3733 7.35108 10.7184 7.24811 10.2388C7.13088 9.69268 7.23776 9.24168 7.44363 8.85115C7.5763 8.59949 7.77461 8.33947 7.93784 8.12546C7.98586 8.06249 8.03085 8.00351 8.07023 7.94989C8.38552 7.5206 8.37812 7.45217 8.37731 7.44471C8.37729 7.44446 8.37727 7.44428 8.37727 7.44415C8.37724 7.4297 8.37391 7.37433 8.3185 7.22497C8.26184 7.07221 8.17363 6.8789 8.03782 6.58685C7.85236 6.1891 7.48882 5.55485 7.07252 4.9218C6.65139 4.28142 6.21703 3.70485 5.89964 3.39259L5.8991 3.39206L5.89857 3.39153C5.73109 3.2261 5.61591 3.11889 5.53275 3.0491C5.49234 3.06716 5.44365 3.08866 5.39086 3.11063Z" fill="#563200"/>
</svg>
