<svg width="306" height="167" viewBox="0 0 306 167" fill="none" xmlns="http://www.w3.org/2000/svg">
<path fill-rule="evenodd" clip-rule="evenodd" d="M-268 -214H573.89V381.276H-268V-214Z" fill="#61B690"/>
<path fill-rule="evenodd" clip-rule="evenodd" d="M-3.32623 99.0341C-3.23823 99.3441 -3.14028 99.574 -3.02728 99.744L-3.02423 99.748C-2.98723 99.808 -2.94123 99.8649 -2.88623 99.9189C-2.83223 99.9739 -2.77527 100.019 -2.71527 100.057L-2.71124 100.06C-2.54024 100.173 -2.31024 100.271 -2.00024 100.359C-1.87524 100.365 -1.75028 100.371 -1.62628 100.376C-1.62028 100.665 -1.66026 101.372 -1.54126 101.936C-1.04026 104.302 0.254761 107.202 1.85376 109.296C2.72176 110.432 3.16372 110.812 4.47772 110.483C4.93472 110.368 5.47077 110.054 5.90277 109.842C7.66177 113.586 8.89571 115.827 11.2827 117.837C11.9757 118.42 12.4467 118.759 12.9377 118.794C13.4287 118.759 13.8987 118.42 14.5917 117.837C16.9797 115.827 18.2127 113.586 19.9717 109.842C20.4047 110.053 20.9408 110.368 21.3978 110.483C22.7118 110.812 23.1537 110.432 24.0217 109.296C25.6207 107.202 26.9157 104.301 27.4167 101.936C27.5357 101.371 27.4957 100.665 27.5027 100.376C27.6267 100.371 27.7518 100.366 27.8768 100.359C28.1868 100.271 28.4168 100.173 28.5878 100.06L28.5917 100.057C28.6527 100.019 28.7088 99.9739 28.7628 99.9189C28.8178 99.8649 28.8628 99.808 28.9008 99.748L28.9037 99.744C29.0167 99.573 29.1147 99.3441 29.2017 99.0341C29.2087 98.9081 29.2137 98.784 29.2188 98.66C29.5078 98.654 30.2147 98.694 30.7787 98.574C33.1447 98.073 36.0447 96.778 38.1387 95.179C39.2747 94.311 39.6547 93.8691 39.3257 92.5551C39.2107 92.0981 38.8967 91.562 38.6857 91.129C42.4297 89.37 44.6697 88.136 46.6807 85.749C47.2637 85.056 47.6028 84.585 47.6378 84.095C47.6028 83.604 47.2637 83.134 46.6807 82.441C44.6707 80.053 42.4297 78.82 38.6857 77.061C38.8967 76.628 39.2107 76.092 39.3257 75.635C39.6557 74.321 39.2757 73.879 38.1387 73.011C36.0447 71.412 33.1437 70.117 30.7787 69.616C30.2137 69.497 29.5078 69.537 29.2188 69.53C29.2137 69.406 29.2087 69.281 29.2017 69.156C29.1137 68.846 29.0157 68.6159 28.9037 68.4449L28.9008 68.441C28.8638 68.38 28.8178 68.324 28.7628 68.269C28.7088 68.214 28.6517 68.169 28.5917 68.132L28.5878 68.129C28.4168 68.016 28.1868 67.9181 27.8768 67.8311C27.7508 67.8241 27.6267 67.819 27.5027 67.814C27.4957 67.524 27.5367 66.8181 27.4167 66.2531C26.9157 63.8881 25.6207 60.9869 24.0217 58.8929C23.1537 57.7569 22.7128 57.3771 21.3978 57.7061C20.9408 57.8211 20.4047 58.1349 19.9717 58.3459C18.2127 54.6019 16.9797 52.361 14.5917 50.351C13.8987 49.768 13.4287 49.429 12.9377 49.394C12.4467 49.429 11.9757 49.768 11.2827 50.351C8.89471 52.361 7.66177 54.6019 5.90277 58.3459C5.46977 58.1349 4.93372 57.8201 4.47772 57.7061C3.16372 57.3761 2.72176 57.7559 1.85376 58.8929C0.254761 60.9869 -1.04026 63.8881 -1.54126 66.2531C-1.66026 66.8181 -1.62028 67.524 -1.62628 67.814C-1.75028 67.819 -1.87524 67.8241 -2.00024 67.8311C-2.31024 67.9181 -2.54024 68.016 -2.71124 68.129L-2.71527 68.132C-2.77527 68.17 -2.83223 68.215 -2.88623 68.269C-2.94123 68.323 -2.98623 68.38 -3.02423 68.441L-3.02728 68.4449C-3.14028 68.6159 -3.23823 68.846 -3.32623 69.156C-3.33223 69.281 -3.33826 69.406 -3.34326 69.53C-3.63226 69.537 -4.33926 69.497 -4.90326 69.616C-7.26926 70.116 -10.1692 71.411 -12.2632 73.011C-13.3992 73.879 -13.7793 74.32 -13.4503 75.635C-13.3353 76.092 -13.0213 76.628 -12.8093 77.061C-16.5533 78.82 -18.7943 80.054 -20.8043 82.441C-21.3873 83.134 -21.7262 83.605 -21.7612 84.095C-21.7262 84.586 -21.3873 85.056 -20.8043 85.749C-18.7943 88.137 -16.5533 89.37 -12.8093 91.129C-13.0203 91.562 -13.3353 92.0981 -13.4503 92.5551C-13.7803 93.8691 -13.4002 94.311 -12.2632 95.179C-10.1692 96.778 -7.26826 98.073 -4.90326 98.574C-4.33826 98.693 -3.63226 98.653 -3.34326 98.66C-3.33826 98.783 -3.33223 98.9081 -3.32623 99.0341ZM25.0698 67.822C24.1128 67.869 23.2008 67.97 22.3358 68.129C21.2518 68.237 20.2818 68.421 18.9868 68.868C18.5408 67.826 16.2538 64.559 16.0358 64.377C16.8208 63.252 19.9687 60.691 21.7327 60.109C23.4597 61.74 25.3838 66.011 25.0698 67.822ZM3.53973 68.129C2.67473 67.97 1.76273 67.869 0.805725 67.822C0.491726 66.011 2.41576 61.74 4.14276 60.108C5.90676 60.69 9.05472 63.251 9.83972 64.376C9.62272 64.559 7.33473 67.8259 6.88873 68.8669C5.59273 68.4209 4.62373 68.237 3.53973 68.129ZM29.2108 71.963C29.1638 72.92 29.0617 73.832 28.9037 74.697C28.7957 75.782 28.6117 76.751 28.1647 78.046C29.2067 78.492 32.4738 80.7789 32.6558 80.9969C33.7808 80.2119 36.3418 77.064 36.9238 75.3C35.2928 73.572 31.0208 71.649 29.2108 71.963ZM-3.02826 74.696C-3.18626 73.831 -3.28827 72.919 -3.33527 71.962C-5.14627 71.648 -9.41726 73.5709 -11.0493 75.299C-10.4673 77.063 -7.90625 80.211 -6.78125 80.996C-6.59825 80.779 -3.33128 78.491 -2.29028 78.045C-2.73628 76.75 -2.92026 75.781 -3.02826 74.696ZM12.9377 52.282C10.6457 53.336 7.97674 58.13 7.93274 59.946L11.3228 62.994C12.0248 62.439 12.5017 62.112 12.9377 62.012C13.3747 62.112 13.8517 62.439 14.5527 62.994L17.9427 59.946C17.8978 58.13 15.2287 53.337 12.9377 52.282ZM12.9377 64.448C12.4067 64.402 9.38173 67.753 8.83173 69.686C11.1217 71.887 12.1777 73.086 12.9377 74.803C13.6967 73.086 14.7537 71.888 17.0427 69.686C16.4927 67.753 13.4687 64.403 12.9377 64.448ZM14.0187 81.475C13.9977 81.319 13.9807 81.16 13.9677 81C14.0927 77.144 15.1178 74.421 17.2648 72.532C19.0838 70.932 22.5967 69.852 25.2117 69.876C26.1897 69.886 26.6857 69.87 26.9407 70.09C27.1607 70.345 27.1457 70.841 27.1547 71.819C27.1797 74.434 26.0988 77.947 24.4998 79.766C22.6108 81.912 19.8877 82.938 16.0317 83.063C15.8717 83.05 15.7128 83.033 15.5568 83.012L22.7708 74.351L22.2767 74.754L22.6797 74.26L14.0187 81.475ZM11.8568 81.475C11.8778 81.319 11.8947 81.16 11.9077 81C11.7827 77.144 10.7567 74.421 8.61072 72.532C6.79172 70.932 3.27876 69.852 0.663757 69.876C-0.314243 69.886 -0.809246 69.87 -1.06525 70.09C-1.28525 70.345 -1.27024 70.841 -1.27924 71.819C-1.30424 74.434 -0.22323 77.947 1.37677 79.766C3.26477 81.912 5.98773 82.938 9.84473 83.063C10.0047 83.05 10.1638 83.033 10.3198 83.012L3.10571 74.351L3.59973 74.754L3.19672 74.26L11.8568 81.475ZM29.2108 96.2271C29.1638 95.2701 29.0617 94.358 28.9037 93.493C28.7957 92.408 28.6117 91.439 28.1647 90.144C29.2067 89.698 32.4738 87.411 32.6558 87.194C33.7808 87.979 36.3418 91.127 36.9238 92.891C35.2928 94.617 31.0208 96.541 29.2108 96.2271ZM25.0698 100.367C24.1128 100.32 23.2008 100.219 22.3358 100.061C21.2518 99.953 20.2818 99.769 18.9868 99.322C18.5408 100.364 16.2538 103.631 16.0358 103.813C16.8208 104.938 19.9687 107.499 21.7327 108.081C23.4597 106.45 25.3838 102.178 25.0698 100.367ZM44.7498 84.095C43.6958 81.803 38.9018 79.135 37.0858 79.09L34.0377 82.479C34.5917 83.181 34.9197 83.658 35.0197 84.095C34.9187 84.532 34.5917 85.009 34.0377 85.71L37.0858 89.1C38.9018 89.055 43.6958 86.386 44.7498 84.095ZM32.5837 84.095C32.6287 83.564 29.2788 80.54 27.3458 79.989C25.1438 82.279 23.9458 83.335 22.2288 84.095C23.9458 84.854 25.1438 85.911 27.3458 88.201C29.2788 87.6501 32.6297 84.625 32.5837 84.095ZM15.5577 85.176C15.7137 85.155 15.8727 85.138 16.0327 85.125C19.8887 85.25 22.6117 86.275 24.5007 88.422C26.0997 90.241 27.1808 93.754 27.1558 96.369C27.1468 97.347 27.1617 97.842 26.9417 98.098C26.6867 98.318 26.1908 98.303 25.2128 98.312C22.5978 98.337 19.0847 97.256 17.2657 95.656C15.1187 93.768 14.0938 91.044 13.9688 87.188C13.9818 87.028 13.9987 86.869 14.0197 86.713L22.6807 93.927L22.2778 93.433L22.7717 93.8361L15.5577 85.176ZM-3.02826 93.493C-3.18626 94.358 -3.28827 95.2701 -3.33527 96.2271C-5.14627 96.541 -9.41726 94.617 -11.0493 92.891C-10.4673 91.127 -7.90625 87.979 -6.78125 87.194C-6.59825 87.411 -3.33128 89.699 -2.29028 90.144C-2.73628 91.439 -2.92026 92.408 -3.02826 93.493ZM0.805725 100.367C1.76273 100.32 2.67473 100.219 3.53973 100.061C4.62373 99.953 5.59373 99.769 6.88873 99.322C7.33473 100.364 9.62272 103.631 9.83972 103.813C9.05472 104.938 5.90676 107.499 4.14276 108.081C2.41576 106.45 0.490725 102.178 0.805725 100.367ZM-18.8743 84.095C-17.8203 81.803 -13.0263 79.135 -11.2103 79.09L-8.16223 82.479C-8.71723 83.181 -9.04329 83.658 -9.14429 84.095C-9.04329 84.532 -8.71623 85.009 -8.16223 85.71L-11.2103 89.1C-13.0273 89.055 -17.8203 86.386 -18.8743 84.095ZM-6.70923 84.095C-6.75523 83.564 -3.40425 80.54 -1.47125 79.989C0.729748 82.279 1.92772 83.335 3.64471 84.095C1.92772 84.854 0.729748 85.911 -1.47125 88.201C-3.40325 87.6501 -6.75423 84.625 -6.70923 84.095ZM10.3177 85.176C10.1617 85.155 10.0027 85.138 9.84271 85.125C5.98671 85.25 3.26376 86.275 1.37476 88.422C-0.225245 90.241 -1.30525 93.754 -1.28125 96.369C-1.27225 97.347 -1.28726 97.842 -1.06726 98.098C-0.812262 98.318 -0.316257 98.303 0.661743 98.312C3.27674 98.337 6.78976 97.256 8.60876 95.656C10.7558 93.768 11.7808 91.044 11.9058 87.188C11.8928 87.028 11.8757 86.869 11.8547 86.713L3.19373 93.927L3.59674 93.433L3.10272 93.8361L10.3177 85.176ZM12.9377 115.907C10.6457 114.853 7.97674 110.059 7.93274 108.243L11.3228 105.195C12.0248 105.749 12.5017 106.077 12.9377 106.177C13.3747 106.076 13.8517 105.749 14.5527 105.195L17.9427 108.243C17.8978 110.059 15.2287 114.853 12.9377 115.907ZM12.9377 103.741C12.4067 103.786 9.38173 100.436 8.83173 98.5031C11.1217 96.3021 12.1777 95.104 12.9377 93.386C13.6967 95.103 14.7537 96.3011 17.0427 98.5031C16.4927 100.436 13.4687 103.787 12.9377 103.741Z" fill="#6BC299"/>
<path fill-rule="evenodd" clip-rule="evenodd" d="M108.924 99.0341C109.012 99.3441 109.11 99.574 109.223 99.744L109.225 99.748C109.263 99.808 109.308 99.8649 109.363 99.9189C109.417 99.9739 109.474 100.019 109.535 100.057L109.539 100.06C109.71 100.173 109.94 100.271 110.25 100.359C110.375 100.365 110.5 100.371 110.624 100.376C110.63 100.665 110.59 101.372 110.71 101.936C111.211 104.302 112.506 107.202 114.105 109.296C114.973 110.432 115.414 110.812 116.729 110.483C117.186 110.368 117.722 110.054 118.155 109.842C119.915 113.586 121.147 115.827 123.535 117.837C124.228 118.42 124.698 118.759 125.189 118.794C125.68 118.759 126.151 118.42 126.843 117.837C129.231 115.827 130.464 113.586 132.223 109.842C132.656 110.053 133.192 110.368 133.649 110.483C134.963 110.812 135.405 110.432 136.273 109.296C137.872 107.202 139.167 104.301 139.668 101.936C139.788 101.371 139.747 100.665 139.754 100.376C139.878 100.371 140.003 100.366 140.128 100.359C140.438 100.271 140.668 100.173 140.839 100.06L140.843 100.057C140.904 100.019 140.96 99.9739 141.015 99.9189C141.07 99.8649 141.115 99.808 141.153 99.748L141.156 99.744C141.269 99.573 141.367 99.3441 141.454 99.0341C141.461 98.9081 141.466 98.784 141.471 98.66C141.761 98.654 142.467 98.694 143.032 98.574C145.397 98.073 148.298 96.778 150.392 95.179C151.528 94.311 151.908 93.8691 151.579 92.5551C151.464 92.0981 151.15 91.562 150.938 91.129C154.682 89.37 156.923 88.136 158.933 85.749C159.516 85.056 159.855 84.585 159.89 84.095C159.855 83.604 159.516 83.134 158.933 82.441C156.923 80.053 154.683 78.82 150.938 77.061C151.149 76.628 151.464 76.092 151.579 75.635C151.908 74.321 151.529 73.879 150.392 73.011C148.298 71.412 145.397 70.117 143.032 69.616C142.467 69.497 141.761 69.537 141.471 69.53C141.466 69.406 141.461 69.281 141.454 69.156C141.367 68.846 141.269 68.6159 141.156 68.4449L141.153 68.441C141.115 68.38 141.07 68.324 141.015 68.269C140.961 68.214 140.904 68.169 140.843 68.132L140.839 68.129C140.668 68.016 140.438 67.9181 140.128 67.8311C140.003 67.8241 139.878 67.819 139.754 67.814C139.747 67.524 139.788 66.8181 139.668 66.2531C139.168 63.8881 137.873 60.9869 136.273 58.8929C135.405 57.7569 134.964 57.3771 133.649 57.7061C133.192 57.8211 132.656 58.1349 132.223 58.3459C130.464 54.6019 129.231 52.361 126.843 50.351C126.15 49.768 125.68 49.429 125.189 49.394C124.698 49.429 124.228 49.768 123.535 50.351C121.147 52.361 119.914 54.6019 118.155 58.3459C117.722 58.1349 117.186 57.8201 116.729 57.7061C115.415 57.3761 114.973 57.7559 114.105 58.8929C112.506 60.9869 111.211 63.8881 110.71 66.2531C110.591 66.8181 110.631 67.524 110.624 67.814C110.5 67.819 110.375 67.8241 110.25 67.8311C109.94 67.9181 109.71 68.016 109.539 68.129L109.535 68.132C109.474 68.17 109.417 68.215 109.363 68.269C109.308 68.323 109.263 68.38 109.225 68.441L109.223 68.4449C109.11 68.6159 109.012 68.846 108.924 69.156C108.918 69.281 108.912 69.406 108.908 69.53C108.618 69.537 107.912 69.497 107.347 69.616C104.982 70.116 102.081 71.411 99.9858 73.011C98.8498 73.879 98.4698 74.32 98.7988 75.635C98.9138 76.092 99.2278 76.628 99.4398 77.061C95.6958 78.82 93.4548 80.054 91.4448 82.441C90.8618 83.134 90.5228 83.605 90.4878 84.095C90.5228 84.586 90.8618 85.056 91.4448 85.749C93.4548 88.137 95.6958 89.37 99.4398 91.129C99.2278 91.562 98.9138 92.0981 98.7988 92.5551C98.4698 93.8691 98.8498 94.311 99.9858 95.179C102.08 96.778 104.981 98.073 107.347 98.574C107.912 98.693 108.618 98.653 108.908 98.66C108.912 98.783 108.917 98.9081 108.924 99.0341ZM137.319 67.822C136.362 67.869 135.45 67.97 134.585 68.129C133.5 68.237 132.531 68.421 131.236 68.868C130.79 67.826 128.503 64.559 128.285 64.377C129.07 63.252 132.218 60.691 133.982 60.109C135.71 61.74 137.633 66.011 137.319 67.822ZM115.789 68.129C114.924 67.97 114.013 67.869 113.055 67.822C112.741 66.011 114.664 61.74 116.392 60.108C118.156 60.69 121.303 63.251 122.089 64.376C121.871 64.559 119.584 67.8259 119.138 68.8669C117.843 68.4209 116.873 68.237 115.789 68.129ZM141.46 71.963C141.413 72.92 141.312 73.832 141.153 74.697C141.045 75.782 140.861 76.751 140.414 78.046C141.456 78.492 144.723 80.7789 144.905 80.9969C146.031 80.2119 148.592 77.064 149.173 75.3C147.542 73.572 143.27 71.649 141.46 71.963ZM109.221 74.696C109.063 73.831 108.961 72.919 108.914 71.962C107.103 71.648 102.831 73.5709 101.199 75.299C101.781 77.063 104.342 80.211 105.467 80.996C105.65 80.779 108.917 78.491 109.959 78.045C109.513 76.75 109.329 75.781 109.221 74.696ZM125.187 52.282C122.896 53.336 120.226 58.13 120.182 59.946L123.572 62.994C124.274 62.439 124.751 62.112 125.187 62.012C125.624 62.112 126.101 62.439 126.802 62.994L130.192 59.946C130.147 58.13 127.479 53.337 125.187 52.282ZM125.187 64.448C124.656 64.402 121.632 67.753 121.081 69.686C123.371 71.887 124.427 73.086 125.187 74.803C125.947 73.086 127.003 71.888 129.293 69.686C128.742 67.753 125.718 64.403 125.187 64.448ZM126.268 81.475C126.247 81.319 126.23 81.16 126.217 81C126.342 77.144 127.367 74.421 129.514 72.532C131.333 70.932 134.846 69.852 137.461 69.876C138.439 69.886 138.935 69.87 139.19 70.09C139.41 70.345 139.395 70.841 139.404 71.819C139.429 74.434 138.348 77.947 136.749 79.766C134.86 81.912 132.137 82.938 128.281 83.063C128.121 83.05 127.962 83.033 127.806 83.012L135.02 74.351L134.526 74.754L134.929 74.26L126.268 81.475ZM124.106 81.475C124.127 81.319 124.144 81.16 124.157 81C124.032 77.144 123.006 74.421 120.859 72.532C119.04 70.932 115.527 69.852 112.912 69.876C111.934 69.886 111.439 69.87 111.183 70.09C110.963 70.345 110.978 70.841 110.969 71.819C110.944 74.434 112.025 77.947 113.625 79.766C115.513 81.912 118.237 82.938 122.093 83.063C122.253 83.05 122.412 83.033 122.568 83.012L115.354 74.351L115.848 74.754L115.445 74.26L124.106 81.475ZM141.46 96.2271C141.413 95.2701 141.312 94.358 141.153 93.493C141.045 92.408 140.861 91.439 140.414 90.144C141.456 89.698 144.723 87.411 144.905 87.194C146.031 87.979 148.592 91.127 149.173 92.891C147.542 94.617 143.27 96.541 141.46 96.2271ZM137.319 100.367C136.362 100.32 135.45 100.219 134.585 100.061C133.5 99.953 132.531 99.769 131.236 99.322C130.79 100.364 128.503 103.631 128.285 103.813C129.07 104.938 132.218 107.499 133.982 108.081C135.71 106.45 137.633 102.178 137.319 100.367ZM157 84.095C155.946 81.803 151.152 79.135 149.335 79.09L146.287 82.479C146.841 83.181 147.168 83.658 147.269 84.095C147.169 84.532 146.842 85.009 146.287 85.71L149.335 89.1C151.152 89.055 155.945 86.386 157 84.095ZM144.834 84.095C144.879 83.564 141.529 80.54 139.596 79.989C137.395 82.279 136.197 83.335 134.48 84.095C136.197 84.854 137.395 85.911 139.596 88.201C141.529 87.6501 144.879 84.625 144.834 84.095ZM127.807 85.176C127.963 85.155 128.122 85.138 128.282 85.125C132.138 85.25 134.862 86.275 136.75 88.422C138.35 90.241 139.43 93.754 139.405 96.369C139.395 97.347 139.411 97.842 139.191 98.098C138.936 98.318 138.44 98.303 137.462 98.312C134.847 98.337 131.334 97.256 129.515 95.656C127.368 93.768 126.343 91.044 126.218 87.188C126.231 87.028 126.248 86.869 126.269 86.713L134.93 93.927L134.527 93.433L135.021 93.8361L127.807 85.176ZM109.221 93.493C109.063 94.358 108.961 95.2701 108.914 96.2271C107.103 96.541 102.831 94.617 101.199 92.891C101.781 91.127 104.342 87.979 105.467 87.194C105.65 87.411 108.917 89.699 109.959 90.144C109.513 91.439 109.329 92.408 109.221 93.493ZM113.055 100.367C114.012 100.32 114.924 100.219 115.789 100.061C116.873 99.953 117.843 99.769 119.138 99.322C119.584 100.364 121.871 103.631 122.089 103.813C121.304 104.938 118.156 107.499 116.392 108.081C114.665 106.45 112.741 102.178 113.055 100.367ZM93.3748 84.095C94.4288 81.803 99.2228 79.135 101.039 79.09L104.087 82.479C103.533 83.181 103.205 83.658 103.105 84.095C103.206 84.532 103.533 85.009 104.087 85.71L101.039 89.1C99.2228 89.055 94.4288 86.386 93.3748 84.095ZM105.541 84.095C105.495 83.564 108.846 80.54 110.779 79.989C112.98 82.279 114.178 83.335 115.895 84.095C114.178 84.854 112.98 85.911 110.779 88.201C108.846 87.6501 105.495 84.625 105.541 84.095ZM122.567 85.176C122.411 85.155 122.252 85.138 122.092 85.125C118.236 85.25 115.513 86.275 113.624 88.422C112.024 90.241 110.944 93.754 110.968 96.369C110.978 97.347 110.962 97.842 111.182 98.098C111.437 98.318 111.933 98.303 112.911 98.312C115.526 98.337 119.039 97.256 120.858 95.656C123.005 93.768 124.03 91.044 124.156 87.188C124.143 87.028 124.126 86.869 124.105 86.713L115.444 93.927L115.847 93.433L115.353 93.8361L122.567 85.176ZM125.187 115.907C122.896 114.853 120.226 110.059 120.182 108.243L123.572 105.195C124.274 105.749 124.751 106.077 125.187 106.177C125.624 106.076 126.101 105.749 126.802 105.195L130.192 108.243C130.147 110.059 127.479 114.853 125.187 115.907ZM125.187 103.741C124.656 103.786 121.632 100.436 121.081 98.5031C123.371 96.3021 124.427 95.104 125.187 93.386C125.947 95.103 127.003 96.3011 129.293 98.5031C128.742 100.436 125.718 103.787 125.187 103.741Z" fill="#6BC299"/>
<mask id="mask0_76_1539" style="mask-type:luminance" maskUnits="userSpaceOnUse" x="-268" y="-214" width="842" height="596">
<path d="M-268 -214H573.89V381.276H-268V-214Z" fill="white"/>
</mask>
<g mask="url(#mask0_76_1539)">
<path fill-rule="evenodd" clip-rule="evenodd" d="M221.173 99.0341C221.26 99.3441 221.358 99.574 221.471 99.744L221.474 99.748C221.511 99.808 221.557 99.8649 221.611 99.9189C221.665 99.9739 221.722 100.019 221.782 100.057L221.786 100.06C221.957 100.173 222.187 100.271 222.497 100.359C222.622 100.365 222.747 100.371 222.871 100.376C222.878 100.665 222.838 101.372 222.957 101.936C223.458 104.302 224.753 107.202 226.352 109.296C227.22 110.432 227.661 110.812 228.976 110.483C229.433 110.368 229.969 110.054 230.401 109.842C232.161 113.586 233.394 115.827 235.782 117.837C236.475 118.42 236.946 118.759 237.436 118.794C237.927 118.759 238.398 118.42 239.091 117.837C241.479 115.827 242.712 113.586 244.471 109.842C244.904 110.053 245.44 110.368 245.897 110.483C247.211 110.812 247.653 110.432 248.521 109.296C250.12 107.202 251.415 104.301 251.916 101.936C252.035 101.371 251.995 100.665 252.002 100.376C252.126 100.371 252.251 100.366 252.376 100.359C252.686 100.271 252.916 100.173 253.086 100.06L253.09 100.057C253.151 100.019 253.207 99.9739 253.261 99.9189C253.316 99.8649 253.361 99.808 253.399 99.748L253.402 99.744C253.515 99.573 253.613 99.3441 253.7 99.0341C253.706 98.9081 253.712 98.784 253.717 98.66C254.007 98.654 254.713 98.694 255.278 98.574C257.643 98.073 260.544 96.778 262.638 95.179C263.774 94.311 264.154 93.8691 263.825 92.5551C263.71 92.0981 263.396 91.562 263.184 91.129C266.928 89.37 269.169 88.136 271.179 85.749C271.762 85.056 272.101 84.585 272.136 84.095C272.101 83.604 271.762 83.134 271.179 82.441C269.169 80.053 266.928 78.82 263.184 77.061C263.395 76.628 263.71 76.092 263.825 75.635C264.154 74.321 263.774 73.879 262.638 73.011C260.544 71.412 257.643 70.117 255.278 69.616C254.713 69.497 254.007 69.537 253.717 69.53C253.712 69.406 253.707 69.281 253.7 69.156C253.612 68.846 253.514 68.6159 253.402 68.4449L253.399 68.441C253.361 68.38 253.316 68.324 253.261 68.269C253.207 68.214 253.15 68.169 253.09 68.132L253.086 68.129C252.915 68.016 252.685 67.9181 252.376 67.8311C252.251 67.8241 252.126 67.819 252.002 67.814C251.995 67.524 252.036 66.8181 251.916 66.2531C251.415 63.8881 250.12 60.9869 248.521 58.8929C247.653 57.7569 247.211 57.3771 245.897 57.7061C245.44 57.8211 244.904 58.1349 244.471 58.3459C242.712 54.6019 241.479 52.361 239.091 50.351C238.398 49.768 237.927 49.429 237.436 49.394C236.945 49.429 236.475 49.768 235.782 50.351C233.394 52.361 232.161 54.6019 230.401 58.3459C229.968 58.1349 229.432 57.8201 228.976 57.7061C227.662 57.3761 227.22 57.7559 226.352 58.8929C224.753 60.9869 223.458 63.8881 222.957 66.2531C222.838 66.8181 222.878 67.524 222.871 67.814C222.747 67.819 222.622 67.8241 222.497 67.8311C222.187 67.9181 221.957 68.016 221.786 68.129L221.782 68.132C221.722 68.17 221.665 68.215 221.611 68.269C221.556 68.323 221.511 68.38 221.474 68.441L221.471 68.4449C221.358 68.6159 221.26 68.846 221.173 69.156C221.166 69.281 221.161 69.406 221.156 69.53C220.866 69.537 220.16 69.497 219.595 69.616C217.229 70.116 214.329 71.411 212.235 73.011C211.099 73.879 210.719 74.32 211.048 75.635C211.163 76.092 211.477 76.628 211.688 77.061C207.944 78.82 205.703 80.054 203.693 82.441C203.11 83.134 202.771 83.605 202.736 84.095C202.771 84.586 203.11 85.056 203.693 85.749C205.703 88.137 207.944 89.37 211.688 91.129C211.477 91.562 211.162 92.0981 211.048 92.5551C210.718 93.8691 211.098 94.311 212.235 95.179C214.329 96.778 217.23 98.073 219.595 98.574C220.16 98.693 220.866 98.653 221.156 98.66C221.161 98.783 221.167 98.9081 221.173 99.0341ZM249.568 67.822C248.611 67.869 247.7 67.97 246.834 68.129C245.75 68.237 244.78 68.421 243.485 68.868C243.039 67.826 240.752 64.559 240.535 64.377C241.32 63.252 244.468 60.691 246.232 60.109C247.959 61.74 249.882 66.011 249.568 67.822ZM228.038 68.129C227.173 67.97 226.262 67.869 225.304 67.822C224.99 66.011 226.914 61.74 228.641 60.108C230.405 60.69 233.553 63.251 234.338 64.376C234.12 64.559 231.833 67.8259 231.387 68.8669C230.092 68.4209 229.123 68.237 228.038 68.129ZM253.709 71.963C253.662 72.92 253.561 73.832 253.402 74.697C253.294 75.782 253.11 76.751 252.663 78.046C253.705 78.492 256.972 80.7789 257.154 80.9969C258.279 80.2119 260.84 77.064 261.422 75.3C259.791 73.572 255.52 71.649 253.709 71.963ZM221.47 74.696C221.311 73.831 221.21 72.919 221.163 71.962C219.352 71.648 215.081 73.5709 213.449 75.299C214.031 77.063 216.592 80.211 217.717 80.996C217.9 80.779 221.166 78.491 222.208 78.045C221.762 76.75 221.579 75.781 221.47 74.696ZM237.436 52.282C235.144 53.336 232.476 58.13 232.431 59.946L235.82 62.994C236.521 62.439 236.999 62.112 237.435 62.012C237.872 62.112 238.349 62.439 239.05 62.994L242.44 59.946C242.397 58.13 239.728 53.337 237.436 52.282ZM237.436 64.448C236.905 64.402 233.881 67.753 233.331 69.686C235.621 71.887 236.677 73.086 237.436 74.803C238.195 73.086 239.252 71.888 241.542 69.686C240.992 67.753 237.967 64.403 237.436 64.448ZM238.518 81.475C238.497 81.319 238.48 81.16 238.467 81C238.592 77.144 239.617 74.421 241.764 72.532C243.583 70.932 247.096 69.852 249.711 69.876C250.689 69.886 251.185 69.87 251.44 70.09C251.66 70.345 251.645 70.841 251.654 71.819C251.679 74.434 250.598 77.947 248.999 79.766C247.111 81.912 244.387 82.938 240.531 83.063C240.371 83.05 240.212 83.033 240.056 83.012L247.27 74.351L246.776 74.754L247.179 74.26L238.518 81.475ZM236.355 81.475C236.376 81.319 236.393 81.16 236.406 81C236.281 77.144 235.255 74.421 233.109 72.532C231.29 70.932 227.777 69.852 225.162 69.876C224.184 69.886 223.688 69.87 223.433 70.09C223.213 70.345 223.228 70.841 223.219 71.819C223.194 74.434 224.275 77.947 225.875 79.766C227.763 81.912 230.486 82.938 234.343 83.063C234.503 83.05 234.662 83.033 234.818 83.012L227.604 74.351L228.098 74.754L227.695 74.26L236.355 81.475ZM253.709 96.2271C253.662 95.2701 253.561 94.358 253.402 93.493C253.294 92.408 253.11 91.439 252.663 90.144C253.705 89.698 256.972 87.411 257.154 87.194C258.279 87.979 260.84 91.127 261.422 92.891C259.791 94.617 255.52 96.541 253.709 96.2271ZM249.568 100.367C248.611 100.32 247.7 100.219 246.834 100.061C245.75 99.953 244.78 99.769 243.485 99.322C243.039 100.364 240.752 103.631 240.535 103.813C241.32 104.938 244.468 107.499 246.232 108.081C247.959 106.45 249.882 102.178 249.568 100.367ZM269.249 84.095C268.195 81.803 263.401 79.135 261.585 79.09L258.537 82.479C259.092 83.181 259.419 83.658 259.519 84.095C259.418 84.532 259.091 85.009 258.537 85.71L261.585 89.1C263.401 89.055 268.194 86.386 269.249 84.095ZM257.083 84.095C257.129 83.564 253.778 80.54 251.845 79.989C249.644 82.279 248.446 83.335 246.729 84.095C248.446 84.854 249.644 85.911 251.845 88.201C253.778 87.6501 257.128 84.625 257.083 84.095ZM240.056 85.176C240.212 85.155 240.371 85.138 240.531 85.125C244.387 85.25 247.11 86.275 248.999 88.422C250.598 90.241 251.679 93.754 251.654 96.369C251.645 97.347 251.66 97.842 251.44 98.098C251.185 98.318 250.689 98.303 249.711 98.312C247.096 98.337 243.583 97.256 241.764 95.656C239.617 93.768 238.592 91.044 238.467 87.188C238.48 87.028 238.497 86.869 238.518 86.713L247.179 93.927L246.776 93.433L247.27 93.8361L240.056 85.176ZM221.47 93.493C221.311 94.358 221.21 95.2701 221.163 96.2271C219.352 96.541 215.081 94.617 213.449 92.891C214.031 91.127 216.592 87.979 217.717 87.194C217.9 87.411 221.166 89.699 222.208 90.144C221.762 91.439 221.579 92.408 221.47 93.493ZM225.304 100.367C226.261 100.32 227.173 100.219 228.038 100.061C229.123 99.953 230.092 99.769 231.387 99.322C231.833 100.364 234.12 103.631 234.338 103.813C233.553 104.938 230.405 107.499 228.641 108.081C226.914 106.45 224.99 102.178 225.304 100.367ZM205.624 84.095C206.678 81.803 211.472 79.135 213.288 79.09L216.336 82.479C215.782 83.181 215.454 83.658 215.354 84.095C215.454 84.532 215.781 85.009 216.336 85.71L213.288 89.1C211.472 89.055 206.678 86.386 205.624 84.095ZM217.79 84.095C217.745 83.564 221.095 80.54 223.028 79.989C225.23 82.279 226.428 83.335 228.145 84.095C226.428 84.854 225.23 85.911 223.028 88.201C221.095 87.6501 217.745 84.625 217.79 84.095ZM234.817 85.176C234.661 85.155 234.502 85.138 234.342 85.125C230.486 85.25 227.763 86.275 225.874 88.422C224.274 90.241 223.194 93.754 223.218 96.369C223.227 97.347 223.212 97.842 223.432 98.098C223.687 98.318 224.183 98.303 225.161 98.312C227.776 98.337 231.289 97.256 233.108 95.656C235.255 93.768 236.28 91.044 236.405 87.188C236.392 87.028 236.375 86.869 236.354 86.713L227.693 93.927L228.096 93.433L227.602 93.8361L234.817 85.176ZM237.436 115.907C235.144 114.853 232.476 110.059 232.431 108.243L235.82 105.195C236.521 105.749 236.999 106.077 237.435 106.177C237.872 106.076 238.349 105.749 239.05 105.195L242.44 108.243C242.397 110.059 239.728 114.853 237.436 115.907ZM237.436 103.741C236.905 103.786 233.881 100.436 233.331 98.5031C235.621 96.3021 236.677 95.104 237.436 93.386C238.195 95.103 239.252 96.3011 241.542 98.5031C240.992 100.436 237.967 103.787 237.436 103.741Z" fill="#6BC299"/>
</g>
<path fill-rule="evenodd" clip-rule="evenodd" d="M52.9548 172.184C53.0428 172.494 53.1398 172.724 53.2528 172.895L53.2558 172.899C53.2928 172.959 53.3388 173.016 53.3928 173.071C53.4468 173.126 53.5038 173.171 53.5648 173.209L53.5688 173.212C53.7398 173.325 53.9698 173.423 54.2798 173.51C54.4048 173.517 54.5298 173.522 54.6538 173.527C54.6608 173.817 54.6208 174.523 54.7398 175.088C55.2408 177.453 56.5348 180.354 58.1348 182.448C59.0028 183.584 59.4438 183.964 60.7588 183.635C61.2158 183.52 61.7518 183.206 62.1848 182.995C63.9448 186.739 65.1768 188.98 67.5648 190.99C68.2578 191.573 68.7288 191.912 69.2188 191.947C69.7098 191.912 70.1808 191.573 70.8738 190.99C73.2618 188.98 74.4948 186.739 76.2538 182.995C76.6868 183.206 77.2228 183.521 77.6798 183.635C78.9938 183.965 79.4358 183.585 80.3038 182.448C81.9028 180.354 83.1978 177.453 83.6988 175.088C83.8178 174.523 83.7778 173.817 83.7838 173.527C83.9078 173.522 84.0328 173.517 84.1578 173.51C84.4678 173.423 84.6978 173.324 84.8678 173.212L84.8718 173.209C84.9318 173.172 84.9888 173.126 85.0428 173.071C85.0978 173.017 85.1428 172.96 85.1808 172.899L85.1838 172.895C85.2968 172.724 85.3948 172.494 85.4828 172.184C85.4888 172.059 85.4948 171.934 85.4998 171.81C85.7888 171.803 86.4958 171.843 87.0598 171.724C89.4258 171.223 92.3258 169.929 94.4208 168.329C95.5568 167.461 95.9368 167.02 95.6078 165.705C95.4928 165.248 95.1788 164.712 94.9668 164.279C98.7108 162.519 100.952 161.286 102.962 158.899C103.545 158.206 103.884 157.735 103.919 157.245C103.884 156.754 103.545 156.284 102.962 155.59C100.952 153.202 98.7108 151.969 94.9668 150.21C95.1778 149.777 95.4928 149.241 95.6078 148.784C95.9368 147.47 95.5578 147.028 94.4208 146.16C92.3268 144.561 89.4258 143.266 87.0598 142.765C86.4948 142.646 85.7888 142.686 85.4998 142.679C85.4948 142.555 85.4888 142.43 85.4828 142.305C85.3948 141.995 85.2968 141.765 85.1838 141.595L85.1808 141.591C85.1438 141.531 85.0978 141.474 85.0428 141.42C84.9888 141.365 84.9318 141.32 84.8718 141.282L84.8678 141.279C84.6978 141.166 84.4678 141.068 84.1578 140.98C84.0328 140.974 83.9078 140.968 83.7838 140.963C83.7778 140.673 83.8178 139.967 83.6988 139.402C83.1978 137.037 81.9028 134.136 80.3038 132.042C79.4358 130.906 78.9938 130.526 77.6798 130.855C77.2228 130.97 76.6868 131.284 76.2538 131.496C74.4948 127.752 73.2608 125.511 70.8738 123.501C70.1808 122.918 69.7098 122.579 69.2188 122.544C68.7278 122.579 68.2578 122.918 67.5648 123.501C65.1768 125.511 63.9438 127.752 62.1848 131.496C61.7518 131.285 61.2158 130.97 60.7588 130.855C59.4448 130.526 59.0028 130.905 58.1348 132.042C56.5358 134.136 55.2408 137.037 54.7398 139.402C54.6198 139.967 54.6608 140.673 54.6538 140.963C54.5298 140.968 54.4048 140.973 54.2798 140.98C53.9698 141.068 53.7398 141.166 53.5688 141.279L53.5648 141.282C53.5038 141.32 53.4478 141.365 53.3928 141.42C53.3378 141.474 53.2928 141.531 53.2558 141.591L53.2528 141.595C53.1398 141.766 53.0418 141.996 52.9548 142.305C52.9478 142.43 52.9428 142.555 52.9378 142.679C52.6478 142.686 51.9418 142.645 51.3768 142.765C49.0118 143.266 46.1108 144.561 44.0168 146.16C42.8808 147.028 42.5008 147.47 42.8298 148.784C42.9448 149.241 43.2588 149.777 43.4698 150.21C39.7258 151.969 37.4848 153.203 35.4748 155.59C34.8918 156.283 34.5528 156.754 34.5178 157.245C34.5528 157.736 34.8918 158.206 35.4748 158.899C37.4848 161.287 39.7258 162.52 43.4698 164.279C43.2588 164.712 42.9438 165.248 42.8298 165.705C42.4998 167.019 42.8798 167.461 44.0168 168.329C46.1108 169.928 49.0118 171.223 51.3768 171.724C51.9418 171.843 52.6478 171.803 52.9378 171.81C52.9428 171.934 52.9478 172.059 52.9548 172.184ZM81.3498 140.973C80.3928 141.02 79.4808 141.121 78.6158 141.279C77.5308 141.387 76.5618 141.571 75.2668 142.018C74.8208 140.976 72.5338 137.709 72.3168 137.527C73.1018 136.402 76.2498 133.841 78.0138 133.259C79.7398 134.89 81.6638 139.162 81.3498 140.973ZM59.8198 141.279C58.9548 141.121 58.0438 141.019 57.0858 140.973C56.7718 139.162 58.6948 134.89 60.4228 133.259C62.1868 133.841 65.3348 136.402 66.1198 137.527C65.9018 137.71 63.6148 140.977 63.1688 142.018C61.8738 141.571 60.9038 141.388 59.8198 141.279ZM85.4898 145.114C85.4428 146.071 85.3418 146.983 85.1838 147.848C85.0758 148.933 84.8918 149.902 84.4448 151.197C85.4868 151.643 88.7538 153.93 88.9368 154.147C90.0618 153.362 92.6228 150.214 93.2048 148.45C91.5728 146.723 87.3008 144.799 85.4898 145.114ZM53.2518 147.847C53.0938 146.982 52.9918 146.07 52.9448 145.113C51.1338 144.799 46.8628 146.722 45.2308 148.449C45.8128 150.213 48.3738 153.361 49.4988 154.146C49.6818 153.929 52.9478 151.641 53.9898 151.196C53.5438 149.901 53.3598 148.932 53.2518 147.847ZM69.2178 125.433C66.9258 126.487 64.2578 131.281 64.2128 133.097L67.6018 136.145C68.3038 135.59 68.7808 135.263 69.2178 135.163C69.6548 135.264 70.1318 135.591 70.8328 136.145L74.2228 133.097C74.1778 131.281 71.5088 126.487 69.2178 125.433ZM69.2178 137.599C68.6868 137.554 65.6628 140.904 65.1128 142.837C67.4018 145.038 68.4588 146.236 69.2178 147.954C69.9768 146.237 71.0338 145.039 73.3238 142.837C72.7728 140.904 69.7488 137.554 69.2178 137.599ZM70.2988 154.626C70.2778 154.47 70.2608 154.311 70.2478 154.151C70.3728 150.295 71.3978 147.572 73.5448 145.683C75.3638 144.083 78.8768 143.002 81.4918 143.027C82.4698 143.036 82.9648 143.021 83.2208 143.241C83.4408 143.496 83.4258 143.992 83.4348 144.97C83.4598 147.585 82.3788 151.098 80.7788 152.917C78.8908 155.064 76.1668 156.089 72.3108 156.214C72.1508 156.201 71.9918 156.184 71.8358 156.163L79.0498 147.502L78.5558 147.905L78.9588 147.411L70.2988 154.626ZM68.1368 154.626C68.1578 154.47 68.1748 154.311 68.1878 154.151C68.0628 150.295 67.0368 147.572 64.8908 145.683C63.0718 144.083 59.5588 143.002 56.9438 143.027C55.9658 143.036 55.4698 143.021 55.2148 143.241C54.9948 143.496 55.0098 143.992 55.0008 144.97C54.9758 147.585 56.0568 151.098 57.6568 152.917C59.5448 155.064 62.2688 156.089 66.1248 156.214C66.2848 156.201 66.4428 156.184 66.5998 156.163L59.3858 147.502L59.8798 147.905L59.4768 147.411L68.1368 154.626ZM85.4898 169.377C85.4428 168.42 85.3418 167.508 85.1838 166.643C85.0758 165.559 84.8918 164.589 84.4448 163.294C85.4868 162.848 88.7538 160.561 88.9368 160.343C90.0618 161.128 92.6228 164.276 93.2048 166.04C91.5728 167.768 87.3008 169.692 85.4898 169.377ZM81.3498 173.518C80.3928 173.471 79.4808 173.37 78.6158 173.211C77.5308 173.103 76.5618 172.919 75.2668 172.472C74.8208 173.514 72.5338 176.781 72.3168 176.963C73.1018 178.088 76.2498 180.649 78.0138 181.231C79.7398 179.6 81.6638 175.329 81.3498 173.518ZM101.03 157.245C99.9758 154.953 95.1818 152.284 93.3658 152.24L90.3178 155.63C90.8718 156.332 91.1998 156.809 91.2998 157.245C91.1988 157.682 90.8718 158.159 90.3178 158.86L93.3658 162.249C95.1818 162.206 99.9758 159.537 101.03 157.245ZM88.8648 157.245C88.9098 156.714 85.5598 153.69 83.6268 153.139C81.4258 155.429 80.2278 156.485 78.5108 157.245C80.2278 158.004 81.4258 159.061 83.6268 161.35C85.5588 160.801 88.9098 157.776 88.8648 157.245ZM71.8378 158.327C71.9938 158.306 72.1528 158.289 72.3128 158.276C76.1688 158.401 78.8918 159.427 80.7808 161.573C82.3808 163.392 83.4608 166.905 83.4368 169.52C83.4278 170.498 83.4428 170.994 83.2228 171.249C82.9678 171.469 82.4718 171.454 81.4938 171.463C78.8788 171.488 75.3658 170.407 73.5468 168.807C71.3998 166.919 70.3748 164.196 70.2498 160.339C70.2628 160.179 70.2798 160.021 70.3008 159.864L78.9618 167.078L78.5588 166.584L79.0528 166.987L71.8378 158.327ZM53.2518 166.644C53.0938 167.509 52.9918 168.42 52.9448 169.378C51.1338 169.692 46.8628 167.769 45.2308 166.041C45.8128 164.277 48.3738 161.129 49.4988 160.344C49.6818 160.562 52.9478 162.849 53.9898 163.295C53.5438 164.59 53.3598 165.559 53.2518 166.644ZM57.0858 173.518C58.0428 173.471 58.9548 173.37 59.8198 173.211C60.9038 173.103 61.8738 172.919 63.1688 172.472C63.6148 173.514 65.9018 176.781 66.1198 176.963C65.3348 178.088 62.1868 180.649 60.4228 181.231C58.6948 179.6 56.7718 175.329 57.0858 173.518ZM37.4058 157.245C38.4598 154.953 43.2538 152.284 45.0698 152.24L48.1178 155.63C47.5638 156.332 47.2368 156.809 47.1358 157.245C47.2358 157.682 47.5628 158.159 48.1178 158.86L45.0698 162.249C43.2538 162.206 38.4598 159.537 37.4058 157.245ZM49.5718 157.245C49.5258 156.714 52.8768 153.69 54.8098 153.139C57.0108 155.429 58.2098 156.485 59.9268 157.245C58.2098 158.004 57.0108 159.061 54.8098 161.35C52.8758 160.801 49.5258 157.776 49.5718 157.245ZM66.5978 158.327C66.4418 158.306 66.2828 158.289 66.1228 158.276C62.2668 158.401 59.5428 159.427 57.6548 161.573C56.0558 163.392 54.9748 166.905 54.9988 169.52C55.0088 170.498 54.9928 170.994 55.2128 171.249C55.4678 171.469 55.9638 171.454 56.9418 171.463C59.5568 171.488 63.0698 170.407 64.8888 168.807C67.0358 166.919 68.0608 164.196 68.1858 160.339C68.1728 160.179 68.1558 160.021 68.1348 159.864L59.4738 167.078L59.8768 166.584L59.3828 166.987L66.5978 158.327ZM69.2178 189.058C66.9258 188.004 64.2578 183.21 64.2128 181.394L67.6018 178.346C68.3038 178.9 68.7808 179.228 69.2178 179.328C69.6548 179.228 70.1318 178.901 70.8328 178.346L74.2228 181.394C74.1778 183.21 71.5088 188.003 69.2178 189.058ZM69.2178 176.892C68.6868 176.937 65.6628 173.587 65.1128 171.654C67.4018 169.453 68.4588 168.254 69.2178 166.537C69.9768 168.254 71.0338 169.453 73.3238 171.654C72.7728 173.587 69.7488 176.937 69.2178 176.892Z" fill="#6BC299"/>
<path fill-rule="evenodd" clip-rule="evenodd" d="M165.204 172.184C165.292 172.494 165.389 172.724 165.502 172.895L165.505 172.899C165.542 172.959 165.588 173.016 165.643 173.071C165.697 173.126 165.754 173.171 165.814 173.209L165.818 173.212C165.989 173.325 166.219 173.423 166.529 173.51C166.655 173.517 166.779 173.522 166.903 173.527C166.91 173.817 166.869 174.523 166.989 175.088C167.489 177.453 168.785 180.354 170.384 182.448C171.252 183.584 171.694 183.964 173.008 183.635C173.465 183.52 174.001 183.206 174.434 182.995C176.193 186.739 177.427 188.98 179.814 190.99C180.507 191.573 180.978 191.912 181.469 191.947C181.96 191.912 182.43 191.573 183.123 190.99C185.511 188.98 186.744 186.739 188.503 182.995C188.936 183.206 189.472 183.521 189.929 183.635C191.244 183.965 191.685 183.585 192.553 182.448C194.152 180.354 195.447 177.453 195.948 175.088C196.067 174.523 196.027 173.817 196.034 173.527C196.158 173.522 196.283 173.517 196.408 173.51C196.718 173.423 196.948 173.324 197.119 173.212L197.123 173.209C197.184 173.172 197.24 173.126 197.295 173.071C197.35 173.017 197.395 172.96 197.432 172.899L197.435 172.895C197.548 172.724 197.646 172.494 197.733 172.184C197.74 172.059 197.745 171.934 197.75 171.81C198.04 171.803 198.746 171.843 199.311 171.724C201.676 171.223 204.577 169.929 206.671 168.329C207.807 167.461 208.187 167.02 207.858 165.705C207.743 165.248 207.429 164.712 207.218 164.279C210.962 162.519 213.202 161.286 215.213 158.899C215.796 158.206 216.135 157.735 216.17 157.245C216.135 156.754 215.796 156.284 215.213 155.59C213.203 153.202 210.962 151.969 207.218 150.21C207.429 149.777 207.744 149.241 207.858 148.784C208.188 147.47 207.808 147.028 206.671 146.16C204.577 144.561 201.676 143.266 199.311 142.765C198.746 142.646 198.04 142.686 197.75 142.679C197.745 142.555 197.74 142.43 197.733 142.305C197.645 141.995 197.547 141.765 197.435 141.595L197.432 141.591C197.395 141.531 197.349 141.474 197.295 141.42C197.241 141.365 197.184 141.32 197.123 141.282L197.119 141.279C196.948 141.166 196.718 141.068 196.408 140.98C196.283 140.974 196.158 140.968 196.034 140.963C196.027 140.673 196.068 139.967 195.948 139.402C195.448 137.037 194.153 134.136 192.553 132.042C191.685 130.906 191.244 130.526 189.929 130.855C189.472 130.97 188.936 131.284 188.503 131.496C186.744 127.752 185.511 125.511 183.123 123.501C182.43 122.918 181.959 122.579 181.469 122.544C180.978 122.579 180.508 122.918 179.814 123.501C177.426 125.511 176.193 127.752 174.434 131.496C174.001 131.285 173.465 130.97 173.008 130.855C171.694 130.526 171.252 130.905 170.384 132.042C168.785 134.136 167.49 137.037 166.989 139.402C166.87 139.967 166.91 140.673 166.903 140.963C166.779 140.968 166.654 140.973 166.529 140.98C166.219 141.068 165.989 141.166 165.818 141.279L165.814 141.282C165.754 141.32 165.697 141.365 165.643 141.42C165.588 141.474 165.543 141.531 165.505 141.591L165.502 141.595C165.389 141.766 165.291 141.996 165.204 142.305C165.197 142.43 165.192 142.555 165.187 142.679C164.898 142.686 164.191 142.645 163.627 142.765C161.261 143.266 158.361 144.561 156.267 146.16C155.131 147.028 154.751 147.47 155.08 148.784C155.195 149.241 155.509 149.777 155.721 150.21C151.977 151.969 149.736 153.203 147.726 155.59C147.143 156.283 146.804 156.754 146.769 157.245C146.804 157.736 147.143 158.206 147.726 158.899C149.736 161.287 151.977 162.52 155.721 164.279C155.51 164.712 155.195 165.248 155.08 165.705C154.75 167.019 155.13 167.461 156.267 168.329C158.361 169.928 161.262 171.223 163.627 171.724C164.192 171.843 164.898 171.803 165.187 171.81C165.192 171.934 165.197 172.059 165.204 172.184ZM193.599 140.973C192.642 141.02 191.73 141.121 190.865 141.279C189.781 141.387 188.811 141.571 187.516 142.018C187.07 140.976 184.783 137.709 184.566 137.527C185.351 136.402 188.499 133.841 190.263 133.259C191.99 134.89 193.913 139.162 193.599 140.973ZM172.069 141.279C171.204 141.121 170.292 141.019 169.335 140.973C169.021 139.162 170.945 134.89 172.672 133.259C174.436 133.841 177.584 136.402 178.369 137.527C178.152 137.71 175.864 140.977 175.419 142.018C174.123 141.571 173.153 141.388 172.069 141.279ZM197.74 145.114C197.693 146.071 197.592 146.983 197.433 147.848C197.325 148.933 197.141 149.902 196.694 151.197C197.736 151.643 201.003 153.93 201.185 154.147C202.31 153.362 204.871 150.214 205.453 148.45C203.822 146.723 199.55 144.799 197.74 145.114ZM165.501 147.847C165.343 146.982 165.241 146.07 165.194 145.113C163.383 144.799 159.111 146.722 157.48 148.449C158.062 150.213 160.623 153.361 161.748 154.146C161.931 153.929 165.198 151.641 166.239 151.196C165.793 149.901 165.61 148.932 165.501 147.847ZM181.467 125.433C179.175 126.487 176.506 131.281 176.462 133.097L179.852 136.145C180.554 135.59 181.031 135.263 181.467 135.163C181.904 135.264 182.381 135.591 183.082 136.145L186.471 133.097C186.428 131.281 183.759 126.487 181.467 125.433ZM181.467 137.599C180.936 137.554 177.912 140.904 177.361 142.837C179.651 145.038 180.707 146.236 181.467 147.954C182.226 146.237 183.283 145.039 185.572 142.837C185.023 140.904 181.998 137.554 181.467 137.599ZM182.548 154.626C182.527 154.47 182.51 154.311 182.497 154.151C182.622 150.295 183.648 147.572 185.794 145.683C187.613 144.083 191.126 143.002 193.741 143.027C194.719 143.036 195.215 143.021 195.47 143.241C195.69 143.496 195.675 143.992 195.684 144.97C195.709 147.585 194.628 151.098 193.028 152.917C191.14 155.064 188.417 156.089 184.56 156.214C184.4 156.201 184.242 156.184 184.085 156.163L191.299 147.502L190.805 147.905L191.208 147.411L182.548 154.626ZM180.386 154.626C180.407 154.47 180.424 154.311 180.437 154.151C180.312 150.295 179.287 147.572 177.14 145.683C175.321 144.083 171.808 143.002 169.193 143.027C168.215 143.036 167.719 143.021 167.464 143.241C167.244 143.496 167.259 143.992 167.25 144.97C167.225 147.585 168.306 151.098 169.906 152.917C171.794 155.064 174.517 156.089 178.374 156.214C178.534 156.201 178.693 156.184 178.849 156.163L171.635 147.502L172.129 147.905L171.726 147.411L180.386 154.626ZM197.74 169.377C197.693 168.42 197.592 167.508 197.433 166.643C197.325 165.559 197.141 164.589 196.694 163.294C197.736 162.848 201.003 160.561 201.185 160.343C202.31 161.128 204.871 164.276 205.453 166.04C203.822 167.768 199.55 169.692 197.74 169.377ZM193.599 173.518C192.642 173.471 191.73 173.37 190.865 173.211C189.781 173.103 188.811 172.919 187.516 172.472C187.07 173.514 184.783 176.781 184.566 176.963C185.351 178.088 188.499 180.649 190.263 181.231C191.99 179.6 193.913 175.329 193.599 173.518ZM213.279 157.245C212.225 154.953 207.431 152.284 205.615 152.24L202.567 155.63C203.122 156.332 203.449 156.809 203.549 157.245C203.448 157.682 203.122 158.159 202.567 158.86L205.615 162.249C207.432 162.206 212.225 159.537 213.279 157.245ZM201.114 157.245C201.16 156.714 197.809 153.69 195.876 153.139C193.675 155.429 192.476 156.485 190.759 157.245C192.476 158.004 193.674 159.061 195.876 161.35C197.809 160.801 201.159 157.776 201.114 157.245ZM184.087 158.327C184.243 158.306 184.402 158.289 184.562 158.276C188.418 158.401 191.142 159.427 193.03 161.573C194.63 163.392 195.71 166.905 195.686 169.52C195.676 170.498 195.692 170.994 195.472 171.249C195.217 171.469 194.721 171.454 193.743 171.463C191.128 171.488 187.615 170.407 185.796 168.807C183.65 166.919 182.624 164.196 182.499 160.339C182.512 160.179 182.529 160.021 182.55 159.864L191.211 167.078L190.808 166.584L191.302 166.987L184.087 158.327ZM165.501 166.644C165.343 167.509 165.241 168.42 165.194 169.378C163.383 169.692 159.111 167.769 157.48 166.041C158.062 164.277 160.623 161.129 161.748 160.344C161.931 160.562 165.198 162.849 166.239 163.295C165.793 164.59 165.61 165.559 165.501 166.644ZM169.335 173.518C170.292 173.471 171.204 173.37 172.069 173.211C173.153 173.103 174.123 172.919 175.418 172.472C175.864 173.514 178.151 176.781 178.368 176.963C177.583 178.088 174.435 180.649 172.671 181.231C170.945 179.6 169.021 175.329 169.335 173.518ZM149.655 157.245C150.709 154.953 155.503 152.284 157.319 152.24L160.367 155.63C159.812 156.332 159.485 156.809 159.385 157.245C159.486 157.682 159.813 158.159 160.367 158.86L157.319 162.249C155.503 162.206 150.709 159.537 149.655 157.245ZM161.821 157.245C161.776 156.714 165.126 153.69 167.059 153.139C169.26 155.429 170.458 156.485 172.175 157.245C170.458 158.004 169.26 159.061 167.059 161.35C165.126 160.801 161.775 157.776 161.821 157.245ZM178.847 158.327C178.691 158.306 178.532 158.289 178.372 158.276C174.516 158.401 171.793 159.427 169.904 161.573C168.305 163.392 167.224 166.905 167.248 169.52C167.257 170.498 167.242 170.994 167.462 171.249C167.717 171.469 168.213 171.454 169.191 171.463C171.806 171.488 175.319 170.407 177.138 168.807C179.285 166.919 180.31 164.196 180.435 160.339C180.422 160.179 180.405 160.021 180.384 159.864L171.723 167.078L172.126 166.584L171.632 166.987L178.847 158.327ZM181.467 189.058C179.175 188.004 176.506 183.21 176.462 181.394L179.852 178.346C180.554 178.9 181.031 179.228 181.467 179.328C181.904 179.228 182.381 178.901 183.082 178.346L186.471 181.394C186.428 183.21 183.759 188.003 181.467 189.058ZM181.467 176.892C180.936 176.937 177.912 173.587 177.361 171.654C179.651 169.453 180.707 168.254 181.467 166.537C182.226 168.254 183.283 169.453 185.572 171.654C185.023 173.587 181.998 176.937 181.467 176.892Z" fill="#6BC299"/>
<path fill-rule="evenodd" clip-rule="evenodd" d="M277.349 172.184C277.437 172.494 277.535 172.724 277.648 172.895L277.65 172.899C277.688 172.959 277.733 173.016 277.788 173.071C277.842 173.126 277.899 173.171 277.96 173.209L277.964 173.212C278.135 173.325 278.365 173.423 278.674 173.51C278.799 173.517 278.924 173.522 279.048 173.527C279.054 173.817 279.014 174.523 279.134 175.088C279.635 177.453 280.93 180.354 282.529 182.448C283.397 183.584 283.838 183.964 285.153 183.635C285.61 183.52 286.146 183.206 286.579 182.995C288.339 186.739 289.571 188.98 291.959 190.99C292.652 191.573 293.122 191.912 293.613 191.947C294.104 191.912 294.575 191.573 295.267 190.99C297.655 188.98 298.888 186.739 300.647 182.995C301.08 183.206 301.616 183.521 302.073 183.635C303.387 183.965 303.829 183.585 304.697 182.448C306.296 180.354 307.591 177.453 308.092 175.088C308.212 174.523 308.171 173.817 308.178 173.527C308.302 173.522 308.426 173.517 308.552 173.51C308.862 173.423 309.092 173.324 309.263 173.212L309.267 173.209C309.328 173.172 309.384 173.126 309.439 173.071C309.494 173.017 309.539 172.96 309.576 172.899L309.579 172.895C309.692 172.724 309.79 172.494 309.877 172.184C309.884 172.059 309.889 171.934 309.894 171.81C310.184 171.803 310.89 171.843 311.455 171.724C313.82 171.223 316.721 169.929 318.815 168.329C319.951 167.461 320.331 167.02 320.002 165.705C319.887 165.248 319.573 164.712 319.361 164.279C323.105 162.519 325.346 161.286 327.356 158.899C327.939 158.206 328.278 157.735 328.313 157.245C328.278 156.754 327.939 156.284 327.356 155.59C325.346 153.202 323.105 151.969 319.361 150.21C319.572 149.777 319.887 149.241 320.002 148.784C320.331 147.47 319.952 147.028 318.815 146.16C316.721 144.561 313.82 143.266 311.455 142.765C310.89 142.646 310.184 142.686 309.894 142.679C309.889 142.555 309.884 142.43 309.877 142.305C309.79 141.995 309.692 141.765 309.579 141.595L309.576 141.591C309.539 141.531 309.493 141.474 309.439 141.42C309.385 141.365 309.328 141.32 309.267 141.282L309.263 141.279C309.092 141.166 308.862 141.068 308.552 140.98C308.427 140.974 308.302 140.968 308.178 140.963C308.171 140.673 308.212 139.967 308.092 139.402C307.592 137.037 306.297 134.136 304.697 132.042C303.829 130.906 303.388 130.526 302.073 130.855C301.616 130.97 301.08 131.284 300.647 131.496C298.887 127.752 297.654 125.511 295.267 123.501C294.574 122.918 294.103 122.579 293.613 122.544C293.122 122.579 292.652 122.918 291.959 123.501C289.571 125.511 288.338 127.752 286.579 131.496C286.146 131.285 285.61 130.97 285.153 130.855C283.839 130.526 283.397 130.905 282.529 132.042C280.93 134.136 279.635 137.037 279.134 139.402C279.015 139.967 279.055 140.673 279.048 140.963C278.924 140.968 278.799 140.973 278.674 140.98C278.364 141.068 278.134 141.166 277.964 141.279L277.96 141.282C277.899 141.32 277.842 141.365 277.788 141.42C277.733 141.474 277.688 141.531 277.65 141.591L277.648 141.595C277.535 141.766 277.437 141.996 277.349 142.305C277.343 142.43 277.337 142.555 277.333 142.679C277.043 142.686 276.337 142.645 275.772 142.765C273.407 143.266 270.506 144.561 268.411 146.16C267.275 147.028 266.895 147.47 267.224 148.784C267.339 149.241 267.653 149.777 267.865 150.21C264.121 151.969 261.88 153.203 259.87 155.59C259.287 156.283 258.948 156.754 258.913 157.245C258.948 157.736 259.287 158.206 259.87 158.899C261.88 161.287 264.121 162.52 267.865 164.279C267.653 164.712 267.339 165.248 267.224 165.705C266.895 167.019 267.275 167.461 268.411 168.329C270.505 169.928 273.406 171.223 275.772 171.724C276.337 171.843 277.043 171.803 277.333 171.81C277.337 171.934 277.343 172.059 277.349 172.184ZM305.744 140.973C304.787 141.02 303.875 141.121 303.01 141.279C301.926 141.387 300.956 141.571 299.661 142.018C299.215 140.976 296.928 137.709 296.71 137.527C297.495 136.402 300.643 133.841 302.407 133.259C304.135 134.89 306.058 139.162 305.744 140.973ZM284.214 141.279C283.349 141.121 282.438 141.019 281.48 140.973C281.166 139.162 283.089 134.89 284.817 133.259C286.581 133.841 289.728 136.402 290.514 137.527C290.296 137.71 288.009 140.977 287.563 142.018C286.268 141.571 285.299 141.388 284.214 141.279ZM309.885 145.114C309.838 146.071 309.737 146.983 309.578 147.848C309.47 148.933 309.286 149.902 308.839 151.197C309.881 151.643 313.148 153.93 313.33 154.147C314.455 153.362 317.017 150.214 317.598 148.45C315.968 146.723 311.696 144.799 309.885 145.114ZM277.646 147.847C277.488 146.982 277.386 146.07 277.339 145.113C275.528 144.799 271.256 146.722 269.625 148.449C270.207 150.213 272.768 153.361 273.893 154.146C274.076 153.929 277.343 151.641 278.385 151.196C277.938 149.901 277.754 148.932 277.646 147.847ZM293.612 125.433C291.32 126.487 288.651 131.281 288.607 133.097L291.997 136.145C292.699 135.59 293.176 135.263 293.612 135.163C294.049 135.264 294.526 135.591 295.228 136.145L298.618 133.097C298.573 131.281 295.904 126.487 293.612 125.433ZM293.612 137.599C293.081 137.554 290.057 140.904 289.506 142.837C291.796 145.038 292.852 146.236 293.612 147.954C294.372 146.237 295.428 145.039 297.718 142.837C297.168 140.904 294.143 137.554 293.612 137.599ZM294.694 154.626C294.673 154.47 294.656 154.311 294.643 154.151C294.768 150.295 295.794 147.572 297.94 145.683C299.759 144.083 303.272 143.002 305.887 143.027C306.865 143.036 307.361 143.021 307.616 143.241C307.836 143.496 307.821 143.992 307.83 144.97C307.855 147.585 306.774 151.098 305.174 152.917C303.286 155.064 300.563 156.089 296.706 156.214C296.546 156.201 296.388 156.184 296.231 156.163L303.445 147.502L302.951 147.905L303.354 147.411L294.694 154.626ZM292.531 154.626C292.552 154.47 292.569 154.311 292.582 154.151C292.457 150.295 291.431 147.572 289.284 145.683C287.465 144.083 283.952 143.002 281.337 143.027C280.359 143.036 279.864 143.021 279.608 143.241C279.388 143.496 279.403 143.992 279.394 144.97C279.369 147.585 280.45 151.098 282.05 152.917C283.938 155.064 286.662 156.089 290.518 156.214C290.678 156.201 290.837 156.184 290.993 156.163L283.779 147.502L284.273 147.905L283.87 147.411L292.531 154.626ZM309.885 169.377C309.838 168.42 309.737 167.508 309.578 166.643C309.47 165.559 309.286 164.589 308.839 163.294C309.881 162.848 313.148 160.561 313.33 160.343C314.455 161.128 317.017 164.276 317.598 166.04C315.968 167.768 311.696 169.692 309.885 169.377ZM305.744 173.518C304.787 173.471 303.875 173.37 303.01 173.211C301.926 173.103 300.956 172.919 299.661 172.472C299.215 173.514 296.928 176.781 296.71 176.963C297.495 178.088 300.643 180.649 302.407 181.231C304.135 179.6 306.058 175.329 305.744 173.518ZM325.425 157.245C324.371 154.953 319.577 152.284 317.76 152.24L314.712 155.63C315.266 156.332 315.593 156.809 315.694 157.245C315.594 157.682 315.267 158.159 314.712 158.86L317.76 162.249C319.577 162.206 324.37 159.537 325.425 157.245ZM313.259 157.245C313.304 156.714 309.954 153.69 308.021 153.139C305.82 155.429 304.622 156.485 302.905 157.245C304.622 158.004 305.82 159.061 308.021 161.35C309.954 160.801 313.304 157.776 313.259 157.245ZM296.232 158.327C296.388 158.306 296.547 158.289 296.707 158.276C300.563 158.401 303.287 159.427 305.175 161.573C306.775 163.392 307.856 166.905 307.831 169.52C307.821 170.498 307.837 170.994 307.617 171.249C307.362 171.469 306.866 171.454 305.888 171.463C303.273 171.488 299.76 170.407 297.941 168.807C295.794 166.919 294.769 164.196 294.644 160.339C294.657 160.179 294.674 160.021 294.695 159.864L303.356 167.078L302.953 166.584L303.447 166.987L296.232 158.327ZM277.646 166.644C277.488 167.509 277.386 168.42 277.339 169.378C275.528 169.692 271.256 167.769 269.625 166.041C270.207 164.277 272.768 161.129 273.893 160.344C274.076 160.562 277.343 162.849 278.385 163.295C277.938 164.59 277.754 165.559 277.646 166.644ZM281.48 173.518C282.437 173.471 283.349 173.37 284.214 173.211C285.298 173.103 286.268 172.919 287.563 172.472C288.009 173.514 290.296 176.781 290.514 176.963C289.729 178.088 286.581 180.649 284.817 181.231C283.09 179.6 281.166 175.329 281.48 173.518ZM261.8 157.245C262.854 154.953 267.648 152.284 269.464 152.24L272.512 155.63C271.958 156.332 271.63 156.809 271.53 157.245C271.631 157.682 271.958 158.159 272.512 158.86L269.464 162.249C267.648 162.206 262.855 159.537 261.8 157.245ZM273.966 157.245C273.921 156.714 277.271 153.69 279.204 153.139C281.405 155.429 282.603 156.485 284.32 157.245C282.603 158.004 281.405 159.061 279.204 161.35C277.271 160.801 273.92 157.776 273.966 157.245ZM290.993 158.327C290.837 158.306 290.678 158.289 290.518 158.276C286.662 158.401 283.939 159.427 282.05 161.573C280.45 163.392 279.37 166.905 279.394 169.52C279.404 170.498 279.388 170.994 279.608 171.249C279.863 171.469 280.359 171.454 281.337 171.463C283.952 171.488 287.465 170.407 289.284 168.807C291.431 166.919 292.456 164.196 292.582 160.339C292.569 160.179 292.552 160.021 292.531 159.864L283.87 167.078L284.273 166.584L283.779 166.987L290.993 158.327ZM293.612 189.058C291.32 188.004 288.651 183.21 288.607 181.394L291.997 178.346C292.699 178.9 293.176 179.228 293.612 179.328C294.049 179.228 294.526 178.901 295.228 178.346L298.618 181.394C298.573 183.21 295.904 188.003 293.612 189.058ZM293.612 176.892C293.081 176.937 290.057 173.587 289.506 171.654C291.796 169.453 292.852 168.254 293.612 166.537C294.372 168.254 295.428 169.453 297.718 171.654C297.168 173.587 294.143 176.937 293.612 176.892Z" fill="#6BC299"/>
<path fill-rule="evenodd" clip-rule="evenodd" d="M52.9548 27.801C53.0428 28.111 53.1398 28.341 53.2528 28.511L53.2558 28.515C53.2928 28.575 53.3388 28.632 53.3928 28.686C53.4468 28.741 53.5038 28.786 53.5648 28.824L53.5688 28.826C53.7398 28.939 53.9698 29.037 54.2798 29.125C54.4048 29.131 54.5298 29.137 54.6538 29.141C54.6608 29.431 54.6208 30.137 54.7398 30.702C55.2408 33.068 56.5348 35.968 58.1348 38.063C59.0028 39.199 59.4438 39.579 60.7588 39.25C61.2158 39.135 61.7518 38.821 62.1848 38.609C63.9448 42.353 65.1768 44.594 67.5648 46.604C68.2578 47.187 68.7288 47.526 69.2188 47.561C69.7098 47.526 70.1808 47.187 70.8738 46.604C73.2618 44.594 74.4948 42.353 76.2538 38.609C76.6868 38.821 77.2228 39.135 77.6798 39.25C78.9938 39.579 79.4358 39.2 80.3038 38.063C81.9028 35.969 83.1978 33.068 83.6988 30.702C83.8178 30.137 83.7778 29.431 83.7838 29.141C83.9078 29.136 84.0328 29.131 84.1578 29.125C84.4678 29.037 84.6978 28.939 84.8678 28.826L84.8718 28.824C84.9318 28.786 84.9888 28.741 85.0428 28.686C85.0978 28.632 85.1428 28.575 85.1808 28.515L85.1838 28.511C85.2968 28.34 85.3948 28.11 85.4828 27.801C85.4888 27.676 85.4948 27.551 85.4998 27.427C85.7888 27.421 86.4958 27.4609 87.0598 27.3409C89.4258 26.8399 92.3258 25.545 94.4208 23.946C95.5568 23.078 95.9368 22.637 95.6078 21.322C95.4928 20.865 95.1788 20.329 94.9668 19.896C98.7108 18.136 100.952 16.903 102.962 14.516C103.545 13.823 103.884 13.3531 103.919 12.8621C103.884 12.3711 103.545 11.9 102.962 11.208C100.952 8.82001 98.7108 7.587 94.9668 5.828C95.1778 5.395 95.4928 4.85898 95.6078 4.40198C95.9368 3.08798 95.5578 2.64595 94.4208 1.77795C92.3268 0.178955 89.4258 -1.11594 87.0598 -1.61694C86.4948 -1.73694 85.7888 -1.696 85.4998 -1.703C85.4948 -1.827 85.4888 -1.95203 85.4828 -2.07703C85.3948 -2.38703 85.2968 -2.61696 85.1838 -2.78796L85.1808 -2.79199C85.1438 -2.85299 85.0978 -2.90899 85.0428 -2.96399C84.9888 -3.01899 84.9318 -3.06395 84.8718 -3.10095L84.8678 -3.104C84.6978 -3.217 84.4678 -3.31498 84.1578 -3.40198C84.0328 -3.40898 83.9078 -3.41401 83.7838 -3.41901C83.7778 -3.70901 83.8178 -4.41498 83.6988 -4.97998C83.1978 -7.34498 81.9028 -10.246 80.3038 -12.34C79.4358 -13.476 78.9938 -13.856 77.6798 -13.527C77.2228 -13.412 76.6868 -13.098 76.2538 -12.886C74.4948 -16.63 73.2608 -18.871 70.8738 -20.881C70.1808 -21.464 69.7098 -21.803 69.2188 -21.838C68.7278 -21.803 68.2578 -21.464 67.5648 -20.881C65.1768 -18.871 63.9438 -16.63 62.1848 -12.886C61.7518 -13.097 61.2158 -13.412 60.7588 -13.527C59.4448 -13.856 59.0028 -13.477 58.1348 -12.34C56.5358 -10.245 55.2408 -7.34498 54.7398 -4.97998C54.6198 -4.41498 54.6608 -3.70901 54.6538 -3.41901C54.5298 -3.41401 54.4048 -3.40898 54.2798 -3.40198C53.9698 -3.31498 53.7398 -3.217 53.5688 -3.104L53.5648 -3.10095C53.5038 -3.06295 53.4478 -3.01799 53.3928 -2.96399C53.3378 -2.90999 53.2928 -2.85299 53.2558 -2.79199L53.2528 -2.78796C53.1398 -2.61696 53.0418 -2.38703 52.9548 -2.07703C52.9478 -1.95203 52.9428 -1.827 52.9378 -1.703C52.6478 -1.696 51.9418 -1.73694 51.3768 -1.61694C49.0118 -1.11594 46.1108 0.177954 44.0168 1.77795C42.8808 2.64595 42.5008 3.08698 42.8298 4.40198C42.9448 4.85898 43.2588 5.395 43.4698 5.828C39.7258 7.587 37.4848 8.82001 35.4748 11.208C34.8918 11.901 34.5528 12.3721 34.5178 12.8621C34.5528 13.3531 34.8918 13.823 35.4748 14.516C37.4848 16.904 39.7258 18.137 43.4698 19.896C43.2588 20.329 42.9438 20.865 42.8298 21.322C42.4998 22.636 42.8798 23.078 44.0168 23.946C46.1108 25.545 49.0118 26.8399 51.3768 27.3409C51.9418 27.4599 52.6478 27.42 52.9378 27.427C52.9428 27.551 52.9478 27.676 52.9548 27.801ZM81.3498 -3.40997C80.3928 -3.36297 79.4808 -3.26203 78.6158 -3.10303C77.5308 -2.99503 76.5618 -2.81101 75.2668 -2.36401C74.8208 -3.40601 72.5338 -6.67198 72.3168 -6.85498C73.1018 -7.97998 76.2498 -10.541 78.0138 -11.123C79.7398 -9.49299 81.6638 -5.22097 81.3498 -3.40997ZM59.8198 -3.104C58.9548 -3.262 58.0438 -3.36401 57.0858 -3.41101C56.7718 -5.22201 58.6948 -9.494 60.4228 -11.125C62.1868 -10.543 65.3348 -7.98199 66.1198 -6.85699C65.9018 -6.674 63.6148 -3.40697 63.1688 -2.36597C61.8738 -2.81197 60.9038 -2.996 59.8198 -3.104ZM85.4898 0.72998C85.4428 1.68698 85.3418 2.59799 85.1838 3.46399C85.0758 4.54799 84.8918 5.51799 84.4448 6.81299C85.4868 7.25899 88.7538 9.54604 88.9368 9.76404C90.0618 8.97904 92.6228 5.83102 93.2048 4.06702C91.5728 2.34002 87.3008 0.415981 85.4898 0.72998ZM53.2518 3.46399C53.0938 2.59899 52.9918 1.68698 52.9448 0.72998C51.1338 0.415981 46.8628 2.33902 45.2308 4.06702C45.8128 5.83102 48.3738 8.97804 49.4988 9.76404C49.6818 9.54704 52.9478 7.25899 53.9898 6.81299C53.5438 5.51799 53.3598 4.54799 53.2518 3.46399ZM69.2178 -18.95C66.9258 -17.895 64.2578 -13.102 64.2128 -11.285L67.6018 -8.237C68.3038 -8.792 68.7808 -9.11899 69.2178 -9.21899C69.6548 -9.11899 70.1318 -8.792 70.8328 -8.237L74.2228 -11.285C74.1778 -13.102 71.5088 -17.896 69.2178 -18.95ZM69.2178 -6.784C68.6868 -6.829 65.6628 -3.47902 65.1128 -1.54602C67.4018 0.65498 68.4588 1.85295 69.2178 3.56995C69.9768 1.85295 71.0338 0.65498 73.3238 -1.54602C72.7728 -3.47902 69.7488 -6.829 69.2178 -6.784ZM70.2988 10.243C70.2778 10.087 70.2608 9.92794 70.2478 9.76794C70.3728 5.91195 71.3978 3.18805 73.5448 1.30005C75.3638 -0.299952 78.8768 -1.38096 81.4918 -1.35596C82.4698 -1.34596 82.9648 -1.36197 83.2208 -1.14197C83.4408 -0.886969 83.4258 -0.390965 83.4348 0.587036C83.4598 3.20204 82.3788 6.71506 80.7788 8.53406C78.8908 10.6811 76.1668 11.7061 72.3108 11.8311C72.1508 11.8181 71.9918 11.801 71.8358 11.78L79.0498 3.11804L78.5558 3.521L78.9588 3.02698L70.2988 10.243ZM68.1368 10.243C68.1578 10.087 68.1748 9.92794 68.1878 9.76794C68.0628 5.91195 67.0368 3.18805 64.8908 1.30005C63.0718 -0.299952 59.5588 -1.38096 56.9438 -1.35596C55.9658 -1.34596 55.4698 -1.36197 55.2148 -1.14197C54.9948 -0.886969 55.0098 -0.390965 55.0008 0.587036C54.9758 3.20204 56.0568 6.71506 57.6568 8.53406C59.5448 10.6811 62.2688 11.7061 66.1248 11.8311C66.2848 11.8181 66.4428 11.801 66.5998 11.78L59.3858 3.11804L59.8798 3.521L59.4768 3.02698L68.1368 10.243ZM85.4898 24.994C85.4428 24.037 85.3418 23.125 85.1838 22.26C85.0758 21.175 84.8918 20.206 84.4448 18.911C85.4868 18.465 88.7538 16.178 88.9368 15.96C90.0618 16.745 92.6228 19.893 93.2048 21.657C91.5728 23.385 87.3008 25.308 85.4898 24.994ZM81.3498 29.135C80.3928 29.088 79.4808 28.987 78.6158 28.828C77.5308 28.72 76.5618 28.536 75.2668 28.09C74.8208 29.132 72.5338 32.399 72.3168 32.582C73.1018 33.707 76.2498 36.268 78.0138 36.85C79.7398 35.217 81.6638 30.946 81.3498 29.135ZM101.03 12.8621C99.9758 10.5701 95.1818 7.90206 93.3658 7.85706L90.3178 11.2469C90.8718 11.9489 91.1998 12.426 91.2998 12.863C91.1988 13.3 90.8718 13.777 90.3178 14.478L93.3658 17.868C95.1818 17.823 99.9758 15.1541 101.03 12.8621ZM88.8648 12.8621C88.9098 12.3311 85.5598 9.30698 83.6268 8.75598C81.4258 11.046 80.2278 12.1021 78.5108 12.8621C80.2278 13.6211 81.4258 14.678 83.6268 16.968C85.5588 16.418 88.9098 13.3931 88.8648 12.8621ZM71.8378 13.944C71.9938 13.923 72.1528 13.9059 72.3128 13.8929C76.1688 14.0179 78.8918 15.044 80.7808 17.191C82.3808 19.01 83.4608 22.5231 83.4368 25.1381C83.4278 26.1161 83.4428 26.6109 83.2228 26.8669C82.9678 27.0869 82.4718 27.0721 81.4938 27.0811C78.8788 27.1061 75.3658 26.025 73.5468 24.425C71.3998 22.537 70.3748 19.813 70.2498 15.957C70.2628 15.797 70.2798 15.6381 70.3008 15.4821L78.9618 22.696L78.5588 22.202L79.0528 22.605L71.8378 13.944ZM53.2518 22.261C53.0938 23.126 52.9918 24.037 52.9448 24.995C51.1338 25.309 46.8628 23.385 45.2308 21.658C45.8128 19.894 48.3738 16.7461 49.4988 15.9611C49.6818 16.1791 52.9478 18.466 53.9898 18.912C53.5438 20.207 53.3598 21.176 53.2518 22.261ZM57.0858 29.135C58.0428 29.088 58.9548 28.987 59.8198 28.828C60.9038 28.72 61.8738 28.536 63.1688 28.09C63.6148 29.132 65.9018 32.399 66.1198 32.582C65.3348 33.707 62.1868 36.268 60.4228 36.85C58.6948 35.217 56.7718 30.946 57.0858 29.135ZM37.4058 12.8621C38.4598 10.5701 43.2538 7.90206 45.0698 7.85706L48.1178 11.2469C47.5638 11.9489 47.2368 12.426 47.1358 12.863C47.2358 13.3 47.5628 13.777 48.1178 14.478L45.0698 17.868C43.2538 17.823 38.4598 15.1541 37.4058 12.8621ZM49.5718 12.8621C49.5258 12.3311 52.8768 9.30698 54.8098 8.75598C57.0108 11.046 58.2098 12.1021 59.9268 12.8621C58.2098 13.6211 57.0108 14.678 54.8098 16.968C52.8758 16.418 49.5258 13.3931 49.5718 12.8621ZM66.5978 13.944C66.4418 13.923 66.2828 13.9059 66.1228 13.8929C62.2668 14.0179 59.5428 15.044 57.6548 17.191C56.0558 19.01 54.9748 22.5231 54.9988 25.1381C55.0088 26.1161 54.9928 26.6109 55.2128 26.8669C55.4678 27.0869 55.9638 27.0721 56.9418 27.0811C59.5568 27.1061 63.0698 26.025 64.8888 24.425C67.0358 22.537 68.0608 19.813 68.1858 15.957C68.1728 15.797 68.1558 15.6381 68.1348 15.4821L59.4738 22.696L59.8768 22.202L59.3828 22.605L66.5978 13.944ZM69.2178 44.675C66.9258 43.621 64.2578 38.827 64.2128 37.011L67.6018 33.963C68.3038 34.517 68.7808 34.8449 69.2178 34.9449C69.6548 34.8449 70.1318 34.517 70.8328 33.963L74.2228 37.011C74.1778 38.827 71.5088 43.62 69.2178 44.675ZM69.2178 32.509C68.6868 32.554 65.6628 29.204 65.1128 27.271C67.4018 25.07 68.4588 23.8721 69.2178 22.1541C69.9768 23.8711 71.0338 25.069 73.3238 27.271C72.7728 29.204 69.7488 32.554 69.2178 32.509Z" fill="#6BC299"/>
<mask id="mask1_76_1539" style="mask-type:luminance" maskUnits="userSpaceOnUse" x="-268" y="-214" width="842" height="596">
<path d="M-268 -214H573.89V381.276H-268V-214Z" fill="white"/>
</mask>
<g mask="url(#mask1_76_1539)">
<path fill-rule="evenodd" clip-rule="evenodd" d="M165.204 27.801C165.292 28.111 165.389 28.341 165.502 28.511L165.505 28.515C165.542 28.575 165.588 28.632 165.643 28.686C165.697 28.741 165.754 28.786 165.814 28.824L165.818 28.826C165.989 28.939 166.219 29.037 166.529 29.125C166.655 29.131 166.779 29.137 166.903 29.141C166.91 29.431 166.869 30.137 166.989 30.702C167.489 33.068 168.785 35.968 170.384 38.063C171.252 39.199 171.694 39.579 173.008 39.25C173.465 39.135 174.001 38.821 174.434 38.609C176.193 42.353 177.427 44.594 179.814 46.604C180.507 47.187 180.978 47.526 181.469 47.561C181.96 47.526 182.43 47.187 183.123 46.604C185.511 44.594 186.744 42.353 188.503 38.609C188.936 38.821 189.472 39.135 189.929 39.25C191.244 39.579 191.685 39.2 192.553 38.063C194.152 35.969 195.447 33.068 195.948 30.702C196.067 30.137 196.027 29.431 196.034 29.141C196.158 29.136 196.283 29.131 196.408 29.125C196.718 29.037 196.948 28.939 197.119 28.826L197.123 28.824C197.184 28.786 197.24 28.741 197.295 28.686C197.35 28.632 197.395 28.575 197.432 28.515L197.435 28.511C197.548 28.34 197.646 28.11 197.733 27.801C197.74 27.676 197.745 27.551 197.75 27.427C198.04 27.421 198.746 27.4609 199.311 27.3409C201.676 26.8399 204.577 25.545 206.671 23.946C207.807 23.078 208.187 22.637 207.858 21.322C207.743 20.865 207.429 20.329 207.218 19.896C210.962 18.136 213.202 16.903 215.213 14.516C215.796 13.823 216.135 13.3531 216.17 12.8621C216.135 12.3711 215.796 11.9 215.213 11.208C213.203 8.82001 210.962 7.587 207.218 5.828C207.429 5.395 207.744 4.85898 207.858 4.40198C208.188 3.08798 207.808 2.64595 206.671 1.77795C204.577 0.178955 201.676 -1.11594 199.311 -1.61694C198.746 -1.73694 198.04 -1.696 197.75 -1.703C197.745 -1.827 197.74 -1.95203 197.733 -2.07703C197.645 -2.38703 197.547 -2.61696 197.435 -2.78796L197.432 -2.79199C197.395 -2.85299 197.349 -2.90899 197.295 -2.96399C197.241 -3.01899 197.184 -3.06395 197.123 -3.10095L197.119 -3.104C196.948 -3.217 196.718 -3.31498 196.408 -3.40198C196.283 -3.40898 196.158 -3.41401 196.034 -3.41901C196.027 -3.70901 196.068 -4.41498 195.948 -4.97998C195.448 -7.34498 194.153 -10.246 192.553 -12.34C191.685 -13.476 191.244 -13.856 189.929 -13.527C189.472 -13.412 188.936 -13.098 188.503 -12.886C186.744 -16.63 185.511 -18.871 183.123 -20.881C182.43 -21.464 181.959 -21.803 181.469 -21.838C180.978 -21.803 180.508 -21.464 179.814 -20.881C177.426 -18.871 176.193 -16.63 174.434 -12.886C174.001 -13.097 173.465 -13.412 173.008 -13.527C171.694 -13.856 171.252 -13.477 170.384 -12.34C168.785 -10.245 167.49 -7.34498 166.989 -4.97998C166.87 -4.41498 166.91 -3.70901 166.903 -3.41901C166.779 -3.41401 166.654 -3.40898 166.529 -3.40198C166.219 -3.31498 165.989 -3.217 165.818 -3.104L165.814 -3.10095C165.754 -3.06295 165.697 -3.01799 165.643 -2.96399C165.588 -2.90999 165.543 -2.85299 165.505 -2.79199L165.502 -2.78796C165.389 -2.61696 165.291 -2.38703 165.204 -2.07703C165.197 -1.95203 165.192 -1.827 165.187 -1.703C164.898 -1.696 164.191 -1.73694 163.627 -1.61694C161.261 -1.11594 158.361 0.177954 156.267 1.77795C155.131 2.64595 154.751 3.08698 155.08 4.40198C155.195 4.85898 155.509 5.395 155.721 5.828C151.977 7.587 149.736 8.82001 147.726 11.208C147.143 11.901 146.804 12.3721 146.769 12.8621C146.804 13.3531 147.143 13.823 147.726 14.516C149.736 16.904 151.977 18.137 155.721 19.896C155.51 20.329 155.195 20.865 155.08 21.322C154.75 22.636 155.13 23.078 156.267 23.946C158.361 25.545 161.262 26.8399 163.627 27.3409C164.192 27.4599 164.898 27.42 165.187 27.427C165.192 27.551 165.197 27.676 165.204 27.801ZM193.599 -3.40997C192.642 -3.36297 191.73 -3.26203 190.865 -3.10303C189.781 -2.99503 188.811 -2.81101 187.516 -2.36401C187.07 -3.40601 184.783 -6.67198 184.566 -6.85498C185.351 -7.97998 188.499 -10.541 190.263 -11.123C191.99 -9.49299 193.913 -5.22097 193.599 -3.40997ZM172.069 -3.104C171.204 -3.262 170.292 -3.36401 169.335 -3.41101C169.021 -5.22201 170.945 -9.494 172.672 -11.125C174.436 -10.543 177.584 -7.98199 178.369 -6.85699C178.152 -6.674 175.864 -3.40697 175.419 -2.36597C174.123 -2.81197 173.153 -2.996 172.069 -3.104ZM197.74 0.72998C197.693 1.68698 197.592 2.59799 197.433 3.46399C197.325 4.54799 197.141 5.51799 196.694 6.81299C197.736 7.25899 201.003 9.54604 201.185 9.76404C202.31 8.97904 204.871 5.83102 205.453 4.06702C203.822 2.34002 199.55 0.415981 197.74 0.72998ZM165.501 3.46399C165.343 2.59899 165.241 1.68698 165.194 0.72998C163.383 0.415981 159.111 2.33902 157.48 4.06702C158.062 5.83102 160.623 8.97804 161.748 9.76404C161.931 9.54704 165.198 7.25899 166.239 6.81299C165.793 5.51799 165.61 4.54799 165.501 3.46399ZM181.467 -18.95C179.175 -17.895 176.506 -13.102 176.462 -11.285L179.852 -8.237C180.554 -8.792 181.031 -9.11899 181.467 -9.21899C181.904 -9.11899 182.381 -8.792 183.082 -8.237L186.471 -11.285C186.428 -13.102 183.759 -17.896 181.467 -18.95ZM181.467 -6.784C180.936 -6.829 177.912 -3.47902 177.361 -1.54602C179.651 0.65498 180.707 1.85295 181.467 3.56995C182.226 1.85295 183.283 0.65498 185.572 -1.54602C185.023 -3.47902 181.998 -6.829 181.467 -6.784ZM182.548 10.243C182.527 10.087 182.51 9.92794 182.497 9.76794C182.622 5.91195 183.648 3.18805 185.794 1.30005C187.613 -0.299952 191.126 -1.38096 193.741 -1.35596C194.719 -1.34596 195.215 -1.36197 195.47 -1.14197C195.69 -0.886969 195.675 -0.390965 195.684 0.587036C195.709 3.20204 194.628 6.71506 193.028 8.53406C191.14 10.6811 188.417 11.7061 184.56 11.8311C184.4 11.8181 184.242 11.801 184.085 11.78L191.299 3.11804L190.805 3.521L191.208 3.02698L182.548 10.243ZM180.386 10.243C180.407 10.087 180.424 9.92794 180.437 9.76794C180.312 5.91195 179.287 3.18805 177.14 1.30005C175.321 -0.299952 171.808 -1.38096 169.193 -1.35596C168.215 -1.34596 167.719 -1.36197 167.464 -1.14197C167.244 -0.886969 167.259 -0.390965 167.25 0.587036C167.225 3.20204 168.306 6.71506 169.906 8.53406C171.794 10.6811 174.517 11.7061 178.374 11.8311C178.534 11.8181 178.693 11.801 178.849 11.78L171.635 3.11804L172.129 3.521L171.726 3.02698L180.386 10.243ZM197.74 24.994C197.693 24.037 197.592 23.125 197.433 22.26C197.325 21.175 197.141 20.206 196.694 18.911C197.736 18.465 201.003 16.178 201.185 15.96C202.31 16.745 204.871 19.893 205.453 21.657C203.822 23.385 199.55 25.308 197.74 24.994ZM193.599 29.135C192.642 29.088 191.73 28.987 190.865 28.828C189.781 28.72 188.811 28.536 187.516 28.09C187.07 29.132 184.783 32.399 184.566 32.582C185.351 33.707 188.499 36.268 190.263 36.85C191.99 35.217 193.913 30.946 193.599 29.135ZM213.279 12.8621C212.225 10.5701 207.431 7.90206 205.615 7.85706L202.567 11.2469C203.122 11.9489 203.449 12.426 203.549 12.863C203.448 13.3 203.122 13.777 202.567 14.478L205.615 17.868C207.432 17.823 212.225 15.1541 213.279 12.8621ZM201.114 12.8621C201.16 12.3311 197.809 9.30698 195.876 8.75598C193.675 11.046 192.476 12.1021 190.759 12.8621C192.476 13.6211 193.674 14.678 195.876 16.968C197.809 16.418 201.159 13.3931 201.114 12.8621ZM184.087 13.944C184.243 13.923 184.402 13.9059 184.562 13.8929C188.418 14.0179 191.142 15.044 193.03 17.191C194.63 19.01 195.71 22.5231 195.686 25.1381C195.676 26.1161 195.692 26.6109 195.472 26.8669C195.217 27.0869 194.721 27.0721 193.743 27.0811C191.128 27.1061 187.615 26.025 185.796 24.425C183.65 22.537 182.624 19.813 182.499 15.957C182.512 15.797 182.529 15.6381 182.55 15.4821L191.211 22.696L190.808 22.202L191.302 22.605L184.087 13.944ZM165.501 22.261C165.343 23.126 165.241 24.037 165.194 24.995C163.383 25.309 159.111 23.385 157.48 21.658C158.062 19.894 160.623 16.7461 161.748 15.9611C161.931 16.1791 165.198 18.466 166.239 18.912C165.793 20.207 165.61 21.176 165.501 22.261ZM169.335 29.135C170.292 29.088 171.204 28.987 172.069 28.828C173.153 28.72 174.123 28.536 175.418 28.09C175.864 29.132 178.151 32.399 178.368 32.582C177.583 33.707 174.435 36.268 172.671 36.85C170.945 35.217 169.021 30.946 169.335 29.135ZM149.655 12.8621C150.709 10.5701 155.503 7.90206 157.319 7.85706L160.367 11.2469C159.812 11.9489 159.485 12.426 159.385 12.863C159.486 13.3 159.813 13.777 160.367 14.478L157.319 17.868C155.503 17.823 150.709 15.1541 149.655 12.8621ZM161.821 12.8621C161.776 12.3311 165.126 9.30698 167.059 8.75598C169.26 11.046 170.458 12.1021 172.175 12.8621C170.458 13.6211 169.26 14.678 167.059 16.968C165.126 16.418 161.775 13.3931 161.821 12.8621ZM178.847 13.944C178.691 13.923 178.532 13.9059 178.372 13.8929C174.516 14.0179 171.793 15.044 169.904 17.191C168.305 19.01 167.224 22.5231 167.248 25.1381C167.257 26.1161 167.242 26.6109 167.462 26.8669C167.717 27.0869 168.213 27.0721 169.191 27.0811C171.806 27.1061 175.319 26.025 177.138 24.425C179.285 22.537 180.31 19.813 180.435 15.957C180.422 15.797 180.405 15.6381 180.384 15.4821L171.723 22.696L172.126 22.202L171.632 22.605L178.847 13.944ZM181.467 44.675C179.175 43.621 176.506 38.827 176.462 37.011L179.852 33.963C180.554 34.517 181.031 34.8449 181.467 34.9449C181.904 34.8449 182.381 34.517 183.082 33.963L186.471 37.011C186.428 38.827 183.759 43.62 181.467 44.675ZM181.467 32.509C180.936 32.554 177.912 29.204 177.361 27.271C179.651 25.07 180.707 23.8721 181.467 22.1541C182.226 23.8711 183.283 25.069 185.572 27.271C185.023 29.204 181.998 32.554 181.467 32.509Z" fill="#6BC299"/>
</g>
<path fill-rule="evenodd" clip-rule="evenodd" d="M277.349 27.801C277.437 28.111 277.535 28.341 277.648 28.511L277.65 28.515C277.688 28.575 277.733 28.632 277.788 28.686C277.842 28.741 277.899 28.786 277.96 28.824L277.964 28.826C278.135 28.939 278.365 29.037 278.674 29.125C278.799 29.131 278.924 29.137 279.048 29.141C279.054 29.431 279.014 30.137 279.134 30.702C279.635 33.068 280.93 35.968 282.529 38.063C283.397 39.199 283.838 39.579 285.153 39.25C285.61 39.135 286.146 38.821 286.579 38.609C288.339 42.353 289.571 44.594 291.959 46.604C292.652 47.187 293.122 47.526 293.613 47.561C294.104 47.526 294.575 47.187 295.267 46.604C297.655 44.594 298.888 42.353 300.647 38.609C301.08 38.821 301.616 39.135 302.073 39.25C303.387 39.579 303.829 39.2 304.697 38.063C306.296 35.969 307.591 33.068 308.092 30.702C308.212 30.137 308.171 29.431 308.178 29.141C308.302 29.136 308.426 29.131 308.552 29.125C308.862 29.037 309.092 28.939 309.263 28.826L309.267 28.824C309.328 28.786 309.384 28.741 309.439 28.686C309.494 28.632 309.539 28.575 309.576 28.515L309.579 28.511C309.692 28.34 309.79 28.11 309.877 27.801C309.884 27.676 309.889 27.551 309.894 27.427C310.184 27.421 310.89 27.4609 311.455 27.3409C313.82 26.8399 316.721 25.545 318.815 23.946C319.951 23.078 320.331 22.637 320.002 21.322C319.887 20.865 319.573 20.329 319.361 19.896C323.105 18.136 325.346 16.903 327.356 14.516C327.939 13.823 328.278 13.3531 328.313 12.8621C328.278 12.3711 327.939 11.9 327.356 11.208C325.346 8.82001 323.105 7.587 319.361 5.828C319.572 5.395 319.887 4.85898 320.002 4.40198C320.331 3.08798 319.952 2.64595 318.815 1.77795C316.721 0.178955 313.82 -1.11594 311.455 -1.61694C310.89 -1.73694 310.184 -1.696 309.894 -1.703C309.889 -1.827 309.884 -1.95203 309.877 -2.07703C309.79 -2.38703 309.692 -2.61696 309.579 -2.78796L309.576 -2.79199C309.539 -2.85299 309.493 -2.90899 309.439 -2.96399C309.385 -3.01899 309.328 -3.06395 309.267 -3.10095L309.263 -3.104C309.092 -3.217 308.862 -3.31498 308.552 -3.40198C308.427 -3.40898 308.302 -3.41401 308.178 -3.41901C308.171 -3.70901 308.212 -4.41498 308.092 -4.97998C307.592 -7.34498 306.297 -10.246 304.697 -12.34C303.829 -13.476 303.388 -13.856 302.073 -13.527C301.616 -13.412 301.08 -13.098 300.647 -12.886C298.887 -16.63 297.654 -18.871 295.267 -20.881C294.574 -21.464 294.103 -21.803 293.613 -21.838C293.122 -21.803 292.652 -21.464 291.959 -20.881C289.571 -18.871 288.338 -16.63 286.579 -12.886C286.146 -13.097 285.61 -13.412 285.153 -13.527C283.839 -13.856 283.397 -13.477 282.529 -12.34C280.93 -10.245 279.635 -7.34498 279.134 -4.97998C279.015 -4.41498 279.055 -3.70901 279.048 -3.41901C278.924 -3.41401 278.799 -3.40898 278.674 -3.40198C278.364 -3.31498 278.134 -3.217 277.964 -3.104L277.96 -3.10095C277.899 -3.06295 277.842 -3.01799 277.788 -2.96399C277.733 -2.90999 277.688 -2.85299 277.65 -2.79199L277.648 -2.78796C277.535 -2.61696 277.437 -2.38703 277.349 -2.07703C277.343 -1.95203 277.337 -1.827 277.333 -1.703C277.043 -1.696 276.337 -1.73694 275.772 -1.61694C273.407 -1.11594 270.506 0.177954 268.411 1.77795C267.275 2.64595 266.895 3.08698 267.224 4.40198C267.339 4.85898 267.653 5.395 267.865 5.828C264.121 7.587 261.88 8.82001 259.87 11.208C259.287 11.901 258.948 12.3721 258.913 12.8621C258.948 13.3531 259.287 13.823 259.87 14.516C261.88 16.904 264.121 18.137 267.865 19.896C267.653 20.329 267.339 20.865 267.224 21.322C266.895 22.636 267.275 23.078 268.411 23.946C270.505 25.545 273.406 26.8399 275.772 27.3409C276.337 27.4599 277.043 27.42 277.333 27.427C277.337 27.551 277.343 27.676 277.349 27.801ZM305.744 -3.40997C304.787 -3.36297 303.875 -3.26203 303.01 -3.10303C301.926 -2.99503 300.956 -2.81101 299.661 -2.36401C299.215 -3.40601 296.928 -6.67198 296.71 -6.85498C297.495 -7.97998 300.643 -10.541 302.407 -11.123C304.135 -9.49299 306.058 -5.22097 305.744 -3.40997ZM284.214 -3.104C283.349 -3.262 282.438 -3.36401 281.48 -3.41101C281.166 -5.22201 283.089 -9.494 284.817 -11.125C286.581 -10.543 289.728 -7.98199 290.514 -6.85699C290.296 -6.674 288.009 -3.40697 287.563 -2.36597C286.268 -2.81197 285.299 -2.996 284.214 -3.104ZM309.885 0.72998C309.838 1.68698 309.737 2.59799 309.578 3.46399C309.47 4.54799 309.286 5.51799 308.839 6.81299C309.881 7.25899 313.148 9.54604 313.33 9.76404C314.455 8.97904 317.017 5.83102 317.598 4.06702C315.968 2.34002 311.696 0.415981 309.885 0.72998ZM277.646 3.46399C277.488 2.59899 277.386 1.68698 277.339 0.72998C275.528 0.415981 271.256 2.33902 269.625 4.06702C270.207 5.83102 272.768 8.97804 273.893 9.76404C274.076 9.54704 277.343 7.25899 278.385 6.81299C277.938 5.51799 277.754 4.54799 277.646 3.46399ZM293.612 -18.95C291.32 -17.895 288.651 -13.102 288.607 -11.285L291.997 -8.237C292.699 -8.792 293.176 -9.11899 293.612 -9.21899C294.049 -9.11899 294.526 -8.792 295.228 -8.237L298.618 -11.285C298.573 -13.102 295.904 -17.896 293.612 -18.95ZM293.612 -6.784C293.081 -6.829 290.057 -3.47902 289.506 -1.54602C291.796 0.65498 292.852 1.85295 293.612 3.56995C294.372 1.85295 295.428 0.65498 297.718 -1.54602C297.168 -3.47902 294.143 -6.829 293.612 -6.784ZM294.694 10.243C294.673 10.087 294.656 9.92794 294.643 9.76794C294.768 5.91195 295.794 3.18805 297.94 1.30005C299.759 -0.299952 303.272 -1.38096 305.887 -1.35596C306.865 -1.34596 307.361 -1.36197 307.616 -1.14197C307.836 -0.886969 307.821 -0.390965 307.83 0.587036C307.855 3.20204 306.774 6.71506 305.174 8.53406C303.286 10.6811 300.563 11.7061 296.706 11.8311C296.546 11.8181 296.388 11.801 296.231 11.78L303.445 3.11804L302.951 3.521L303.354 3.02698L294.694 10.243ZM292.531 10.243C292.552 10.087 292.569 9.92794 292.582 9.76794C292.457 5.91195 291.431 3.18805 289.284 1.30005C287.465 -0.299952 283.952 -1.38096 281.337 -1.35596C280.359 -1.34596 279.864 -1.36197 279.608 -1.14197C279.388 -0.886969 279.403 -0.390965 279.394 0.587036C279.369 3.20204 280.45 6.71506 282.05 8.53406C283.938 10.6811 286.662 11.7061 290.518 11.8311C290.678 11.8181 290.837 11.801 290.993 11.78L283.779 3.11804L284.273 3.521L283.87 3.02698L292.531 10.243ZM309.885 24.994C309.838 24.037 309.737 23.125 309.578 22.26C309.47 21.175 309.286 20.206 308.839 18.911C309.881 18.465 313.148 16.178 313.33 15.96C314.455 16.745 317.017 19.893 317.598 21.657C315.968 23.385 311.696 25.308 309.885 24.994ZM305.744 29.135C304.787 29.088 303.875 28.987 303.01 28.828C301.926 28.72 300.956 28.536 299.661 28.09C299.215 29.132 296.928 32.399 296.71 32.582C297.495 33.707 300.643 36.268 302.407 36.85C304.135 35.217 306.058 30.946 305.744 29.135ZM325.425 12.8621C324.371 10.5701 319.577 7.90206 317.76 7.85706L314.712 11.2469C315.266 11.9489 315.593 12.426 315.694 12.863C315.594 13.3 315.267 13.777 314.712 14.478L317.76 17.868C319.577 17.823 324.37 15.1541 325.425 12.8621ZM313.259 12.8621C313.304 12.3311 309.954 9.30698 308.021 8.75598C305.82 11.046 304.622 12.1021 302.905 12.8621C304.622 13.6211 305.82 14.678 308.021 16.968C309.954 16.418 313.304 13.3931 313.259 12.8621ZM296.232 13.944C296.388 13.923 296.547 13.9059 296.707 13.8929C300.563 14.0179 303.287 15.044 305.175 17.191C306.775 19.01 307.856 22.5231 307.831 25.1381C307.821 26.1161 307.837 26.6109 307.617 26.8669C307.362 27.0869 306.866 27.0721 305.888 27.0811C303.273 27.1061 299.76 26.025 297.941 24.425C295.794 22.537 294.769 19.813 294.644 15.957C294.657 15.797 294.674 15.6381 294.695 15.4821L303.356 22.696L302.953 22.202L303.447 22.605L296.232 13.944ZM277.646 22.261C277.488 23.126 277.386 24.037 277.339 24.995C275.528 25.309 271.256 23.385 269.625 21.658C270.207 19.894 272.768 16.7461 273.893 15.9611C274.076 16.1791 277.343 18.466 278.385 18.912C277.938 20.207 277.754 21.176 277.646 22.261ZM281.48 29.135C282.437 29.088 283.349 28.987 284.214 28.828C285.298 28.72 286.268 28.536 287.563 28.09C288.009 29.132 290.296 32.399 290.514 32.582C289.729 33.707 286.581 36.268 284.817 36.85C283.09 35.217 281.166 30.946 281.48 29.135ZM261.8 12.8621C262.854 10.5701 267.648 7.90206 269.464 7.85706L272.512 11.2469C271.958 11.9489 271.63 12.426 271.53 12.863C271.631 13.3 271.958 13.777 272.512 14.478L269.464 17.868C267.648 17.823 262.855 15.1541 261.8 12.8621ZM273.966 12.8621C273.921 12.3311 277.271 9.30698 279.204 8.75598C281.405 11.046 282.603 12.1021 284.32 12.8621C282.603 13.6211 281.405 14.678 279.204 16.968C277.271 16.418 273.92 13.3931 273.966 12.8621ZM290.993 13.944C290.837 13.923 290.678 13.9059 290.518 13.8929C286.662 14.0179 283.939 15.044 282.05 17.191C280.45 19.01 279.37 22.5231 279.394 25.1381C279.404 26.1161 279.388 26.6109 279.608 26.8669C279.863 27.0869 280.359 27.0721 281.337 27.0811C283.952 27.1061 287.465 26.025 289.284 24.425C291.431 22.537 292.456 19.813 292.582 15.957C292.569 15.797 292.552 15.6381 292.531 15.4821L283.87 22.696L284.273 22.202L283.779 22.605L290.993 13.944ZM293.612 44.675C291.32 43.621 288.651 38.827 288.607 37.011L291.997 33.963C292.699 34.517 293.176 34.8449 293.612 34.9449C294.049 34.8449 294.526 34.517 295.228 33.963L298.618 37.011C298.573 38.827 295.904 43.62 293.612 44.675ZM293.612 32.509C293.081 32.554 290.057 29.204 289.506 27.271C291.796 25.07 292.852 23.8721 293.612 22.1541C294.372 23.8711 295.428 25.069 297.718 27.271C297.168 29.204 294.143 32.554 293.612 32.509Z" fill="#6BC299"/>
</svg>
