<svg width="368" height="424" viewBox="0 0 368 424" fill="none" xmlns="http://www.w3.org/2000/svg">
<mask id="mask0_61_727" style="mask-type:luminance" maskUnits="userSpaceOnUse" x="0" y="-172" width="368" height="596">
<path d="M0 -171.277H367.996V424H0V-171.277Z" fill="white"/>
</mask>
<g mask="url(#mask0_61_727)">
<path fill-rule="evenodd" clip-rule="evenodd" d="M611.688 75.2383L646.895 114.387C667.875 113.871 723.238 83.0469 735.414 56.582C723.238 30.1172 667.875 -0.710938 646.895 -1.22656L611.688 37.9219C618.094 46.0273 621.871 51.5391 623.031 56.582C621.871 61.625 618.094 67.1367 611.688 75.2383ZM337.742 69.0703L254.426 169.105L356.23 86.043C355.719 133.922 343.957 167.297 318.016 190.117C297.008 208.594 256.43 221.074 226.23 220.789C203.594 220.57 203.328 221.496 202.965 199.398C202.301 159.047 209.727 130.879 232.273 104.395C254.84 77.8867 301.484 64.2148 337.742 69.0703ZM355.508 26.3242L255.477 -56.9922L338.539 44.8125C290.656 44.3047 257.281 32.543 234.461 6.59766C215.984 -14.4062 203.504 -54.9883 203.789 -85.1875C204.008 -107.82 203.082 -108.09 225.18 -108.453C265.531 -109.113 293.699 -101.691 320.184 -79.1445C346.691 -56.5781 360.367 -9.92969 355.508 26.3242ZM380.484 26.3242L480.52 -56.9922L397.457 44.8125C445.336 44.3047 478.715 32.543 501.535 6.59766C520.008 -14.4062 532.492 -54.9883 532.207 -85.1875C531.988 -107.82 532.914 -108.09 510.816 -108.453C470.465 -109.113 442.293 -101.691 415.809 -79.1445C389.305 -56.5781 375.629 -9.92969 380.484 26.3242ZM398.254 69.0703L481.57 169.105L379.766 86.043C380.273 133.922 392.035 167.297 417.98 190.117C438.988 208.594 479.566 221.074 509.766 220.789C532.398 220.57 532.668 221.496 533.031 199.398C533.691 159.047 526.27 130.879 503.723 104.395C481.156 77.8867 434.508 64.2148 398.254 69.0703ZM298.133 232.449C272.324 241.355 257.719 241.207 228.156 243.156C223.246 263.203 246.02 314.352 266.414 333.621C286.789 326.898 323.145 297.32 332.211 284.324C329.699 282.211 303.281 244.484 298.133 232.449ZM192.129 -13.2852C183.227 -39.0898 183.371 -53.6992 181.426 -83.2617C161.375 -88.168 110.23 -65.3945 90.9609 -45C97.6797 -24.6289 127.258 11.7266 140.254 20.793C142.367 18.2852 180.098 -8.13672 192.129 -13.2852ZM367.996 163.898C376.77 183.73 388.969 197.566 415.414 222.992C409.059 245.316 374.129 284.012 367.996 283.488C361.863 284.012 326.934 245.316 320.578 222.992C347.023 197.566 359.227 183.73 367.996 163.898ZM260.68 56.582C240.848 65.3516 227.012 77.5547 201.586 104C179.262 97.6445 140.566 62.7148 141.09 56.582C140.566 50.4492 179.262 15.5195 201.586 9.16406C227.012 35.6094 240.848 47.8125 260.68 56.582ZM437.863 232.449C463.672 241.355 478.277 241.207 507.84 243.156C512.746 263.203 489.973 314.352 469.582 333.621C449.207 326.898 412.852 297.32 403.785 284.324C406.297 282.211 432.715 244.484 437.863 232.449ZM192.129 126.445C183.227 152.254 183.371 166.859 181.426 196.422C161.375 201.332 110.23 178.559 90.9609 158.164C97.6797 137.793 127.258 101.438 140.254 92.3672C142.367 94.8789 180.098 121.297 192.129 126.445ZM386.656 300.273L425.805 335.477C425.289 356.457 394.465 411.82 367.996 424C341.531 411.82 310.707 356.457 310.191 335.477L349.34 300.273C357.441 306.676 362.953 310.453 367.996 311.613C373.039 310.453 378.551 306.676 386.656 300.273ZM124.309 75.2383L89.1016 114.387C68.1211 113.871 12.7578 83.0469 0.582031 56.582C12.7578 30.1172 68.1211 -0.710938 89.1016 -1.22656L124.309 37.9219C117.902 46.0273 114.125 51.5391 112.965 56.582C114.125 61.625 117.902 67.1367 124.309 75.2383ZM298.133 -119.285C272.324 -128.191 257.719 -128.047 228.156 -129.992C223.246 -150.039 246.02 -201.188 266.414 -220.457C286.789 -213.734 323.145 -184.16 332.211 -171.16C329.699 -169.051 303.281 -131.32 298.133 -119.285ZM543.867 -13.2852C552.77 -39.0898 552.625 -53.6992 554.57 -83.2617C574.617 -88.168 625.766 -65.3945 645.035 -45C638.312 -24.6289 608.738 11.7266 595.742 20.793C593.629 18.2852 555.898 -8.13672 543.867 -13.2852ZM367.996 -50.7344C376.77 -70.5664 388.969 -84.4062 415.414 -109.832C409.059 -132.156 374.129 -170.852 367.996 -170.328C361.863 -170.852 326.934 -132.156 320.578 -109.832C347.023 -84.4062 359.227 -70.5664 367.996 -50.7344ZM475.316 56.582C495.148 65.3516 508.984 77.5547 534.41 104C556.734 97.6445 595.43 62.7148 594.906 56.582C595.43 50.4492 556.734 15.5195 534.41 9.16406C508.984 35.6094 495.148 47.8125 475.316 56.582ZM437.863 -119.285C463.672 -128.191 478.277 -128.047 507.84 -129.992C512.746 -150.039 489.973 -201.188 469.582 -220.457C449.207 -213.734 412.852 -184.16 403.785 -171.16C406.297 -169.051 432.715 -131.32 437.863 -119.285ZM543.867 126.445C552.77 152.254 552.625 166.859 554.57 196.422C574.617 201.332 625.766 178.559 645.035 158.164C638.312 137.793 608.738 101.438 595.742 92.3672C593.629 94.8789 555.898 121.297 543.867 126.445ZM386.656 -187.109L425.805 -222.316C425.289 -243.297 394.465 -298.66 367.996 -310.836C341.531 -298.66 310.707 -243.297 310.191 -222.316L349.34 -187.109C357.441 -193.512 362.953 -197.293 367.996 -198.453C373.039 -197.293 378.551 -193.512 386.656 -187.109Z" fill="#E0BF77" fill-opacity="0.4"/>
</g>
</svg>
