<svg width="136" height="167" viewBox="0 0 136 167" fill="none" xmlns="http://www.w3.org/2000/svg">
<mask id="mask0_88_6516" style="mask-type:luminance" maskUnits="userSpaceOnUse" x="0" y="0" width="136" height="220">
<path d="M0 0H136V219.996H0V0Z" fill="white"/>
</mask>
<g mask="url(#mask0_88_6516)">
<path fill-rule="evenodd" clip-rule="evenodd" d="M226.061 91.1045L239.072 105.573C246.826 105.382 267.287 93.9903 271.786 84.2097C267.287 74.4277 246.826 63.036 239.072 62.8454L226.061 77.3135C228.428 80.309 229.824 82.346 230.253 84.2097C229.824 86.0734 228.428 88.1104 226.061 91.1045ZM124.819 88.825L94.0279 125.795L131.652 95.0975C131.463 112.792 127.116 125.126 117.529 133.56C109.765 140.389 94.7685 145.001 83.6078 144.896C75.242 144.815 75.1438 145.157 75.0095 136.99C74.7641 122.078 77.5085 111.668 85.8411 101.88C94.1809 92.0832 111.419 87.0305 124.819 88.825ZM131.385 73.0273L94.4162 42.2362L125.114 79.86C107.418 79.6724 95.0832 75.3256 86.6495 65.737C79.8212 57.9746 75.2088 42.9767 75.3141 31.816C75.395 23.4517 75.0528 23.352 83.2195 23.2178C98.1321 22.9738 108.542 25.7167 118.33 34.0493C128.126 42.3892 133.181 59.629 131.385 73.0273ZM140.615 73.0273L177.585 42.2362L146.888 79.86C164.582 79.6724 176.918 75.3256 185.352 65.737C192.179 57.9746 196.793 42.9767 196.687 31.816C196.606 23.4517 196.949 23.352 188.782 23.2178C173.869 22.9738 163.458 25.7167 153.67 34.0493C143.875 42.3892 138.821 59.629 140.615 73.0273ZM147.182 88.825L177.974 125.795L140.35 95.0975C140.537 112.792 144.884 125.126 154.473 133.56C162.237 140.389 177.233 145.001 188.394 144.896C196.758 144.815 196.858 145.157 196.992 136.99C197.236 122.078 194.493 111.668 186.16 101.88C177.82 92.0832 160.581 87.0305 147.182 88.825ZM110.181 149.205C100.643 152.496 95.2449 152.441 84.3195 153.162C82.5049 160.57 90.9212 179.473 98.4584 186.595C105.988 184.11 119.424 173.179 122.775 168.376C121.847 167.595 112.083 153.651 110.181 149.205ZM71.0049 58.3889C67.7149 48.8523 67.7683 43.4531 67.0494 32.5277C59.6392 30.7146 40.7378 39.1309 33.6163 46.6681C36.0994 54.1966 47.0305 67.6325 51.8335 70.9832C52.6145 70.0563 66.5585 60.2916 71.0049 58.3889ZM136 123.871C139.242 131.2 143.751 136.313 153.524 145.71C151.175 153.96 138.266 168.261 136 168.067C133.733 168.261 120.825 153.96 118.476 145.71C128.249 136.313 132.759 131.2 136 123.871ZM96.3392 84.2097C89.0098 87.4506 83.8965 91.9605 74.4999 101.734C66.2496 99.3851 51.949 86.4762 52.1424 84.2097C51.949 81.9432 66.2496 69.0343 74.4999 66.6855C83.8965 76.4588 89.0098 80.9687 96.3392 84.2097ZM161.821 149.205C171.359 152.496 176.757 152.441 187.682 153.162C189.495 160.57 181.079 179.473 173.543 186.595C166.013 184.11 152.577 173.179 149.227 168.376C150.155 167.595 159.918 153.651 161.821 149.205ZM71.0049 110.029C67.7149 119.567 67.7683 124.965 67.0494 135.89C59.6392 137.705 40.7378 129.288 33.6163 121.751C36.0994 114.223 47.0305 100.787 51.8335 97.4348C52.6145 98.363 66.5585 108.126 71.0049 110.029ZM142.896 174.271L157.364 187.281C157.174 195.034 145.782 215.495 136 219.996C126.219 215.495 114.828 195.034 114.637 187.281L129.105 174.271C132.099 176.637 134.136 178.033 136 178.461C137.864 178.033 139.901 176.637 142.896 174.271ZM45.9406 91.1045L32.9292 105.573C25.1754 105.382 4.71488 93.9903 0.215088 84.2097C4.71488 74.4277 25.1754 63.036 32.9292 62.8454L45.9406 77.3135C43.5731 80.309 42.1771 82.346 41.7483 84.2097C42.1771 86.0734 43.5731 88.1104 45.9406 91.1045ZM110.181 19.2146C100.643 15.9231 95.2449 15.9765 84.3195 15.2576C82.5049 7.8489 90.9212 -11.054 98.4584 -18.1754C105.988 -15.6909 119.424 -4.7612 122.775 0.0432014C121.847 0.822758 112.083 14.7668 110.181 19.2146ZM200.997 58.3889C204.287 48.8523 204.233 43.4531 204.952 32.5277C212.361 30.7146 231.264 39.1309 238.385 46.6681C235.901 54.1966 224.971 67.6325 220.168 70.9832C219.387 70.0563 205.443 60.2916 200.997 58.3889ZM136 44.5489C139.242 37.2195 143.751 32.1048 153.524 22.7082C151.175 14.4578 138.266 0.157246 136 0.350693C133.733 0.157246 120.825 14.4578 118.476 22.7082C128.249 32.1048 132.759 37.2195 136 44.5489ZM175.662 84.2097C182.992 87.4506 188.105 91.9605 197.501 101.734C205.752 99.3851 220.052 86.4762 219.859 84.2097C220.052 81.9432 205.752 69.0343 197.501 66.6855C188.105 76.4588 182.992 80.9687 175.662 84.2097ZM161.821 19.2146C171.359 15.9231 176.757 15.9765 187.682 15.2576C189.495 7.8489 181.079 -11.054 173.543 -18.1754C166.013 -15.6909 152.577 -4.7612 149.227 0.0432014C150.155 0.822758 159.918 14.7668 161.821 19.2146ZM200.997 110.029C204.287 119.567 204.233 124.965 204.952 135.89C212.361 137.705 231.264 129.288 238.385 121.751C235.901 114.223 224.971 100.787 220.168 97.4348C219.387 98.363 205.443 108.126 200.997 110.029ZM142.896 -5.85114L157.364 -18.8626C157.174 -26.6163 145.782 -47.0769 136 -51.5767C126.219 -47.0769 114.828 -26.6163 114.637 -18.8626L129.105 -5.85114C132.099 -8.21869 134.136 -9.61468 136 -10.0434C137.864 -9.61468 139.901 -8.21869 142.896 -5.85114Z" fill="#4D2909" fill-opacity="0.1"/>
</g>
</svg>
