<svg width="306" height="167" viewBox="0 0 306 167" fill="none" xmlns="http://www.w3.org/2000/svg">
<path fill-rule="evenodd" clip-rule="evenodd" d="M-268 -214H573.89V381.275H-268V-214Z" fill="#FEE5A9"/>
<path fill-rule="evenodd" clip-rule="evenodd" d="M-3.32501 99.033C-3.23701 99.343 -3.14002 99.573 -3.02602 99.743L-3.02301 99.747C-2.98601 99.807 -2.94001 99.864 -2.88501 99.918C-2.83101 99.973 -2.77402 100.018 -2.71402 100.056L-2.71002 100.059C-2.53902 100.172 -2.30901 100.27 -1.99901 100.357C-1.87301 100.363 -1.74902 100.369 -1.62502 100.374C-1.61802 100.663 -1.65902 101.37 -1.53902 101.934C-1.03802 104.3 0.256989 107.2 1.85599 109.294C2.72399 110.43 3.16598 110.81 4.47998 110.481C4.93698 110.366 5.47299 110.052 5.90599 109.84C7.66499 113.584 8.89898 115.825 11.286 117.835C11.979 118.418 12.45 118.757 12.941 118.792C13.432 118.757 13.902 118.418 14.595 117.835C16.983 115.825 18.216 113.584 19.975 109.84C20.408 110.052 20.944 110.366 21.401 110.481C22.715 110.81 23.157 110.431 24.025 109.294C25.624 107.2 26.919 104.299 27.42 101.934C27.539 101.369 27.499 100.663 27.506 100.374C27.63 100.369 27.755 100.363 27.88 100.357C28.19 100.269 28.42 100.171 28.591 100.059L28.595 100.056C28.656 100.018 28.712 99.973 28.766 99.918C28.821 99.864 28.866 99.807 28.904 99.747L28.907 99.743C29.02 99.572 29.118 99.342 29.205 99.033C29.212 98.907 29.217 98.783 29.222 98.659C29.511 98.653 30.218 98.693 30.782 98.573C33.148 98.072 36.048 96.777 38.142 95.178C39.278 94.31 39.658 93.868 39.329 92.554C39.214 92.097 38.9 91.561 38.689 91.128C42.433 89.369 44.673 88.136 46.684 85.748C47.267 85.055 47.606 84.584 47.641 84.093C47.606 83.602 47.267 83.132 46.684 82.439C44.674 80.051 42.433 78.818 38.689 77.059C38.9 76.626 39.215 76.09 39.329 75.633C39.659 74.319 39.279 73.877 38.142 73.009C36.048 71.41 33.147 70.115 30.782 69.614C30.217 69.494 29.511 69.535 29.222 69.528C29.217 69.404 29.212 69.279 29.205 69.154C29.117 68.844 29.019 68.614 28.907 68.443L28.904 68.439C28.867 68.378 28.821 68.322 28.766 68.267C28.712 68.212 28.655 68.167 28.595 68.13L28.591 68.127C28.42 68.014 28.19 67.916 27.88 67.829C27.754 67.823 27.63 67.817 27.506 67.812C27.499 67.522 27.54 66.816 27.42 66.251C26.919 63.886 25.624 60.985 24.025 58.891C23.157 57.755 22.716 57.375 21.401 57.704C20.944 57.819 20.408 58.133 19.975 58.344C18.216 54.6 16.983 52.359 14.595 50.349C13.902 49.766 13.431 49.427 12.941 49.392C12.45 49.427 11.979 49.766 11.286 50.349C8.89798 52.359 7.66499 54.6 5.90599 58.344C5.47299 58.133 4.93698 57.818 4.47998 57.704C3.16598 57.374 2.72399 57.754 1.85599 58.891C0.256989 60.985 -1.03802 63.886 -1.53902 66.251C-1.65802 66.816 -1.61802 67.522 -1.62502 67.812C-1.74902 67.817 -1.87401 67.822 -1.99901 67.829C-2.30901 67.917 -2.53902 68.014 -2.71002 68.127L-2.71402 68.13C-2.77402 68.168 -2.83101 68.213 -2.88501 68.267C-2.94001 68.321 -2.98501 68.378 -3.02301 68.439L-3.02602 68.443C-3.13902 68.614 -3.23701 68.844 -3.32501 69.154C-3.33201 69.279 -3.33701 69.404 -3.34201 69.528C-3.63101 69.535 -4.33801 69.494 -4.90201 69.614C-7.26801 70.115 -10.168 71.409 -12.262 73.009C-13.398 73.877 -13.778 74.318 -13.449 75.633C-13.334 76.09 -13.02 76.626 -12.808 77.059C-16.552 78.818 -18.793 80.051 -20.803 82.439C-21.386 83.132 -21.725 83.603 -21.76 84.093C-21.725 84.584 -21.386 85.054 -20.803 85.748C-18.793 88.136 -16.552 89.369 -12.808 91.128C-13.019 91.561 -13.334 92.097 -13.449 92.554C-13.779 93.868 -13.399 94.31 -12.262 95.178C-10.168 96.777 -7.26701 98.072 -4.90201 98.573C-4.33701 98.692 -3.63101 98.652 -3.34201 98.659C-3.33701 98.783 -3.33201 98.908 -3.32501 99.033ZM25.07 67.822C24.113 67.869 23.201 67.97 22.336 68.129C21.252 68.237 20.282 68.421 18.987 68.868C18.541 67.826 16.254 64.56 16.036 64.377C16.821 63.252 19.969 60.691 21.733 60.109C23.46 61.739 25.384 66.011 25.07 67.822ZM3.53998 68.128C2.67498 67.97 1.76299 67.868 0.805984 67.821C0.491985 66.01 2.41599 61.739 4.14299 60.107C5.90699 60.689 9.05498 63.25 9.83998 64.375C9.62298 64.558 7.33499 67.825 6.88899 68.866C5.59399 68.42 4.62398 68.237 3.53998 68.128ZM29.211 71.962C29.164 72.919 29.062 73.831 28.904 74.696C28.796 75.78 28.612 76.75 28.165 78.045C29.207 78.491 32.474 80.778 32.656 80.996C33.781 80.211 36.342 77.063 36.924 75.299C35.293 73.572 31.021 71.648 29.211 71.962ZM-3.02802 74.696C-3.18602 73.831 -3.28802 72.92 -3.33502 71.962C-5.14602 71.648 -9.41701 73.571 -11.049 75.299C-10.467 77.063 -7.90602 80.211 -6.78102 80.996C-6.59802 80.779 -3.33102 78.491 -2.28902 78.045C-2.73602 76.75 -2.92002 75.781 -3.02802 74.696ZM12.938 52.282C10.646 53.336 7.97698 58.13 7.93298 59.946L11.323 62.994C12.025 62.44 12.502 62.112 12.938 62.012C13.375 62.112 13.852 62.439 14.553 62.994L17.943 59.946C17.898 58.13 15.229 53.336 12.938 52.282ZM12.938 64.448C12.407 64.403 9.38299 67.753 8.83199 69.686C11.122 71.887 12.178 73.085 12.938 74.803C13.697 73.086 14.754 71.888 17.043 69.686C16.493 67.753 13.469 64.403 12.938 64.448ZM14.019 81.475C13.998 81.319 13.981 81.16 13.968 81C14.093 77.144 15.118 74.42 17.265 72.532C19.084 70.932 22.597 69.852 25.212 69.876C26.19 69.886 26.685 69.87 26.941 70.09C27.161 70.345 27.146 70.841 27.155 71.819C27.18 74.434 26.099 77.947 24.5 79.766C22.612 81.913 19.889 82.938 16.032 83.063C15.872 83.05 15.713 83.033 15.557 83.012L22.771 74.351L22.277 74.754L22.68 74.26L14.019 81.475ZM11.857 81.475C11.878 81.319 11.895 81.16 11.908 81C11.783 77.144 10.758 74.42 8.61098 72.532C6.79198 70.932 3.27899 69.852 0.663986 69.876C-0.314014 69.886 -0.809017 69.87 -1.06502 70.09C-1.28502 70.345 -1.27002 70.841 -1.27902 71.819C-1.30402 74.434 -0.223017 77.947 1.37698 79.766C3.26498 81.913 5.98799 82.938 9.84499 83.063C10.005 83.05 10.164 83.033 10.32 83.012L3.10599 74.351L3.59999 74.754L3.19699 74.26L11.857 81.475ZM29.211 96.226C29.164 95.269 29.062 94.357 28.904 93.492C28.796 92.408 28.612 91.438 28.165 90.143C29.207 89.697 32.474 87.41 32.656 87.193C33.781 87.978 36.342 91.126 36.924 92.89C35.293 94.617 31.021 96.54 29.211 96.226ZM25.07 100.367C24.113 100.32 23.201 100.219 22.336 100.061C21.252 99.953 20.282 99.769 18.987 99.322C18.541 100.364 16.254 103.631 16.036 103.814C16.821 104.939 19.969 107.5 21.733 108.082C23.46 106.449 25.384 102.178 25.07 100.367ZM44.75 84.094C43.696 81.802 38.902 79.134 37.086 79.089L34.038 82.478C34.592 83.18 34.92 83.657 35.02 84.093C34.919 84.53 34.592 85.007 34.038 85.708L37.086 89.098C38.902 89.055 43.696 86.386 44.75 84.094ZM32.584 84.094C32.629 83.563 29.279 80.539 27.346 79.989C25.144 82.278 23.946 83.335 22.229 84.094C23.946 84.853 25.144 85.91 27.346 88.2C29.279 87.65 32.63 84.625 32.584 84.094ZM15.558 85.176C15.714 85.155 15.873 85.138 16.033 85.125C19.889 85.25 22.612 86.275 24.501 88.422C26.1 90.241 27.181 93.754 27.156 96.369C27.147 97.347 27.162 97.843 26.942 98.098C26.687 98.318 26.191 98.303 25.213 98.312C22.598 98.337 19.085 97.256 17.266 95.656C15.119 93.768 14.094 91.044 13.969 87.188C13.982 87.028 13.999 86.869 14.02 86.713L22.681 93.927L22.278 93.433L22.772 93.836L15.558 85.176ZM-3.02802 93.493C-3.18602 94.358 -3.28802 95.27 -3.33502 96.227C-5.14602 96.541 -9.41701 94.618 -11.049 92.89C-10.467 91.126 -7.90602 87.978 -6.78102 87.193C-6.59802 87.41 -3.33102 89.698 -2.28902 90.143C-2.73602 91.439 -2.92002 92.408 -3.02802 93.493ZM0.805984 100.367C1.76299 100.32 2.67498 100.219 3.53998 100.061C4.62398 99.953 5.59399 99.769 6.88899 99.322C7.33499 100.364 9.62198 103.631 9.83998 103.814C9.05498 104.939 5.90699 107.5 4.14299 108.082C2.41599 106.449 0.491985 102.178 0.805984 100.367ZM-18.874 84.094C-17.82 81.802 -13.026 79.134 -11.21 79.089L-8.16202 82.478C-8.71602 83.18 -9.04301 83.657 -9.14401 84.093C-9.04301 84.53 -8.71602 85.007 -8.16202 85.708L-11.21 89.098C-13.026 89.055 -17.82 86.386 -18.874 84.094ZM-6.70801 84.094C-6.75301 83.563 -3.40302 80.539 -1.47002 79.989C0.730984 82.278 1.92898 83.335 3.64598 84.094C1.92898 84.853 0.730984 85.91 -1.47002 88.2C-3.40302 87.65 -6.75401 84.625 -6.70801 84.094ZM10.318 85.176C10.162 85.155 10.003 85.138 9.84299 85.125C5.98699 85.25 3.26398 86.275 1.37498 88.422C-0.225016 90.241 -1.30502 93.754 -1.28102 96.369C-1.27202 97.347 -1.28702 97.843 -1.06702 98.098C-0.812017 98.318 -0.316013 98.303 0.661987 98.312C3.27699 98.337 6.78998 97.256 8.60898 95.656C10.756 93.768 11.781 91.044 11.906 87.188C11.893 87.028 11.876 86.869 11.855 86.713L3.19398 93.927L3.59698 93.433L3.10298 93.836L10.318 85.176ZM12.938 115.907C10.646 114.853 7.97698 110.059 7.93298 108.243L11.323 105.195C12.025 105.749 12.502 106.077 12.938 106.177C13.375 106.076 13.852 105.749 14.553 105.195L17.943 108.243C17.898 110.059 15.229 114.852 12.938 115.907ZM12.938 103.741C12.407 103.786 9.38299 100.436 8.83199 98.503C11.122 96.302 12.178 95.104 12.938 93.387C13.697 95.104 14.754 96.302 17.043 98.503C16.493 100.436 13.469 103.786 12.938 103.741Z" fill="#F6D58D"/>
<path fill-rule="evenodd" clip-rule="evenodd" d="M108.924 99.033C109.012 99.343 109.11 99.573 109.223 99.743L109.226 99.747C109.264 99.807 109.309 99.864 109.364 99.918C109.418 99.973 109.475 100.018 109.535 100.056L109.539 100.059C109.71 100.172 109.94 100.27 110.25 100.357C110.375 100.363 110.5 100.369 110.624 100.374C110.63 100.663 110.59 101.37 110.71 101.934C111.211 104.3 112.506 107.2 114.105 109.294C114.973 110.43 115.414 110.81 116.729 110.481C117.186 110.366 117.722 110.052 118.155 109.84C119.914 113.584 121.148 115.825 123.535 117.835C124.228 118.418 124.698 118.757 125.189 118.792C125.68 118.757 126.151 118.418 126.843 117.835C129.231 115.825 130.464 113.584 132.223 109.84C132.656 110.052 133.192 110.366 133.649 110.481C134.963 110.81 135.405 110.431 136.273 109.294C137.872 107.2 139.167 104.299 139.668 101.934C139.788 101.369 139.747 100.663 139.754 100.374C139.878 100.369 140.003 100.363 140.128 100.357C140.438 100.269 140.668 100.171 140.839 100.059L140.843 100.056C140.904 100.018 140.96 99.973 141.015 99.918C141.07 99.864 141.115 99.807 141.153 99.747L141.156 99.743C141.269 99.572 141.367 99.342 141.454 99.033C141.461 98.907 141.466 98.783 141.471 98.659C141.761 98.653 142.467 98.693 143.032 98.573C145.398 98.072 148.298 96.777 150.392 95.178C151.528 94.31 151.908 93.868 151.579 92.554C151.464 92.097 151.15 91.561 150.938 91.128C154.682 89.369 156.923 88.136 158.933 85.748C159.516 85.055 159.855 84.584 159.89 84.093C159.855 83.602 159.516 83.132 158.933 82.439C156.923 80.051 154.682 78.818 150.938 77.059C151.149 76.626 151.464 76.09 151.579 75.633C151.908 74.319 151.529 73.877 150.392 73.009C148.298 71.41 145.397 70.115 143.032 69.614C142.467 69.494 141.761 69.535 141.471 69.528C141.466 69.404 141.461 69.279 141.454 69.154C141.367 68.844 141.269 68.614 141.156 68.443L141.153 68.439C141.115 68.378 141.07 68.322 141.015 68.267C140.961 68.212 140.904 68.167 140.843 68.13L140.839 68.127C140.668 68.014 140.438 67.916 140.128 67.829C140.003 67.823 139.878 67.817 139.754 67.812C139.747 67.522 139.788 66.816 139.668 66.251C139.167 63.886 137.873 60.985 136.273 58.891C135.405 57.755 134.964 57.375 133.649 57.704C133.192 57.819 132.656 58.133 132.223 58.344C130.463 54.6 129.23 52.359 126.843 50.349C126.15 49.766 125.68 49.427 125.189 49.392C124.698 49.427 124.228 49.766 123.535 50.349C121.147 52.359 119.914 54.6 118.155 58.344C117.722 58.133 117.186 57.818 116.729 57.704C115.415 57.374 114.973 57.754 114.105 58.891C112.506 60.985 111.211 63.886 110.71 66.251C110.591 66.816 110.631 67.522 110.624 67.812C110.5 67.817 110.375 67.822 110.25 67.829C109.94 67.917 109.71 68.014 109.539 68.127L109.535 68.13C109.474 68.168 109.417 68.213 109.364 68.267C109.309 68.321 109.264 68.378 109.226 68.439L109.223 68.443C109.11 68.614 109.012 68.844 108.924 69.154C108.918 69.279 108.912 69.404 108.908 69.528C108.618 69.535 107.912 69.494 107.347 69.614C104.982 70.115 102.081 71.409 99.987 73.009C98.851 73.877 98.471 74.318 98.8 75.633C98.915 76.09 99.229 76.626 99.441 77.059C95.697 78.818 93.456 80.051 91.446 82.439C90.863 83.132 90.524 83.603 90.489 84.093C90.524 84.584 90.863 85.054 91.446 85.748C93.456 88.136 95.697 89.369 99.441 91.128C99.229 91.561 98.915 92.097 98.8 92.554C98.471 93.868 98.85 94.31 99.987 95.178C102.081 96.777 104.982 98.072 107.347 98.573C107.912 98.692 108.618 98.652 108.908 98.659C108.912 98.783 108.917 98.908 108.924 99.033ZM137.319 67.822C136.362 67.869 135.45 67.97 134.585 68.129C133.5 68.237 132.531 68.421 131.236 68.868C130.79 67.826 128.503 64.56 128.285 64.377C129.07 63.252 132.218 60.691 133.982 60.109C135.71 61.739 137.633 66.011 137.319 67.822ZM115.789 68.128C114.924 67.97 114.013 67.868 113.055 67.821C112.741 66.01 114.664 61.739 116.392 60.107C118.156 60.689 121.304 63.25 122.089 64.375C121.872 64.558 119.584 67.825 119.138 68.866C117.843 68.42 116.874 68.237 115.789 68.128ZM141.46 71.962C141.413 72.919 141.312 73.831 141.153 74.696C141.045 75.78 140.861 76.75 140.414 78.045C141.456 78.491 144.723 80.778 144.905 80.996C146.031 80.211 148.591 77.063 149.173 75.299C147.542 73.572 143.271 71.648 141.46 71.962ZM109.221 74.696C109.063 73.831 108.961 72.92 108.914 71.962C107.103 71.648 102.831 73.571 101.199 75.299C101.781 77.063 104.342 80.211 105.467 80.996C105.65 80.779 108.917 78.491 109.958 78.045C109.513 76.75 109.329 75.781 109.221 74.696ZM125.187 52.282C122.895 53.336 120.226 58.13 120.182 59.946L123.572 62.994C124.274 62.44 124.751 62.112 125.187 62.012C125.624 62.112 126.101 62.439 126.802 62.994L130.192 59.946C130.148 58.13 127.479 53.336 125.187 52.282ZM125.187 64.448C124.656 64.403 121.632 67.753 121.081 69.686C123.371 71.887 124.427 73.085 125.187 74.803C125.946 73.086 127.003 71.888 129.293 69.686C128.742 67.753 125.718 64.403 125.187 64.448ZM126.268 81.475C126.247 81.319 126.23 81.16 126.217 81C126.342 77.144 127.368 74.42 129.514 72.532C131.333 70.932 134.846 69.852 137.461 69.876C138.439 69.886 138.935 69.87 139.19 70.09C139.41 70.345 139.395 70.841 139.404 71.819C139.429 74.434 138.348 77.947 136.749 79.766C134.861 81.913 132.137 82.938 128.281 83.063C128.121 83.05 127.962 83.033 127.806 83.012L135.02 74.351L134.526 74.754L134.929 74.26L126.268 81.475ZM124.106 81.475C124.127 81.319 124.144 81.16 124.157 81C124.032 77.144 123.006 74.42 120.86 72.532C119.041 70.932 115.528 69.852 112.913 69.876C111.935 69.886 111.44 69.87 111.184 70.09C110.964 70.345 110.979 70.841 110.97 71.819C110.945 74.434 112.026 77.947 113.625 79.766C115.513 81.913 118.237 82.938 122.093 83.063C122.253 83.05 122.412 83.033 122.568 83.012L115.354 74.351L115.848 74.754L115.445 74.26L124.106 81.475ZM141.46 96.226C141.413 95.269 141.312 94.357 141.153 93.492C141.045 92.408 140.861 91.438 140.414 90.143C141.456 89.697 144.723 87.41 144.905 87.193C146.031 87.978 148.591 91.126 149.173 92.89C147.542 94.617 143.271 96.54 141.46 96.226ZM137.319 100.367C136.362 100.32 135.45 100.219 134.585 100.061C133.5 99.953 132.531 99.769 131.236 99.322C130.79 100.364 128.503 103.631 128.285 103.814C129.07 104.939 132.218 107.5 133.982 108.082C135.71 106.449 137.633 102.178 137.319 100.367ZM157 84.094C155.946 81.802 151.152 79.134 149.335 79.089L146.287 82.478C146.841 83.18 147.168 83.657 147.269 84.093C147.169 84.53 146.842 85.007 146.287 85.708L149.335 89.098C151.152 89.055 155.945 86.386 157 84.094ZM144.834 84.094C144.879 83.563 141.529 80.539 139.596 79.989C137.395 82.278 136.196 83.335 134.48 84.094C136.197 84.853 137.395 85.91 139.596 88.2C141.529 87.65 144.879 84.625 144.834 84.094ZM127.807 85.176C127.963 85.155 128.122 85.138 128.282 85.125C132.138 85.25 134.862 86.275 136.75 88.422C138.35 90.241 139.43 93.754 139.405 96.369C139.395 97.347 139.411 97.843 139.191 98.098C138.936 98.318 138.44 98.303 137.462 98.312C134.847 98.337 131.334 97.256 129.515 95.656C127.368 93.768 126.343 91.044 126.218 87.188C126.231 87.028 126.248 86.869 126.269 86.713L134.93 93.927L134.527 93.433L135.021 93.836L127.807 85.176ZM109.221 93.493C109.063 94.358 108.961 95.27 108.914 96.227C107.103 96.541 102.831 94.618 101.199 92.89C101.781 91.126 104.342 87.978 105.467 87.193C105.65 87.41 108.917 89.698 109.958 90.143C109.513 91.439 109.329 92.408 109.221 93.493ZM113.055 100.367C114.012 100.32 114.924 100.219 115.789 100.061C116.874 99.953 117.843 99.769 119.138 99.322C119.584 100.364 121.871 103.631 122.089 103.814C121.304 104.939 118.156 107.5 116.392 108.082C114.665 106.449 112.741 102.178 113.055 100.367ZM93.375 84.094C94.43 81.802 99.223 79.134 101.039 79.089L104.087 82.478C103.533 83.18 103.206 83.657 103.105 84.093C103.206 84.53 103.533 85.007 104.087 85.708L101.039 89.098C99.223 89.055 94.429 86.386 93.375 84.094ZM105.541 84.094C105.496 83.563 108.846 80.539 110.779 79.989C112.98 82.278 114.178 83.335 115.896 84.094C114.179 84.853 112.981 85.91 110.779 88.2C108.846 87.65 105.495 84.625 105.541 84.094ZM122.568 85.176C122.412 85.155 122.253 85.138 122.093 85.125C118.237 85.25 115.514 86.275 113.625 88.422C112.025 90.241 110.945 93.754 110.97 96.369C110.979 97.347 110.964 97.843 111.184 98.098C111.439 98.318 111.935 98.303 112.913 98.312C115.528 98.337 119.041 97.256 120.86 95.656C123.007 93.768 124.032 91.044 124.157 87.188C124.144 87.028 124.127 86.869 124.106 86.713L115.444 93.927L115.847 93.433L115.353 93.836L122.568 85.176ZM125.187 115.907C122.895 114.853 120.226 110.059 120.182 108.243L123.572 105.195C124.274 105.749 124.751 106.077 125.187 106.177C125.624 106.076 126.101 105.749 126.802 105.195L130.192 108.243C130.148 110.059 127.479 114.852 125.187 115.907ZM125.187 103.741C124.656 103.786 121.632 100.436 121.081 98.503C123.371 96.302 124.427 95.104 125.187 93.387C125.946 95.104 127.003 96.302 129.293 98.503C128.742 100.436 125.718 103.786 125.187 103.741Z" fill="#F6D58D"/>
<mask id="mask0_76_1899" style="mask-type:luminance" maskUnits="userSpaceOnUse" x="-268" y="-214" width="842" height="596">
<path d="M-268 -214H573.89V381.275H-268V-214Z" fill="white"/>
</mask>
<g mask="url(#mask0_76_1899)">
<path fill-rule="evenodd" clip-rule="evenodd" d="M221.173 99.033C221.261 99.343 221.358 99.573 221.471 99.743L221.474 99.747C221.511 99.807 221.557 99.864 221.611 99.918C221.665 99.973 221.722 100.018 221.783 100.056L221.787 100.059C221.958 100.172 222.188 100.27 222.498 100.357C222.623 100.363 222.748 100.369 222.872 100.374C222.879 100.663 222.839 101.37 222.958 101.934C223.459 104.3 224.753 107.2 226.353 109.294C227.221 110.43 227.662 110.81 228.977 110.481C229.434 110.366 229.97 110.052 230.402 109.84C232.162 113.584 233.395 115.825 235.782 117.835C236.475 118.418 236.946 118.757 237.436 118.792C237.927 118.757 238.398 118.418 239.091 117.835C241.479 115.825 242.712 113.584 244.471 109.84C244.904 110.052 245.44 110.366 245.897 110.481C247.211 110.81 247.653 110.431 248.521 109.294C250.12 107.2 251.415 104.299 251.916 101.934C252.035 101.369 251.995 100.663 252.002 100.374C252.126 100.369 252.251 100.363 252.376 100.357C252.686 100.269 252.916 100.171 253.086 100.059L253.09 100.056C253.15 100.018 253.207 99.973 253.261 99.918C253.316 99.864 253.361 99.807 253.399 99.747L253.402 99.743C253.515 99.572 253.613 99.342 253.701 99.033C253.707 98.907 253.713 98.783 253.718 98.659C254.007 98.653 254.714 98.693 255.278 98.573C257.644 98.072 260.544 96.777 262.638 95.178C263.774 94.31 264.154 93.868 263.825 92.554C263.71 92.097 263.396 91.561 263.184 91.128C266.928 89.369 269.169 88.136 271.179 85.748C271.762 85.055 272.101 84.584 272.136 84.093C272.101 83.602 271.762 83.132 271.179 82.439C269.169 80.051 266.928 78.818 263.184 77.059C263.395 76.626 263.71 76.09 263.825 75.633C264.154 74.319 263.775 73.877 262.638 73.009C260.544 71.41 257.643 70.115 255.278 69.614C254.713 69.494 254.007 69.535 253.718 69.528C253.713 69.404 253.708 69.279 253.701 69.154C253.613 68.844 253.515 68.614 253.402 68.443L253.399 68.439C253.361 68.378 253.316 68.322 253.261 68.267C253.207 68.212 253.15 68.167 253.09 68.13L253.086 68.127C252.915 68.014 252.685 67.916 252.376 67.829C252.25 67.823 252.126 67.817 252.002 67.812C251.995 67.522 252.036 66.816 251.916 66.251C251.415 63.886 250.12 60.985 248.521 58.891C247.653 57.755 247.211 57.375 245.897 57.704C245.44 57.819 244.904 58.133 244.471 58.344C242.712 54.6 241.479 52.359 239.091 50.349C238.398 49.766 237.927 49.427 237.436 49.392C236.945 49.427 236.475 49.766 235.782 50.349C233.394 52.359 232.161 54.6 230.402 58.344C229.969 58.133 229.433 57.818 228.977 57.704C227.662 57.374 227.221 57.754 226.353 58.891C224.754 60.985 223.459 63.886 222.958 66.251C222.839 66.816 222.879 67.522 222.872 67.812C222.748 67.817 222.623 67.822 222.498 67.829C222.188 67.917 221.958 68.014 221.787 68.127L221.783 68.13C221.723 68.168 221.666 68.213 221.611 68.267C221.556 68.321 221.511 68.378 221.474 68.439L221.471 68.443C221.358 68.614 221.26 68.844 221.173 69.154C221.166 69.279 221.161 69.404 221.156 69.528C220.866 69.535 220.16 69.494 219.595 69.614C217.229 70.115 214.329 71.409 212.235 73.009C211.099 73.877 210.719 74.318 211.048 75.633C211.163 76.09 211.477 76.626 211.688 77.059C207.944 78.818 205.703 80.051 203.693 82.439C203.11 83.132 202.771 83.603 202.736 84.093C202.771 84.584 203.11 85.054 203.693 85.748C205.703 88.136 207.944 89.369 211.688 91.128C211.477 91.561 211.162 92.097 211.048 92.554C210.718 93.868 211.098 94.31 212.235 95.178C214.329 96.777 217.23 98.072 219.595 98.573C220.16 98.692 220.866 98.652 221.156 98.659C221.161 98.783 221.167 98.908 221.173 99.033ZM249.568 67.822C248.611 67.869 247.699 67.97 246.834 68.129C245.75 68.237 244.78 68.421 243.485 68.868C243.039 67.826 240.752 64.56 240.535 64.377C241.32 63.252 244.468 60.691 246.232 60.109C247.959 61.739 249.883 66.011 249.568 67.822ZM228.038 68.128C227.173 67.97 226.262 67.868 225.304 67.821C224.99 66.01 226.914 61.739 228.641 60.107C230.405 60.689 233.553 63.25 234.338 64.375C234.12 64.558 231.833 67.825 231.387 68.866C230.092 68.42 229.123 68.237 228.038 68.128ZM253.709 71.962C253.662 72.919 253.561 73.831 253.403 74.696C253.295 75.78 253.111 76.75 252.664 78.045C253.706 78.491 256.973 80.778 257.156 80.996C258.281 80.211 260.842 77.063 261.424 75.299C259.792 73.572 255.52 71.648 253.709 71.962ZM221.471 74.696C221.312 73.831 221.211 72.92 221.164 71.962C219.353 71.648 215.082 73.571 213.45 75.299C214.032 77.063 216.593 80.211 217.718 80.996C217.901 80.779 221.167 78.491 222.209 78.045C221.762 76.75 221.579 75.781 221.471 74.696ZM237.436 52.282C235.145 53.336 232.476 58.13 232.431 59.946L235.82 62.994C236.522 62.44 236.999 62.112 237.435 62.012C237.872 62.112 238.349 62.439 239.051 62.994L242.441 59.946C242.397 58.13 239.728 53.336 237.436 52.282ZM237.436 64.448C236.905 64.403 233.881 67.753 233.331 69.686C235.621 71.887 236.677 73.085 237.436 74.803C238.195 73.086 239.252 71.888 241.542 69.686C240.992 67.753 237.967 64.403 237.436 64.448ZM238.518 81.475C238.497 81.319 238.48 81.16 238.467 81C238.592 77.144 239.617 74.42 241.764 72.532C243.583 70.932 247.096 69.852 249.711 69.876C250.689 69.886 251.184 69.87 251.44 70.09C251.66 70.345 251.645 70.841 251.654 71.819C251.679 74.434 250.598 77.947 248.998 79.766C247.11 81.913 244.386 82.938 240.53 83.063C240.37 83.05 240.211 83.033 240.055 83.012L247.269 74.351L246.775 74.754L247.178 74.26L238.518 81.475ZM236.355 81.475C236.376 81.319 236.393 81.16 236.406 81C236.281 77.144 235.255 74.42 233.109 72.532C231.29 70.932 227.777 69.852 225.162 69.876C224.184 69.886 223.688 69.87 223.433 70.09C223.213 70.345 223.228 70.841 223.219 71.819C223.194 74.434 224.275 77.947 225.874 79.766C227.762 81.913 230.485 82.938 234.342 83.063C234.502 83.05 234.661 83.033 234.817 83.012L227.603 74.351L228.097 74.754L227.694 74.26L236.355 81.475ZM253.709 96.226C253.662 95.269 253.561 94.357 253.403 93.492C253.295 92.408 253.111 91.438 252.664 90.143C253.706 89.697 256.973 87.41 257.156 87.193C258.281 87.978 260.842 91.126 261.424 92.89C259.792 94.617 255.52 96.54 253.709 96.226ZM249.568 100.367C248.611 100.32 247.699 100.219 246.834 100.061C245.75 99.953 244.78 99.769 243.485 99.322C243.039 100.364 240.752 103.631 240.535 103.814C241.32 104.939 244.468 107.5 246.232 108.082C247.959 106.449 249.883 102.178 249.568 100.367ZM269.249 84.094C268.195 81.802 263.401 79.134 261.585 79.089L258.537 82.478C259.092 83.18 259.419 83.657 259.519 84.093C259.418 84.53 259.091 85.007 258.537 85.708L261.585 89.098C263.401 89.055 268.195 86.386 269.249 84.094ZM257.083 84.094C257.128 83.563 253.778 80.539 251.845 79.989C249.644 82.278 248.446 83.335 246.728 84.094C248.445 84.853 249.643 85.91 251.845 88.2C253.778 87.65 257.128 84.625 257.083 84.094ZM240.056 85.176C240.212 85.155 240.371 85.138 240.531 85.125C244.387 85.25 247.11 86.275 248.999 88.422C250.599 90.241 251.679 93.754 251.655 96.369C251.646 97.347 251.661 97.843 251.441 98.098C251.186 98.318 250.69 98.303 249.712 98.312C247.097 98.337 243.584 97.256 241.765 95.656C239.618 93.768 238.593 91.044 238.468 87.188C238.481 87.028 238.498 86.869 238.519 86.713L247.18 93.927L246.777 93.433L247.271 93.836L240.056 85.176ZM221.471 93.493C221.312 94.358 221.211 95.27 221.164 96.227C219.353 96.541 215.082 94.618 213.45 92.89C214.032 91.126 216.593 87.978 217.718 87.193C217.901 87.41 221.167 89.698 222.209 90.143C221.762 91.439 221.579 92.408 221.471 93.493ZM225.304 100.367C226.261 100.32 227.173 100.219 228.038 100.061C229.123 99.953 230.092 99.769 231.387 99.322C231.833 100.364 234.12 103.631 234.338 103.814C233.553 104.939 230.405 107.5 228.641 108.082C226.914 106.449 224.99 102.178 225.304 100.367ZM205.624 84.094C206.678 81.802 211.472 79.134 213.288 79.089L216.336 82.478C215.782 83.18 215.454 83.657 215.354 84.093C215.454 84.53 215.782 85.007 216.336 85.708L213.288 89.098C211.472 89.055 206.678 86.386 205.624 84.094ZM217.79 84.094C217.745 83.563 221.095 80.539 223.028 79.989C225.229 82.278 226.428 83.335 228.145 84.094C226.428 84.853 225.23 85.91 223.028 88.2C221.095 87.65 217.745 84.625 217.79 84.094ZM234.817 85.176C234.661 85.155 234.502 85.138 234.342 85.125C230.486 85.25 227.763 86.275 225.874 88.422C224.274 90.241 223.194 93.754 223.219 96.369C223.228 97.347 223.213 97.843 223.433 98.098C223.688 98.318 224.184 98.303 225.162 98.312C227.777 98.337 231.29 97.256 233.109 95.656C235.256 93.768 236.281 91.044 236.406 87.188C236.393 87.028 236.376 86.869 236.355 86.713L227.694 93.927L228.097 93.433L227.603 93.836L234.817 85.176ZM237.436 115.907C235.145 114.853 232.476 110.059 232.431 108.243L235.82 105.195C236.522 105.749 236.999 106.077 237.435 106.177C237.872 106.076 238.349 105.749 239.051 105.195L242.441 108.243C242.397 110.059 239.728 114.852 237.436 115.907ZM237.436 103.741C236.905 103.786 233.881 100.436 233.331 98.503C235.621 96.302 236.677 95.104 237.436 93.387C238.195 95.104 239.252 96.302 241.542 98.503C240.992 100.436 237.967 103.786 237.436 103.741Z" fill="#F6D58D"/>
</g>
<path fill-rule="evenodd" clip-rule="evenodd" d="M52.9551 172.184C53.0431 172.494 53.1401 172.724 53.2531 172.895L53.2561 172.899C53.2931 172.959 53.3391 173.016 53.3941 173.07C53.4481 173.125 53.5051 173.17 53.5661 173.207L53.5701 173.21C53.7411 173.323 53.9711 173.421 54.2811 173.508C54.4061 173.514 54.5311 173.52 54.6551 173.525C54.6621 173.815 54.6221 174.521 54.7411 175.086C55.2421 177.452 56.5361 180.352 58.1361 182.446C59.0041 183.582 59.4451 183.962 60.7601 183.633C61.2171 183.518 61.7531 183.204 62.1861 182.992C63.9461 186.736 65.1791 188.977 67.5661 190.987C68.2591 191.57 68.7301 191.909 69.2201 191.944C69.7111 191.909 70.1821 191.57 70.8751 190.987C73.2631 188.977 74.4961 186.736 76.2551 182.992C76.6881 183.203 77.2241 183.518 77.6811 183.633C78.9951 183.963 79.4371 183.583 80.3051 182.446C81.9041 180.352 83.1991 177.451 83.7001 175.086C83.8191 174.521 83.7791 173.815 83.7861 173.525C83.9101 173.52 84.0351 173.515 84.1601 173.508C84.4701 173.421 84.7001 173.322 84.8701 173.21L84.8741 173.207C84.9341 173.17 84.9911 173.124 85.0451 173.07C85.1001 173.016 85.1451 172.959 85.1831 172.899L85.1861 172.895C85.2991 172.724 85.3971 172.494 85.4851 172.184C85.4911 172.059 85.4971 171.934 85.5021 171.81C85.7911 171.803 86.4981 171.844 87.0621 171.724C89.4281 171.224 92.3281 169.929 94.4221 168.329C95.5581 167.461 95.9381 167.02 95.6091 165.705C95.4941 165.248 95.1801 164.712 94.9681 164.279C98.7121 162.519 100.953 161.286 102.963 158.899C103.546 158.206 103.885 157.735 103.92 157.245C103.885 156.754 103.546 156.284 102.963 155.59C100.953 153.202 98.7121 151.969 94.9681 150.21C95.1791 149.777 95.4941 149.241 95.6091 148.784C95.9381 147.469 95.5591 147.028 94.4221 146.16C92.3281 144.561 89.4271 143.266 87.0621 142.765C86.4971 142.646 85.7911 142.686 85.5021 142.679C85.4971 142.555 85.4921 142.43 85.4851 142.305C85.3971 141.995 85.2991 141.765 85.1861 141.595L85.1831 141.591C85.1451 141.53 85.1001 141.474 85.0451 141.42C84.9911 141.365 84.9341 141.32 84.8741 141.282L84.8701 141.279C84.6991 141.166 84.4691 141.068 84.1601 140.981C84.0351 140.975 83.9101 140.969 83.7861 140.964C83.7801 140.675 83.8201 139.968 83.7001 139.403C83.1991 137.038 81.9041 134.137 80.3051 132.043C79.4371 130.907 78.9951 130.527 77.6811 130.856C77.2241 130.971 76.6881 131.285 76.2551 131.497C74.4961 127.753 73.2621 125.512 70.8751 123.502C70.1821 122.919 69.7111 122.58 69.2201 122.545C68.7291 122.58 68.2591 122.919 67.5661 123.502C65.1781 125.512 63.9451 127.753 62.1861 131.497C61.7531 131.286 61.2171 130.971 60.7601 130.856C59.4461 130.527 59.0041 130.906 58.1361 132.043C56.5371 134.137 55.2421 137.038 54.7411 139.403C54.6221 139.968 54.6621 140.674 54.6551 140.964C54.5311 140.969 54.4061 140.974 54.2811 140.981C53.9711 141.069 53.7411 141.166 53.5701 141.279L53.5661 141.282C53.5061 141.32 53.4491 141.365 53.3941 141.42C53.3391 141.474 53.2941 141.531 53.2561 141.591L53.2531 141.595C53.1401 141.766 53.0421 141.996 52.9551 142.305C52.9481 142.43 52.9431 142.555 52.9381 142.679C52.6481 142.686 51.9421 142.645 51.3771 142.765C49.0121 143.266 46.1111 144.561 44.0171 146.16C42.8811 147.028 42.5011 147.47 42.8301 148.784C42.9451 149.241 43.2591 149.777 43.4701 150.21C39.7261 151.969 37.4851 153.202 35.4751 155.59C34.8921 156.283 34.5531 156.753 34.5181 157.245C34.5531 157.736 34.8921 158.206 35.4751 158.899C37.4851 161.287 39.7261 162.52 43.4701 164.279C43.2591 164.712 42.9441 165.248 42.8301 165.705C42.5001 167.019 42.8801 167.461 44.0171 168.329C46.1111 169.928 49.0121 171.223 51.3771 171.724C51.9421 171.843 52.6481 171.803 52.9381 171.81C52.9431 171.934 52.9481 172.058 52.9551 172.184ZM81.3501 140.973C80.3931 141.02 79.4811 141.121 78.6161 141.28C77.5311 141.388 76.5621 141.572 75.2671 142.019C74.8211 140.977 72.5341 137.71 72.3171 137.528C73.1021 136.403 76.2501 133.842 78.0141 133.26C79.7411 134.89 81.6641 139.162 81.3501 140.973ZM59.8201 141.279C58.9551 141.121 58.0441 141.019 57.0861 140.972C56.7721 139.161 58.6951 134.889 60.4231 133.258C62.1871 133.84 65.3351 136.401 66.1201 137.526C65.9031 137.709 63.6151 140.976 63.1691 142.017C61.8741 141.571 60.9041 141.387 59.8201 141.279ZM85.4911 145.113C85.4441 146.07 85.3431 146.981 85.1851 147.847C85.0771 148.931 84.8931 149.901 84.4461 151.196C85.4881 151.641 88.7551 153.929 88.9381 154.146C90.0631 153.361 92.6241 150.213 93.2061 148.449C91.5731 146.723 87.3011 144.799 85.4911 145.113ZM53.2521 147.847C53.0941 146.982 52.9921 146.07 52.9451 145.113C51.1341 144.799 46.8631 146.722 45.2311 148.449C45.8131 150.213 48.3741 153.361 49.4991 154.146C49.6821 153.929 52.9481 151.641 53.9901 151.196C53.5441 149.901 53.3601 148.932 53.2521 147.847ZM69.2181 125.433C66.9261 126.487 64.2581 131.281 64.2131 133.097L67.6021 136.146C68.3041 135.591 68.7811 135.264 69.2171 135.164C69.6541 135.265 70.1311 135.592 70.8321 136.146L74.2221 133.097C74.1791 131.281 71.5101 126.487 69.2181 125.433ZM69.2181 137.599C68.6871 137.553 65.6631 140.904 65.1131 142.837C67.4031 145.038 68.4591 146.236 69.2181 147.953C69.9771 146.236 71.0341 145.038 73.3241 142.837C72.7731 140.904 69.7491 137.553 69.2181 137.599ZM70.2991 154.626C70.2781 154.47 70.2611 154.311 70.2481 154.151C70.3731 150.295 71.3981 147.572 73.5451 145.683C75.3641 144.084 78.8771 143.003 81.4921 143.028C82.4701 143.037 82.9651 143.022 83.2211 143.242C83.4411 143.497 83.4261 143.993 83.4351 144.971C83.4601 147.586 82.3791 151.099 80.7791 152.918C78.8911 155.065 76.1671 156.09 72.3111 156.215C72.1511 156.202 71.9921 156.185 71.8361 156.164L79.0501 147.503L78.5561 147.906L78.9591 147.412L70.2991 154.626ZM68.1371 154.626C68.1581 154.47 68.1751 154.311 68.1881 154.151C68.0631 150.295 67.0371 147.572 64.8911 145.683C63.0721 144.084 59.5591 143.003 56.9441 143.028C55.9661 143.037 55.4701 143.022 55.2151 143.242C54.9951 143.497 55.0101 143.993 55.0011 144.971C54.9761 147.586 56.0571 151.099 57.6571 152.918C59.5451 155.065 62.2681 156.09 66.1251 156.215C66.2851 156.202 66.4441 156.185 66.6001 156.164L59.3861 147.503L59.8801 147.906L59.4771 147.412L68.1371 154.626ZM85.4911 169.377C85.4441 168.42 85.3431 167.508 85.1851 166.643C85.0771 165.558 84.8931 164.589 84.4461 163.294C85.4881 162.848 88.7551 160.561 88.9381 160.343C90.0631 161.128 92.6241 164.276 93.2061 166.04C91.5731 167.768 87.3011 169.691 85.4911 169.377ZM81.3501 173.518C80.3931 173.471 79.4811 173.37 78.6161 173.211C77.5311 173.103 76.5621 172.919 75.2671 172.472C74.8211 173.514 72.5341 176.781 72.3171 176.963C73.1021 178.088 76.2501 180.649 78.0141 181.231C79.7411 179.6 81.6641 175.329 81.3501 173.518ZM101.03 157.245C99.9761 154.953 95.1821 152.284 93.3661 152.24L90.3181 155.63C90.8731 156.332 91.2001 156.809 91.3001 157.246C91.1991 157.683 90.8721 158.16 90.3181 158.861L93.3661 162.25C95.1821 162.205 99.9761 159.537 101.03 157.245ZM88.8651 157.245C88.9101 156.714 85.5601 153.689 83.6271 153.139C81.4261 155.429 80.2281 156.485 78.5101 157.245C80.2271 158.004 81.4251 159.061 83.6271 161.35C85.5591 160.8 88.9101 157.776 88.8651 157.245ZM71.8381 158.326C71.9941 158.305 72.1531 158.288 72.3131 158.275C76.1691 158.4 78.8921 159.426 80.7811 161.572C82.3811 163.391 83.4611 166.904 83.4371 169.519C83.4281 170.497 83.4431 170.993 83.2231 171.248C82.9681 171.468 82.4721 171.453 81.4941 171.462C78.8791 171.487 75.3661 170.406 73.5471 168.806C71.4001 166.918 70.3751 164.195 70.2501 160.338C70.2631 160.178 70.2801 160.019 70.3011 159.863L78.9621 167.077L78.5591 166.583L79.0531 166.986L71.8381 158.326ZM53.2521 166.644C53.0941 167.509 52.9921 168.42 52.9451 169.378C51.1341 169.692 46.8631 167.768 45.2311 166.041C45.8131 164.277 48.3741 161.129 49.4991 160.344C49.6821 160.562 52.9481 162.849 53.9901 163.295C53.5441 164.59 53.3601 165.559 53.2521 166.644ZM57.0861 173.518C58.0431 173.471 58.9551 173.37 59.8201 173.211C60.9051 173.103 61.8741 172.919 63.1691 172.472C63.6151 173.514 65.9021 176.781 66.1201 176.963C65.3351 178.088 62.1871 180.649 60.4231 181.231C58.6961 179.6 56.7721 175.329 57.0861 173.518ZM37.4061 157.245C38.4601 154.953 43.2541 152.284 45.0701 152.24L48.1181 155.63C47.5641 156.332 47.2361 156.809 47.1361 157.246C47.2361 157.683 47.5631 158.16 48.1181 158.861L45.0701 162.25C43.2541 162.205 38.4601 159.537 37.4061 157.245ZM49.5721 157.245C49.5271 156.714 52.8771 153.689 54.8101 153.139C57.0111 155.429 58.2101 156.485 59.9271 157.245C58.2101 158.004 57.0111 159.061 54.8101 161.35C52.8771 160.8 49.5261 157.776 49.5721 157.245ZM66.5991 158.326C66.4431 158.305 66.2841 158.288 66.1241 158.275C62.2681 158.4 59.5441 159.426 57.6561 161.572C56.0561 163.391 54.9761 166.904 55.0001 169.519C55.0101 170.497 54.9941 170.993 55.2141 171.248C55.4691 171.468 55.9651 171.453 56.9431 171.462C59.5581 171.487 63.0711 170.406 64.8901 168.806C67.0371 166.918 68.0621 164.195 68.1871 160.338C68.1741 160.178 68.1571 160.019 68.1361 159.863L59.4751 167.077L59.8781 166.583L59.3841 166.986L66.5991 158.326ZM69.2181 189.057C66.9261 188.003 64.2581 183.209 64.2131 181.393L67.6021 178.345C68.3041 178.899 68.7811 179.227 69.2171 179.327C69.6541 179.227 70.1311 178.9 70.8321 178.345L74.2221 181.393C74.1791 183.209 71.5101 188.003 69.2181 189.057ZM69.2181 176.892C68.6871 176.937 65.6631 173.587 65.1131 171.654C67.4031 169.453 68.4591 168.254 69.2181 166.537C69.9771 168.254 71.0341 169.452 73.3241 171.654C72.7731 173.587 69.7491 176.937 69.2181 176.892Z" fill="#F6D58D"/>
<path fill-rule="evenodd" clip-rule="evenodd" d="M165.204 172.184C165.292 172.494 165.389 172.724 165.502 172.895L165.505 172.899C165.542 172.959 165.588 173.016 165.643 173.07C165.697 173.125 165.754 173.17 165.814 173.207L165.818 173.21C165.989 173.323 166.219 173.421 166.529 173.508C166.655 173.514 166.779 173.52 166.903 173.525C166.91 173.815 166.869 174.521 166.989 175.086C167.49 177.452 168.785 180.352 170.384 182.446C171.252 183.582 171.694 183.962 173.008 183.633C173.465 183.518 174.001 183.204 174.434 182.992C176.193 186.736 177.427 188.977 179.814 190.987C180.507 191.57 180.978 191.909 181.469 191.944C181.96 191.909 182.43 191.57 183.123 190.987C185.511 188.977 186.744 186.736 188.503 182.992C188.936 183.203 189.472 183.518 189.929 183.633C191.243 183.963 191.685 183.583 192.553 182.446C194.152 180.352 195.447 177.451 195.948 175.086C196.067 174.521 196.027 173.815 196.034 173.525C196.158 173.52 196.283 173.515 196.408 173.508C196.718 173.421 196.948 173.322 197.119 173.21L197.123 173.207C197.184 173.17 197.24 173.124 197.295 173.07C197.35 173.016 197.395 172.959 197.432 172.899L197.435 172.895C197.548 172.724 197.646 172.494 197.733 172.184C197.74 172.059 197.745 171.934 197.75 171.81C198.039 171.803 198.746 171.844 199.311 171.724C201.676 171.224 204.577 169.929 206.671 168.329C207.807 167.461 208.187 167.02 207.858 165.705C207.743 165.248 207.429 164.712 207.218 164.279C210.962 162.519 213.202 161.286 215.213 158.899C215.796 158.206 216.135 157.735 216.17 157.245C216.135 156.754 215.796 156.284 215.213 155.59C213.203 153.202 210.962 151.969 207.218 150.21C207.429 149.777 207.744 149.241 207.858 148.784C208.188 147.469 207.808 147.028 206.671 146.16C204.577 144.561 201.676 143.266 199.311 142.765C198.746 142.646 198.04 142.686 197.75 142.679C197.745 142.555 197.74 142.43 197.733 142.305C197.645 141.995 197.547 141.765 197.435 141.595L197.432 141.591C197.395 141.53 197.349 141.474 197.295 141.42C197.241 141.365 197.184 141.32 197.123 141.282L197.119 141.279C196.948 141.166 196.718 141.068 196.408 140.981C196.283 140.975 196.158 140.969 196.034 140.964C196.027 140.675 196.068 139.968 195.948 139.403C195.447 137.038 194.153 134.137 192.553 132.043C191.685 130.907 191.244 130.527 189.929 130.856C189.472 130.971 188.936 131.285 188.503 131.497C186.744 127.753 185.511 125.512 183.123 123.502C182.43 122.919 181.959 122.58 181.469 122.545C180.978 122.58 180.508 122.919 179.814 123.502C177.426 125.512 176.193 127.753 174.434 131.497C174.001 131.286 173.465 130.971 173.008 130.856C171.693 130.527 171.252 130.906 170.384 132.043C168.785 134.137 167.49 137.038 166.989 139.403C166.87 139.968 166.91 140.674 166.903 140.964C166.779 140.969 166.654 140.974 166.529 140.981C166.219 141.069 165.989 141.166 165.818 141.279L165.814 141.282C165.754 141.32 165.697 141.365 165.643 141.42C165.588 141.474 165.543 141.531 165.505 141.591L165.502 141.595C165.389 141.766 165.291 141.996 165.204 142.305C165.197 142.43 165.192 142.555 165.187 142.679C164.898 142.686 164.191 142.645 163.626 142.765C161.261 143.266 158.36 144.561 156.266 146.16C155.13 147.028 154.75 147.47 155.079 148.784C155.194 149.241 155.508 149.777 155.72 150.21C151.976 151.969 149.735 153.202 147.725 155.59C147.142 156.283 146.803 156.753 146.768 157.245C146.803 157.736 147.142 158.206 147.725 158.899C149.735 161.287 151.976 162.52 155.72 164.279C155.509 164.712 155.194 165.248 155.079 165.705C154.749 167.019 155.129 167.461 156.266 168.329C158.36 169.928 161.261 171.223 163.626 171.724C164.191 171.843 164.897 171.803 165.187 171.81C165.192 171.934 165.197 172.058 165.204 172.184ZM193.599 140.973C192.642 141.02 191.73 141.121 190.865 141.28C189.78 141.388 188.811 141.572 187.516 142.019C187.07 140.977 184.783 137.71 184.565 137.528C185.35 136.403 188.498 133.842 190.262 133.26C191.99 134.89 193.914 139.162 193.599 140.973ZM172.069 141.279C171.204 141.121 170.292 141.019 169.335 140.972C169.021 139.161 170.945 134.889 172.672 133.258C174.436 133.84 177.584 136.401 178.369 137.526C178.152 137.709 175.864 140.976 175.419 142.017C174.123 141.571 173.153 141.387 172.069 141.279ZM197.74 145.113C197.693 146.07 197.592 146.981 197.433 147.847C197.325 148.931 197.141 149.901 196.694 151.196C197.736 151.641 201.003 153.929 201.185 154.146C202.31 153.361 204.871 150.213 205.453 148.449C203.822 146.723 199.551 144.799 197.74 145.113ZM165.501 147.847C165.343 146.982 165.241 146.07 165.194 145.113C163.383 144.799 159.111 146.722 157.48 148.449C158.062 150.213 160.623 153.361 161.748 154.146C161.931 153.929 165.198 151.641 166.239 151.196C165.793 149.901 165.61 148.932 165.501 147.847ZM181.467 125.433C179.175 126.487 176.506 131.281 176.462 133.097L179.852 136.146C180.554 135.591 181.031 135.264 181.467 135.164C181.904 135.265 182.381 135.592 183.082 136.146L186.471 133.097C186.428 131.281 183.759 126.487 181.467 125.433ZM181.467 137.599C180.936 137.553 177.912 140.904 177.361 142.837C179.651 145.038 180.707 146.236 181.467 147.953C182.226 146.236 183.283 145.038 185.572 142.837C185.023 140.904 181.998 137.553 181.467 137.599ZM182.549 154.626C182.528 154.47 182.511 154.311 182.498 154.151C182.623 150.295 183.649 147.572 185.795 145.683C187.614 144.084 191.127 143.003 193.742 143.028C194.72 143.037 195.216 143.022 195.471 143.242C195.691 143.497 195.676 143.993 195.685 144.971C195.71 147.586 194.629 151.099 193.029 152.918C191.141 155.065 188.418 156.09 184.561 156.215C184.401 156.202 184.242 156.185 184.086 156.164L191.3 147.503L190.806 147.906L191.209 147.412L182.549 154.626ZM180.386 154.626C180.407 154.47 180.424 154.311 180.437 154.151C180.312 150.295 179.287 147.572 177.14 145.683C175.321 144.084 171.808 143.003 169.193 143.028C168.215 143.037 167.72 143.022 167.464 143.242C167.244 143.497 167.259 143.993 167.25 144.971C167.225 147.586 168.306 151.099 169.905 152.918C171.794 155.065 174.516 156.09 178.373 156.215C178.533 156.202 178.692 156.185 178.848 156.164L171.634 147.503L172.128 147.906L171.725 147.412L180.386 154.626ZM197.74 169.377C197.693 168.42 197.592 167.508 197.433 166.643C197.325 165.558 197.141 164.589 196.694 163.294C197.736 162.848 201.003 160.561 201.185 160.343C202.31 161.128 204.871 164.276 205.453 166.04C203.822 167.768 199.551 169.691 197.74 169.377ZM193.599 173.518C192.642 173.471 191.73 173.37 190.865 173.211C189.78 173.103 188.811 172.919 187.516 172.472C187.07 173.514 184.783 176.781 184.565 176.963C185.35 178.088 188.498 180.649 190.262 181.231C191.99 179.6 193.914 175.329 193.599 173.518ZM213.279 157.245C212.225 154.953 207.431 152.284 205.615 152.24L202.567 155.63C203.122 156.332 203.449 156.809 203.549 157.246C203.448 157.683 203.122 158.16 202.567 158.861L205.615 162.25C207.432 162.205 212.225 159.537 213.279 157.245ZM201.114 157.245C201.159 156.714 197.809 153.689 195.876 153.139C193.675 155.429 192.476 156.485 190.759 157.245C192.476 158.004 193.674 159.061 195.876 161.35C197.809 160.8 201.159 157.776 201.114 157.245ZM184.087 158.326C184.243 158.305 184.402 158.288 184.562 158.275C188.418 158.4 191.141 159.426 193.03 161.572C194.63 163.391 195.71 166.904 195.686 169.519C195.677 170.497 195.692 170.993 195.472 171.248C195.217 171.468 194.721 171.453 193.743 171.462C191.128 171.487 187.615 170.406 185.796 168.806C183.649 166.918 182.624 164.195 182.499 160.338C182.512 160.178 182.529 160.019 182.55 159.863L191.211 167.077L190.808 166.583L191.302 166.986L184.087 158.326ZM165.501 166.644C165.343 167.509 165.241 168.42 165.194 169.378C163.383 169.692 159.111 167.768 157.48 166.041C158.062 164.277 160.623 161.129 161.748 160.344C161.931 160.562 165.198 162.849 166.239 163.295C165.793 164.59 165.61 165.559 165.501 166.644ZM169.335 173.518C170.292 173.471 171.204 173.37 172.069 173.211C173.153 173.103 174.123 172.919 175.418 172.472C175.864 173.514 178.151 176.781 178.368 176.963C177.583 178.088 174.435 180.649 172.671 181.231C170.945 179.6 169.021 175.329 169.335 173.518ZM149.655 157.245C150.709 154.953 155.503 152.284 157.319 152.24L160.367 155.63C159.813 156.332 159.485 156.809 159.385 157.246C159.486 157.683 159.813 158.16 160.367 158.861L157.319 162.25C155.503 162.205 150.709 159.537 149.655 157.245ZM161.821 157.245C161.776 156.714 165.126 153.689 167.059 153.139C169.26 155.429 170.458 156.485 172.175 157.245C170.458 158.004 169.26 159.061 167.059 161.35C165.126 160.8 161.775 157.776 161.821 157.245ZM178.848 158.326C178.692 158.305 178.533 158.288 178.373 158.275C174.517 158.4 171.794 159.426 169.905 161.572C168.306 163.391 167.225 166.904 167.25 169.519C167.259 170.497 167.244 170.993 167.464 171.248C167.719 171.468 168.215 171.453 169.193 171.462C171.808 171.487 175.321 170.406 177.14 168.806C179.287 166.918 180.312 164.195 180.437 160.338C180.424 160.178 180.407 160.019 180.386 159.863L171.725 167.077L172.128 166.583L171.634 166.986L178.848 158.326ZM181.467 189.057C179.175 188.003 176.506 183.209 176.462 181.393L179.852 178.345C180.554 178.899 181.031 179.227 181.467 179.327C181.904 179.227 182.381 178.9 183.082 178.345L186.471 181.393C186.428 183.209 183.759 188.003 181.467 189.057ZM181.467 176.892C180.936 176.937 177.912 173.587 177.361 171.654C179.651 169.453 180.707 168.254 181.467 166.537C182.226 168.254 183.283 169.452 185.572 171.654C185.023 173.587 181.998 176.937 181.467 176.892Z" fill="#F6D58D"/>
<path fill-rule="evenodd" clip-rule="evenodd" d="M277.349 172.184C277.437 172.494 277.535 172.724 277.648 172.895L277.651 172.899C277.689 172.959 277.734 173.016 277.789 173.07C277.843 173.125 277.9 173.17 277.961 173.207L277.965 173.21C278.136 173.323 278.366 173.421 278.675 173.508C278.801 173.514 278.925 173.52 279.049 173.525C279.055 173.815 279.015 174.521 279.135 175.086C279.636 177.452 280.931 180.352 282.53 182.446C283.398 183.582 283.839 183.962 285.154 183.633C285.611 183.518 286.147 183.204 286.58 182.992C288.339 186.736 289.573 188.977 291.96 190.987C292.653 191.57 293.123 191.909 293.614 191.944C294.105 191.909 294.575 191.57 295.268 190.987C297.656 188.977 298.889 186.736 300.648 182.992C301.081 183.203 301.617 183.518 302.074 183.633C303.388 183.963 303.83 183.583 304.698 182.446C306.297 180.352 307.592 177.451 308.093 175.086C308.213 174.521 308.172 173.815 308.179 173.525C308.303 173.52 308.428 173.515 308.553 173.508C308.863 173.421 309.093 173.322 309.264 173.21L309.268 173.207C309.329 173.17 309.385 173.124 309.44 173.07C309.495 173.016 309.54 172.959 309.578 172.899L309.581 172.895C309.694 172.724 309.792 172.494 309.879 172.184C309.886 172.059 309.891 171.934 309.896 171.81C310.186 171.803 310.892 171.844 311.457 171.724C313.822 171.224 316.723 169.929 318.817 168.329C319.953 167.461 320.333 167.02 320.004 165.705C319.889 165.248 319.575 164.712 319.363 164.279C323.107 162.519 325.348 161.286 327.358 158.899C327.941 158.206 328.28 157.735 328.315 157.245C328.28 156.754 327.941 156.284 327.358 155.59C325.348 153.202 323.107 151.969 319.363 150.21C319.574 149.777 319.889 149.241 320.004 148.784C320.333 147.469 319.953 147.028 318.817 146.16C316.723 144.561 313.822 143.266 311.457 142.765C310.892 142.646 310.186 142.686 309.896 142.679C309.891 142.555 309.886 142.43 309.879 142.305C309.792 141.995 309.694 141.765 309.581 141.595L309.578 141.591C309.541 141.53 309.495 141.474 309.44 141.42C309.386 141.365 309.329 141.32 309.268 141.282L309.264 141.279C309.093 141.166 308.863 141.068 308.553 140.981C308.428 140.975 308.303 140.969 308.179 140.964C308.172 140.675 308.213 139.968 308.093 139.403C307.592 137.038 306.298 134.137 304.698 132.043C303.83 130.907 303.389 130.527 302.074 130.856C301.617 130.971 301.081 131.285 300.648 131.497C298.889 127.753 297.655 125.512 295.268 123.502C294.575 122.919 294.104 122.58 293.614 122.545C293.123 122.58 292.652 122.919 291.96 123.502C289.572 125.512 288.339 127.753 286.58 131.497C286.147 131.286 285.611 130.971 285.154 130.856C283.84 130.527 283.398 130.906 282.53 132.043C280.931 134.137 279.636 137.038 279.135 139.403C279.016 139.968 279.056 140.674 279.049 140.964C278.925 140.969 278.8 140.974 278.675 140.981C278.365 141.069 278.135 141.166 277.965 141.279L277.961 141.282C277.9 141.32 277.843 141.365 277.789 141.42C277.734 141.474 277.689 141.531 277.651 141.591L277.648 141.595C277.535 141.766 277.437 141.996 277.349 142.305C277.343 142.43 277.337 142.555 277.333 142.679C277.043 142.686 276.337 142.645 275.772 142.765C273.407 143.266 270.506 144.561 268.412 146.16C267.276 147.028 266.896 147.47 267.225 148.784C267.34 149.241 267.654 149.777 267.866 150.21C264.122 151.969 261.881 153.202 259.871 155.59C259.288 156.283 258.949 156.753 258.914 157.245C258.949 157.736 259.288 158.206 259.871 158.899C261.881 161.287 264.122 162.52 267.866 164.279C267.655 164.712 267.34 165.248 267.225 165.705C266.896 167.019 267.275 167.461 268.412 168.329C270.506 169.928 273.407 171.223 275.772 171.724C276.337 171.843 277.043 171.803 277.333 171.81C277.337 171.934 277.343 172.058 277.349 172.184ZM305.745 140.973C304.788 141.02 303.876 141.121 303.011 141.28C301.926 141.388 300.957 141.572 299.662 142.019C299.216 140.977 296.929 137.71 296.711 137.528C297.496 136.403 300.644 133.842 302.408 133.26C304.135 134.89 306.059 139.162 305.745 140.973ZM284.214 141.279C283.349 141.121 282.438 141.019 281.48 140.972C281.166 139.161 283.089 134.889 284.817 133.258C286.581 133.84 289.729 136.401 290.514 137.526C290.297 137.709 288.009 140.976 287.563 142.017C286.268 141.571 285.299 141.387 284.214 141.279ZM309.885 145.113C309.838 146.07 309.737 146.981 309.578 147.847C309.47 148.931 309.286 149.901 308.839 151.196C309.881 151.641 313.148 153.929 313.33 154.146C314.455 153.361 317.017 150.213 317.598 148.449C315.968 146.723 311.696 144.799 309.885 145.113ZM277.647 147.847C277.489 146.982 277.387 146.07 277.34 145.113C275.529 144.799 271.257 146.722 269.626 148.449C270.208 150.213 272.769 153.361 273.894 154.146C274.077 153.929 277.344 151.641 278.386 151.196C277.938 149.901 277.755 148.932 277.647 147.847ZM293.613 125.433C291.321 126.487 288.652 131.281 288.608 133.097L291.998 136.146C292.7 135.591 293.177 135.264 293.613 135.164C294.05 135.265 294.527 135.592 295.228 136.146L298.618 133.097C298.573 131.281 295.904 126.487 293.613 125.433ZM293.613 137.599C293.082 137.553 290.057 140.904 289.507 142.837C291.797 145.038 292.853 146.236 293.613 147.953C294.372 146.236 295.429 145.038 297.719 142.837C297.168 140.904 294.143 137.553 293.613 137.599ZM294.694 154.626C294.673 154.47 294.656 154.311 294.643 154.151C294.768 150.295 295.794 147.572 297.94 145.683C299.759 144.084 303.272 143.003 305.887 143.028C306.865 143.037 307.361 143.022 307.616 143.242C307.836 143.497 307.821 143.993 307.83 144.971C307.855 147.586 306.774 151.099 305.174 152.918C303.286 155.065 300.563 156.09 296.706 156.215C296.546 156.202 296.387 156.185 296.231 156.164L303.445 147.503L302.951 147.906L303.354 147.412L294.694 154.626ZM292.531 154.626C292.552 154.47 292.569 154.311 292.582 154.151C292.457 150.295 291.431 147.572 289.284 145.683C287.465 144.084 283.952 143.003 281.337 143.028C280.359 143.037 279.864 143.022 279.608 143.242C279.388 143.497 279.403 143.993 279.394 144.971C279.369 147.586 280.45 151.099 282.05 152.918C283.938 155.065 286.662 156.09 290.518 156.215C290.678 156.202 290.837 156.185 290.993 156.164L283.779 147.503L284.273 147.906L283.87 147.412L292.531 154.626ZM309.885 169.377C309.838 168.42 309.737 167.508 309.578 166.643C309.47 165.558 309.286 164.589 308.839 163.294C309.881 162.848 313.148 160.561 313.33 160.343C314.455 161.128 317.017 164.276 317.598 166.04C315.968 167.768 311.696 169.691 309.885 169.377ZM305.745 173.518C304.788 173.471 303.876 173.37 303.011 173.211C301.926 173.103 300.957 172.919 299.662 172.472C299.216 173.514 296.929 176.781 296.711 176.963C297.496 178.088 300.644 180.649 302.408 181.231C304.135 179.6 306.059 175.329 305.745 173.518ZM325.425 157.245C324.37 154.953 319.577 152.284 317.76 152.24L314.712 155.63C315.266 156.332 315.594 156.809 315.694 157.246C315.594 157.683 315.267 158.16 314.712 158.861L317.76 162.25C319.577 162.205 324.37 159.537 325.425 157.245ZM313.259 157.245C313.304 156.714 309.954 153.689 308.021 153.139C305.82 155.429 304.621 156.485 302.904 157.245C304.621 158.004 305.819 159.061 308.021 161.35C309.954 160.8 313.305 157.776 313.259 157.245ZM296.232 158.326C296.388 158.305 296.547 158.288 296.707 158.275C300.563 158.4 303.287 159.426 305.175 161.572C306.775 163.391 307.855 166.904 307.831 169.519C307.821 170.497 307.837 170.993 307.617 171.248C307.362 171.468 306.866 171.453 305.888 171.462C303.273 171.487 299.76 170.406 297.941 168.806C295.794 166.918 294.769 164.195 294.644 160.338C294.657 160.178 294.674 160.019 294.695 159.863L303.356 167.077L302.953 166.583L303.447 166.986L296.232 158.326ZM277.647 166.644C277.489 167.509 277.387 168.42 277.34 169.378C275.529 169.692 271.257 167.768 269.626 166.041C270.208 164.277 272.769 161.129 273.894 160.344C274.077 160.562 277.344 162.849 278.386 163.295C277.938 164.59 277.755 165.559 277.647 166.644ZM281.481 173.518C282.438 173.471 283.35 173.37 284.215 173.211C285.3 173.103 286.269 172.919 287.564 172.472C288.01 173.514 290.297 176.781 290.515 176.963C289.73 178.088 286.582 180.649 284.818 181.231C283.09 179.6 281.166 175.329 281.481 173.518ZM261.8 157.245C262.855 154.953 267.648 152.284 269.464 152.24L272.512 155.63C271.957 156.332 271.63 156.809 271.53 157.246C271.631 157.683 271.958 158.16 272.512 158.861L269.464 162.25C267.648 162.205 262.855 159.537 261.8 157.245ZM273.966 157.245C273.921 156.714 277.271 153.689 279.204 153.139C281.405 155.429 282.603 156.485 284.321 157.245C282.604 158.004 281.406 159.061 279.204 161.35C277.271 160.8 273.921 157.776 273.966 157.245ZM290.993 158.326C290.837 158.305 290.678 158.288 290.518 158.275C286.662 158.4 283.939 159.426 282.05 161.572C280.45 163.391 279.37 166.904 279.394 169.519C279.403 170.497 279.388 170.993 279.608 171.248C279.863 171.468 280.359 171.453 281.337 171.462C283.952 171.487 287.465 170.406 289.284 168.806C291.431 166.918 292.456 164.195 292.582 160.338C292.569 160.178 292.552 160.019 292.531 159.863L283.87 167.077L284.273 166.583L283.779 166.986L290.993 158.326ZM293.613 189.057C291.321 188.003 288.652 183.209 288.608 181.393L291.998 178.345C292.7 178.899 293.177 179.227 293.613 179.327C294.05 179.227 294.527 178.9 295.228 178.345L298.618 181.393C298.573 183.209 295.904 188.003 293.613 189.057ZM293.613 176.892C293.082 176.937 290.057 173.587 289.507 171.654C291.797 169.453 292.853 168.254 293.613 166.537C294.372 168.254 295.429 169.452 297.719 171.654C297.168 173.587 294.143 176.937 293.613 176.892Z" fill="#F6D58D"/>
<path fill-rule="evenodd" clip-rule="evenodd" d="M52.9551 27.801C53.0431 28.111 53.1401 28.341 53.2531 28.511L53.2561 28.515C53.2931 28.575 53.3391 28.632 53.3941 28.686C53.4481 28.741 53.5051 28.786 53.5661 28.824L53.5701 28.827C53.7411 28.94 53.9711 29.038 54.2811 29.125C54.4061 29.131 54.5311 29.137 54.6551 29.142C54.6621 29.432 54.6221 30.138 54.7411 30.703C55.2421 33.068 56.5361 35.969 58.1361 38.063C59.0041 39.199 59.4451 39.579 60.7601 39.25C61.2171 39.135 61.7531 38.821 62.1861 38.609C63.9461 42.353 65.1791 44.594 67.5661 46.604C68.2591 47.187 68.7301 47.526 69.2201 47.561C69.7111 47.526 70.1821 47.187 70.8751 46.604C73.2631 44.594 74.4961 42.353 76.2551 38.609C76.6881 38.82 77.2241 39.135 77.6811 39.25C78.9951 39.579 79.4371 39.2 80.3051 38.063C81.9041 35.969 83.1991 33.068 83.7001 30.703C83.8191 30.138 83.7791 29.432 83.7861 29.142C83.9101 29.137 84.0351 29.132 84.1601 29.125C84.4701 29.037 84.7001 28.939 84.8701 28.827L84.8741 28.824C84.9341 28.786 84.9911 28.741 85.0451 28.686C85.1001 28.632 85.1451 28.575 85.1831 28.515L85.1861 28.511C85.2991 28.34 85.3971 28.11 85.4851 27.801C85.4911 27.675 85.4971 27.551 85.5021 27.427C85.7911 27.42 86.4981 27.461 87.0621 27.341C89.4281 26.84 92.3281 25.545 94.4221 23.946C95.5581 23.078 95.9381 22.637 95.6091 21.322C95.4941 20.865 95.1801 20.329 94.9681 19.896C98.7121 18.137 100.953 16.904 102.963 14.516C103.546 13.823 103.885 13.353 103.92 12.862C103.885 12.371 103.546 11.901 102.963 11.208C100.953 8.81998 98.7121 7.58697 94.9681 5.82797C95.1791 5.39497 95.4941 4.85898 95.6091 4.40198C95.9381 3.08798 95.5591 2.64598 94.4221 1.77798C92.3281 0.178986 89.4271 -1.11604 87.0621 -1.61703C86.4971 -1.73704 85.7911 -1.69603 85.5021 -1.70303C85.4971 -1.82703 85.4921 -1.95203 85.4851 -2.07703C85.3971 -2.38703 85.2991 -2.61703 85.1861 -2.78802L85.1831 -2.79202C85.1451 -2.85302 85.1001 -2.90902 85.0451 -2.96402C84.9911 -3.01902 84.9341 -3.06401 84.8741 -3.10101L84.8701 -3.10403C84.6991 -3.21704 84.4691 -3.31504 84.1601 -3.40204C84.0351 -3.40804 83.9101 -3.41404 83.7861 -3.41904C83.7801 -3.70904 83.8201 -4.41504 83.7001 -4.98004C83.1991 -7.34604 81.9041 -10.246 80.3051 -12.34C79.4371 -13.476 78.9951 -13.856 77.6811 -13.527C77.2241 -13.412 76.6881 -13.097 76.2551 -12.886C74.4961 -16.63 73.2621 -18.871 70.8751 -20.881C70.1821 -21.464 69.7111 -21.803 69.2201 -21.838C68.7291 -21.803 68.2591 -21.464 67.5661 -20.881C65.1781 -18.871 63.9451 -16.631 62.1861 -12.886C61.7531 -13.097 61.2171 -13.412 60.7601 -13.527C59.4461 -13.856 59.0041 -13.477 58.1361 -12.34C56.5371 -10.246 55.2421 -7.34504 54.7411 -4.98004C54.6221 -4.41504 54.6621 -3.70904 54.6551 -3.41904C54.5311 -3.41404 54.4061 -3.40904 54.2811 -3.40204C53.9711 -3.31404 53.7411 -3.21704 53.5701 -3.10403L53.5661 -3.10101C53.5061 -3.06401 53.4491 -3.01802 53.3941 -2.96402C53.3391 -2.91002 53.2941 -2.85302 53.2561 -2.79202L53.2531 -2.78802C53.1401 -2.61703 53.0421 -2.38703 52.9551 -2.07703C52.9481 -1.95203 52.9431 -1.82703 52.9381 -1.70303C52.6481 -1.69603 51.9421 -1.73704 51.3771 -1.61703C49.0121 -1.11604 46.1111 0.178986 44.0171 1.77798C42.8811 2.64598 42.5011 3.08698 42.8301 4.40198C42.9451 4.85898 43.2591 5.39497 43.4701 5.82797C39.7261 7.58697 37.4851 8.81998 35.4751 11.208C34.8921 11.901 34.5531 12.372 34.5181 12.862C34.5531 13.353 34.8921 13.823 35.4751 14.516C37.4851 16.904 39.7261 18.137 43.4701 19.896C43.2591 20.329 42.9441 20.865 42.8301 21.322C42.5001 22.636 42.8801 23.078 44.0171 23.946C46.1111 25.545 49.0121 26.84 51.3771 27.341C51.9421 27.46 52.6481 27.42 52.9381 27.427C52.9431 27.551 52.9481 27.675 52.9551 27.801ZM81.3501 -3.41104C80.3931 -3.36404 79.4811 -3.26303 78.6161 -3.10403C77.5311 -2.99603 76.5621 -2.81202 75.2671 -2.36502C74.8211 -3.40702 72.5341 -6.67402 72.3171 -6.85602C73.1021 -7.98102 76.2501 -10.542 78.0141 -11.124C79.7411 -9.49302 81.6641 -5.22104 81.3501 -3.41104ZM59.8201 -3.10403C58.9551 -3.26204 58.0441 -3.36404 57.0861 -3.41104C56.7721 -5.22204 58.6951 -9.49403 60.4231 -11.125C62.1871 -10.543 65.3351 -7.98203 66.1201 -6.85703C65.9031 -6.67403 63.6151 -3.40703 63.1691 -2.36603C61.8741 -2.81203 60.9041 -2.99603 59.8201 -3.10403ZM85.4911 0.72998C85.4441 1.68698 85.3431 2.59896 85.1851 3.46396C85.0771 4.54896 84.8931 5.51796 84.4461 6.81296C85.4881 7.25896 88.7551 9.54598 88.9381 9.76398C90.0631 8.97898 92.6241 5.83099 93.2061 4.06699C91.5731 2.33899 87.3011 0.415981 85.4911 0.72998ZM53.2521 3.46396C53.0941 2.59896 52.9921 1.68798 52.9451 0.72998C51.1341 0.415981 46.8631 2.33899 45.2311 4.06699C45.8131 5.83099 48.3741 8.97898 49.4991 9.76398C49.6821 9.54698 52.9481 7.25896 53.9901 6.81296C53.5441 5.51796 53.3601 4.54796 53.2521 3.46396ZM69.2181 -18.95C66.9261 -17.896 64.2581 -13.102 64.2131 -11.285L67.6021 -8.23703C68.3041 -8.79103 68.7811 -9.11902 69.2171 -9.21902C69.6541 -9.11902 70.1311 -8.79203 70.8321 -8.23703L74.2221 -11.285C74.1791 -13.103 71.5101 -17.896 69.2181 -18.95ZM69.2181 -6.78403C68.6871 -6.82903 65.6631 -3.47902 65.1131 -1.54602C67.4031 0.65498 68.4591 1.85398 69.2181 3.56998C69.9771 1.85298 71.0341 0.65498 73.3241 -1.54602C72.7731 -3.47902 69.7491 -6.83003 69.2181 -6.78403ZM70.2991 10.243C70.2781 10.087 70.2611 9.92797 70.2481 9.76797C70.3731 5.91198 71.3981 3.18796 73.5451 1.29996C75.3641 -0.300043 78.8771 -1.38002 81.4921 -1.35602C82.4701 -1.34602 82.9651 -1.36203 83.2211 -1.14203C83.4411 -0.88703 83.4261 -0.391026 83.4351 0.586975C83.4601 3.20197 82.3791 6.71497 80.7791 8.53397C78.8911 10.681 76.1671 11.706 72.3111 11.831C72.1511 11.818 71.9921 11.801 71.8361 11.78L79.0501 3.11798L78.5561 3.52097L78.9591 3.02698L70.2991 10.243ZM68.1371 10.243C68.1581 10.087 68.1751 9.92797 68.1881 9.76797C68.0631 5.91198 67.0371 3.18796 64.8911 1.29996C63.0721 -0.300043 59.5591 -1.38002 56.9441 -1.35602C55.9661 -1.34602 55.4701 -1.36203 55.2151 -1.14203C54.9951 -0.88703 55.0101 -0.391026 55.0011 0.586975C54.9761 3.20197 56.0571 6.71497 57.6571 8.53397C59.5451 10.681 62.2681 11.706 66.1251 11.831C66.2851 11.818 66.4441 11.801 66.6001 11.78L59.3861 3.11798L59.8801 3.52097L59.4771 3.02698L68.1371 10.243ZM85.4911 24.994C85.4441 24.037 85.3431 23.125 85.1851 22.26C85.0771 21.176 84.8931 20.206 84.4461 18.911C85.4881 18.465 88.7551 16.178 88.9381 15.96C90.0631 16.745 92.6241 19.893 93.2061 21.657C91.5731 23.385 87.3011 25.308 85.4911 24.994ZM81.3501 29.135C80.3931 29.088 79.4811 28.987 78.6161 28.828C77.5311 28.72 76.5621 28.536 75.2671 28.09C74.8211 29.132 72.5341 32.398 72.3171 32.581C73.1021 33.706 76.2501 36.267 78.0141 36.849C79.7411 35.217 81.6641 30.945 81.3501 29.135ZM101.03 12.862C99.9761 10.57 95.1821 7.90196 93.3661 7.85696L90.3181 11.247C90.8731 11.949 91.2001 12.426 91.3001 12.862C91.1991 13.299 90.8721 13.776 90.3181 14.477L93.3661 17.867C95.1821 17.823 99.9761 15.153 101.03 12.862ZM88.8651 12.862C88.9101 12.331 85.5601 9.30698 83.6271 8.75598C81.4261 11.046 80.2281 12.102 78.5101 12.862C80.2271 13.621 81.4251 14.678 83.6271 16.968C85.5591 16.417 88.9101 13.393 88.8651 12.862ZM71.8381 13.943C71.9941 13.922 72.1531 13.905 72.3131 13.892C76.1691 14.017 78.8921 15.042 80.7811 17.189C82.3811 19.008 83.4611 22.521 83.4371 25.136C83.4281 26.114 83.4431 26.61 83.2231 26.865C82.9681 27.085 82.4721 27.07 81.4941 27.079C78.8791 27.104 75.3661 26.023 73.5471 24.424C71.4001 22.535 70.3751 19.812 70.2501 15.956C70.2631 15.796 70.2801 15.637 70.3011 15.481L78.9621 22.695L78.5591 22.201L79.0531 22.604L71.8381 13.943ZM53.2521 22.26C53.0941 23.125 52.9921 24.036 52.9451 24.994C51.1341 25.308 46.8631 23.385 45.2311 21.657C45.8131 19.893 48.3741 16.746 49.4991 15.96C49.6821 16.177 52.9481 18.465 53.9901 18.911C53.5441 20.206 53.3601 21.176 53.2521 22.26ZM57.0861 29.135C58.0431 29.088 58.9551 28.987 59.8201 28.828C60.9051 28.72 61.8741 28.536 63.1691 28.09C63.6151 29.132 65.9021 32.398 66.1201 32.581C65.3351 33.706 62.1871 36.267 60.4231 36.849C58.6961 35.217 56.7721 30.945 57.0861 29.135ZM37.4061 12.862C38.4601 10.57 43.2541 7.90196 45.0701 7.85696L48.1181 11.247C47.5641 11.949 47.2361 12.426 47.1361 12.862C47.2361 13.299 47.5631 13.776 48.1181 14.477L45.0701 17.867C43.2541 17.823 38.4601 15.153 37.4061 12.862ZM49.5721 12.862C49.5271 12.331 52.8771 9.30698 54.8101 8.75598C57.0111 11.046 58.2101 12.102 59.9271 12.862C58.2101 13.621 57.0111 14.678 54.8101 16.968C52.8771 16.417 49.5261 13.393 49.5721 12.862ZM66.5991 13.943C66.4431 13.922 66.2841 13.905 66.1241 13.892C62.2681 14.017 59.5441 15.042 57.6561 17.189C56.0561 19.008 54.9761 22.521 55.0001 25.136C55.0101 26.114 54.9941 26.61 55.2141 26.865C55.4691 27.085 55.9651 27.07 56.9431 27.079C59.5581 27.104 63.0711 26.023 64.8901 24.424C67.0371 22.535 68.0621 19.812 68.1871 15.956C68.1741 15.796 68.1571 15.637 68.1361 15.481L59.4751 22.695L59.8781 22.201L59.3841 22.604L66.5991 13.943ZM69.2181 44.674C66.9261 43.619 64.2581 38.826 64.2131 37.01L67.6021 33.961C68.3041 34.515 68.7811 34.843 69.2171 34.943C69.6541 34.842 70.1311 34.515 70.8321 33.961L74.2221 37.01C74.1791 38.827 71.5101 43.62 69.2181 44.674ZM69.2181 32.509C68.6871 32.554 65.6631 29.204 65.1131 27.271C67.4031 25.07 68.4591 23.872 69.2181 22.155C69.9771 23.872 71.0341 25.07 73.3241 27.271C72.7731 29.203 69.7491 32.554 69.2181 32.509Z" fill="#F6D58D"/>
<mask id="mask1_76_1899" style="mask-type:luminance" maskUnits="userSpaceOnUse" x="-268" y="-214" width="842" height="596">
<path d="M-268 -214H573.89V381.275H-268V-214Z" fill="white"/>
</mask>
<g mask="url(#mask1_76_1899)">
<path fill-rule="evenodd" clip-rule="evenodd" d="M165.204 27.801C165.292 28.111 165.389 28.341 165.502 28.511L165.505 28.515C165.542 28.575 165.588 28.632 165.643 28.686C165.697 28.741 165.754 28.786 165.814 28.824L165.818 28.827C165.989 28.94 166.219 29.038 166.529 29.125C166.655 29.131 166.779 29.137 166.903 29.142C166.91 29.432 166.869 30.138 166.989 30.703C167.49 33.068 168.785 35.969 170.384 38.063C171.252 39.199 171.694 39.579 173.008 39.25C173.465 39.135 174.001 38.821 174.434 38.609C176.193 42.353 177.427 44.594 179.814 46.604C180.507 47.187 180.978 47.526 181.469 47.561C181.96 47.526 182.43 47.187 183.123 46.604C185.511 44.594 186.744 42.353 188.503 38.609C188.936 38.82 189.472 39.135 189.929 39.25C191.243 39.579 191.685 39.2 192.553 38.063C194.152 35.969 195.447 33.068 195.948 30.703C196.067 30.138 196.027 29.432 196.034 29.142C196.158 29.137 196.283 29.132 196.408 29.125C196.718 29.037 196.948 28.939 197.119 28.827L197.123 28.824C197.184 28.786 197.24 28.741 197.295 28.686C197.35 28.632 197.395 28.575 197.432 28.515L197.435 28.511C197.548 28.34 197.646 28.11 197.733 27.801C197.74 27.675 197.745 27.551 197.75 27.427C198.039 27.42 198.746 27.461 199.311 27.341C201.676 26.84 204.577 25.545 206.671 23.946C207.807 23.078 208.187 22.637 207.858 21.322C207.743 20.865 207.429 20.329 207.218 19.896C210.962 18.137 213.202 16.904 215.213 14.516C215.796 13.823 216.135 13.353 216.17 12.862C216.135 12.371 215.796 11.901 215.213 11.208C213.203 8.81998 210.962 7.58697 207.218 5.82797C207.429 5.39497 207.744 4.85898 207.858 4.40198C208.188 3.08798 207.808 2.64598 206.671 1.77798C204.577 0.178986 201.676 -1.11604 199.311 -1.61703C198.746 -1.73704 198.04 -1.69603 197.75 -1.70303C197.745 -1.82703 197.74 -1.95203 197.733 -2.07703C197.645 -2.38703 197.547 -2.61703 197.435 -2.78802L197.432 -2.79202C197.395 -2.85302 197.349 -2.90902 197.295 -2.96402C197.241 -3.01902 197.184 -3.06401 197.123 -3.10101L197.119 -3.10403C196.948 -3.21704 196.718 -3.31504 196.408 -3.40204C196.283 -3.40804 196.158 -3.41404 196.034 -3.41904C196.027 -3.70904 196.068 -4.41504 195.948 -4.98004C195.447 -7.34604 194.153 -10.246 192.553 -12.34C191.685 -13.476 191.244 -13.856 189.929 -13.527C189.472 -13.412 188.936 -13.097 188.503 -12.886C186.744 -16.63 185.511 -18.871 183.123 -20.881C182.43 -21.464 181.959 -21.803 181.469 -21.838C180.978 -21.803 180.508 -21.464 179.814 -20.881C177.426 -18.871 176.193 -16.631 174.434 -12.886C174.001 -13.097 173.465 -13.412 173.008 -13.527C171.693 -13.856 171.252 -13.477 170.384 -12.34C168.785 -10.246 167.49 -7.34504 166.989 -4.98004C166.87 -4.41504 166.91 -3.70904 166.903 -3.41904C166.779 -3.41404 166.654 -3.40904 166.529 -3.40204C166.219 -3.31404 165.989 -3.21704 165.818 -3.10403L165.814 -3.10101C165.754 -3.06401 165.697 -3.01802 165.643 -2.96402C165.588 -2.91002 165.543 -2.85302 165.505 -2.79202L165.502 -2.78802C165.389 -2.61703 165.291 -2.38703 165.204 -2.07703C165.197 -1.95203 165.192 -1.82703 165.187 -1.70303C164.898 -1.69603 164.191 -1.73704 163.626 -1.61703C161.261 -1.11604 158.36 0.178986 156.266 1.77798C155.13 2.64598 154.75 3.08698 155.079 4.40198C155.194 4.85898 155.508 5.39497 155.72 5.82797C151.976 7.58697 149.735 8.81998 147.725 11.208C147.142 11.901 146.803 12.372 146.768 12.862C146.803 13.353 147.142 13.823 147.725 14.516C149.735 16.904 151.976 18.137 155.72 19.896C155.509 20.329 155.194 20.865 155.079 21.322C154.749 22.636 155.129 23.078 156.266 23.946C158.36 25.545 161.261 26.84 163.626 27.341C164.191 27.46 164.897 27.42 165.187 27.427C165.192 27.551 165.197 27.675 165.204 27.801ZM193.599 -3.41104C192.642 -3.36404 191.73 -3.26303 190.865 -3.10403C189.78 -2.99603 188.811 -2.81202 187.516 -2.36502C187.07 -3.40702 184.783 -6.67402 184.565 -6.85602C185.35 -7.98102 188.498 -10.542 190.262 -11.124C191.99 -9.49302 193.914 -5.22104 193.599 -3.41104ZM172.069 -3.10403C171.204 -3.26204 170.292 -3.36404 169.335 -3.41104C169.021 -5.22204 170.945 -9.49403 172.672 -11.125C174.436 -10.543 177.584 -7.98203 178.369 -6.85703C178.152 -6.67403 175.864 -3.40703 175.419 -2.36603C174.123 -2.81203 173.153 -2.99603 172.069 -3.10403ZM197.74 0.72998C197.693 1.68698 197.592 2.59896 197.433 3.46396C197.325 4.54896 197.141 5.51796 196.694 6.81296C197.736 7.25896 201.003 9.54598 201.185 9.76398C202.31 8.97898 204.871 5.83099 205.453 4.06699C203.822 2.33899 199.551 0.415981 197.74 0.72998ZM165.501 3.46396C165.343 2.59896 165.241 1.68798 165.194 0.72998C163.383 0.415981 159.111 2.33899 157.48 4.06699C158.062 5.83099 160.623 8.97898 161.748 9.76398C161.931 9.54698 165.198 7.25896 166.239 6.81296C165.793 5.51796 165.61 4.54796 165.501 3.46396ZM181.467 -18.95C179.175 -17.896 176.506 -13.102 176.462 -11.285L179.852 -8.23703C180.554 -8.79103 181.031 -9.11902 181.467 -9.21902C181.904 -9.11902 182.381 -8.79203 183.082 -8.23703L186.471 -11.285C186.428 -13.103 183.759 -17.896 181.467 -18.95ZM181.467 -6.78403C180.936 -6.82903 177.912 -3.47902 177.361 -1.54602C179.651 0.65498 180.707 1.85398 181.467 3.56998C182.226 1.85298 183.283 0.65498 185.572 -1.54602C185.023 -3.47902 181.998 -6.83003 181.467 -6.78403ZM182.549 10.243C182.528 10.087 182.511 9.92797 182.498 9.76797C182.623 5.91198 183.649 3.18796 185.795 1.29996C187.614 -0.300043 191.127 -1.38002 193.742 -1.35602C194.72 -1.34602 195.216 -1.36203 195.471 -1.14203C195.691 -0.88703 195.676 -0.391026 195.685 0.586975C195.71 3.20197 194.629 6.71497 193.029 8.53397C191.141 10.681 188.418 11.706 184.561 11.831C184.401 11.818 184.242 11.801 184.086 11.78L191.3 3.11798L190.806 3.52097L191.209 3.02698L182.549 10.243ZM180.386 10.243C180.407 10.087 180.424 9.92797 180.437 9.76797C180.312 5.91198 179.287 3.18796 177.14 1.29996C175.321 -0.300043 171.808 -1.38002 169.193 -1.35602C168.215 -1.34602 167.72 -1.36203 167.464 -1.14203C167.244 -0.88703 167.259 -0.391026 167.25 0.586975C167.225 3.20197 168.306 6.71497 169.905 8.53397C171.794 10.681 174.516 11.706 178.373 11.831C178.533 11.818 178.692 11.801 178.848 11.78L171.634 3.11798L172.128 3.52097L171.725 3.02698L180.386 10.243ZM197.74 24.994C197.693 24.037 197.592 23.125 197.433 22.26C197.325 21.176 197.141 20.206 196.694 18.911C197.736 18.465 201.003 16.178 201.185 15.96C202.31 16.745 204.871 19.893 205.453 21.657C203.822 23.385 199.551 25.308 197.74 24.994ZM193.599 29.135C192.642 29.088 191.73 28.987 190.865 28.828C189.78 28.72 188.811 28.536 187.516 28.09C187.07 29.132 184.783 32.398 184.565 32.581C185.35 33.706 188.498 36.267 190.262 36.849C191.99 35.217 193.914 30.945 193.599 29.135ZM213.279 12.862C212.225 10.57 207.431 7.90196 205.615 7.85696L202.567 11.247C203.122 11.949 203.449 12.426 203.549 12.862C203.448 13.299 203.122 13.776 202.567 14.477L205.615 17.867C207.432 17.823 212.225 15.153 213.279 12.862ZM201.114 12.862C201.159 12.331 197.809 9.30698 195.876 8.75598C193.675 11.046 192.476 12.102 190.759 12.862C192.476 13.621 193.674 14.678 195.876 16.968C197.809 16.417 201.159 13.393 201.114 12.862ZM184.087 13.943C184.243 13.922 184.402 13.905 184.562 13.892C188.418 14.017 191.141 15.042 193.03 17.189C194.63 19.008 195.71 22.521 195.686 25.136C195.677 26.114 195.692 26.61 195.472 26.865C195.217 27.085 194.721 27.07 193.743 27.079C191.128 27.104 187.615 26.023 185.796 24.424C183.649 22.535 182.624 19.812 182.499 15.956C182.512 15.796 182.529 15.637 182.55 15.481L191.211 22.695L190.808 22.201L191.302 22.604L184.087 13.943ZM165.501 22.26C165.343 23.125 165.241 24.036 165.194 24.994C163.383 25.308 159.111 23.385 157.48 21.657C158.062 19.893 160.623 16.746 161.748 15.96C161.931 16.177 165.198 18.465 166.239 18.911C165.793 20.206 165.61 21.176 165.501 22.26ZM169.335 29.135C170.292 29.088 171.204 28.987 172.069 28.828C173.153 28.72 174.123 28.536 175.418 28.09C175.864 29.132 178.151 32.398 178.368 32.581C177.583 33.706 174.435 36.267 172.671 36.849C170.945 35.217 169.021 30.945 169.335 29.135ZM149.655 12.862C150.709 10.57 155.503 7.90196 157.319 7.85696L160.367 11.247C159.813 11.949 159.485 12.426 159.385 12.862C159.486 13.299 159.813 13.776 160.367 14.477L157.319 17.867C155.503 17.823 150.709 15.153 149.655 12.862ZM161.821 12.862C161.776 12.331 165.126 9.30698 167.059 8.75598C169.26 11.046 170.458 12.102 172.175 12.862C170.458 13.621 169.26 14.678 167.059 16.968C165.126 16.417 161.775 13.393 161.821 12.862ZM178.848 13.943C178.692 13.922 178.533 13.905 178.373 13.892C174.517 14.017 171.794 15.042 169.905 17.189C168.306 19.008 167.225 22.521 167.25 25.136C167.259 26.114 167.244 26.61 167.464 26.865C167.719 27.085 168.215 27.07 169.193 27.079C171.808 27.104 175.321 26.023 177.14 24.424C179.287 22.535 180.312 19.812 180.437 15.956C180.424 15.796 180.407 15.637 180.386 15.481L171.725 22.695L172.128 22.201L171.634 22.604L178.848 13.943ZM181.467 44.674C179.175 43.619 176.506 38.826 176.462 37.01L179.852 33.961C180.554 34.515 181.031 34.843 181.467 34.943C181.904 34.842 182.381 34.515 183.082 33.961L186.471 37.01C186.428 38.827 183.759 43.62 181.467 44.674ZM181.467 32.509C180.936 32.554 177.912 29.204 177.361 27.271C179.651 25.07 180.707 23.872 181.467 22.155C182.226 23.872 183.283 25.07 185.572 27.271C185.023 29.203 181.998 32.554 181.467 32.509Z" fill="#F6D58D"/>
</g>
<path fill-rule="evenodd" clip-rule="evenodd" d="M277.349 27.801C277.437 28.111 277.535 28.341 277.648 28.511L277.651 28.515C277.689 28.575 277.734 28.632 277.789 28.686C277.843 28.741 277.9 28.786 277.961 28.824L277.965 28.827C278.136 28.94 278.366 29.038 278.675 29.125C278.801 29.131 278.925 29.137 279.049 29.142C279.055 29.432 279.015 30.138 279.135 30.703C279.636 33.068 280.931 35.969 282.53 38.063C283.398 39.199 283.839 39.579 285.154 39.25C285.611 39.135 286.147 38.821 286.58 38.609C288.339 42.353 289.573 44.594 291.96 46.604C292.653 47.187 293.123 47.526 293.614 47.561C294.105 47.526 294.575 47.187 295.268 46.604C297.656 44.594 298.889 42.353 300.648 38.609C301.081 38.82 301.617 39.135 302.074 39.25C303.388 39.579 303.83 39.2 304.698 38.063C306.297 35.969 307.592 33.068 308.093 30.703C308.213 30.138 308.172 29.432 308.179 29.142C308.303 29.137 308.428 29.132 308.553 29.125C308.863 29.037 309.093 28.939 309.264 28.827L309.268 28.824C309.329 28.786 309.385 28.741 309.44 28.686C309.495 28.632 309.54 28.575 309.578 28.515L309.581 28.511C309.694 28.34 309.792 28.11 309.879 27.801C309.886 27.675 309.891 27.551 309.896 27.427C310.186 27.42 310.892 27.461 311.457 27.341C313.822 26.84 316.723 25.545 318.817 23.946C319.953 23.078 320.333 22.637 320.004 21.322C319.889 20.865 319.575 20.329 319.363 19.896C323.107 18.137 325.348 16.904 327.358 14.516C327.941 13.823 328.28 13.353 328.315 12.862C328.28 12.371 327.941 11.901 327.358 11.208C325.348 8.81998 323.107 7.58697 319.363 5.82797C319.574 5.39497 319.889 4.85898 320.004 4.40198C320.333 3.08798 319.953 2.64598 318.817 1.77798C316.723 0.178986 313.822 -1.11604 311.457 -1.61703C310.892 -1.73704 310.186 -1.69603 309.896 -1.70303C309.891 -1.82703 309.886 -1.95203 309.879 -2.07703C309.792 -2.38703 309.694 -2.61703 309.581 -2.78802L309.578 -2.79202C309.541 -2.85302 309.495 -2.90902 309.44 -2.96402C309.386 -3.01902 309.329 -3.06401 309.268 -3.10101L309.264 -3.10403C309.093 -3.21704 308.863 -3.31504 308.553 -3.40204C308.428 -3.40804 308.303 -3.41404 308.179 -3.41904C308.172 -3.70904 308.213 -4.41504 308.093 -4.98004C307.592 -7.34604 306.298 -10.246 304.698 -12.34C303.83 -13.476 303.389 -13.856 302.074 -13.527C301.617 -13.412 301.081 -13.097 300.648 -12.886C298.889 -16.63 297.655 -18.871 295.268 -20.881C294.575 -21.464 294.104 -21.803 293.614 -21.838C293.123 -21.803 292.652 -21.464 291.96 -20.881C289.572 -18.871 288.339 -16.631 286.58 -12.886C286.147 -13.097 285.611 -13.412 285.154 -13.527C283.84 -13.856 283.398 -13.477 282.53 -12.34C280.931 -10.246 279.636 -7.34504 279.135 -4.98004C279.016 -4.41504 279.056 -3.70904 279.049 -3.41904C278.925 -3.41404 278.8 -3.40904 278.675 -3.40204C278.365 -3.31404 278.135 -3.21704 277.965 -3.10403L277.961 -3.10101C277.9 -3.06401 277.843 -3.01802 277.789 -2.96402C277.734 -2.91002 277.689 -2.85302 277.651 -2.79202L277.648 -2.78802C277.535 -2.61703 277.437 -2.38703 277.349 -2.07703C277.343 -1.95203 277.337 -1.82703 277.333 -1.70303C277.043 -1.69603 276.337 -1.73704 275.772 -1.61703C273.407 -1.11604 270.506 0.178986 268.412 1.77798C267.276 2.64598 266.896 3.08698 267.225 4.40198C267.34 4.85898 267.654 5.39497 267.866 5.82797C264.122 7.58697 261.881 8.81998 259.871 11.208C259.288 11.901 258.949 12.372 258.914 12.862C258.949 13.353 259.288 13.823 259.871 14.516C261.881 16.904 264.122 18.137 267.866 19.896C267.655 20.329 267.34 20.865 267.225 21.322C266.896 22.636 267.275 23.078 268.412 23.946C270.506 25.545 273.407 26.84 275.772 27.341C276.337 27.46 277.043 27.42 277.333 27.427C277.337 27.551 277.343 27.675 277.349 27.801ZM305.745 -3.41104C304.788 -3.36404 303.876 -3.26303 303.011 -3.10403C301.926 -2.99603 300.957 -2.81202 299.662 -2.36502C299.216 -3.40702 296.929 -6.67402 296.711 -6.85602C297.496 -7.98102 300.644 -10.542 302.408 -11.124C304.135 -9.49302 306.059 -5.22104 305.745 -3.41104ZM284.214 -3.10403C283.349 -3.26204 282.438 -3.36404 281.48 -3.41104C281.166 -5.22204 283.089 -9.49403 284.817 -11.125C286.581 -10.543 289.729 -7.98203 290.514 -6.85703C290.297 -6.67403 288.009 -3.40703 287.563 -2.36603C286.268 -2.81203 285.299 -2.99603 284.214 -3.10403ZM309.885 0.72998C309.838 1.68698 309.737 2.59896 309.578 3.46396C309.47 4.54896 309.286 5.51796 308.839 6.81296C309.881 7.25896 313.148 9.54598 313.33 9.76398C314.455 8.97898 317.017 5.83099 317.598 4.06699C315.968 2.33899 311.696 0.415981 309.885 0.72998ZM277.647 3.46396C277.489 2.59896 277.387 1.68798 277.34 0.72998C275.529 0.415981 271.257 2.33899 269.626 4.06699C270.208 5.83099 272.769 8.97898 273.894 9.76398C274.077 9.54698 277.344 7.25896 278.386 6.81296C277.938 5.51796 277.755 4.54796 277.647 3.46396ZM293.613 -18.95C291.321 -17.896 288.652 -13.102 288.608 -11.285L291.998 -8.23703C292.7 -8.79103 293.177 -9.11902 293.613 -9.21902C294.05 -9.11902 294.527 -8.79203 295.228 -8.23703L298.618 -11.285C298.573 -13.103 295.904 -17.896 293.613 -18.95ZM293.613 -6.78403C293.082 -6.82903 290.057 -3.47902 289.507 -1.54602C291.797 0.65498 292.853 1.85398 293.613 3.56998C294.372 1.85298 295.429 0.65498 297.719 -1.54602C297.168 -3.47902 294.143 -6.83003 293.613 -6.78403ZM294.694 10.243C294.673 10.087 294.656 9.92797 294.643 9.76797C294.768 5.91198 295.794 3.18796 297.94 1.29996C299.759 -0.300043 303.272 -1.38002 305.887 -1.35602C306.865 -1.34602 307.361 -1.36203 307.616 -1.14203C307.836 -0.88703 307.821 -0.391026 307.83 0.586975C307.855 3.20197 306.774 6.71497 305.174 8.53397C303.286 10.681 300.563 11.706 296.706 11.831C296.546 11.818 296.387 11.801 296.231 11.78L303.445 3.11798L302.951 3.52097L303.354 3.02698L294.694 10.243ZM292.531 10.243C292.552 10.087 292.569 9.92797 292.582 9.76797C292.457 5.91198 291.431 3.18796 289.284 1.29996C287.465 -0.300043 283.952 -1.38002 281.337 -1.35602C280.359 -1.34602 279.864 -1.36203 279.608 -1.14203C279.388 -0.88703 279.403 -0.391026 279.394 0.586975C279.369 3.20197 280.45 6.71497 282.05 8.53397C283.938 10.681 286.662 11.706 290.518 11.831C290.678 11.818 290.837 11.801 290.993 11.78L283.779 3.11798L284.273 3.52097L283.87 3.02698L292.531 10.243ZM309.885 24.994C309.838 24.037 309.737 23.125 309.578 22.26C309.47 21.176 309.286 20.206 308.839 18.911C309.881 18.465 313.148 16.178 313.33 15.96C314.455 16.745 317.017 19.893 317.598 21.657C315.968 23.385 311.696 25.308 309.885 24.994ZM305.745 29.135C304.788 29.088 303.876 28.987 303.011 28.828C301.926 28.72 300.957 28.536 299.662 28.09C299.216 29.132 296.929 32.398 296.711 32.581C297.496 33.706 300.644 36.267 302.408 36.849C304.135 35.217 306.059 30.945 305.745 29.135ZM325.425 12.862C324.37 10.57 319.577 7.90196 317.76 7.85696L314.712 11.247C315.266 11.949 315.594 12.426 315.694 12.862C315.594 13.299 315.267 13.776 314.712 14.477L317.76 17.867C319.577 17.823 324.37 15.153 325.425 12.862ZM313.259 12.862C313.304 12.331 309.954 9.30698 308.021 8.75598C305.82 11.046 304.621 12.102 302.904 12.862C304.621 13.621 305.819 14.678 308.021 16.968C309.954 16.417 313.305 13.393 313.259 12.862ZM296.232 13.943C296.388 13.922 296.547 13.905 296.707 13.892C300.563 14.017 303.287 15.042 305.175 17.189C306.775 19.008 307.855 22.521 307.831 25.136C307.821 26.114 307.837 26.61 307.617 26.865C307.362 27.085 306.866 27.07 305.888 27.079C303.273 27.104 299.76 26.023 297.941 24.424C295.794 22.535 294.769 19.812 294.644 15.956C294.657 15.796 294.674 15.637 294.695 15.481L303.356 22.695L302.953 22.201L303.447 22.604L296.232 13.943ZM277.647 22.26C277.489 23.125 277.387 24.036 277.34 24.994C275.529 25.308 271.257 23.385 269.626 21.657C270.208 19.893 272.769 16.746 273.894 15.96C274.077 16.177 277.344 18.465 278.386 18.911C277.938 20.206 277.755 21.176 277.647 22.26ZM281.481 29.135C282.438 29.088 283.35 28.987 284.215 28.828C285.3 28.72 286.269 28.536 287.564 28.09C288.01 29.132 290.297 32.398 290.515 32.581C289.73 33.706 286.582 36.267 284.818 36.849C283.09 35.217 281.166 30.945 281.481 29.135ZM261.8 12.862C262.855 10.57 267.648 7.90196 269.464 7.85696L272.512 11.247C271.957 11.949 271.63 12.426 271.53 12.862C271.631 13.299 271.958 13.776 272.512 14.477L269.464 17.867C267.648 17.823 262.855 15.153 261.8 12.862ZM273.966 12.862C273.921 12.331 277.271 9.30698 279.204 8.75598C281.405 11.046 282.603 12.102 284.321 12.862C282.604 13.621 281.406 14.678 279.204 16.968C277.271 16.417 273.921 13.393 273.966 12.862ZM290.993 13.943C290.837 13.922 290.678 13.905 290.518 13.892C286.662 14.017 283.939 15.042 282.05 17.189C280.45 19.008 279.37 22.521 279.394 25.136C279.403 26.114 279.388 26.61 279.608 26.865C279.863 27.085 280.359 27.07 281.337 27.079C283.952 27.104 287.465 26.023 289.284 24.424C291.431 22.535 292.456 19.812 292.582 15.956C292.569 15.796 292.552 15.637 292.531 15.481L283.87 22.695L284.273 22.201L283.779 22.604L290.993 13.943ZM293.613 44.674C291.321 43.619 288.652 38.826 288.608 37.01L291.998 33.961C292.7 34.515 293.177 34.843 293.613 34.943C294.05 34.842 294.527 34.515 295.228 33.961L298.618 37.01C298.573 38.827 295.904 43.62 293.613 44.674ZM293.613 32.509C293.082 32.554 290.057 29.204 289.507 27.271C291.797 25.07 292.853 23.872 293.613 22.155C294.372 23.872 295.429 25.07 297.719 27.271C297.168 29.203 294.143 32.554 293.613 32.509Z" fill="#F6D58D"/>
</svg>
