<svg width="48" height="48" viewBox="0 0 48 48" fill="none" xmlns="http://www.w3.org/2000/svg">
<path fill-rule="evenodd" clip-rule="evenodd" d="M-189.368 -127.725H234.918V172.275H-189.368V-127.725Z" fill="#3C1D02"/>
<path fill-rule="evenodd" clip-rule="evenodd" d="M34.9223 -1.68472L36.5597 0.13611C37.5354 0.112423 40.1101 -1.32137 40.6766 -2.55206C40.1101 -3.78325 37.5354 -5.21654 36.5597 -5.24073L34.9223 -3.41989C35.2201 -3.04292 35.396 -2.7864 35.4499 -2.55206C35.396 -2.31771 35.2201 -2.06169 34.9223 -1.68472ZM22.1814 -1.97148L18.3064 2.68115L23.0412 -1.18176C23.0175 1.04477 22.4702 2.5975 21.2637 3.65885C20.2865 4.51812 18.3992 5.09869 16.9951 5.08509C15.9423 5.07501 15.9297 5.11785 15.9131 4.09025C15.8823 2.21347 16.2276 0.90366 17.2758 -0.328041C18.3256 -1.56125 20.4952 -2.19726 22.1814 -1.97148ZM23.0075 -3.95964L18.3548 -7.83466L22.2177 -3.09987C19.9912 -3.12355 18.4385 -3.67086 17.3771 -4.87736C16.5179 -5.85405 15.9373 -7.74192 15.9504 -9.14649C15.9605 -10.1993 15.9176 -10.2119 16.9452 -10.2285C18.822 -10.2592 20.1318 -9.91404 21.364 -8.86528C22.5977 -7.81501 23.2337 -5.64592 23.0075 -3.95964ZM24.1691 -3.95964L28.8217 -7.83466L24.9588 -3.09987C27.1859 -3.12355 28.7381 -3.67086 29.7994 -4.87736C30.6587 -5.85405 31.2393 -7.74192 31.2262 -9.14649C31.2161 -10.1993 31.2589 -10.2119 30.2313 -10.2285C28.3546 -10.2592 27.0447 -9.91404 25.813 -8.86528C24.5793 -7.81501 23.9433 -5.64592 24.1691 -3.95964ZM24.9956 -1.97148L28.8706 2.68115L24.1358 -1.18176C24.1595 1.04477 24.7063 2.5975 25.9133 3.65885C26.89 4.51812 28.7774 5.09869 30.1819 5.08509C31.2347 5.07501 31.2474 5.11785 31.264 4.09025C31.2947 2.21347 30.9495 0.90366 29.9012 -0.328041C28.8515 -1.56125 26.6819 -2.19726 24.9956 -1.97148ZM20.3389 5.62685C19.1385 6.04111 18.4592 6.03456 17.0843 6.12477C16.856 7.05712 17.9153 9.43585 18.8638 10.3324C19.8113 10.0194 21.5021 8.64411 21.9239 8.03985C21.807 7.94158 20.5783 6.18676 20.3389 5.62685ZM15.4091 -5.80165C14.9949 -7.0021 15.0019 -7.68095 14.9112 -9.05628C13.9789 -9.28458 11.6001 -8.22523 10.7036 -7.27677C11.016 -6.3293 12.3919 -4.63849 12.9961 -4.21666C13.0944 -4.33359 14.8492 -5.56226 15.4091 -5.80165ZM23.5885 2.43874C23.9962 3.36101 24.5642 4.00458 25.7939 5.18739C25.4986 6.22557 23.8738 8.02524 23.5885 8.00105C23.3033 8.02524 21.6785 6.22557 21.3832 5.18739C22.6128 4.00458 23.1803 3.36101 23.5885 2.43874ZM18.5972 -2.55206C17.675 -2.14435 17.0314 -1.57688 15.8491 -0.346689C14.8109 -0.642014 13.0112 -2.26681 13.0354 -2.55206C13.0112 -2.83731 14.8109 -4.4621 15.8491 -4.75742C17.0314 -3.52774 17.6745 -2.96027 18.5972 -2.55206ZM26.8376 5.62685C28.0381 6.04111 28.7174 6.03456 30.0923 6.12477C30.3205 7.05712 29.2612 9.43585 28.3127 10.3324C27.3653 10.0194 25.6744 8.64411 25.2526 8.03985C25.3695 7.94158 26.5982 6.18676 26.8376 5.62685ZM15.4091 0.697031C14.9949 1.89748 15.0019 2.57683 14.9112 3.95166C13.9789 4.17995 11.6001 3.12112 10.7036 2.17215C11.016 1.22469 12.3919 -0.466131 12.9961 -0.887953C13.0944 -0.771032 14.8492 0.457645 15.4091 0.697031ZM24.4564 8.78169L26.2772 10.4191C26.2535 11.3948 24.8197 13.9701 23.589 14.536C22.3578 13.9695 20.9245 11.3948 20.9004 10.4191L22.7212 8.78169C23.0982 9.07954 23.3547 9.25492 23.589 9.30935C23.8229 9.25492 24.0794 9.07954 24.4564 8.78169ZM12.2543 -1.68472L10.6169 0.13611C9.64121 0.112423 7.06593 -1.32137 6.49997 -2.55206C7.06643 -3.78325 9.64121 -5.21654 10.6169 -5.24073L12.2543 -3.41989C11.9564 -3.04292 11.781 -2.7864 11.7266 -2.55206C11.781 -2.31771 11.9569 -2.06169 12.2543 -1.68472ZM20.3389 -10.732C19.1385 -11.1462 18.4592 -11.1392 17.0843 -11.2299C16.856 -12.1622 17.9153 -14.541 18.8638 -15.4375C19.8113 -15.1251 21.5021 -13.7492 21.9239 -13.145C21.807 -13.0462 20.5783 -11.2914 20.3389 -10.732ZM31.768 -5.80165C32.1822 -7.0021 32.1757 -7.68095 32.2659 -9.05628C33.1982 -9.28458 35.5769 -8.22523 36.4735 -7.27677C36.1605 -6.3293 34.7852 -4.63849 34.1804 -4.21666C34.0822 -4.33359 32.3279 -5.56226 31.768 -5.80165ZM23.5885 -7.54336C23.9962 -8.46613 24.5642 -9.1092 25.7939 -10.292C25.4986 -11.3307 23.8738 -13.1299 23.5885 -13.1057C23.3033 -13.1299 21.6785 -11.3302 21.3832 -10.292C22.6128 -9.1097 23.1803 -8.46613 23.5885 -7.54336ZM28.5793 -2.55206C29.5016 -2.14435 30.1457 -1.57688 31.328 -0.346689C32.3662 -0.642014 34.1663 -2.26681 34.1416 -2.55206C34.1658 -2.83731 32.3662 -4.4621 31.328 -4.75742C30.1457 -3.52774 29.5021 -2.96027 28.5793 -2.55206ZM26.8376 -10.732C28.0381 -11.1462 28.7174 -11.1392 30.0923 -11.2299C30.3205 -12.1622 29.2612 -14.541 28.3127 -15.4375C27.3653 -15.1251 25.6744 -13.7492 25.2526 -13.145C25.3695 -13.0462 26.5982 -11.2914 26.8376 -10.732ZM31.768 0.697031C32.1822 1.89748 32.1757 2.57683 32.2659 3.95166C33.1982 4.17995 35.5769 3.12112 36.4735 2.17215C36.1605 1.22469 34.7852 -0.466131 34.1804 -0.887953C34.0822 -0.771032 32.3279 0.457645 31.768 0.697031ZM24.4564 -13.8863L26.2772 -15.5237C26.2535 -16.4994 24.8197 -19.0742 23.589 -19.6406C22.3578 -19.0742 20.9245 -16.4994 20.9004 -15.5237L22.7212 -13.8863C23.0982 -14.1842 23.3547 -14.36 23.589 -14.414C23.8229 -14.36 24.0794 -14.1842 24.4564 -13.8863Z" fill="#4A2706"/>
<path fill-rule="evenodd" clip-rule="evenodd" d="M11.7876 22.8036L13.425 24.6244C14.4006 24.6007 16.9759 23.1669 17.5419 21.9357C16.9754 20.705 14.4006 19.2712 13.425 19.247L11.7876 21.0679C12.0854 21.4449 12.2613 21.7009 12.3152 21.9352C12.2613 22.1706 12.0854 22.4266 11.7876 22.8036ZM-0.95325 22.5168L-4.82828 27.1694L-0.093483 23.306C-0.117168 25.533 -0.664468 27.0853 -1.87097 28.1466C-2.84766 29.0059 -4.73504 29.5865 -6.1396 29.5729C-7.19239 29.5628 -7.20498 29.6056 -7.22161 28.578C-7.25235 26.7012 -6.90715 25.3914 -5.85839 24.1592C-4.80913 22.9265 -2.63953 22.2905 -0.95325 22.5168ZM-0.127256 20.5286L-4.77989 16.6536L-0.916461 21.3884C-3.1435 21.3647 -4.69574 20.8179 -5.7571 19.6109C-6.61637 18.6337 -7.19692 16.7469 -7.18331 15.3423C-7.17323 14.2895 -7.21607 14.2774 -6.18848 14.2603C-4.3117 14.2295 -3.00138 14.5748 -1.76968 15.6235C-0.537474 16.6728 0.0985222 18.8424 -0.127256 20.5286ZM1.03439 20.5286L5.68702 16.6536L1.82362 21.3884C4.05066 21.3647 5.60287 20.8179 6.66423 19.6109C7.5235 18.6337 8.10408 16.7469 8.09047 15.3423C8.08039 14.2895 8.12374 14.2774 7.09564 14.2603C5.21886 14.2295 3.90904 14.5748 2.67684 15.6235C1.44464 16.6728 0.808609 18.8424 1.03439 20.5286ZM1.8609 22.5168L5.73593 27.1694L1.00114 23.306C1.02482 25.533 1.57212 27.0853 2.77862 28.1466C3.75582 29.0059 5.64269 29.5865 7.04725 29.5729C8.10004 29.5628 8.11263 29.6056 8.12926 28.578C8.16 26.7012 7.81478 25.3914 6.76602 24.1592C5.71625 22.9265 3.54718 22.2905 1.8609 22.5168ZM-2.79576 30.1151C-3.99622 30.5294 -4.67557 30.5228 -6.0504 30.6131C-6.27869 31.5454 -5.21985 33.9241 -4.27088 34.8207C-3.32342 34.5082 -1.63259 33.1324 -1.21077 32.5281C-1.32769 32.4299 -2.55638 30.675 -2.79576 30.1151ZM-7.72558 18.6861C-8.13984 17.4857 -8.1328 16.8068 -8.22352 15.432C-9.15586 15.2032 -11.5346 16.2625 -12.4311 17.211C-12.1182 18.1585 -10.7428 19.8493 -10.1386 20.2711C-10.0403 20.1547 -8.28549 18.9255 -7.72558 18.6861ZM0.453827 26.927C0.861538 27.8493 1.429 28.4929 2.65918 29.6757C2.36386 30.7139 0.739073 32.5135 0.453827 32.4893C0.168581 32.514 -1.4562 30.7139 -1.75153 29.6757C-0.521845 28.4929 0.0456123 27.8493 0.453827 26.927ZM-4.53748 21.9357C-5.45974 22.3439 -6.10333 22.9114 -7.28614 24.1411C-8.32432 23.8453 -10.124 22.221 -10.0998 21.9357C-10.1245 21.6505 -8.32482 20.0262 -7.28614 19.7304C-6.10333 20.9605 -5.45974 21.528 -4.53748 21.9357ZM3.70292 30.1151C4.90338 30.5294 5.5827 30.5228 6.95753 30.6131C7.18583 31.5454 6.12651 33.9241 5.17804 34.8207C4.23058 34.5082 2.53975 33.1324 2.11793 32.5281C2.23485 32.4299 3.46354 30.675 3.70292 30.1151ZM-7.72558 25.1853C-8.13984 26.3858 -8.1328 27.0646 -8.22352 28.4399C-9.15586 28.6682 -11.5346 27.6094 -12.4311 26.6604C-12.1182 25.713 -10.7428 24.0222 -10.1386 23.6003C-10.0403 23.7172 -8.28549 24.9459 -7.72558 25.1853ZM1.32165 33.27L3.14251 34.9074C3.11832 35.8831 1.68502 38.4583 0.453827 39.0243C-0.776865 38.4583 -2.21067 35.8831 -2.23486 34.9074L-0.414 33.27C-0.0370312 33.5678 0.218977 33.7432 0.453827 33.7976C0.688171 33.7432 0.944685 33.5673 1.32165 33.27ZM-10.8799 22.8036L-12.5173 24.6244C-13.493 24.6007 -16.0678 23.1669 -16.6342 21.9357C-16.0678 20.705 -13.493 19.2712 -12.5173 19.247L-10.8799 21.0679C-11.1778 21.4449 -11.3537 21.7009 -11.4076 21.9352C-11.3537 22.1706 -11.1778 22.4266 -10.8799 22.8036ZM-2.79576 13.7563C-3.99622 13.342 -4.67557 13.3486 -6.0504 13.2584C-6.27869 12.326 -5.21985 9.94731 -4.27088 9.05075C-3.32342 9.36321 -1.63259 10.7391 -1.21077 11.3438C-1.32769 11.4421 -2.55638 13.1969 -2.79576 13.7563ZM8.63323 18.6861C9.04749 17.4857 9.04045 16.8068 9.13117 15.432C10.0635 15.2032 12.4422 16.2625 13.3388 17.211C13.0263 18.1585 11.6505 19.8493 11.0462 20.2711C10.948 20.1547 9.19263 18.9255 8.63323 18.6861ZM0.453827 16.9444C0.861538 16.0222 1.429 15.3786 2.65918 14.1963C2.36386 13.1581 0.739073 11.3584 0.453827 11.3826C0.168581 11.3579 -1.4562 13.1576 -1.75153 14.1963C-0.521845 15.3786 0.0456123 16.0222 0.453827 16.9444ZM5.44513 21.9357C6.36739 22.3439 7.01095 22.9114 8.19376 24.1411C9.23194 23.8453 11.0316 22.221 11.0074 21.9357C11.0316 21.6505 9.23194 20.0262 8.19376 19.7304C7.01095 20.9605 6.36739 21.528 5.44513 21.9357ZM3.70292 13.7563C4.90338 13.342 5.5827 13.3486 6.95753 13.2584C7.18583 12.326 6.12651 9.94731 5.17804 9.05075C4.23058 9.36321 2.53975 10.7391 2.11793 11.3438C2.23485 11.4421 3.46354 13.1969 3.70292 13.7563ZM8.63323 25.1853C9.04749 26.3858 9.04045 27.0646 9.13117 28.4399C10.0635 28.6682 12.4422 27.6094 13.3388 26.6604C13.0263 25.713 11.6505 24.0222 11.0462 23.6003C10.948 23.7172 9.19263 24.9459 8.63323 25.1853ZM1.32165 10.602L3.14251 8.96457C3.11832 7.98889 1.68502 5.41361 0.453827 4.84766C-0.776865 5.41412 -2.21067 7.98889 -2.23486 8.96457L-0.414 10.602C-0.0370312 10.3041 0.218977 10.1282 0.453827 10.0743C0.688171 10.1282 0.944685 10.3041 1.32165 10.602Z" fill="#4A2706"/>
<path fill-rule="evenodd" clip-rule="evenodd" d="M34.9223 47.682L36.5597 49.5028C37.5354 49.4786 40.1101 48.0453 40.6766 46.8141C40.1101 45.5835 37.5354 44.1497 36.5597 44.126L34.9223 45.9468C35.2201 46.3238 35.396 46.5798 35.4499 46.8146C35.396 47.0485 35.2201 47.305 34.9223 47.682ZM22.1814 47.3947L18.3064 52.0474L23.0412 48.1839C23.0175 50.411 22.4702 51.9632 21.2637 53.0246C20.2865 53.8838 18.3992 54.4644 16.9951 54.4508C15.9423 54.4407 15.9297 54.4835 15.9131 53.456C15.8823 51.5797 16.2276 50.2694 17.2758 49.0377C18.3256 47.8049 20.4952 47.1694 22.1814 47.3947ZM23.0075 45.4071L18.3548 41.5321L22.2177 46.2668C19.9912 46.2431 18.4385 45.6963 17.3771 44.4893C16.5179 43.5126 15.9373 41.6253 15.9504 40.2207C15.9605 39.1679 15.9176 39.1553 16.9452 39.1387C18.822 39.108 20.1318 39.4532 21.364 40.5019C22.5977 41.5512 23.2337 43.7208 23.0075 45.4071ZM24.1691 45.4071L28.8217 41.5321L24.9588 46.2668C27.1859 46.2431 28.7381 45.6963 29.7994 44.4893C30.6587 43.5126 31.2393 41.6253 31.2262 40.2207C31.2161 39.1679 31.2589 39.1553 30.2313 39.1387C28.3546 39.108 27.0447 39.4532 25.813 40.5019C24.5793 41.5512 23.9433 43.7208 24.1691 45.4071ZM24.9956 47.3947L28.8706 52.0474L24.1358 48.1839C24.1595 50.411 24.7063 51.9632 25.9133 53.0246C26.89 53.8838 28.7774 54.4644 30.1819 54.4508C31.2347 54.4407 31.2474 54.4835 31.264 53.456C31.2947 51.5797 30.9495 50.2694 29.9012 49.0377C28.8515 47.8049 26.6819 47.1694 24.9956 47.3947ZM20.3389 54.9936C19.1385 55.4078 18.4592 55.4008 17.0843 55.4915C16.856 56.4238 17.9153 58.8031 18.8638 59.6991C19.8113 59.3861 21.5021 58.0108 21.9239 57.4061C21.807 57.3083 20.5783 55.5535 20.3389 54.9936ZM15.4091 43.5651C14.9949 42.3646 15.0019 41.6853 14.9112 40.3104C13.9789 40.0821 11.6001 41.1415 10.7036 42.0899C11.016 43.0374 12.3919 44.7282 12.9961 45.15C13.0944 45.0331 14.8492 43.8039 15.4091 43.5651ZM23.5885 51.8055C23.9962 52.7277 24.5642 53.3713 25.7939 54.5541C25.4986 55.5923 23.8738 57.3919 23.5885 57.3678C23.3033 57.3919 21.6785 55.5923 21.3832 54.5541C22.6128 53.3713 23.1803 52.7277 23.5885 51.8055ZM18.5972 46.8141C17.675 47.2219 17.0314 47.7898 15.8491 49.0195C14.8109 48.7242 13.0112 47.0994 13.0354 46.8141C13.0112 46.5289 14.8109 44.9046 15.8491 44.6093C17.0314 45.8385 17.6745 46.4064 18.5972 46.8141ZM26.8376 54.9936C28.0381 55.4078 28.7174 55.4008 30.0923 55.4915C30.3205 56.4238 29.2612 58.8031 28.3127 59.6991C27.3653 59.3861 25.6744 58.0108 25.2526 57.4061C25.3695 57.3083 26.5982 55.5535 26.8376 54.9936ZM15.4091 50.0637C14.9949 51.2637 15.0019 51.943 14.9112 53.3184C13.9789 53.5467 11.6001 52.4873 10.7036 51.5389C11.016 50.5914 12.3919 48.9006 12.9961 48.4788C13.0944 48.5957 14.8492 49.8244 15.4091 50.0637ZM24.4564 58.1479L26.2772 59.7853C26.2535 60.7615 24.8197 63.3363 23.589 63.9022C22.3578 63.3358 20.9245 60.761 20.9004 59.7853L22.7212 58.1479C23.0982 58.4457 23.3547 58.6216 23.589 58.6756C23.8229 58.6216 24.0794 58.4457 24.4564 58.1479ZM12.2543 47.682L10.6169 49.5028C9.64121 49.4786 7.06593 48.0453 6.49997 46.8141C7.06643 45.5835 9.64121 44.1497 10.6169 44.126L12.2543 45.9468C11.9564 46.3238 11.781 46.5798 11.7266 46.8146C11.781 47.0485 11.9569 47.305 12.2543 47.682ZM20.3389 38.6347C19.1385 38.2205 18.4592 38.2275 17.0843 38.1368C16.856 37.2045 17.9153 34.8257 18.8638 33.9292C19.8113 34.2416 21.5021 35.6175 21.9239 36.2217C21.807 36.32 20.5783 38.0748 20.3389 38.6347ZM31.768 43.5651C32.1822 42.3646 32.1757 41.6853 32.2659 40.3104C33.1982 40.0821 35.5769 41.1415 36.4735 42.0899C36.1605 43.0374 34.7852 44.7282 34.1804 45.15C34.0822 45.0331 32.3279 43.8039 31.768 43.5651ZM23.5885 41.8228C23.9962 40.9006 24.5642 40.257 25.7939 39.0742C25.4986 38.036 23.8738 36.2363 23.5885 36.2605C23.3033 36.2358 21.6785 38.0355 21.3832 39.0742C22.6128 40.257 23.1803 40.9006 23.5885 41.8228ZM28.5793 46.8141C29.5016 47.2219 30.1457 47.7898 31.328 49.0195C32.3662 48.7242 34.1663 47.0994 34.1416 46.8141C34.1658 46.5289 32.3662 44.9046 31.328 44.6093C30.1457 45.8385 29.5021 46.4064 28.5793 46.8141ZM26.8376 38.6347C28.0381 38.2205 28.7174 38.2275 30.0923 38.1368C30.3205 37.2045 29.2612 34.8257 28.3127 33.9292C27.3653 34.2416 25.6744 35.6175 25.2526 36.2217C25.3695 36.32 26.5982 38.0748 26.8376 38.6347ZM31.768 50.0637C32.1822 51.2637 32.1757 51.943 32.2659 53.3184C33.1982 53.5467 35.5769 52.4873 36.4735 51.5389C36.1605 50.5914 34.7852 48.9006 34.1804 48.4788C34.0822 48.5957 32.3279 49.8244 31.768 50.0637ZM24.4564 35.4804L26.2772 33.843C26.2535 32.8673 24.8197 30.2925 23.589 29.7261C22.3578 30.2925 20.9245 32.8673 20.9004 33.843L22.7212 35.4804C23.0982 35.1825 23.3547 35.0067 23.589 34.9532C23.8229 35.0067 24.0794 35.1825 24.4564 35.4804Z" fill="#4A2706"/>
<path fill-rule="evenodd" clip-rule="evenodd" d="M57.7823 22.8036L59.4197 24.6244C60.3954 24.6007 62.9702 23.1669 63.5366 21.9357C62.9702 20.705 60.3954 19.2712 59.4197 19.247L57.7823 21.0679C58.0801 21.4449 58.256 21.7009 58.3099 21.9352C58.256 22.1706 58.0801 22.4266 57.7823 22.8036ZM45.0415 22.5168L41.1665 27.1694L45.9013 23.306C45.8776 25.533 45.3307 27.0853 44.1237 28.1466C43.147 29.0059 41.2597 29.5865 39.8551 29.5729C38.8023 29.5628 38.7897 29.6056 38.7731 28.578C38.7424 26.7012 39.0876 25.3914 40.1363 24.1592C41.1856 22.9265 43.3552 22.2905 45.0415 22.5168ZM45.868 20.5286L41.2153 16.6536L45.0788 21.3884C42.8517 21.3647 41.2995 20.8179 40.2382 19.6109C39.3789 18.6337 38.7983 16.7469 38.8119 15.3423C38.822 14.2895 38.7787 14.2774 39.8068 14.2603C41.6835 14.2295 42.9933 14.5748 44.225 15.6235C45.4572 16.6728 46.0932 18.8424 45.868 20.5286ZM47.0291 20.5286L51.6818 16.6536L47.8183 21.3884C50.0454 21.3647 51.5976 20.8179 52.659 19.6109C53.5182 18.6337 54.0988 16.7469 54.0852 15.3423C54.0751 14.2895 54.1184 14.2774 53.0903 14.2603C51.2136 14.2295 49.9037 14.5748 48.6715 15.6235C47.4393 16.6728 46.8033 18.8424 47.0291 20.5286ZM47.8556 22.5168L51.7306 27.1694L46.9959 23.306C47.0196 25.533 47.5669 27.0853 48.7734 28.1466C49.7506 29.0059 51.6374 29.5865 53.042 29.5729C54.0948 29.5628 54.1074 29.6056 54.124 28.578C54.1547 26.7012 53.8095 25.3914 52.7608 24.1592C51.7115 22.9265 49.5419 22.2905 47.8556 22.5168ZM43.199 30.1151C41.9985 30.5294 41.3192 30.5228 39.9443 30.6131C39.716 31.5454 40.7754 33.9241 41.7239 34.8207C42.6713 34.5082 44.3621 33.1324 44.7839 32.5281C44.6675 32.4299 43.4384 30.675 43.199 30.1151ZM38.2691 18.6861C37.8549 17.4857 37.8619 16.8068 37.7712 15.432C36.8389 15.2032 34.4601 16.2625 33.5636 17.211C33.876 18.1585 35.2519 19.8493 35.8561 20.2711C35.9544 20.1547 37.7092 18.9255 38.2691 18.6861ZM46.4486 26.927C46.8563 27.8493 47.4242 28.4929 48.6539 29.6757C48.3586 30.7139 46.7338 32.5135 46.4486 32.4893C46.1633 32.514 44.539 30.7139 44.2432 29.6757C45.4729 28.4929 46.0409 27.8493 46.4486 26.927ZM41.4573 21.9357C40.535 22.3439 39.8914 22.9114 38.7086 24.1411C37.6704 23.8453 35.8707 22.221 35.8949 21.9357C35.8702 21.6505 37.6699 20.0262 38.7086 19.7304C39.8914 20.9605 40.535 21.528 41.4573 21.9357ZM49.6976 30.1151C50.8981 30.5294 51.5769 30.5228 52.9523 30.6131C53.1806 31.5454 52.1212 33.9241 51.1727 34.8207C50.2253 34.5082 48.5345 33.1324 48.1127 32.5281C48.2296 32.4299 49.4582 30.675 49.6976 30.1151ZM38.2691 25.1853C37.8549 26.3858 37.8619 27.0646 37.7712 28.4399C36.8389 28.6682 34.4601 27.6094 33.5636 26.6604C33.876 25.713 35.2519 24.0222 35.8561 23.6003C35.9544 23.7172 37.7092 24.9459 38.2691 25.1853ZM47.3164 33.27L49.1372 34.9074C49.113 35.8831 47.6798 38.4583 46.4486 39.0243C45.2179 38.4583 43.7841 35.8831 43.7604 34.9074L45.5812 33.27C45.9582 33.5678 46.2142 33.7432 46.4491 33.7976C46.6829 33.7432 46.9394 33.5673 47.3164 33.27ZM35.1148 22.8036L33.4774 24.6244C32.5017 24.6007 29.9269 23.1669 29.3605 21.9357C29.9269 20.705 32.5017 19.2712 33.4774 19.247L35.1148 21.0679C34.817 21.4449 34.6411 21.7009 34.5871 21.9352C34.6411 22.1706 34.817 22.4266 35.1148 22.8036ZM43.199 13.7563C41.9985 13.342 41.3192 13.3486 39.9443 13.2584C39.716 12.326 40.7754 9.94731 41.7239 9.05075C42.6713 9.36321 44.3621 10.7391 44.7839 11.3438C44.6675 11.4421 43.4384 13.1969 43.199 13.7563ZM54.628 18.6861C55.0422 17.4857 55.0352 16.8068 55.1259 15.432C56.0582 15.2032 58.4369 16.2625 59.3335 17.211C59.021 18.1585 57.6452 19.8493 57.041 20.2711C56.9427 20.1547 55.1879 18.9255 54.628 18.6861ZM46.4486 16.9444C46.8563 16.0222 47.4242 15.3786 48.6539 14.1963C48.3586 13.1581 46.7338 11.3584 46.4486 11.3826C46.1633 11.3579 44.539 13.1576 44.2432 14.1963C45.4729 15.3786 46.0409 16.0222 46.4486 16.9444ZM51.4399 21.9357C52.3621 22.3439 53.0057 22.9114 54.1885 24.1411C55.2267 23.8453 57.0264 22.221 57.0022 21.9357C57.0264 21.6505 55.2267 20.0262 54.1885 19.7304C53.0057 20.9605 52.3621 21.528 51.4399 21.9357ZM49.6976 13.7563C50.8981 13.342 51.5769 13.3486 52.9523 13.2584C53.1806 12.326 52.1212 9.94731 51.1727 9.05075C50.2253 9.36321 48.5345 10.7391 48.1127 11.3438C48.2296 11.4421 49.4582 13.1969 49.6976 13.7563ZM54.628 25.1853C55.0422 26.3858 55.0352 27.0646 55.1259 28.4399C56.0582 28.6682 58.4369 27.6094 59.3335 26.6604C59.021 25.713 57.6452 24.0222 57.041 23.6003C56.9427 23.7172 55.1879 24.9459 54.628 25.1853ZM47.3164 10.602L49.1372 8.96457C49.113 7.98889 47.6798 5.41361 46.4486 4.84766C45.2179 5.41412 43.7841 7.98889 43.7604 8.96457L45.5812 10.602C45.9582 10.3041 46.2142 10.1282 46.4491 10.0743C46.6829 10.1282 46.9394 10.3041 47.3164 10.602Z" fill="#4A2706"/>
</svg>
