<svg width="24" height="24" viewBox="0 0 24 24" fill="none" xmlns="http://www.w3.org/2000/svg">
<path d="M21.1185 19.0125H21.0806L21.0426 19.0088C20.9138 18.9953 20.7876 18.9638 20.6676 18.915L18.0079 17.9723L17.9892 17.9644C17.9316 17.9395 17.8695 17.9272 17.8068 17.9283C17.7474 17.9281 17.6885 17.9388 17.6329 17.9597C17.5696 17.9836 16.9874 18.2025 16.3757 18.3703C16.0443 18.4613 14.8907 18.758 13.9649 18.758C11.5987 18.758 9.38619 17.8486 7.73572 16.1972C6.92991 15.3962 6.29088 14.4434 5.8556 13.3939C5.42032 12.3444 5.19742 11.219 5.19979 10.0828C5.20036 9.49004 5.26432 8.89903 5.39057 8.31985C5.80213 6.41719 6.89338 4.68516 8.46276 3.44485C10.0728 2.18256 12.0602 1.49765 14.106 1.50001C16.5534 1.50001 18.8338 2.43751 20.5279 4.13344C22.1292 5.73985 23.0067 7.85204 22.9996 10.0805C22.9996 11.7372 22.5046 13.3562 21.5779 14.7295L21.5521 14.7656C21.5348 14.7886 21.5184 14.8125 21.5029 14.8383C21.4809 14.8767 21.4654 14.9081 21.456 14.932L22.1934 17.5533C22.2201 17.6434 22.237 17.7361 22.244 17.8298V17.8875C22.244 18.0353 22.2149 18.1816 22.1583 18.3181C22.1018 18.4547 22.0189 18.5787 21.9143 18.6832C21.8098 18.7876 21.6857 18.8705 21.5492 18.927C21.4127 18.9835 21.2663 19.0126 21.1185 19.0125V19.0125ZM18.5451 16.5727L20.5574 17.2856L19.9785 15.2288C19.8848 14.8884 19.9612 14.5017 20.2082 14.0784L20.2129 14.0709C20.2529 14.0037 20.2964 13.9386 20.3432 13.8759C21.0961 12.7525 21.4981 11.4306 21.4982 10.0781C21.5043 8.25001 20.7815 6.51563 19.4639 5.19282C18.0548 3.7786 16.1545 3.00001 14.106 3.00001C10.612 3.00001 7.56322 5.37141 6.85635 8.63813C6.75282 9.1129 6.70033 9.59737 6.69979 10.0833C6.69979 14.04 9.959 17.2594 13.9654 17.2594C14.5528 17.2594 15.4185 17.0794 15.981 16.9252C16.5351 16.7733 17.0812 16.5666 17.106 16.5581C17.5716 16.382 18.0864 16.3872 18.5484 16.5727H18.5451Z" fill="white"/>
<path d="M3.86992 22.5C3.61347 22.4997 3.36466 22.4126 3.16398 22.253L3.14945 22.2412C2.99536 22.112 2.87873 21.9438 2.81171 21.7542C2.74469 21.5646 2.72971 21.3605 2.76836 21.1631C2.90242 20.4666 3.18461 18.9961 3.29055 18.4519V18.4491C2.50925 17.2851 2.0649 15.9278 2.00658 14.5272C1.94827 13.1266 2.27825 11.7371 2.96008 10.5122C3.0568 10.3381 3.2187 10.2096 3.41016 10.155C3.60162 10.1003 3.80697 10.1239 3.98101 10.2206C4.15506 10.3173 4.28356 10.4792 4.33824 10.6707C4.39292 10.8622 4.3693 11.0675 4.27258 11.2416C3.72181 12.2245 3.45508 13.3411 3.50218 14.4669C3.54928 15.5926 3.90835 16.6831 4.5393 17.6166L4.54211 17.6208C4.71508 17.8819 4.88055 18.1983 4.80039 18.5681C4.78117 18.6619 4.56601 19.7747 4.37383 20.7787L6.37492 19.9955C6.73497 19.8527 7.13675 19.8574 7.49336 20.0086C8.34883 20.3405 9.23664 20.5158 10.0621 20.5158H10.0691C11.2518 20.5142 12.4131 20.2005 13.4357 19.6064C13.5211 19.5572 13.6153 19.5252 13.713 19.5124C13.8107 19.4995 13.9099 19.5061 14.0051 19.5316C14.1003 19.5571 14.1895 19.6012 14.2676 19.6612C14.3458 19.7212 14.4114 19.796 14.4606 19.8813C14.5099 19.9667 14.5418 20.0609 14.5547 20.1586C14.5675 20.2563 14.561 20.3556 14.5354 20.4507C14.5099 20.5459 14.4659 20.6351 14.4059 20.7133C14.3459 20.7914 14.2711 20.857 14.1857 20.9062C12.9335 21.6318 11.5121 22.0142 10.0649 22.0148H10.056C9.04351 22.0148 7.96351 21.8025 6.9332 21.4012L6.91258 21.3928L4.29226 22.4166C4.15954 22.4721 4.01706 22.5004 3.8732 22.5H3.86992ZM4.24164 21.4444C4.24164 21.4444 4.24164 21.4444 4.24164 21.4481C4.24164 21.4519 4.24117 21.4453 4.24164 21.4444V21.4444ZM3.33133 18.2447C3.33133 18.2498 3.33133 18.255 3.32805 18.2602C3.32945 18.2531 3.33039 18.248 3.33133 18.2447Z" fill="white"/>
</svg>
