<svg width="14" height="4" viewBox="0 0 14 4" fill="none" xmlns="http://www.w3.org/2000/svg">
<path d="M2 4C1.46957 4 0.960859 3.78929 0.585786 3.41421C0.210714 3.03914 0 2.53043 0 2C0 1.46957 0.210714 0.960859 0.585786 0.585786C0.960859 0.210714 1.46957 0 2 0C2.53043 0 3.03914 0.210714 3.41421 0.585786C3.78929 0.960859 4 1.46957 4 2C4 2.53043 3.78929 3.03914 3.41421 3.41421C3.03914 3.78929 2.53043 4 2 4ZM11.3333 4C10.8029 4 10.2942 3.78929 9.91912 3.41421C9.54405 3.03914 9.33333 2.53043 9.33333 2C9.33333 1.46957 9.54405 0.960859 9.91912 0.585786C10.2942 0.210714 10.8029 0 11.3333 0C11.8638 0 12.3725 0.210714 12.7475 0.585786C13.1226 0.960859 13.3333 1.46957 13.3333 2C13.3333 2.53043 13.1226 3.03914 12.7475 3.41421C12.3725 3.78929 11.8638 4 11.3333 4ZM6.66667 4C6.13623 4 5.62753 3.78929 5.25245 3.41421C4.87738 3.03914 4.66667 2.53043 4.66667 2C4.66667 1.46957 4.87738 0.960859 5.25245 0.585786C5.62753 0.210714 6.13623 0 6.66667 0C7.1971 0 7.70581 0.210714 8.08088 0.585786C8.45595 0.960859 8.66667 1.46957 8.66667 2C8.66667 2.53043 8.45595 3.03914 8.08088 3.41421C7.70581 3.78929 7.1971 4 6.66667 4Z" fill="#9F7148"/>
</svg>
